<?xml version="1.0" encoding="utf-8"?>
<!-- Generator: Adobe Illustrator 25.4.1, SVG Export Plug-In . SVG Version: 6.00 Build 0)  -->
<svg version="1.1" id="Layer_1" xmlns="http://www.w3.org/2000/svg" xmlns:xlink="http://www.w3.org/1999/xlink" x="0px" y="0px"
	 viewBox="0 0 1257.4 259.1" style="enable-background:new 0 0 1257.4 259.1;" xml:space="preserve">
<style type="text/css">
	.st0{opacity:6.000000e-02;fill:#162A75;}
</style>
<path id="ribbon" class="st0" d="M1050.8,184.7c-3.6,13.5-15.2,20.6-29.2,20.6c-17.9,0-30.3-14.9-30.3-32.6
	c0-20,12.6-33.8,31.5-34.3c14.1-0.4,23.8,6.6,27.6,17.9l-11.4,1.2c-2.9-6.7-8.4-8.9-15.7-8.7c-12.6,0.3-20.7,9.6-20.7,23.6
	c0,12.5,6.8,22.5,19.3,22.5c7.7,0,13.9-2.3,17-9.4L1050.8,184.7z M811.1,140.2c0,12.4-10.5,18.9-26.5,14.6
	c-15.2-4.1-24.9-14.1-26.9-27.1l13.3,5.2c2.2,5.9,6.8,9.9,14,11.9c7.8,2.1,15.2,1.5,15.2-6.7c0-7-5.7-9.8-17.2-15.6
	c-14.1-7-24.5-11.4-24.5-26.3c0-11.8,10.4-17.2,24.6-13.3c10.2,2.8,23.5,8.6,25.8,26.2l-12.5-5.4c-3.1-7.7-10.9-10.5-13.7-11.3
	c-6.7-1.8-13.4-1.1-13.4,5.8c0,6.8,5.5,9.3,18.3,15.7C800.8,120.3,811.1,125.4,811.1,140.2L811.1,140.2z M458.3,117.3v-15.3
	l16.9-7.2c5.5-2.2,10.6-2.6,10.6,3.2c0,4.9-5.3,10.5-13,13.5L458.3,117.3z M458.3,145.9v-17.5l17-6.7c5.6-2.2,13.1-2.5,13.1,3.5
	c0,5.8-4.1,10.5-11.9,13.6L458.3,145.9z M487.5,112c6.8-5.1,9.8-13.4,8.6-19.4c-1.7-8.5-11.2-11.8-24.3-6.6l-24.6,9.1V161l30.4-12.2
	c14.4-5.7,21.5-14.5,21.5-25.3C499.1,116.8,494.2,111.8,487.5,112L487.5,112z M585,120.3c-17.4,2.1-33.4,5.3-48.6,9.4v-64
	c14.4-3.2,29.9-5.8,46.9-7.4c0.1,3.6,0.1,7.1,0.2,10.7c-12.2,0.6-24.6,2.4-36.9,5.4v15c10.5-2.4,21.1-4,31.6-4.6V95
	c-10.5,0.7-21.1,2.2-31.6,4.6v16.9c12.8-3.4,25.8-5.5,38.6-6.4C585.1,113.5,585,116.9,585,120.3L585,120.3z M652.7,83.6
	c-5.7-0.4-10.5-0.7-15.4-0.8V66.2c5.2,0,10.1,0.2,15.8,0.4c10.3,0.8,14.7,3.8,14.7,10C667.8,83.4,659.6,84.1,652.7,83.6L652.7,83.6z
	 M678.7,77c0-11.4-7.6-18.9-23.6-20.5c-6.4-0.4-22.9-1-29.4-0.6v61.9c0.7,0,1.4,0,2.1,0c2.9,0,5.6,0.1,8.4,0.1V92.8
	c5.2,0.2,10.3,0.4,15.5,0.8c5.4,8.6,10.8,17.4,16.2,26.4c4.4,0.5,8.7,1.1,12.9,1.7c-5.8-9.7-11.7-19.1-17.5-28.4
	C674,91.4,678.7,84.4,678.7,77L678.7,77z M956,138.5v62c-3.7-0.3-7.2-0.8-10.8-1.2l-39.4-54.1l-0.2,0.1l0.1,47.7
	c-3.6-0.7-7.1-1.5-10.5-2.3v-63.6c4.2,1.1,8.5,2.2,12.9,3.2l37.5,51.8l0.2-0.1l-0.2-44.9C949,137.8,952.5,138.2,956,138.5L956,138.5
	z M198.4,137.4v62.2c-3.6-0.5-7.1-1-10.7-1.6c0.1-15.4,0.1-30.9,0.2-46.3c0-0.7,0-1.4,0-2.1c0,0-0.8,2.7-2,4.8
	c-7.9,13.1-15.7,26-23.6,38.8c-3.4-0.8-6.7-1.7-10.1-2.5c-7-17.1-14.1-34.3-21.1-51.6c-0.9-2-1.5-5.3-1.5-5.3c0,0.7,0,1.4,0,2
	c0,16.1,0.1,32.2,0.1,48.4c-3.5-1.1-7-2.2-10.5-3.5v-66.1c5.1,2.3,10.3,4.3,15.6,6.3c8,19.4,15.9,38.7,23.9,57.9
	c0.1,0.4,0.2,0.7,0.4,1.1c0.1-0.3,0.3-0.5,0.4-0.8c8.3-14.4,16.7-28.9,25-43.7c1.2,0.1,2.4,0.5,3.6,0.6
	C191.6,136.6,195,136.8,198.4,137.4L198.4,137.4z M1087.2,194.4v-63.1c16.4-4.1,32.4-9.5,47.7-16.2c0.1,3.8,0.1,7.6,0.2,11.4
	c-12.5,5-25,9.3-37.5,12.8v15.4c10.7-2.9,21.5-6.3,32.2-10.3v10.8c-10.7,4-21.5,7.4-32.2,10.3V182c13.1-3.2,26.2-7.2,39.2-12.1
	c0,3.5-0.1,7.1-0.1,10.6C1120.5,186.3,1104,190.9,1087.2,194.4L1087.2,194.4z M846.9,176.6v-65.4c3.5,1.3,7,2.6,10.6,3.9v65
	C853.9,179,850.4,177.8,846.9,176.6L846.9,176.6z M392.6,117.3c5.1-1.8,10.1-3.6,15-5.5v65.4c-3.5,1.2-7.1,2.4-10.7,3.6
	c0.1-15.8,0.1-31.6,0.2-47.4c0-0.7,0-1.3,0-2c0,0-0.3,1.7-1,3.7c-7.9,17.8-15.7,35.4-23.6,52.8c-3.1,0.8-6.2,1.6-9.4,2.3
	c-7.7-13.8-15.4-27.7-23.1-41.7c-0.9-1.5-1.2-3.5-1.2-3.5c0,0.6,0,1.2,0,1.8c0,16.2,0.1,32.3,0.1,48.5c-3.5,0.6-6.9,1.2-10.5,1.8
	v-62.6c5-0.9,9.8-1.9,14.6-2.9c7.7,14.1,15.3,28.1,23,41.9c0.3,0.8,0.7,1.6,1,2.3c0.1,0,0.2-0.1,0.3-0.1c0.3-0.7,0.5-1.5,0.8-2.2
	C376.3,154.9,384.5,136.2,392.6,117.3L392.6,117.3z M291.5,191c-0.1,3.4-0.1,6.8-0.2,10.2c-13.5,1-27.8,1.6-43.1,1.6
	c-3.3,0-6.5-0.2-9.8-0.3V141c3.3,0.1,6.5,0.3,9.8,0.3c14.7,0,28.3-0.7,41.2-1.8c0.1,3.5,0.1,6.9,0.2,10.4c-13.5,1.2-27,1.8-40.5,1.7
	v15c11.6,0.2,23.2-0.1,34.8-0.9V176c-11.6,0.8-23.2,1.1-34.8,0.9v15.5C263.3,192.7,277.4,192.2,291.5,191L291.5,191z M1007.7,248.8
	c-192.3,0-247-85.1-379.7-85.1c-132.7,0-187.4,85.1-379.7,85.1c-85.8,0-167.7-24.8-237.1-71.9L71.5,30.2
	c47.6,42.1,110.1,65.2,176.7,65.2c164.1,0,197.4-85.1,379.7-85.1c182.2,0,215.6,85.1,379.7,85.1c66.7,0,129.1-23.1,176.7-65.2
	l60.4,146.7C1175.3,223.9,1093.5,248.8,1007.7,248.8L1007.7,248.8z M1007.7,85.1C846.5,85.1,812.6,0,627.9,0
	C443.3,0,409.3,85.1,248.2,85.1c-68,0-128-23.1-180.6-72.6L-1.6,180.7c76.7,53.1,160.9,78.4,249.8,78.4
	c194.6,0,249.9-85.1,379.7-85.1c129.8,0,185.1,85.1,379.7,85.1c88.7,0,172.9-25.2,249.8-78.4l-69.2-168.1
	C1135.6,62,1075.7,85.1,1007.7,85.1L1007.7,85.1z M1007.7,222.6c-191.5,0-235.1-85.1-379.7-85.1c-144.7,0-188.2,85.1-379.7,85.1
	c-69.3,0-136.9-17.6-196-51L93.8,79c45.8,27.9,99.1,42.6,154.4,42.6c170.3,0,204.7-85.1,379.7-85.1c175.1,0,209.4,85.1,379.7,85.1
	c55.3,0,108.6-14.7,154.4-42.6l41.6,92.6C1144.6,205,1076.9,222.6,1007.7,222.6L1007.7,222.6z M1007.7,111.3
	c-167.9,0-201.7-85.1-379.7-85.1c-178,0-211.7,85.1-379.7,85.1c-60.8,0-111.6-17.2-159-47.4L39,175.9c66,38.3,135.4,57,209.2,57
	c193.1,0,238.5-85.1,379.7-85.1c141.1,0,186.7,85.1,379.7,85.1c73.8,0,143.2-18.7,209.2-57l-50.3-112
	C1119.4,94,1068.6,111.3,1007.7,111.3L1007.7,111.3z"/>
</svg>
