<?xml version="1.0" encoding="utf-8"?>
<!-- Generator: Adobe Illustrator 26.0.1, SVG Export Plug-In . SVG Version: 6.00 Build 0)  -->
<svg version="1.1" id="Layer_1" xmlns="http://www.w3.org/2000/svg" xmlns:xlink="http://www.w3.org/1999/xlink" x="0px" y="0px"
	 viewBox="0 0 41 30" style="enable-background:new 0 0 41 30;" xml:space="preserve">
<style type="text/css">
	.st0{fill:#FFFFFF;}
</style>
<path id="Card" class="st0" d="M38,0c1.4,0,2.5,1.1,2.5,2.5v25c0,1.4-1.1,2.5-2.5,2.5H3c-1.4,0-2.5-1.1-2.5-2.5v-25
	C0.5,1.1,1.6,0,3,0H38z M38,10H3v17.5h35V10z M13,15c1.4,0,2.5,1.1,2.5,2.5V20c0,1.4-1.1,2.5-2.5,2.5H8c-1.4,0-2.5-1.1-2.5-2.5v-2.5
	C5.5,16.1,6.6,15,8,15H13z M13,17.5H8V20h5V17.5z M38,2.5H3v5h35V2.5z"/>
</svg>
