<?xml version="1.0" encoding="UTF-8"?>
<svg width="52px" height="52px" viewBox="0 0 52 52" version="1.1" xmlns="http://www.w3.org/2000/svg" xmlns:xlink="http://www.w3.org/1999/xlink">
    <title>Group 9</title>
    <defs>
        <filter id="filter-1">
            <feColorMatrix in="SourceGraphic" type="matrix" values="0 0 0 0 0.000000 0 0 0 0 0.090196 0 0 0 0 0.352941 0 0 0 1.000000 0"></feColorMatrix>
        </filter>
        <polygon id="path-2" points="0 0 12.0803936 0 12.0803936 16.3375342 0 16.3375342"></polygon>
        <polygon id="path-4" points="0 0 7.88448387 0 7.88448387 8.76698364 0 8.76698364"></polygon>
    </defs>
    <g id="PAGE" stroke="none" stroke-width="1" fill="none" fill-rule="evenodd">
        <g id="design_DT_Points" transform="translate(-385.000000, -1504.000000)">
            <g id="Group-4" transform="translate(102.000000, 1470.000000)">
                <g id="Group-9" transform="translate(283.000000, 34.000000)">
                    <circle id="Oval" fill="#FFFFFF" cx="26" cy="26" r="26"></circle>
                    <g id="icon/percent-copy-2" transform="translate(6.000000, 6.000000)" filter="url(#filter-1)">
                        <g>
                            <path d="M37.5047344,18.5416665 C38.1618647,18.5416665 38.7018929,19.0430399 38.7631518,19.6841197 L38.768939,19.805871 L38.768939,20.648674 C38.768939,31.0169571 30.4478363,39.4417426 20.11946,39.6092015 L19.805871,39.611742 L19.4416008,39.6082659 C13.9841248,39.5040861 8.83232402,37.0627552 5.29581322,32.9048724 L5.05681812,32.6190053 L5.05681812,34.1335223 C5.05681812,34.7906526 4.55544465,35.3306808 3.91436493,35.3919397 L3.79261359,35.3977269 C3.13548335,35.3977269 2.59545516,34.8963534 2.53419624,34.2552737 L2.52840906,34.1335223 L2.52840906,29.0767042 C2.52840906,28.8689146 2.57854002,28.6728337 2.66736721,28.4998963 L2.72468102,28.3998435 L2.78121079,28.3180668 L2.85519927,28.2284402 L2.93426652,28.148524 L3.00281356,28.0895705 L3.08874105,28.0264618 L3.18868387,27.9658188 L3.2121425,27.9533526 C3.28263085,27.9168667 3.35689228,27.886843 3.43420884,27.864025 L3.59295751,27.8281562 L3.70448849,27.8154723 L3.75845724,27.8129013 L8.84943172,27.8124997 C9.5476326,27.8124997 10.1136362,28.3785033 10.1136362,29.0767042 C10.1136362,29.7338345 9.61226278,30.2738627 8.97118305,30.3351216 L8.84943172,30.3409088 L6.46008515,30.3409088 L7.01933388,31.0240599 C10.0841755,34.7699774 14.6332178,36.979012 19.4606008,37.0797319 L19.805871,37.0833329 C28.7859228,37.0833329 36.0837812,29.881007 36.2380385,20.9377628 L36.2405299,20.648674 L36.2405299,19.805871 C36.2405299,19.1076701 36.8065335,18.5416665 37.5047344,18.5416665 Z M19.805871,1.68560604 L20.1673634,1.68914962 C25.0990692,1.78585745 29.7865418,3.85821384 33.1770685,7.44053049 L33.4289097,7.71202814 L34.5549239,8.95056808 L34.5549239,7.16382568 C34.5549239,6.50669543 35.0562973,5.96666724 35.6973771,5.90540832 L35.8191284,5.89962115 C36.4762586,5.89962115 37.0162868,6.40099462 37.0775457,7.04207434 L37.0833329,7.16382568 L37.0819186,12.2804522 L37.0699297,12.4045944 L37.0547784,12.4890668 L37.0076109,12.6523464 L36.9599568,12.7661409 L36.8997511,12.8773805 L36.8169987,12.9969259 L36.7474247,13.0789162 L36.6695244,13.1560794 L36.6260312,13.1938884 L36.531495,13.2652208 L36.4287478,13.3284824 L36.3214764,13.3811306 L36.2193124,13.4201718 L36.0950171,13.4546 L36.002767,13.4715754 L35.8803114,13.4834022 L35.8191284,13.4848483 L30.7623103,13.4848483 C30.0641094,13.4848483 29.4981057,12.9188447 29.4981057,12.2206438 C29.4981057,11.5635136 29.9994792,11.0234854 30.6405589,10.9622264 L30.7623103,10.9564393 L32.9611833,10.9564393 L31.5580385,9.41282013 C28.627148,6.18884057 24.504432,4.31435301 20.1586974,4.21792844 L19.805871,4.2140151 L19.5167822,4.21650652 C10.669702,4.36910512 3.5263021,11.512505 3.3737035,20.3595852 L3.37121208,20.648674 L3.37121208,21.491477 C3.37121208,22.1896779 2.80520844,22.7556816 2.10700755,22.7556816 C1.44987731,22.7556816 0.909849115,22.2543081 0.848590194,21.6132284 L0.842803021,21.491477 L0.842803021,20.648674 C0.842803021,10.2803909 9.16390565,1.85560543 19.492282,1.68814655 L19.805871,1.68560604 Z" id="Shape" fill="#757679" fill-rule="nonzero"></path>
                            <g id="Group-5" transform="translate(10.113636, 11.799242)">
                                <g id="Group-3" transform="translate(3.342936, 0.000000)">
                                    <mask id="mask-3" fill="white">
                                        <use xlink:href="#path-2"></use>
                                    </mask>
                                    <g id="Clip-2"></g>
                                    <path d="M1.07113436,16.3375342 C0.858940034,16.3375342 0.644602331,16.2746618 0.45741407,16.1439158 C-0.0277035993,15.8045478 -0.145589336,15.1358142 0.193778694,14.651411 L10.1304746,0.456539309 C10.4698427,-0.0278639015 11.1371474,-0.145749638 11.6229795,0.193618392 C12.1080972,0.532986423 12.2259829,1.2010056 11.8866149,1.68612327 L1.94991895,15.8802805 C1.74129691,16.1782099 1.40907347,16.3375342 1.07113436,16.3375342" id="Fill-1" fill="#757679" mask="url(#mask-3)"></path>
                                </g>
                                <path d="M14.82431,9.7134275 C13.8326409,9.7134275 13.0253022,10.7179569 13.0253022,11.953971 C13.0253022,13.1892706 13.8326409,14.1938 14.82431,14.1938 C15.8159791,14.1938 16.6233178,13.1892706 16.6233178,11.953971 C16.6233178,10.7179569 15.8159791,9.7134275 14.82431,9.7134275 M14.82431,16.337177 C12.6509257,16.337177 10.8819252,14.3709858 10.8819252,11.953971 C10.8819252,9.53695612 12.6509257,7.57005046 14.82431,7.57005046 C16.9976944,7.57005046 18.7666949,9.53695612 18.7666949,11.953971 C18.7666949,14.3709858 16.9976944,16.337177 14.82431,16.337177" id="Fill-4" fill="#757679"></path>
                                <g id="Group-8" transform="translate(0.000000, 0.000000)">
                                    <mask id="mask-5" fill="white">
                                        <use xlink:href="#path-4"></use>
                                    </mask>
                                    <g id="Clip-7"></g>
                                    <path d="M3.94209904,2.14323414 C2.95042994,2.14323414 2.14309125,3.14776351 2.14309125,4.38377761 C2.14309125,5.61907724 2.95042994,6.62360661 3.94209904,6.62360661 C4.93376815,6.62360661 5.74110684,5.61907724 5.74110684,4.38377761 C5.74110684,3.14776351 4.93376815,2.14323414 3.94209904,2.14323414 M3.94209904,8.76698364 C1.76871473,8.76698364 -0.000285783605,6.80079244 -0.000285783605,4.38377761 C-0.000285783605,1.96676277 1.76871473,-0.000142891802 3.94209904,-0.000142891802 C6.11548336,-0.000142891802 7.88448387,1.96676277 7.88448387,4.38377761 C7.88448387,6.80079244 6.11548336,8.76698364 3.94209904,8.76698364" id="Fill-6" fill="#757679" mask="url(#mask-5)"></path>
                                </g>
                            </g>
                        </g>
                    </g>
                </g>
            </g>
        </g>
    </g>
</svg>