<?xml version="1.0" encoding="utf-8"?>
<!-- Generator: Adobe Illustrator 25.4.1, SVG Export Plug-In . SVG Version: 6.00 Build 0)  -->
<svg version="1.1" id="Layer_1" xmlns="http://www.w3.org/2000/svg" xmlns:xlink="http://www.w3.org/1999/xlink" x="0px" y="0px"
	 viewBox="0 0 50 50" style="enable-background:new 0 0 50 50;" xml:space="preserve">
<style type="text/css">
	.st0{fill:#FFFFFF;}
</style>
<path id="Shape" class="st0" d="M25,1.6c6.3,0,12.2,2.6,16.5,7.1L41.8,9l1.4,1.5V8.3c0-0.8,0.6-1.5,1.4-1.6l0.2,0
	c0.8,0,1.5,0.6,1.6,1.4l0,0.2l0,6.3l0,0.2l0,0.1l-0.1,0.2l-0.1,0.1l-0.1,0.1L46,15.5l-0.1,0.1l-0.1,0.1l-0.1,0l-0.1,0.1L45.5,16
	L45.4,16l-0.1,0l-0.2,0l-0.1,0l-0.2,0l-0.1,0h-6.2c-0.9,0-1.6-0.7-1.6-1.6c0-0.8,0.6-1.5,1.4-1.6l0.2,0h2.7l-1.7-1.9
	c-3.6-4-8.7-6.3-14.1-6.4l-0.4,0C13.8,4.7,4.7,13.8,4.7,25S13.8,45.3,25,45.3c11.1,0,20.1-8.9,20.3-20l0-0.4v-1
	c0-0.9,0.7-1.6,1.6-1.6c0.8,0,1.5,0.6,1.6,1.4l0,0.2v1c0,12.9-10.5,23.4-23.4,23.4S1.6,37.9,1.6,25S12.1,1.6,25,1.6z M24.9,10.9
	c0.9,0,1.6,0.7,1.6,1.6v2.2c2.5,0.3,4.7,1.9,5.8,4.2l0.2,0.4c0.2,0.4,0.1,0.9-0.1,1.2s-0.7,0.6-1.1,0.6c-0.4,0-0.8-0.2-1.1-0.6
	L30,20.4c-0.9-2.1-3.1-3.5-5.4-3.3c-2.5,0-4.2,1.1-4.2,2.8c0,2,1.2,2.7,5.5,3.9l0.6,0.2c4,1.2,6.4,2.7,6.4,6c0,3.1-2.6,5.3-6.5,5.7
	v2.1c0,0.9-0.7,1.6-1.6,1.6s-1.6-0.7-1.6-1.6v-2.2c-3-0.4-5.5-2.4-6.5-5.2l-0.1-0.2c0-0.1-0.1-0.3-0.1-0.4c0-0.6,0.5-1.2,1-1.3
	c0.6-0.1,1.2,0.1,1.5,0.7l0.1,0.2c0.9,2.5,3.3,4.1,5.9,3.9c3,0,4.8-1.2,4.8-3.1c0-1.9-1.2-2.8-5.3-4l-0.6-0.2
	c-3.9-1.2-6.7-2.4-6.7-5.9c0-2.8,2.4-5,5.8-5.4v-2.1C23.3,11.6,24,10.9,24.9,10.9z"/>
</svg>
