<?xml version="1.0" encoding="utf-8"?>
<!-- Generator: Adobe Illustrator 26.0.1, SVG Export Plug-In . SVG Version: 6.00 Build 0)  -->
<svg version="1.1" id="Layer_1" xmlns="http://www.w3.org/2000/svg" xmlns:xlink="http://www.w3.org/1999/xlink" x="0px" y="0px"
	 viewBox="0 0 47 47" style="enable-background:new 0 0 47 47;" xml:space="preserve">
<style type="text/css">
	.st0{fill:#FFFFFF;}
</style>
<path class="st0" d="M46.9,22.3c-0.1-0.8-0.7-1.4-1.6-1.4c-0.9,0-1.6,0.7-1.6,1.6v1v0.4c-0.2,11.1-9.2,20-20.3,20H23
	c-6-0.1-11.6-2.9-15.4-7.5L7,35.5h3h0.2c0.8-0.1,1.4-0.7,1.4-1.6c0-0.9-0.7-1.6-1.6-1.6H3.7H3.6H3.5H3.3c-0.1,0-0.2,0.1-0.3,0.1l0,0
	l-0.1,0.1l-0.1,0.1l-0.1,0.1l-0.1,0.1L2.4,33l-0.1,0.1l-0.1,0.1C2.1,33.4,2,33.7,2,33.9v6.2v0.2c0.1,0.8,0.7,1.4,1.6,1.4h0.2
	c0.8-0.1,1.4-0.7,1.4-1.6v-1.9l0.3,0.4C9.9,43.8,16.3,46.8,23,47h0.5h0.4c12.8-0.2,23-10.6,23-23.4v-1V22.3z M3.2,24.6v-1v-0.4
	c0.2-10.9,9-19.8,20-20h0.4H24c5.3,0.1,10.4,2.4,14,6.4l1.7,1.9H37h-0.2c-0.8,0.1-1.4,0.7-1.4,1.6c0,0.9,0.7,1.6,1.6,1.6h6.2h0.1
	h0.2h0.1h0.2h0.1l0.1-0.1l0.1-0.1l0.1-0.1h0.1l0.1-0.1l0.1-0.1l0.1-0.1l0.1-0.1l0.1-0.1l0.1-0.2v-0.1v-0.2V7.1V6.9
	c-0.1-0.8-0.7-1.4-1.6-1.4h-0.2c-0.8,0.1-1.4,0.7-1.4,1.6v2.2l-1.4-1.5L40,7.2c-4.2-4.4-10-7-16.1-7.1h-0.4h-0.4
	C10.3,0.3,0,10.7,0,23.5v1v0.2c0.1,0.8,0.7,1.4,1.6,1.4S3.2,25.4,3.2,24.6z M18.1,11.1c-0.8,0-1.5,0.7-1.5,1.5v2.3h-1
	c-0.8,0-1.5,0.7-1.5,1.5v16.2c0,0.8,0.7,1.5,1.5,1.5h16.8c0.8,0,1.5-0.7,1.5-1.5V16.4c0-0.8-0.7-1.5-1.5-1.5h-1v-2.3
	c0-0.8-0.7-1.5-1.5-1.5s-1.5,0.7-1.5,1.5v2.3h-8.9v-2.3C19.6,11.8,19,11.1,18.1,11.1z M17.2,31.1V20.6H31v10.6H17.2V31.1z"/>
</svg>
