<?xml version="1.0" encoding="utf-8"?>
<!-- Generator: Adobe Illustrator 25.4.1, SVG Export Plug-In . SVG Version: 6.00 Build 0)  -->
<svg version="1.1" id="Layer_1" xmlns="http://www.w3.org/2000/svg" xmlns:xlink="http://www.w3.org/1999/xlink" x="0px" y="0px"
	 viewBox="0 0 50 50" style="enable-background:new 0 0 50 50;" xml:space="preserve">
<style type="text/css">
	.st0{fill:#FFFFFF;}
</style>
<g id="PAGE">
	<g id="design_DT_FundAccount" transform="translate(-695.000000, -1025.000000)">
		<g id="Group-8-Copy" transform="translate(119.000000, 881.000000)">
			<g id="Group-7" transform="translate(453.000000, 143.000000)">
				<g id="icon_x2F_addFunds-Copy" transform="translate(122.000000, 0.000000)">
					<g>
						<path id="Recent-Points" class="st0" d="M26,2.6c6.3,0,12.2,2.6,16.5,7.1l0.3,0.3l1.4,1.5V9.3c0-0.8,0.6-1.5,1.4-1.6l0.2,0
							c0.8,0,1.5,0.6,1.6,1.4l0,0.2l0,6.3l0,0.2l0,0.1l-0.1,0.2l-0.1,0.1l-0.1,0.1L47,16.5l-0.1,0.1l-0.1,0.1l-0.1,0l-0.1,0.1
							L46.5,17L46.4,17l-0.1,0l-0.2,0l-0.1,0l-0.2,0l-0.1,0h-6.2c-0.9,0-1.6-0.7-1.6-1.6c0-0.8,0.6-1.5,1.4-1.6l0.2,0h2.7l-1.7-1.9
							c-3.6-4-8.7-6.3-14.1-6.4l-0.4,0C14.8,5.7,5.7,14.8,5.7,26S14.8,46.3,26,46.3c11.1,0,20.1-8.9,20.3-20l0-0.4v-1
							c0-0.9,0.7-1.6,1.6-1.6c0.8,0,1.5,0.6,1.6,1.4l0,0.2v1c0,12.9-10.5,23.4-23.4,23.4S2.6,38.9,2.6,26S13.1,2.6,26,2.6z
							 M26.4,13.6L26.4,13.6l10.4,7.7c0.6,0.5,0.3,1.4-0.4,1.5l-0.1,0H35v12h1.6c0.5,0,0.8,0.4,0.8,0.8s-0.4,0.8-0.8,0.8H15.4
							c-0.5,0-0.8-0.4-0.8-0.8s0.4-0.8,0.8-0.8H17v-12h-1.4c-0.8,0-1.1-0.9-0.5-1.4l0.1,0l10.4-7.6l0,0
							C25.8,13.5,26.1,13.4,26.4,13.6z M20.3,22.8h-1.6v12h1.6V22.8z M23.5,22.8h-1.6v12h1.6V22.8z M26.8,22.8h-1.6v12h1.6V22.8z
							 M30.1,22.8h-1.6v12h1.6V22.8z M33.4,22.8h-1.6v12h1.6V22.8z M26,15.3l-7.9,5.8h15.8L26,15.3z M26,17.6c0.6,0,1.1,0.5,1.1,1.1
							s-0.5,1.1-1.1,1.1s-1.1-0.5-1.1-1.1S25.4,17.6,26,17.6z"/>
					</g>
				</g>
			</g>
		</g>
	</g>
</g>
</svg>
