<?xml version="1.0" encoding="utf-8"?>
<!-- Generator: Adobe Illustrator 25.4.1, SVG Export Plug-In . SVG Version: 6.00 Build 0)  -->
<svg version="1.1" id="Layer_1" xmlns="http://www.w3.org/2000/svg" xmlns:xlink="http://www.w3.org/1999/xlink" x="0px" y="0px"
	 viewBox="0 0 50 50" style="enable-background:new 0 0 50 50;" xml:space="preserve">
<style type="text/css">
	.st0{fill:#FFFFFF;}
</style>
<g id="PAGE">
	<g id="design_DT_FundAccount" transform="translate(-346.000000, -1026.000000)">
		<g id="Group-8-Copy" transform="translate(119.000000, 881.000000)">
			<g id="Group-5" transform="translate(97.000000, 143.000000)">
				<g id="icon_x2F_transfer-copy" transform="translate(123.000000, 0.000000)">
					<g>
						<path id="Change" class="st0" d="M25.8,29.5c0.6,0.6,0.6,1.5,0.1,2.1l-6.3,6.3h28.5c0.9,0,1.6,0.7,1.6,1.6
							c0,0.8-0.6,1.5-1.4,1.6l-28.7,0l6.2,6.2c0.6,0.6,0.6,1.6,0,2.2c-0.3,0.3-0.7,0.5-1.1,0.5c-0.4,0-0.7-0.1-1-0.4l-9-9
							c-0.6-0.6-0.6-1.5-0.1-2.1l8.9-9C24.2,28.9,25.2,28.9,25.8,29.5z M38.2,4.5c0.6-0.6,1.5-0.6,2.1-0.1l9.1,9.1
							c0.5,0.6,0.5,1.4,0,2l-8.9,9c-0.3,0.3-0.7,0.5-1.1,0.5c-0.4,0-0.8-0.2-1.1-0.5c-0.6-0.6-0.6-1.5-0.1-2.1l6.3-6.3H15.9
							c-0.9,0-1.6-0.7-1.6-1.6c0-0.8,0.6-1.5,1.4-1.6l28.7,0l-6.2-6.2C37.6,6.1,37.6,5.2,38.2,4.5z"/>
					</g>
				</g>
			</g>
		</g>
	</g>
</g>
</svg>
