<?xml version="1.0" encoding="utf-8"?>
<!-- Generator: Adobe Illustrator 26.0.1, SVG Export Plug-In . SVG Version: 6.00 Build 0)  -->
<svg version="1.1" id="Layer_1" xmlns="http://www.w3.org/2000/svg" xmlns:xlink="http://www.w3.org/1999/xlink" x="0px" y="0px"
	 viewBox="0 0 49 49" style="enable-background:new 0 0 49 49;" xml:space="preserve">
<style type="text/css">
	.st0{fill:#FFFFFF;}
</style>
<path class="st0" d="M45,27.7c-0.8,0-1.5,0.7-1.5,1.5v7.5H5.7l6.6-6.6c0.6-0.6,0.6-1.5,0-2.1s-1.5-0.6-2.1,0L1,37.2c0,0,0,0,0,0.1
	s-0.1,0.1-0.1,0.2c0,0,0,0.1-0.1,0.1l-0.1,0.1c0,0.1,0,0.1-0.1,0.2V38c0,0.1,0,0.2,0,0.3s0,0.2,0,0.3v0.1c0,0.1,0,0.1,0.1,0.2
	c0,0,0,0.1,0.1,0.1c0,0,0,0.1,0.1,0.1c0-0.1,0.1,0,0.1,0.1c0,0,0,0,0.1,0.1l9.2,9.2c0.3,0.3,0.7,0.4,1.1,0.4s0.8-0.1,1.1-0.4
	c0.6-0.6,0.6-1.5,0-2.1l-6.6-6.6H45c0.8,0,1.5-0.7,1.5-1.5v-9C46.5,28.3,45.9,27.7,45,27.7z M47.9,12.1L48,12c0,0,0-0.1,0.1-0.1
	c0-0.1,0.1-0.1,0.1-0.2c0,0,0,0,0-0.1s0-0.2,0-0.3s0-0.2,0-0.3l0,0c0-0.1,0-0.2-0.1-0.3l0,0c-0.1-0.2-0.2-0.3-0.3-0.4L38.6,1
	C38,0.4,37,0.4,36.4,1s-0.6,1.5,0,2.1L43,9.7H3.8c-0.8,0-1.5,0.7-1.5,1.5v9c0,0.8,0.7,1.5,1.5,1.5s1.5-0.7,1.5-1.5v-7.5h37.8
	l-6.6,6.6c-0.6,0.6-0.6,1.5,0,2.1c0.3,0.3,0.7,0.4,1.1,0.4s0.8-0.1,1.1-0.4l9.2-9.2C47.9,12.2,47.9,12.1,47.9,12.1
	C47.9,12.2,47.9,12.2,47.9,12.1z"/>
</svg>
