<?xml version="1.0" encoding="utf-8"?>
<!-- Generator: Adobe Illustrator 25.4.1, SVG Export Plug-In . SVG Version: 6.00 Build 0)  -->
<svg version="1.1" id="Layer_1" xmlns="http://www.w3.org/2000/svg" xmlns:xlink="http://www.w3.org/1999/xlink" x="0px" y="0px"
	 viewBox="0 0 35 40" style="enable-background:new 0 0 35 40;" xml:space="preserve">
<style type="text/css">
	.st0{fill:#FFFFFF;}
</style>
<path id="Rewards" class="st0" d="M19,0.4l0.2,0.1l14.1,8.3c1,0.6,1.6,1.6,1.7,2.8l0,0.2v16.6c0,1.2-0.6,2.2-1.5,2.9l-0.2,0.1
	l-14.1,8.3c-0.5,0.3-1.1,0.5-1.7,0.5c-0.5,0-1-0.1-1.5-0.4l-0.2-0.1L1.7,31.3c-1-0.6-1.6-1.6-1.7-2.8l0-0.2V11.7
	c0-1.2,0.6-2.2,1.5-2.9l0.2-0.1l14.1-8.3c0.9-0.5,2.1-0.6,3-0.2L19,0.4z M17.5,2.5c-0.1,0-0.2,0-0.4,0.1L17,2.6L3,10.9
	c-0.3,0.1-0.4,0.4-0.5,0.7l0,0.1v16.6c0,0.3,0.1,0.6,0.4,0.7L3,29.1L17,37.4c0.2,0.1,0.6,0.2,0.8,0l0.1,0L32,29.1
	c0.3-0.1,0.4-0.4,0.5-0.7l0-0.1V11.7c0-0.3-0.1-0.6-0.4-0.7L32,10.9L18,2.6C17.8,2.5,17.7,2.5,17.5,2.5z M18.5,10.6l2.5,5l5.5,0.8
	c1,0.1,1.3,1.3,0.6,2l-4,3.9l0.9,5.5c0.2,1-0.8,1.7-1.7,1.2l-4.9-2.6L12.6,29c-0.9,0.4-1.8-0.3-1.7-1.2l0.9-5.5l-4-3.9
	c-0.7-0.7-0.3-1.8,0.6-2l5.5-0.8l2.5-5C16.9,9.8,18.1,9.8,18.5,10.6z M17.5,13.3l-2.1,4.1l-4.6,0.7l3.3,3.2l-0.8,4.5l4.1-2.1
	l4.1,2.1l-0.8-4.5l3.3-3.2l-4.6-0.7L17.5,13.3z"/>
</svg>
