<?xml version="1.0" encoding="utf-8"?>
<!-- Generator: Adobe Illustrator 26.0.1, SVG Export Plug-In . SVG Version: 6.00 Build 0)  -->
<svg version="1.1" id="Layer_1" xmlns="http://www.w3.org/2000/svg" xmlns:xlink="http://www.w3.org/1999/xlink" x="0px" y="0px"
	 viewBox="0 0 48 48" style="enable-background:new 0 0 48 48;" xml:space="preserve">
<style type="text/css">
	.st0{fill:#FFFFFF;}
</style>
<path id="Card-Benefit" class="st0" d="M31.8,5.7l-0.1,0.2l-2.4,5.4L23.7,12c-2,0.3-3.1,2.3-2.5,4.1H3c-1.7,0-3,1.3-3,3v21
	c0,1.7,1.3,3,3,3h33c1.7,0,3-1.3,3-3v-9.7l0.4,0.3c2.2,1.3,4.8-0.5,4.6-3v-0.2v-0.2l-1.1-5.9l4.2-4.1c1.8-1.7,0.9-4.7-1.4-5.3h-0.2
	h-0.2l-5.6-0.7l-2.4-5.4c-1-2.3-4.2-2.4-5.4-0.3L31.8,5.7L31.8,5.7z M3,25h22.5L25,27.3c-0.5,2.5,2,4.5,4.2,3.5l0.1-0.1l0.2-0.1
	l4.9-2.9l1.5,0.9V40H3V25z M9,28c-1.7,0-3,1.3-3,3v3c0,1.7,1.3,3,3,3h6c1.7,0,3-1.3,3-3v-3c0-1.7-1.3-3-3-3H9z M9,31h6v3H9V31z
	 M34.5,7l3.1,7l7.4,0.9l-5.5,5.4l1.4,7.7l-6.4-3.8L28.1,28l1.4-7.7L24,14.9l7.4-0.9L34.5,7z M3,19h20.7l2.5,2.4L26,22H3V19z"/>
</svg>
