<?xml version="1.0" encoding="UTF-8"?>
<svg width="43px" height="43px" viewBox="0 0 43 43" version="1.1" xmlns="http://www.w3.org/2000/svg" xmlns:xlink="http://www.w3.org/1999/xlink">
    <title>icon/redeemForDeposit</title>
    <defs>
        <filter id="filter-1">
            <feColorMatrix in="SourceGraphic" type="matrix" values="0 0 0 0 1.000000 0 0 0 0 1.000000 0 0 0 0 1.000000 0 0 0 1.000000 0"></feColorMatrix>
        </filter>
    </defs>
    <g id="PAGE" stroke="none" stroke-width="1" fill="none" fill-rule="evenodd">
        <g id="design_DT_Points" transform="translate(-157.000000, -1193.000000)">
            <g id="Group-4-Copy" transform="translate(117.770566, 870.938596)">
                <g id="Group-3" transform="translate(38.229434, 221.061404)">
                    <g id="icon/redeemForDeposit" transform="translate(0.000000, 100.000000)" filter="url(#filter-1)">
                        <g>
                            <path d="M22.5,1.40625 C28.1358529,1.40625 33.5163015,3.72841865 37.3803126,7.81491279 L37.6537174,8.10979825 L38.90625,9.4875 L38.90625,7.5 C38.90625,6.76903489 39.4639576,6.16832936 40.1770687,6.10018742 L40.3125,6.09375 C41.0434651,6.09375 41.6441706,6.65145758 41.7123126,7.36456874 L41.71875,7.5 L41.7171768,13.1915284 L41.7038408,13.3296193 L41.6869871,13.4235829 L41.6345198,13.6052085 L41.5815113,13.7317889 L41.514541,13.8555274 L41.4224906,13.9885048 L41.3450993,14.0797075 L41.260965,14.1632573 L41.210066,14.2075979 L41.1049078,14.2869452 L40.990616,14.3573149 L40.8712916,14.4158786 L40.7576485,14.4593065 L40.6193874,14.497603 L40.5167721,14.5164857 L40.3805575,14.5296414 L40.3125,14.53125 L34.6875,14.53125 C33.9108496,14.53125 33.28125,13.9016504 33.28125,13.125 C33.28125,12.3940349 33.8389576,11.7933294 34.5520687,11.7251874 L34.6875,11.71875 L37.1334375,11.71875 L35.572636,10.0016905 C32.3124319,6.41546599 27.7264893,4.33036182 22.8924699,4.22310304 L22.5,4.21875 C12.4035444,4.21875 4.21875,12.4035444 4.21875,22.5 C4.21875,32.5964556 12.4035444,40.78125 22.5,40.78125 C32.4890465,40.78125 40.6068891,32.7696738 40.7784787,22.8215707 L40.78125,22.5 L40.78125,21.5625 C40.78125,20.7858496 41.4108496,20.15625 42.1875,20.15625 C42.9184651,20.15625 43.5191706,20.7139576 43.5873126,21.4270687 L43.59375,21.5625 L43.59375,22.5 C43.59375,34.1497564 34.1497564,43.59375 22.5,43.59375 C10.8502436,43.59375 1.40625,34.1497564 1.40625,22.5 C1.40625,10.8502436 10.8502436,1.40625 22.5,1.40625 Z M22.4165273,9.84375 C23.191595,9.84375 23.8199117,10.4733424 23.8199117,11.249984 L23.8199117,13.2517956 C26.091736,13.535116 28.0549131,14.9614798 29.0336706,17.0223649 L29.1958935,17.3862266 C29.3442763,17.7453076 29.3033619,18.1549854 29.0869103,18.4774824 C28.8704587,18.7999794 28.4451799,19.0247722 28.0573278,19.022483 C27.6658609,19.0175526 27.3040519,18.81252 27.0980959,18.4788986 L27.0295732,18.3351627 C26.2071712,16.4021951 24.2470611,15.209164 22.1560873,15.3688902 C19.8701145,15.3688902 18.3936325,16.3535259 18.3936325,17.8769461 C18.3936325,19.66816 19.5156103,20.2719407 23.3749172,21.4172526 L23.9330404,21.5829137 C27.5768754,22.6956636 29.6718747,24.0001411 29.6718747,26.9890892 C29.6718747,29.738961 27.3178846,31.7366758 23.8199397,32.1077434 L23.8199397,34.0312653 C23.8199397,34.8079069 23.1916232,35.4374993 22.4165554,35.4374993 C21.6414876,35.4374993 21.013171,34.8079069 21.013171,34.0312653 L21.013171,32.0310943 C18.3446423,31.6963888 16.0881142,29.8920106 15.170302,27.358985 L15.1209683,27.2207428 C15.0765492,27.1030812 15.0515351,26.9789603 15.046842,26.853247 C15.0426385,26.3046742 15.4560588,25.8095165 15.9886228,25.6823434 C16.5211868,25.5551702 17.0898463,25.8054181 17.3329453,26.2969596 L17.3914197,26.4425236 C18.1809002,28.6836169 20.3645186,30.1224828 22.7308293,29.9608554 C25.4617684,29.9608554 27.0926508,28.9043518 27.0926508,27.1346532 C27.0926508,25.3988354 26.0282305,24.5831072 22.3470878,23.4973071 L21.8326176,23.3485306 C18.2818243,22.3066765 15.8134917,21.2234753 15.8134917,18.0481504 C15.8134917,15.4971294 17.9411253,13.57357 21.013143,13.1824682 L21.013143,11.249984 C21.013143,10.4733424 21.6414595,9.84375 22.4165273,9.84375 Z" id="Shape" fill="#006FCF" fill-rule="nonzero"></path>
                        </g>
                    </g>
                </g>
            </g>
        </g>
    </g>
</svg>