<?xml version="1.0" encoding="UTF-8"?>
<svg width="43px" height="43px" viewBox="0 0 43 43" version="1.1" xmlns="http://www.w3.org/2000/svg" xmlns:xlink="http://www.w3.org/1999/xlink">
    <title>icon/redeemForRewards</title>
    <defs>
        <filter id="filter-1">
            <feColorMatrix in="SourceGraphic" type="matrix" values="0 0 0 0 1.000000 0 0 0 0 1.000000 0 0 0 0 1.000000 0 0 0 1.000000 0"></feColorMatrix>
        </filter>
    </defs>
    <g id="PAGE" stroke="none" stroke-width="1" fill="none" fill-rule="evenodd">
        <g id="design_DT_Points" transform="translate(-157.000000, -1100.000000)">
            <g id="Group-4-Copy" transform="translate(117.770566, 870.938596)">
                <g id="Group-3" transform="translate(38.229434, 221.061404)">
                    <g id="icon/redeemForRewards" transform="translate(0.000000, 7.000000)" filter="url(#filter-1)">
                        <g>
                            <path d="M22.5,1.40625 C28.1358529,1.40625 33.5163015,3.72841865 37.3803126,7.81491279 L37.6537174,8.10979825 L38.90625,9.4875 L38.90625,7.5 C38.90625,6.76903489 39.4639576,6.16832936 40.1770687,6.10018742 L40.3125,6.09375 C41.0434651,6.09375 41.6441706,6.65145758 41.7123126,7.36456874 L41.71875,7.5 L41.7171768,13.1915284 L41.7038408,13.3296193 L41.6869871,13.4235829 L41.6345198,13.6052085 L41.5815113,13.7317889 L41.514541,13.8555274 L41.4224906,13.9885048 L41.3450993,14.0797075 L41.260965,14.1632573 L41.210066,14.2075979 L41.1049078,14.2869452 L40.990616,14.3573149 L40.8712916,14.4158786 L40.7576485,14.4593065 L40.6193874,14.497603 L40.5167721,14.5164857 L40.3805575,14.5296414 L40.3125,14.53125 L34.6875,14.53125 C33.9108496,14.53125 33.28125,13.9016504 33.28125,13.125 C33.28125,12.3940349 33.8389576,11.7933294 34.5520687,11.7251874 L34.6875,11.71875 L37.1334375,11.71875 L35.572636,10.0016905 C32.3124319,6.41546599 27.7264893,4.33036182 22.8924699,4.22310304 L22.5,4.21875 C12.4035444,4.21875 4.21875,12.4035444 4.21875,22.5 C4.21875,32.5964556 12.4035444,40.78125 22.5,40.78125 C32.4890465,40.78125 40.6068891,32.7696738 40.7784787,22.8215707 L40.78125,22.5 L40.78125,21.5625 C40.78125,20.7858496 41.4108496,20.15625 42.1875,20.15625 C42.9184651,20.15625 43.5191706,20.7139576 43.5873126,21.4270687 L43.59375,21.5625 L43.59375,22.5 C43.59375,34.1497564 34.1497564,43.59375 22.5,43.59375 C10.8502436,43.59375 1.40625,34.1497564 1.40625,22.5 C1.40625,10.8502436 10.8502436,1.40625 22.5,1.40625 Z M23.6717554,11.9795992 L26.439938,17.5978347 L32.6297825,18.4987606 C33.7015557,18.6547562 34.1295095,19.9740431 33.3539672,20.7312614 L28.8749537,25.1044479 L29.9323053,31.2794862 C30.115386,32.3486957 28.9949883,33.1640598 28.0363652,32.6592476 L22.5,29.7437899 L16.9636348,32.6592476 C16.0050117,33.1640598 14.884614,32.3486957 15.0676947,31.2794862 L16.1250463,25.1044479 L11.6460328,20.7312614 C10.8704905,19.9740431 11.2984443,18.6547562 12.3702175,18.4987606 L18.560062,17.5978347 L21.3282446,11.9795992 C21.8075561,11.0068003 23.1924439,11.0068003 23.6717554,11.9795992 Z M22.5,15 L20.1823725,19.6290882 L15,20.371397 L18.75,23.9746397 L17.8647451,29.0625 L22.5,26.6603382 L27.1352549,29.0625 L26.25,23.9746397 L30,20.371397 L24.8176275,19.6290882 L22.5,15 Z" id="Recent-Points" fill="#757679" fill-rule="nonzero"></path>
                        </g>
                    </g>
                </g>
            </g>
        </g>
    </g>
</svg>