<?xml version="1.0" encoding="utf-8"?>
<!-- Generator: Adobe Illustrator 25.4.1, SVG Export Plug-In . SVG Version: 6.00 Build 0)  -->
<svg version="1.1" id="Layer_1" xmlns="http://www.w3.org/2000/svg" xmlns:xlink="http://www.w3.org/1999/xlink" x="0px" y="0px"
	 viewBox="0 0 35 36" style="enable-background:new 0 0 35 36;" xml:space="preserve">
<style type="text/css">
	.st0{fill:#006FCF;}
</style>
<path id="Bank" class="st0" d="M16.8,0.7c0.4-0.3,0.9-0.3,1.4-0.1l0.1,0.1l15.8,11.7c0.9,0.7,0.5,2.2-0.6,2.3l-0.1,0h-2.1V33h2.5
	c0.7,0,1.2,0.6,1.2,1.2s-0.6,1.2-1.2,1.2H1.2c-0.7,0-1.2-0.6-1.2-1.2S0.6,33,1.2,33h2.5V14.7H1.7c-1.2,0-1.7-1.4-0.8-2.2l0.1-0.1
	L16.8,0.7L16.8,0.7z M8.8,14.7H6.2V33h2.5V14.7z M13.8,14.7h-2.5V33h2.5V14.7z M18.8,14.7h-2.5V33h2.5V14.7z M23.8,14.7h-2.5V33h2.5
	V14.7z M28.8,14.7h-2.5V33h2.5V14.7z M17.5,3.3l-12,8.9h24.1L17.5,3.3z M17.5,6.8c0.9,0,1.7,0.7,1.7,1.7c0,0.9-0.7,1.7-1.7,1.7
	s-1.7-0.7-1.7-1.7C15.8,7.5,16.6,6.8,17.5,6.8z"/>
</svg>
