<?xml version="1.0" encoding="UTF-8"?>
<svg width="41px" height="41px" viewBox="0 0 41 41" version="1.1" xmlns="http://www.w3.org/2000/svg" xmlns:xlink="http://www.w3.org/1999/xlink">
    <title>icon/pointsSnapshot</title>
    <g id="PAGE" stroke="none" stroke-width="1" fill="none" fill-rule="evenodd">
        <g id="design_DT_Points" transform="translate(-160.000000, -1303.000000)" fill="#FFFFFF" fill-rule="nonzero">
            <g id="Group-4-Copy" transform="translate(117.770566, 870.938596)">
                <g id="icon/pointsSnapshot" transform="translate(40.229434, 430.061404)">
                    <path d="M5.625,14.53125 C5.625,15.3079004 4.99540043,15.9375 4.21875,15.9375 C3.44209957,15.9375 2.8125,15.3079004 2.8125,14.53125 L2.8125,7.03125 C2.8125,4.70129871 4.70129871,2.8125 7.03125,2.8125 L14.53125,2.8125 C15.3079004,2.8125 15.9375,3.44209957 15.9375,4.21875 C15.9375,4.99540043 15.3079004,5.625 14.53125,5.625 L7.03125,5.625 C6.25459957,5.625 5.625,6.25459957 5.625,7.03125 L5.625,14.53125 Z M5.625,30.46875 L5.625,37.96875 C5.625,38.7454004 6.25459957,39.375 7.03125,39.375 L14.53125,39.375 C15.3079004,39.375 15.9375,40.0045996 15.9375,40.78125 C15.9375,41.5579004 15.3079004,42.1875 14.53125,42.1875 L7.03125,42.1875 C4.70129871,42.1875 2.8125,40.2987013 2.8125,37.96875 L2.8125,30.46875 C2.8125,29.6920996 3.44209957,29.0625 4.21875,29.0625 C4.99540043,29.0625 5.625,29.6920996 5.625,30.46875 Z M39.375,14.53125 L39.375,7.03125 C39.375,6.25459957 38.7454004,5.625 37.96875,5.625 L30.46875,5.625 C29.6920996,5.625 29.0625,4.99540043 29.0625,4.21875 C29.0625,3.44209957 29.6920996,2.8125 30.46875,2.8125 L37.96875,2.8125 C40.2987013,2.8125 42.1875,4.70129871 42.1875,7.03125 L42.1875,14.53125 C42.1875,15.3079004 41.5579004,15.9375 40.78125,15.9375 C40.0045996,15.9375 39.375,15.3079004 39.375,14.53125 Z M39.375,30.46875 C39.375,29.6920996 40.0045996,29.0625 40.78125,29.0625 C41.5579004,29.0625 42.1875,29.6920996 42.1875,30.46875 L42.1875,37.96875 C42.1875,40.2987013 40.2987013,42.1875 37.96875,42.1875 L30.46875,42.1875 C29.6920996,42.1875 29.0625,41.5579004 29.0625,40.78125 C29.0625,40.0045996 29.6920996,39.375 30.46875,39.375 L37.96875,39.375 C38.7454004,39.375 39.375,38.7454004 39.375,37.96875 L39.375,30.46875 Z" id="QR-Scan"></path>
                    <path d="M23.6717554,11.9795992 L26.439938,17.5978347 L32.6297825,18.4987606 C33.7015557,18.6547562 34.1295095,19.9740431 33.3539672,20.7312614 L28.8749537,25.1044479 L29.9323053,31.2794862 C30.115386,32.3486957 28.9949883,33.1640598 28.0363652,32.6592476 L22.5,29.7437899 L16.9636348,32.6592476 C16.0050117,33.1640598 14.884614,32.3486957 15.0676947,31.2794862 L16.1250463,25.1044479 L11.6460328,20.7312614 C10.8704905,19.9740431 11.2984443,18.6547562 12.3702175,18.4987606 L18.560062,17.5978347 L21.3282446,11.9795992 C21.8075561,11.0068003 23.1924439,11.0068003 23.6717554,11.9795992 Z M22.5,15 L20.1823725,19.6290882 L15,20.371397 L18.75,23.9746397 L17.8647451,29.0625 L22.5,26.6603382 L27.1352549,29.0625 L26.25,23.9746397 L30,20.371397 L24.8176275,19.6290882 L22.5,15 Z" id="Path-2"></path>
                </g>
            </g>
        </g>
    </g>
</svg>