<?xml version="1.0" encoding="utf-8"?>
<!-- Generator: Adobe Illustrator 25.4.1, SVG Export Plug-In . SVG Version: 6.00 Build 0)  -->
<svg version="1.1" id="Layer_1" xmlns="http://www.w3.org/2000/svg" xmlns:xlink="http://www.w3.org/1999/xlink" x="0px" y="0px"
	 viewBox="0 0 547 261" style="enable-background:new 0 0 547 261;" xml:space="preserve">
<style type="text/css">
	.st0{fill:none;stroke:#FFFFFF;stroke-width:2;}
	.st1{opacity:0.541;fill-rule:evenodd;clip-rule:evenodd;fill:#666666;stroke:#FFFFFF;stroke-width:2;enable-background:new    ;}
	.st2{fill-rule:evenodd;clip-rule:evenodd;fill:#FFFFFF;}
	.st3{fill-rule:evenodd;clip-rule:evenodd;fill:#63666A;}
	.st4{fill:#929292;}
</style>
<path id="path-1_00000025437069862841206000000000625955942073320623_" class="st0" d="M70,9h419c2.2,0,4,1.8,4,4v185
	c0,2.2-1.8,4-4,4H70c-2.2,0-4-1.8-4-4V13C66,10.8,67.8,9,70,9z"/>
<path id="Rectangle-Copy-2_00000176027526914990975490000002525183002960766114_" class="st1" d="M71,13h417c0.6,0,1,0.4,1,1v182
	c0,0.6-0.4,1-1,1H71c-0.6,0-1-0.4-1-1V14C70,13.4,70.4,13,71,13z"/>
<path id="Fill-1-Copy" class="st2" d="M273.5,148c80.2,0,95,36.8,165,36.8c29.3,0,55.1-9.8,77.8-30.7l0.7-0.6l30.1,72.7
	c-33.4,23-70,33.9-108.5,33.9c-84.5,0-108.6-36.8-165-36.8s-80.4,36.8-165,36.8C70.3,260,34.1,249.3,1,226.8l-1-0.7l30.1-72.7
	c22.9,21.4,48.9,31.4,78.5,31.4C178.5,184.8,193.3,148,273.5,148L273.5,148z"/>
<path id="path-4_00000112626139555141471110000012230126756235053467_" class="st3" d="M273.3,148c80.2,0,95,36.8,165,36.8
	c29.3,0,55.1-9.8,77.8-30.7l0.7-0.6l30.1,72.7c-33.4,23-70,33.9-108.5,33.9c-84.5,0-108.6-36.8-165-36.8s-80.4,36.8-165,36.8
	c-38.2,0-74.5-10.7-107.5-33.2l-1-0.7L30,153.5c22.9,21.4,48.9,31.4,78.5,31.4C178.3,184.8,193.1,148,273.3,148L273.3,148z"/>
<path class="st4" d="M273.5,147.7c80.2,0,95,36.9,164.9,36.9c29.2,0,55.1-9.8,77.8-30.9l0.7-0.6l30.1,73c-33.4,23.1-70,34-108.5,34
	c-84.6,0-108.6-36.9-165-36.9c-56.4,0-80.4,36.9-164.9,36.9c-38.2,0-74.5-10.7-107.5-33.3l-1-0.7l30.1-73
	c22.9,21.5,48.9,31.5,78.5,31.5C178.5,184.7,193.3,147.7,273.5,147.7z M273.5,152.2c-79.2,0-93.7,36.9-165,36.9
	c-28.7,0-55.5-9.8-76.2-27.8l-0.6-0.6L5.5,224.5c30.1,20.4,65.7,31.2,103,31.2c83.5,0,107.3-36.9,164.9-36.9s81.4,36.9,165,36.9
	c36.9,0,72.1-10.6,102.1-30.6l0.9-0.6l-26.2-63.6c-20.7,18.3-47.8,28.3-76.7,28.3C367.2,189.2,352.7,152.2,273.5,152.2L273.5,152.2z
	 M273.5,159.1c77.3,0,92,36.9,165,36.9c26.3,0,48.1-7.4,68.5-20.2l0.6-0.4l21.8,48.6c-28.7,16.6-58.8,24.7-90.9,24.7
	c-83.9,0-103.7-36.9-165-36.9s-81.1,36.9-164.9,36.9c-31.8,0-61.6-7.9-90.1-24.2l-0.8-0.5l21.8-48.6c20.6,13.1,42.6,20.6,69,20.6
	C181.5,196,196.2,159.1,273.5,159.1L273.5,159.1z M273.5,163.6c-76.1,0-91,36.9-165,36.9c-23.8,0-46.7-6.2-66.4-18.1l-0.7-0.4
	l-18,40.2c25.6,14.4,55,22.1,85.2,22.1c83.2,0,102.1-36.9,164.9-36.9c62.9-0.1,81.9,36.9,165.1,36.9c29.8,0,58.9-7.5,84.4-21.7
	l0.8-0.4l-18-40.2c-20,12.1-43.1,18.6-67.1,18.6C364.5,200.5,349.6,163.6,273.5,163.6L273.5,163.6z M457,215.6l-4.9,0.5
	c-1.2-2.9-3.7-3.9-6.8-3.8c-5.5,0.2-9,4.2-9,10.2c0,5.5,3,9.7,8.4,9.7c3.4,0,6.1-1,7.4-4.1l5.2-0.3c-1.6,5.8-6.6,8.9-12.7,8.9
	c-7.8,0-13.2-6.5-13.2-14.2c0-8.7,5.5-14.7,13.7-14.9C451.1,207.6,455.4,210.6,457,215.6L457,215.6z M126.4,208.3l0.1,4.5
	c-5.8,0.5-11.7,0.8-17.6,0.7v6.5c5.1,0.1,10.1-0.1,15.1-0.4v4.5c-5,0.3-10.1,0.4-15.1,0.4v6.7c6.1,0.1,12.3-0.1,18.4-0.6l-0.1,4.4
	c-5.8,0.4-12,0.7-18.7,0.7c-1.4,0-2.9-0.1-4.3-0.1v-26.7l4.3,0.1C114.9,209.1,120.8,208.8,126.4,208.3L126.4,208.3z M389.6,202.9
	c1.9,0.5,3.7,1,5.6,1.4l16.3,22.5h0.1l-0.1-19.5c1.5,0.2,3,0.4,4.5,0.6v26.9c-1.6-0.2-3.1-0.3-4.7-0.5l-17.1-23.4h-0.1l0.1,20.7
	l-4.6-1v-27.5H389.6z M52.5,197.4c2.2,1,4.5,1.9,6.7,2.8l10.4,25.1l0.2,0.5l0.2-0.3l10.9-18.9c0.5,0.1,1.1,0.2,1.6,0.3
	c1.5,0.3,3,0.4,4.5,0.6v27l-4.7-0.7l0.1-21l-0.1,0.3c-0.1,0.4-0.4,1.2-0.8,1.8l-10.2,16.8c-1.5-0.3-2.9-0.7-4.4-1.1l-9.2-22.4
	c-0.4-0.8-0.7-2.3-0.7-2.3v0.9l0.1,21l-4.6-1.5L52.5,197.4L52.5,197.4z M177.8,196.2v28.4l-4.7,1.5l0.1-21.4l-0.1,0.3
	c-0.1,0.4-0.2,0.9-0.4,1.3l-10.2,22.9l-4,1l-10.1-18.1c-0.4-0.7-0.5-1.5-0.5-1.5v0.8l0.1,21l-4.6,0.8V206c2.1-0.4,4.2-0.8,6.4-1.3
	l9.9,18.2l0.4,1l0.1-0.1l0.3-1l10.7-24.4L177.8,196.2L177.8,196.2z M493.8,197.7l0.1,4.9c-5.5,2.2-10.9,4-16.3,5.6v6.7
	c4.7-1.2,9.3-2.8,14-4.5v4.7c-4.6,1.7-9.3,3.2-14,4.5v7.1c5.7-1.4,11.4-3.1,17-5.2l-0.1,4.6c-7,2.5-14.2,4.4-21.5,6v-27.4
	C480.2,202.9,487.1,200.6,493.8,197.7L493.8,197.7z M368.6,196l4.6,1.7v28.2l-4.6-1.6V196L368.6,196z M216.2,187.9
	c0.5,2.6-0.8,6.2-3.8,8.4c2.9-0.1,5.1,2.1,5.1,4.9c0,4.7-3,8.4-9.1,10.9l-13.5,5.5V189l10.7-4C211.3,182.8,215.5,184.2,216.2,187.9z
	 M341,183.7l0.6,0.2c4.3,1.3,9.7,3.9,10.6,11.2l-5.5-2.4c-1.3-3.3-4.6-4.5-5.8-4.9h-0.1c-2.9-0.8-5.8-0.5-5.8,2.5
	c0,2.6,1.9,3.8,6.2,6l3,1.5c5.1,2.5,8.9,4.9,8.9,10.8c0,5.4-4.6,8.2-11.5,6.4c-6.6-1.8-10.9-6.1-11.7-11.7l5.8,2.2
	c1,2.6,3,4.3,6.1,5.2l0.3,0.1c3.3,0.8,6.2,0.4,6.2-3c0-2.8-2.2-4.1-6.6-6.4l-0.8-0.4c-6.1-3-10.6-4.9-10.6-11.4
	C330.3,184.3,334.8,182,341,183.7L341,183.7z M207.3,200.5l-7.5,3v7.6l7.9-3.1c3.4-1.3,5.2-3.4,5.2-5.9
	C212.8,199.5,209.7,199.6,207.3,200.5L207.3,200.5z M254.1,173l0.1,4.6c-5.3,0.3-10.7,1.1-16,2.3v6.5c4.5-1,9.1-1.7,13.8-2v4.5
	c-4.6,0.3-9.2,1-13.8,2v7.3c5.6-1.5,11.2-2.4,16.8-2.8l-0.1,4.4c-7.1,0.8-14.2,2.2-21.1,4.1v-27.7C240,174.9,246.7,173.8,254.1,173
	L254.1,173z M285.3,172.2c6.9,0.7,10.2,3.9,10.2,8.9c0,3.2-2,6.2-6.6,7.1l7.6,12.3c-1.9-0.3-3.7-0.5-5.6-0.7l-7-11.4l-5.4-0.3
	l-1.3-0.1v10.9l-1.8-0.1h-1.9h-1V172C275.4,171.8,282.6,172.1,285.3,172.2L285.3,172.2z M207.4,188.8l-0.3,0.1l-7.4,3.1v6.6l6.3-2.5
	c3.3-1.3,5.6-3.7,5.6-5.8C211.7,187.8,209.7,187.9,207.4,188.8L207.4,188.8z M277.5,176.5v7.2c1.7,0.1,3.5,0.2,5.5,0.3l1.2,0.1
	c3,0.2,6.6-0.1,6.6-3c0-2.7-1.9-4-6.4-4.3C282,176.5,279.9,176.5,277.5,176.5L277.5,176.5z"/>
</svg>
