<?xml version="1.0" encoding="utf-8"?>
<!-- Generator: Adobe Illustrator 26.0.1, SVG Export Plug-In . SVG Version: 6.00 Build 0)  -->
<svg version="1.1" id="Layer_1" xmlns="http://www.w3.org/2000/svg" xmlns:xlink="http://www.w3.org/1999/xlink" x="0px" y="0px"
	 viewBox="0 0 547 261" style="enable-background:new 0 0 547 261;" xml:space="preserve">
<style type="text/css">
	.st0{fill:none;stroke:#FFFFFF;stroke-width:2;}
	.st1{opacity:0.541;fill-rule:evenodd;clip-rule:evenodd;fill:#666666;stroke:#FFFFFF;stroke-width:2;enable-background:new    ;}
	.st2{fill-rule:evenodd;clip-rule:evenodd;fill:#FFFFFF;}
	.st3{fill-rule:evenodd;clip-rule:evenodd;fill:#63666A;}
	.st4{filter:url(#Adobe_OpacityMaskFilter);}
	.st5{mask:url(#mask-6_00000130638407060936726030000010085837236933712809_);fill-rule:evenodd;clip-rule:evenodd;fill:#929292;}
</style>
<path id="path-1_00000025437069862841206000000000625955942073320623_" class="st0" d="M70,9h419c2.2,0,4,1.8,4,4v185
	c0,2.2-1.8,4-4,4H70c-2.2,0-4-1.8-4-4V13C66,10.8,67.8,9,70,9z"/>
<path id="Rectangle-Copy-2_00000176027526914990975490000002525183002960766114_" class="st1" d="M71,13h417c0.6,0,1,0.4,1,1v182
	c0,0.6-0.4,1-1,1H71c-0.6,0-1-0.4-1-1V14C70,13.4,70.4,13,71,13z"/>
<path id="Fill-1-Copy" class="st2" d="M273.5,148.9c80.2,0,95,36.8,165,36.8c29.3,0,55.1-9.8,77.8-30.7l0.7-0.6l30.1,72.7
	c-33.4,23-70,33.9-108.5,33.9c-84.5,0-108.6-36.8-165-36.8s-80.4,36.8-165,36.8C70.3,260.9,34.1,250.2,1,227.7L0,227l30.1-72.7
	c22.9,21.4,48.9,31.4,78.5,31.4C178.5,185.7,193.3,148.9,273.5,148.9L273.5,148.9z"/>
<g id="Group-7" transform="translate(0.000000, 138.780556)">
	<g id="graphic_x2F_ribbon_x2F_member-copy" transform="translate(0.000000, 0.219444)">
		<path id="Fill-1-Copy_00000031900012933654393190000012252991977833214110_" class="st3" d="M273.4,9.9c80.2,0,95,36.8,165,36.8
			c29.3,0,55.1-9.8,77.8-30.7l0.7-0.6L546.9,88c-33.4,23-70,33.9-108.5,33.9c-84.5,0-108.6-36.8-165-36.8
			c-56.4,0-80.4,36.8-165,36.8c-38.2,0-74.5-10.7-107.5-33.2l-1-0.7L30,15.3c22.9,21.4,48.9,31.4,78.5,31.4
			C178.4,46.7,193.2,9.9,273.4,9.9L273.4,9.9z"/>
		<g id="graphic_x2F_wsPattern" transform="translate(-0.000056, -0.000280)">
			<g id="Mask">
				<path id="path-3_00000024717037996806658380000004191253737940805512_" class="st3" d="M273.4,25.7c-76,0-91,36.8-165,36.8
					c-23.8,0-46.7-6.2-66.4-18L41.3,44l-18.1,40c25.6,14.4,55,22,85.1,22c83.2,0,102.1-36.8,165-36.8c62.8,0,81.8,36.8,165,36.8
					c29.8,0,58.9-7.5,84.4-21.6l0.8-0.4l-18.1-40c-19.9,12.1-43.1,18.4-67.1,18.4C364.4,62.5,349.5,25.7,273.4,25.7L273.4,25.7z
					 M273.4,21.2c77.3,0,92,36.8,165,36.8c26.2,0,48.1-7.3,68.4-20.1l0.6-0.4l21.8,48.4c-28.7,16.6-58.8,24.7-90.9,24.7
					c-83.9,0-103.7-36.8-165-36.8c-61.3,0-81.1,36.8-165,36.8c-31.8,0-61.6-7.9-90-24.2l-0.9-0.5l21.8-48.4
					C59.9,50.6,82,58,108.4,58C181.4,58,196.1,21.2,273.4,21.2L273.4,21.2z M273.4,14.3c-79.2,0-93.7,36.8-165,36.8
					c-28.7,0-55.6-9.8-76.2-27.7l-0.6-0.5L5.4,86.4c30.2,20.3,65.7,31.1,103,31.1c83.5,0,107.3-36.8,165-36.8
					c57.6,0,81.4,36.8,165,36.8c36.9,0,72.1-10.5,102.1-30.5l0.9-0.6l-26.2-63.4c-20.7,18.2-47.8,28.2-76.8,28.2
					C367.1,51.1,352.6,14.3,273.4,14.3L273.4,14.3z M273.4,9.9c80.2,0,95,36.8,165,36.8c29.3,0,55.1-9.8,77.8-30.7l0.7-0.6L546.9,88
					c-33.4,23-70,33.9-108.5,33.9c-84.5,0-108.6-36.8-165-36.8c-56.4,0-80.4,36.8-165,36.8c-38.2,0-74.5-10.7-107.5-33.2l-1-0.7
					L30,15.3c22.9,21.4,48.9,31.4,78.5,31.4C178.4,46.7,193.2,9.9,273.4,9.9L273.4,9.9z"/>
			</g>
		</g>
	</g>
	<g id="Group-3" transform="translate(0.000304, 0.000000)">
		<g id="Clip-2">
		</g>
		<defs>
			<filter id="Adobe_OpacityMaskFilter" filterUnits="userSpaceOnUse" x="-0.1" y="9.9" width="547" height="112.6">
				<feColorMatrix  type="matrix" values="1 0 0 0 0  0 1 0 0 0  0 0 1 0 0  0 0 0 1 0"/>
			</filter>
		</defs>
		
			<mask maskUnits="userSpaceOnUse" x="-0.1" y="9.9" width="547" height="112.6" id="mask-6_00000130638407060936726030000010085837236933712809_">
			<g class="st4">
				<polygon id="path-5_00000109031662504205494660000004891577328479014032_" class="st2" points="-0.1,9.9 546.9,9.9 546.9,122.5 
					-0.1,122.5 				"/>
			</g>
		</mask>
		<path id="Fill-1" class="st5" d="M541.4,86.7L515.2,23c-20.7,18.3-47.8,28.3-76.8,28.3c-71.3,0-85.8-37-165-37
			c-79.2,0-93.7,37-165,37c-29,0-56.1-10-76.8-28.3L5.4,86.7c30.2,20.4,65.7,31.2,103,31.2c83.5,0,107.3-37,165-37
			c57.6,0,81.4,37,165,37C475.7,118,511.2,107.2,541.4,86.7L541.4,86.7z M516.8,15.3l30.1,73.1c-33.4,23.1-70,34.1-108.5,34.1
			c-84.5,0-108.6-37-165-37c-56.4,0-80.4,37-165,37c-38.6,0-75.2-11-108.5-34.1L30,15.3c22.9,21.5,48.9,31.5,78.5,31.5
			c70,0,84.8-37,165-37c80.2,0,95,37,165,37C467.9,46.9,494,36.8,516.8,15.3L516.8,15.3z M523.5,84.4l-18.1-40.2
			c-19.9,12.1-43.1,18.5-67.1,18.5c-74,0-88.9-37-165-37c-76,0-91,37-165,37c-24,0-47.2-6.4-67.1-18.5L23.3,84.4
			c25.7,14.5,55,22.2,85.1,22.2c83.2,0,102.1-37,165-37c62.8,0,81.8,37,165,37C468.5,106.6,497.9,98.9,523.5,84.4L523.5,84.4z
			 M507.4,37.7l21.8,48.6c-28.7,16.7-58.8,24.8-90.9,24.8c-83.9,0-103.7-37-165-37c-61.3,0-81.1,37-165,37
			c-32.1,0-62.2-8.1-90.9-24.8l21.8-48.6C59.9,50.8,82,58.2,108.4,58.2c73,0,87.6-37,165-37c77.3,0,92,37,165,37
			C464.9,58.2,486.9,50.7,507.4,37.7L507.4,37.7z M238.7,54.6c-1.6-3.3-5.7-12.1-5.7-12.1c-0.3,1-4,11.1-5.5,15.2
			C231.3,56.3,235,55.3,238.7,54.6L238.7,54.6z M235.5,38c4.2,8.3,8.4,16.8,12.4,25.1c-0.6,0.1-4.2,0.7-4.8,0.9
			c-0.5-1.1-2.1-4.5-2.6-5.5c-4.9,0.8-9.9,2.2-14.7,4.2c-0.8,2.2-1.6,4.5-2.4,6.7c-1.9,0.6-3.7,1.3-5.6,1.9
			c3.8-10.4,7.8-21.2,11.9-31.9C231.7,38.9,233.6,38.5,235.5,38L235.5,38z M124.2,86.5c5-0.4,10.1-0.9,15.1-1.7v-4.5
			c-5,0.8-10.1,1.3-15.1,1.7v-6.7c5.9-0.4,11.8-1.1,17.6-2.1c0-1.6-0.1-3.1-0.1-4.7c-6.8,1.2-14.2,2-22.2,2.4v26.8
			c8.3-0.4,16-1.1,23-2.2c0-1.5,0-2.9,0.1-4.4c-6.1,0.9-12.3,1.5-18.4,1.8V86.5z M203.6,73.2c-5.9,1.9-8.1-2.1-8.1-8.2
			c0-4.9,3.4-11.5,8.4-13.1c3.1-1,5.9-0.7,6.8,2.4l4.4-1.4c-1-5.7-5.8-7.2-11.4-5.5c-7.7,2.5-12.8,10-12.8,19
			c0,8.8,4.7,13.6,12.8,11c5.9-1.9,10.1-6.5,11.3-12.3l-4.7,1.2C209.4,69.7,207,72.1,203.6,73.2L203.6,73.2z M162,75.8
			c4.6-1.2,6.3-4,6.3-5.4c0-3.2-1.7-3-6.1-1.8c-2.6,0.7-5.2,1.3-7.7,1.9v7C157,76.9,159.5,76.4,162,75.8L162,75.8z M166.6,78.5
			c2.9,3.2,5.8,6.2,8.6,9.2c-1.6,0.5-3.3,1.1-5,1.6c-2.8-2.9-5.6-5.9-8.5-9c-2.4,0.6-4.9,1.2-7.3,1.7v11.4c-1.5,0.3-3.1,0.7-4.7,1
			V67c2.8-0.6,7-1.4,12.5-2.9c7.5-2,11.1-0.6,11.1,4.6C173.4,73.8,169.7,76.8,166.6,78.5L166.6,78.5z M180.4,85.9
			c1.5-0.5,2.9-1.1,4.4-1.6V55.7c-1.4,0.6-2.9,1.2-4.4,1.7V85.9z M307.9,52.8c4.6,1.1,9.2,2.4,13.9,3.9v-4.5
			c-4.6-1.5-9.2-2.8-13.9-3.9v-6.5c5.4,1.1,10.8,2.4,16.2,4c0-1.5,0-3-0.1-4.6c-6.4-1.9-13.1-3.5-20.6-4.7V64
			c7.5,1.5,14.5,3.5,21.3,5.8c0-1.5,0-3.1,0.1-4.6c-5.6-1.9-11.3-3.5-16.9-4.9V52.8z M275.3,53.9c-5.7-6.6-11.6-12.9-17.3-19
			c-1.8,0.1-3.5,0.3-5.2,0.5v27c1.4-0.2,2.9-0.4,4.3-0.5c0-7.1,0-14.1,0-21.2c6.1,6.5,12.2,13.3,18.2,20.4c1.4,0,2.8,0,4.2,0.1V34.4
			c-1.4,0-2.9-0.1-4.3-0.1C275.3,40.9,275.3,47.4,275.3,53.9L275.3,53.9z M488.5,74c-4,0.2-7.3,0.3-7.3-2.6c0-2.5,2.4-4.6,6.3-5.5
			c2.3-0.5,5.1-0.5,5.9,1.8c1.4-0.5,3.2-1.2,4.8-1.9c-1.5-4.3-6.4-5-10.8-4c-7,1.7-11.3,5.7-11.3,10.6c0,6.9,7.8,6.2,10.7,6.1
			c4.6-0.2,7.5-0.2,7.5,2.9c0,2-2.4,4.6-6.9,5.7c-1.9,0.4-4.1,0.4-5.6-0.9l-5.4,1.1c1.6,3.2,5.6,5.3,11.1,4
			c7.4-1.8,12.1-6.1,12.1-11.1C499.6,73.7,493.9,73.8,488.5,74L488.5,74z M406.3,76.6c0-3-2.2-3.6-6.7-4.4l-7-1.4v6.7l7.2,1.6
			C403.1,79.7,406.3,79.8,406.3,76.6L406.3,76.6z M404.3,83.7l7.7,12.9c-2-0.2-4-0.5-6-0.8l-7.4-12.5l-6-1.1v11.3
			c-1.6-0.3-3.1-0.7-4.7-1.1V64.7c5.3,1.5,12.2,3,12.2,3c7.5,1.4,10.9,4.5,10.9,9.7C411.1,81.4,408.3,83.3,404.3,83.7L404.3,83.7z
			 M378.2,69.8c0-3.2-3-4.7-7.8-6.3l-5.3-1.6v8.2l5.3,1.6C375.1,73.3,378.2,73.8,378.2,69.8L378.2,69.8z M382.8,70.6
			c0,4.2-3.7,8.3-12,5.6l-5.7-1.8v10.9l-4.6-1.7V55.7c9.3,2.9,12.2,4,13.8,4.7C380.2,62.9,382.8,65.8,382.8,70.6L382.8,70.6z
			 M355.6,53.9l-4.9-2l-7.5,6.7l-7.7-13.5c-2.2-0.8-4.4-1.6-6.6-2.3l10.4,18.1L328,71c1.6,0.6,3.2,1.2,4.8,1.8l8.9-7.7l8,14l6.8,2.9
			l-11-19.3L355.6,53.9z M423.3,86.2c4.8,0.4,9.7,0.6,14.8,0.6v-4.4c-4.9,0-9.8-0.2-14.8-0.6v-6.4c6.3,0.4,11.5,0.5,17.3,0.4
			c0-0.8,0-1.4-0.1-4.6c-8.1,0.1-14.9-0.2-21.8-0.9v26.9c8.6,0.7,15.1,0.8,22.6,0.7c0-0.3,0.1-4,0.1-4.3c-6,0.1-12.1-0.1-18.1-0.6
			V86.2z M459.5,80.8c-4-0.3-7.5-0.6-7.5-3.4c0-2.4,2.5-4.2,6.5-4.6c2.6-0.3,5.6,0.2,6.2,2.8c1.2-0.2,3.2-0.6,5.1-1.1
			c-1.2-4.6-6.3-6.3-11.3-5.7c-7.1,0.8-11.7,4.3-11.7,9c0,6.7,7.9,7,11,7.2c4.8,0.3,7.8,0.7,7.8,3.7c0,2-2.5,4.2-7.1,4.7
			c-2.4,0.2-5.1-0.2-6.4-2.2l-5.4,0.6c1.4,4.2,6.2,6.4,11.9,5.8c7.6-0.8,12.5-4.5,12.5-9.4C471,81.7,464.9,81.2,459.5,80.8
			L459.5,80.8z M62.7,80.2l-5.4-14.9c-0.3,0.8-2.6,5.8-4.9,10.9C55.8,77.7,59.3,79,62.7,80.2L62.7,80.2z M61.4,63.1l11.2,30.9
			c-1.8-0.4-3.5-0.8-5.3-1.3l-2.8-7.7c-4.6-1.4-9.2-3.1-13.8-5.1c-1.3,2.8-2.4,5.2-2.9,6.5c-1.4-0.6-2.8-1.1-4.2-1.7l11.2-24.3
			C56.9,61.5,59.1,62.3,61.4,63.1L61.4,63.1z M108.4,71.3c0.9,0,1.8,0,2.7,0V98c-0.9,0-1.8,0-2.7,0c-0.6,0-1.2,0-1.9-0.1
			c0-4.2,0-20,0.1-23.3c-1.2,3.4-8.5,19.7-9.9,22.9c-1.8-0.1-3.5-0.3-5.3-0.5c-1.6-4-8.6-20.8-9.8-24.1c0,3.1,0.1,18,0.1,22.8
			c-1.5-0.2-3.1-0.5-4.6-0.8l0.2-27.2c2.6,0.6,5.3,1.1,7.9,1.6c1.6,4.1,8,20.3,9.1,23.6l8.7-21.8C104.8,71.2,106.6,71.3,108.4,71.3
			L108.4,71.3z"/>
	</g>
</g>
</svg>
