<?xml version="1.0" encoding="utf-8"?>
<!-- Generator: Adobe Illustrator 26.0.1, SVG Export Plug-In . SVG Version: 6.00 Build 0)  -->
<svg version="1.1" id="Layer_1" xmlns="http://www.w3.org/2000/svg" xmlns:xlink="http://www.w3.org/1999/xlink" x="0px" y="0px"
	 viewBox="0 0 547 262" style="enable-background:new 0 0 547 262;" xml:space="preserve">
<style type="text/css">
	.st0{fill:none;stroke:#006FCF;stroke-width:2;}
	.st1{fill-rule:evenodd;clip-rule:evenodd;fill:#FEFEFD;stroke:#B5D5EF;stroke-width:2;}
	.st2{fill-rule:evenodd;clip-rule:evenodd;fill:#FFFFFF;}
	.st3{fill:#006FCF;}
</style>
<path id="path-1_00000023993724746122416230000010934715132078330010_" class="st0" d="M69.5,1h419c2.2,0,4,1.8,4,4v193.7
	c0,2.2-1.8,4-4,4h-419c-2.2,0-4-1.8-4-4V5C65.5,2.8,67.3,1,69.5,1z"/>
<path id="Rectangle-Copy-2_00000178170150594250946980000018248487967536822702_" class="st1" d="M70.5,5h417c0.6,0,1,0.4,1,1v190.7
	c0,0.6-0.4,1-1,1h-417c-0.6,0-1-0.4-1-1V6C69.5,5.4,69.9,5,70.5,5z"/>
<path id="Fill-1-Copy_00000015347125462846986810000002252869853608575659_" class="st2" d="M273,148.7c80.2,0,95,36.8,165,36.8
	c29.3,0,55.1-9.8,77.8-30.7l0.7-0.6l30.1,72.7c-33.4,23-70,33.9-108.5,33.9c-84.5,0-108.6-36.8-165-36.8s-80.4,36.8-165,36.8
	C69.8,260.7,33.6,250,0.5,227.5l-1-0.7l30.1-72.7c22.9,21.4,48.9,31.4,78.5,31.4C178,185.5,192.8,148.7,273,148.7L273,148.7z"/>
<path id="path-4_00000029047671927145854880000006691030034476468400_" class="st2" d="M272.8,148.7c80.2,0,95,36.8,165,36.8
	c29.3,0,55.1-9.8,77.8-30.7l0.7-0.6l30.1,72.7c-33.4,23-70,33.9-108.5,33.9c-84.5,0-108.6-36.8-165-36.8s-80.4,36.8-165,36.8
	c-38.2,0-74.5-10.7-107.5-33.2l-1-0.7l30.1-72.7c22.9,21.4,48.9,31.4,78.5,31.4C177.8,185.5,192.6,148.7,272.8,148.7L272.8,148.7z"
	/>
<path class="st3" d="M108,209.8c0.9,0,1.8,0,2.7,0v26.7c-0.9,0-1.8,0-2.7,0c-0.6,0-1.2,0-1.9-0.1c0-4.2,0-20,0.1-23.3
	c-1.2,3.4-8.5,19.7-9.9,22.9c-1.8-0.1-3.5-0.3-5.3-0.5c-1.6-4-8.6-20.8-9.8-24.1c0,3.1,0.1,18,0.1,22.8c-1.5-0.2-3.1-0.5-4.6-0.8
	l0.2-27.2c2.6,0.6,5.3,1.1,7.9,1.6c1.6,4.1,8,20.3,9.1,23.6l8.7-21.8C104.4,209.7,106.2,209.8,108,209.8L108,209.8z M61,201.7
	l11.2,30.9c-1.8-0.4-3.5-0.8-5.3-1.3l-2.8-7.7c-4.6-1.4-9.2-3.1-13.8-5.1c-1.3,2.8-2.4,5.2-2.9,6.5c-1.4-0.6-2.8-1.1-4.2-1.7
	L54.4,199C56.5,200,58.7,200.9,61,201.7L61,201.7z M62.3,218.8l-5.4-14.9c-0.3,0.8-2.6,5.8-4.9,10.9
	C55.4,216.2,58.9,217.6,62.3,218.8L62.3,218.8z M459.1,219.3c-4-0.3-7.5-0.6-7.5-3.4c0-2.4,2.5-4.2,6.5-4.6c2.6-0.3,5.6,0.2,6.2,2.8
	c1.2-0.2,3.2-0.6,5.1-1.1c-1.2-4.6-6.3-6.3-11.3-5.7c-7.1,0.8-11.7,4.3-11.7,9c0,6.7,7.9,7,11,7.2c4.8,0.3,7.8,0.7,7.8,3.7
	c0,2-2.5,4.2-7.1,4.7c-2.4,0.2-5.1-0.2-6.4-2.2l-5.4,0.6c1.4,4.2,6.2,6.4,11.9,5.8c7.6-0.8,12.5-4.5,12.5-9.4
	C470.6,220.2,464.5,219.8,459.1,219.3L459.1,219.3z M422.9,224.7c4.8,0.4,9.7,0.6,14.8,0.6v-4.4c-4.9,0-9.8-0.2-14.8-0.6v-6.4
	c6.3,0.4,11.5,0.5,17.3,0.4c0-0.8,0-1.4-0.1-4.6c-8.1,0.1-14.9-0.2-21.8-0.9v26.9c8.6,0.7,15.1,0.8,22.6,0.7c0-0.3,0.1-4,0.1-4.3
	c-6,0.1-12.1-0.1-18.1-0.6V224.7L422.9,224.7z M355.2,192.4l-4.9-2l-7.5,6.7l-7.7-13.5c-2.2-0.8-4.4-1.6-6.6-2.3l10.4,18.1l-11.3,10
	c1.6,0.6,3.2,1.2,4.8,1.8l8.9-7.7l8,14l6.8,2.9l-11-19.3L355.2,192.4L355.2,192.4z M382.4,209.2c0,4.2-3.7,8.3-12,5.6l-5.7-1.8v10.9
	l-4.6-1.7v-27.9c9.3,2.9,12.2,4,13.8,4.7C379.8,201.4,382.4,204.4,382.4,209.2L382.4,209.2z M377.8,208.4c0-3.2-3-4.7-7.8-6.3
	l-5.3-1.6v8.2l5.3,1.6C374.7,211.8,377.8,212.3,377.8,208.4L377.8,208.4z M403.9,222.2l7.7,12.9c-2-0.2-4-0.5-6-0.8l-7.4-12.5
	l-6-1.1V232c-1.6-0.3-3.1-0.7-4.7-1.1v-27.7c5.3,1.5,12.2,3,12.2,3c7.5,1.4,10.9,4.5,10.9,9.7C410.7,220,407.9,221.8,403.9,222.2
	L403.9,222.2z M405.9,215.2c0-3-2.2-3.6-6.7-4.4l-7-1.4v6.7l7.2,1.6C402.7,218.2,405.9,218.4,405.9,215.2L405.9,215.2z M488.1,212.5
	c-4,0.2-7.3,0.3-7.3-2.6c0-2.5,2.4-4.6,6.3-5.5c2.3-0.5,5.1-0.5,5.9,1.8c1.4-0.5,3.2-1.2,4.8-1.9c-1.5-4.3-6.4-5-10.8-4
	c-7,1.7-11.3,5.7-11.3,10.6c0,6.9,7.8,6.2,10.7,6.1c4.6-0.2,7.5-0.2,7.5,2.9c0,2-2.4,4.6-6.9,5.7c-1.9,0.4-4.1,0.4-5.6-0.9l-5.4,1.1
	c1.6,3.2,5.6,5.3,11.1,4c7.4-1.8,12.1-6.1,12.1-11.1C499.2,212.3,493.5,212.3,488.1,212.5L488.1,212.5z M274.9,192.5
	c-5.7-6.6-11.6-12.9-17.3-19c-1.8,0.1-3.5,0.3-5.2,0.5c0,9,0,18,0,27c1.4-0.2,2.9-0.4,4.3-0.5c0-7.1,0-14.1,0-21.2
	c6.1,6.5,12.2,13.3,18.2,20.4c1.4,0,2.8,0,4.2,0.1c0-8.9,0-17.8,0-26.7c-1.4,0-2.9-0.1-4.3-0.1C274.9,179.4,274.9,185.9,274.9,192.5
	L274.9,192.5z M307.5,191.3c4.6,1.1,9.2,2.4,13.9,3.9c0-1.5,0-3,0-4.5c-4.6-1.5-9.2-2.8-13.9-3.9c0-2.2,0-4.3,0-6.5
	c5.4,1.1,10.8,2.4,16.2,4c0-1.5,0-3-0.1-4.6c-6.3-1.9-13.1-3.5-20.6-4.7c0,9.1,0,18.3,0,27.4c7.5,1.5,14.5,3.5,21.3,5.8
	c0-1.5,0-3.1,0.1-4.6c-5.6-1.9-11.3-3.5-16.9-4.9C307.5,196.4,307.5,193.9,307.5,191.3L307.5,191.3z M180,224.4
	c1.5-0.5,2.9-1.1,4.4-1.6v-28.6c-1.4,0.6-2.9,1.2-4.4,1.7V224.4L180,224.4z M166.2,217c2.9,3.2,5.8,6.2,8.6,9.2
	c-1.6,0.5-3.3,1.1-5,1.6c-2.8-2.9-5.6-5.9-8.5-9c-2.4,0.6-4.9,1.2-7.3,1.7c0,3.8,0,7.6,0,11.4c-1.5,0.3-3.1,0.7-4.7,1
	c0-9.1,0-18.3,0-27.4c2.8-0.6,7-1.4,12.5-2.9c7.5-2,11.1-0.6,11.1,4.6C173,212.3,169.3,215.3,166.2,217L166.2,217z M161.6,214.3
	c4.6-1.2,6.3-4,6.3-5.4c0-3.2-1.7-3-6.1-1.8c-2.6,0.7-5.2,1.3-7.7,1.9c0,2.3,0,4.7,0,7C156.6,215.5,159.1,214.9,161.6,214.3
	L161.6,214.3z M203.2,211.7c-5.9,1.9-8.1-2.1-8.1-8.2c0-4.9,3.4-11.5,8.4-13.1c3.1-1,5.9-0.7,6.8,2.4l4.4-1.4
	c-1-5.7-5.8-7.2-11.4-5.5c-7.7,2.5-12.8,10-12.8,19c0,8.8,4.7,13.6,12.8,11c5.9-1.9,10.1-6.5,11.3-12.3l-4.7,1.2
	C209,208.2,206.6,210.6,203.2,211.7L203.2,211.7z M123.8,225c5-0.4,10.1-0.9,15.1-1.7c0-1.5,0-3,0-4.5c-5,0.8-10.1,1.3-15.1,1.7
	c0-2.2,0-4.5,0-6.7c5.9-0.4,11.8-1.1,17.6-2.1c0-1.6,0-3.1-0.1-4.7c-6.8,1.2-14.2,2-22.2,2.4c0,8.9,0,17.9,0,26.8
	c8.3-0.4,16-1.1,23-2.2c0-1.5,0-2.9,0.1-4.4c-6.1,0.9-12.3,1.5-18.4,1.8C123.8,229.4,123.8,227.2,123.8,225L123.8,225z M235.1,176.6
	c4.2,8.3,8.4,16.8,12.4,25.1c-0.6,0.1-4.2,0.7-4.8,0.9c-0.5-1.1-2.1-4.5-2.6-5.5c-4.9,0.8-9.9,2.2-14.7,4.2
	c-0.8,2.2-1.6,4.5-2.4,6.7c-1.9,0.6-3.7,1.3-5.6,1.9c3.8-10.4,7.8-21.2,11.9-31.9C231.3,177.4,233.2,177,235.1,176.6L235.1,176.6z
	 M238.3,193.1c-1.6-3.3-5.7-12.1-5.7-12.1c-0.3,1-4,11.1-5.5,15.2C230.9,194.9,234.6,193.8,238.3,193.1L238.3,193.1z M507,176.2
	l21.8,48.6c-28.7,16.7-58.8,24.8-90.9,24.8c-83.9,0-103.7-37-165-37s-81.1,37-165,37c-32.1,0-62.2-8.1-90.9-24.8l21.8-48.6
	c20.6,13.1,42.6,20.6,69.1,20.6c73,0,87.6-37,165-37c77.3,0,92,37,165,37C464.5,196.8,486.5,189.3,507,176.2L507,176.2z M523.1,223
	l-18-40.3c-19.9,12.1-43.1,18.5-67.1,18.5c-74,0-88.9-37-165-37c-76,0-91,37-165,37c-24,0-47.2-6.4-67.1-18.5l-18.1,40.2
	c25.6,14.5,55,22.2,85.1,22.2c83.2,0,102.1-37,165-37c62.8,0,81.8,37,165,37C468.1,245.1,497.5,237.5,523.1,223L523.1,223z
	 M516.4,153.9l30.1,73.1c-33.4,23.1-70,34.1-108.5,34.1c-84.5,0-108.6-37-165-37s-80.4,37-165,37c-38.6,0-75.2-11-108.5-34.1
	l30.1-73.1c22.9,21.5,48.9,31.5,78.5,31.5c70,0,84.8-37,165-37s95,37,165,37C467.5,185.4,493.6,175.3,516.4,153.9L516.4,153.9z
	 M541,225.3l-26.2-63.7c-20.7,18.3-47.8,28.3-76.8,28.3c-71.3,0-85.8-37-165-37s-93.7,37-165,37c-29,0-56.1-10-76.8-28.3L5,225.3
	c30.2,20.4,65.7,31.2,103,31.2c83.5,0,107.3-37,165-37c57.6,0,81.4,37,165,37C475.3,256.5,510.8,245.7,541,225.3L541,225.3z"/>
</svg>
