<?xml version="1.0" encoding="UTF-8"?>
<svg width="547px" height="261px" viewBox="0 0 547 261" version="1.1" xmlns="http://www.w3.org/2000/svg" xmlns:xlink="http://www.w3.org/1999/xlink">
    <title>Group 4 Copy 5</title>
    <defs>
        <rect id="path-1" x="0" y="0" width="427" height="193" rx="4"></rect>
        <filter x="-3.0%" y="-6.7%" width="106.1%" height="113.5%" filterUnits="objectBoundingBox" id="filter-2">
            <feMorphology radius="1" operator="dilate" in="SourceAlpha" result="shadowSpreadOuter1"></feMorphology>
            <feOffset dx="0" dy="0" in="shadowSpreadOuter1" result="shadowOffsetOuter1"></feOffset>
            <feMorphology radius="1" operator="erode" in="SourceAlpha" result="shadowInner"></feMorphology>
            <feOffset dx="0" dy="0" in="shadowInner" result="shadowInner"></feOffset>
            <feComposite in="shadowOffsetOuter1" in2="shadowInner" operator="out" result="shadowOffsetOuter1"></feComposite>
            <feGaussianBlur stdDeviation="4" in="shadowOffsetOuter1" result="shadowBlurOuter1"></feGaussianBlur>
            <feColorMatrix values="0 0 0 0 0   0 0 0 0 0   0 0 0 0 0  0 0 0 0.25 0" type="matrix" in="shadowBlurOuter1"></feColorMatrix>
        </filter>
        <path d="M273.502839,15.7809233 C197.465334,15.7809233 182.514186,52.5696651 108.528634,52.5696651 C84.7552132,52.5679852 61.863289,46.3426375 42.0976415,34.5342443 L41.4398922,34.1383352 L23.3798955,74.1761072 C49.0293072,88.5940282 78.4262033,96.2103774 108.528634,96.2176572 C191.73898,96.2176572 210.648429,59.4277953 273.498342,59.4277953 C336.338697,59.4277953 355.272882,96.2176572 438.472547,96.2176572 C468.273649,96.2159772 497.383272,88.7519438 522.849976,74.6078552 L523.620161,74.1761072 L505.560164,34.1383352 C485.645539,46.2026413 462.508505,52.5623853 438.473109,52.5691052 C364.46788,52.5691052 349.558896,15.7798033 273.503401,15.7798033 L273.502839,15.7809233 Z M273.502839,11.3200867 C350.819301,11.3200867 365.509036,48.1082686 438.472547,48.1082686 C464.709435,48.1082686 486.593373,40.7892712 506.920637,28.0137847 L507.536223,27.6245955 L529.370126,76.025736 C500.670894,92.6012773 470.544852,100.676254 438.473109,100.677374 C354.611198,100.677374 334.812944,63.8880719 273.498904,63.8880719 C212.167998,63.8880719 192.406848,100.677374 108.529196,100.677374 C76.7604673,100.676254 46.9183255,92.7597529 18.4928745,76.5202023 L17.6327408,76.025736 L39.4649578,27.6245955 C60.037332,40.686234 82.1022911,48.1082686 108.528634,48.1088286 C181.515194,48.1088286 196.174009,11.3200867 273.502839,11.3200867 L273.502839,11.3200867 Z M273.502839,4.46027656 C194.312635,4.46027656 179.842712,41.2495784 108.528634,41.2495784 C79.8546999,41.2495784 52.9741164,31.4588094 32.3668872,13.5964237 L31.7445552,13.0532388 L5.52172102,76.4670038 C35.6741856,96.7978011 71.2499899,107.535504 108.528634,107.536624 C192.074038,107.536624 215.854205,70.7473221 273.498342,70.7473221 C331.1481,70.7473221 354.920958,107.536624 438.472547,107.536624 C475.378466,107.535504 510.615277,97.0117152 540.571541,77.073467 L541.477211,76.4664438 L515.256063,13.0526788 C494.569567,31.2605749 467.435441,41.2495784 438.473671,41.2495784 C367.171398,41.2495784 352.6818,4.46027656 273.503963,4.46027656 L273.502839,4.46027656 Z M273.502839,0 C353.725766,0 368.474529,36.7887419 438.472547,36.7887419 C467.72946,36.7887419 493.549212,26.9789334 516.260115,6.05679238 L516.94766,5.41897003 L547.000056,78.0999186 C513.613377,101.115842 476.999228,111.995781 438.473109,111.99802 C353.92534,111.99802 329.891068,75.2103986 273.498904,75.2103986 C217.097745,75.2103986 193.079214,111.99802 108.529196,111.99802 C70.3122755,111.996341 34.0573591,101.289437 1.0012406,78.7858996 L0,78.0999186 L30.0523967,5.41953001 C52.9330774,26.7840588 78.9799495,36.7887419 108.528634,36.7887419 C178.526651,36.7893019 193.282723,0 273.502839,0 L273.502839,0 Z" id="path-3"></path>
        <polygon id="path-5" points="0 0 546.999696 0 546.999696 112.569409 0 112.569409"></polygon>
    </defs>
    <g id="Page-1" stroke="none" stroke-width="1" fill="none" fill-rule="evenodd">
        <g id="Artboard" transform="translate(0.000000, 9.000000)">
            <g id="Group-4-Copy-5" transform="translate(0.000000, -0.000000)">
                <g id="Group-5" transform="translate(66.000000, 0.000000)">
                    <g id="Rectangle-Copy-2">
                        <use fill="black" fill-opacity="1" filter="url(#filter-2)" xlink:href="#path-1"></use>
                        <use stroke="#FFFFFF" stroke-width="2" xlink:href="#path-1"></use>
                    </g>
                    <rect id="Rectangle-Copy-2" stroke="#FFFFFF" stroke-width="2" fill="#666666" opacity="0.540970203" x="4" y="4" width="419" height="184" rx="1"></rect>
                </g>
                <g id="Group-7" transform="translate(0.000000, 138.780556)">
                    <g id="graphic/ribbon/member-copy" transform="translate(0.000000, 0.219444)">
                        <path d="M273.502783,-0.000279992251 C353.72571,-0.000279992251 368.474473,36.7884619 438.47249,36.7884619 C467.729404,36.7884619 493.549156,26.9786534 516.260059,6.05651239 L516.947603,5.41869004 L547,78.0996386 C513.61332,101.115562 476.999172,111.995501 438.473053,111.99774 C353.925283,111.99774 329.891012,75.2101186 273.498848,75.2101186 C217.097689,75.2101186 193.079158,111.99774 108.52914,111.99774 C70.3122193,111.996061 34.0573029,101.289157 1.00118438,78.7856196 L-5.62178886e-05,78.0996386 L30.0523405,5.41925002 C52.9330212,26.7837788 78.9798933,36.7884619 108.528578,36.7884619 C178.526595,36.7890219 193.282667,-0.000279992251 273.502783,-0.000279992251 L273.502783,-0.000279992251 Z" id="Fill-1-Copy" fill="#63666A"></path>
                        <g id="graphic/wsPattern" transform="translate(-0.000056, -0.000280)">
                            <mask id="mask-4" fill="white">
                                <use xlink:href="#path-3"></use>
                            </mask>
                            <use id="Mask" fill="#63666A" xlink:href="#path-3"></use>
                        </g>
                    </g>
                    <g id="Group-3" transform="translate(0.000304, 0.000000)">
                        <mask id="mask-6" fill="white">
                            <use xlink:href="#path-5"></use>
                        </mask>
                        <g id="Clip-2"></g>
                        <path d="M541.477579,76.8579064 L515.255007,13.1187314 C494.56929,31.41968 467.435051,41.4601689 438.472921,41.4601689 C367.169951,41.4601689 352.681289,4.48296889 273.502279,4.48296889 C194.312633,4.48296889 179.842964,41.4601689 108.528599,41.4601689 C79.5649486,41.4601689 52.4307097,31.41968 31.7442333,13.1187314 L5.52166111,76.8579064 C35.6742764,97.292155 71.2497889,108.086288 108.528599,108.086288 C192.074492,108.086288 215.854557,71.1098481 273.498481,71.1098481 C331.147722,71.1098481 354.92019,108.086288 438.472921,108.086288 C475.750971,108.086288 511.326483,97.292155 541.477579,76.8579064 L541.477579,76.8579064 Z M516.947668,5.44705639 L547,78.4981467 C513.613247,101.630929 476.998435,112.56789 438.472921,112.569409 C353.924954,112.569409 329.891142,75.5922092 273.498481,75.5922092 C217.096703,75.5922092 193.078844,112.569409 108.528599,112.569409 C69.9255931,112.56789 33.3229361,101.587624 0,78.4981467 L30.0523319,5.44705639 C52.9328861,26.920605 78.9799625,36.9770481 108.528599,36.9770481 C178.525606,36.9770481 193.28321,-0.000151944444 273.502279,-0.000151944444 C353.725907,-0.000151944444 368.474394,36.9770481 438.472921,36.9770481 C468.024596,36.9770481 494.070153,26.9168064 516.947668,5.44705639 L516.947668,5.44705639 Z M523.620308,74.5551883 L505.560192,34.3127022 C485.645593,46.4386286 462.509013,52.8362494 438.472921,52.8377689 C364.46686,52.8377689 349.558831,15.8605689 273.502279,15.8605689 C197.465481,15.8605689 182.514147,52.8377689 108.528599,52.8377689 C84.4902278,52.8362494 61.3536472,46.4386286 41.4390486,34.3127022 L23.3789319,74.5551883 C49.0294333,89.0522078 78.426125,96.7071689 108.528599,96.7086883 C191.737935,96.7086883 210.64894,59.7314883 273.498481,59.7314883 C336.337385,59.7314883 355.273461,96.7086883 438.472921,96.7086883 C468.574635,96.7071689 497.971326,89.0522078 523.620308,74.5551883 L523.620308,74.5551883 Z M507.536229,27.7654161 L529.369126,76.4134689 C500.670619,93.0810147 470.544594,101.19029 438.472921,101.191809 C354.610983,101.191809 334.813382,64.2153689 273.498481,64.2153689 C212.167625,64.2153689 192.405731,101.191809 108.528599,101.191809 C76.4379319,101.19029 46.3141861,93.0711383 17.6316333,76.4134689 L39.4637708,27.7654161 C60.0362889,40.8934161 82.1009014,48.3531286 108.528599,48.3538883 C181.514353,48.3538883 196.173193,11.3774481 273.502279,11.3774481 C350.81921,11.3774481 365.508439,48.3538883 438.472921,48.3538883 C464.975071,48.3531286 487.035125,40.8478328 507.536229,27.7654161 L507.536229,27.7654161 Z M238.796649,44.7338119 C237.228582,41.4275008 233.127601,32.6147231 233.127601,32.6147231 C232.781928,33.5750119 229.124625,43.7066675 227.669757,47.7742203 C231.351371,46.4553425 235.080847,45.4335161 238.796649,44.7338119 L238.796649,44.7338119 Z M235.611893,28.1627508 C239.857221,36.4953842 244.031894,44.9267814 248.032592,53.2358633 C247.428613,53.3369064 243.7979,53.9758328 243.218992,54.1452508 C242.718335,53.0626467 241.123678,49.6834022 240.613904,48.6007981 C235.689385,49.4364925 230.745872,50.8442578 225.894286,52.7716731 C225.100376,55.0075356 224.293551,57.2623911 223.517875,59.4648258 C221.640601,60.0938758 219.783081,60.7441981 217.941514,61.4142731 C221.759878,50.9817675 225.776529,40.2461328 229.885107,29.4839078 C231.750985,29.0166786 233.660926,28.5767994 235.611893,28.1627508 L235.611893,28.1627508 Z M124.287517,76.5935231 C129.328274,76.2410119 134.375108,75.6810967 139.413586,74.9137772 L139.413586,70.4352147 C134.375108,71.2032939 129.328274,71.7624494 124.287517,72.1149606 L124.287517,65.4119314 C130.163208,65.0001619 136.047257,64.3057758 141.91839,63.3295328 C141.893319,61.7759008 141.868249,60.2230286 141.843178,58.6693967 C135.032268,59.8462064 127.673599,60.6856994 119.638776,61.0989883 L119.638776,87.8799564 C127.984325,87.5190883 135.618014,86.7730411 142.656081,85.70943 C142.680392,84.2424064 142.703183,82.7753828 142.727494,81.3083592 C136.587419,82.2200258 130.43291,82.8224856 124.287517,83.1149786 L124.287517,76.5935231 Z M203.747624,63.3158578 C197.869653,65.2235203 195.684692,61.2608092 195.684692,55.0949036 C195.684692,50.1757022 199.115597,43.5843522 204.039357,41.9912147 C207.103317,41.0043356 209.988742,41.2588425 210.876097,44.3539508 L215.246019,43.0001258 C214.215836,37.2703008 209.399957,35.754655 203.864621,37.5415217 C196.115454,40.0455661 191.108125,47.4976814 191.108125,56.5300189 C191.108125,65.3374786 195.839675,70.1769092 203.92236,67.5634647 C209.811726,65.6603606 213.990958,61.0594828 215.256656,55.3121842 L210.545618,56.5300189 C209.510876,59.7922661 207.130667,62.2218578 203.747624,63.3158578 L203.747624,63.3158578 Z M162.052549,65.9179064 C166.622278,64.6977925 168.397749,61.91493 168.398508,60.4737369 C168.397749,57.2487161 166.743833,57.4523217 162.29566,58.6443258 C159.718682,59.3280758 157.143224,59.9586453 154.569285,60.5367939 L154.569285,67.5399133 C157.061933,67.0483731 159.557621,66.5074508 162.052549,65.9179064 L162.052549,65.9179064 Z M166.682296,68.58833 C169.563163,71.7700467 172.444789,74.837805 175.323376,77.8113578 C173.691493,78.3553189 172.03074,78.8848453 170.342637,79.4029758 C167.521789,76.5008369 164.70094,73.5067717 161.883131,70.4048258 C159.445182,71.0194411 157.007233,71.5945508 154.569285,72.1149606 L154.569285,83.5275078 C153.027808,83.8610258 151.477975,84.1899856 149.880279,84.4931147 L149.880279,57.0800578 C152.723919,56.4479689 156.836296,55.6411439 162.37619,54.1703217 C169.900479,52.1418633 173.45446,53.6157244 173.4537,58.7704397 C173.455219,63.8886883 169.812351,66.9222592 166.682296,68.58833 L166.682296,68.58833 Z M180.53735,76.0123356 C182.008932,75.4866078 183.460761,74.9525231 184.898915,74.4116008 L184.898915,45.7974231 C183.456963,46.3770911 182.002854,46.9537203 180.53735,47.5235119 L180.53735,76.0123356 Z M307.997467,42.9294717 C312.616578,44.0249911 317.241007,45.3089217 321.857839,46.7820231 L321.857839,42.3027008 C317.241007,40.8303592 312.616578,39.5464286 307.997467,38.4501494 L307.997467,31.9514856 C313.382378,33.0249731 318.773367,34.3537272 324.154479,35.9392675 C324.131687,34.4198231 324.108896,32.8996189 324.085344,31.3794147 C317.734826,29.4945439 310.981656,27.8824133 303.534858,26.6866106 L303.534858,54.0890314 C311.077381,55.6061967 318.072143,57.6247786 324.821515,59.9312953 C324.845826,58.3958967 324.870137,56.8604981 324.893689,55.3250994 C319.267946,53.4280731 313.629287,51.8121439 307.997467,50.4750328 L307.997467,42.9294717 Z M275.416019,44.0477828 C269.681636,37.4526342 263.861404,31.1317453 258.127021,25.0015467 C256.354589,25.1337383 254.612546,25.2826439 252.914567,25.4581397 L252.914567,52.5027314 C254.344364,52.3128008 255.785557,52.1319869 257.260938,51.9800425 C257.246503,44.9245022 257.233588,37.8689619 257.220672,30.8134217 C263.274139,37.3576689 269.413454,44.1153981 275.464642,51.1762564 C276.857972,51.1899314 278.250543,51.2172814 279.643114,51.2590661 L279.643114,24.5191231 C278.239907,24.4803772 276.791876,24.4667022 275.339288,24.4545467 C275.365878,30.9858786 275.390949,37.5172106 275.416019,44.0477828 L275.416019,44.0477828 Z M488.565965,64.1340786 C484.524243,64.3019772 481.296943,64.4052994 481.281749,61.5601397 C481.269593,59.0530564 483.664238,56.9395092 487.537301,56.0437967 C489.853694,55.5097119 492.635038,55.5826453 493.44946,57.8055925 C494.842031,57.2874619 496.62206,56.6044717 498.271417,55.9199619 C496.723862,51.6488036 491.894308,50.9050356 487.455251,51.9656078 C480.462768,53.6339578 476.132351,57.7022703 476.156561,62.5834856 C476.187051,69.5205092 483.940017,68.8177661 486.883181,68.6513869 C491.470383,68.4090356 494.411268,68.4447425 494.426463,71.5292147 C494.4333,73.5584328 492.067525,76.1612411 487.528185,77.2126967 C485.608367,77.6609328 483.386179,77.6206675 481.882689,76.3580092 L476.485622,77.4785994 C478.114467,80.7226133 482.090093,82.8110897 487.614033,81.49753 C494.966625,79.7418119 499.705013,75.3779675 499.679287,70.3812744 C499.651832,63.8537411 494.029888,63.897805 488.565965,64.1340786 L488.565965,64.1340786 Z M406.357183,66.7444842 C406.357183,63.7215494 404.190456,63.1737897 399.684543,62.3145439 L392.707254,60.9090578 L392.707254,67.6242425 L399.913219,69.1991467 C403.182304,69.8198397 406.357183,69.9520314 406.357183,66.7444842 L406.357183,66.7444842 Z M404.419132,73.7992647 L412.099924,86.7046661 C410.061589,86.4759897 408.069597,86.2214828 406.121669,85.9434244 L398.674872,73.4194036 L392.707254,72.2813397 L392.707254,83.5556175 C391.121714,83.2129828 389.569601,82.8551536 388.038761,82.4828897 L388.038761,54.80393 C393.314272,56.2724731 400.230024,57.7995147 400.24066,57.8017939 C407.701132,59.2224744 411.181419,62.2947911 411.181419,67.4677397 C411.181419,71.5398508 408.392479,73.4345981 404.419132,73.7992647 L404.419132,73.7992647 Z M378.328751,59.9487689 C378.328751,56.7571758 375.340764,55.2301342 370.50969,53.6385161 L365.237978,51.9906786 L365.237978,60.2078342 L370.50969,61.8556717 C375.221488,63.405505 378.328751,63.9266744 378.328751,59.9487689 L378.328751,59.9487689 Z M382.893922,60.7419189 C382.893922,64.9910453 379.214588,69.0859481 370.924499,66.3570258 L365.237978,64.5291342 L365.237978,75.4379856 L360.678885,73.7331689 L360.678885,45.8240133 C370.008274,48.7375481 372.897497,49.8642161 374.523303,50.5160578 C380.259206,52.9676814 382.893922,55.9571883 382.893922,60.7419189 L382.893922,60.7419189 Z M355.657121,43.9953619 L350.739439,41.9729814 L343.281246,48.7124772 L335.578422,35.2000578 C333.411694,34.4107064 331.216097,33.6441467 328.977196,32.9110147 L339.397546,51.0273508 L328.098957,61.0777161 C329.701211,61.6513064 331.296628,62.2385717 332.882928,62.8395119 L341.773197,55.1579606 L349.810299,69.1315314 L356.583982,72.0458258 L345.605236,52.7868675 L355.657121,43.9953619 Z M423.422824,76.3101467 C428.243261,76.7036828 433.163982,76.9095675 438.232849,76.9095675 L438.232849,72.5586383 C433.337958,72.5586383 428.385329,72.3611106 423.422824,71.9561786 L423.422824,65.5350064 C429.698129,65.9718467 434.935654,66.0265467 440.68979,65.9125883 C440.673836,65.1619828 440.667758,64.4736744 440.611539,61.3420994 C432.465037,61.4651744 425.721743,61.1529286 418.794596,60.4919703 L418.794596,87.35043 C427.431878,88.0493744 433.915347,88.1891633 441.414565,88.0562119 C441.420643,87.7181356 441.473064,84.0714689 441.479901,83.7333925 C435.492531,83.8465911 429.414753,83.6505828 423.422824,83.1613217 L423.422824,76.3101467 Z M459.635743,70.9320731 C455.590222,70.6183078 452.09474,70.3463272 452.09474,67.5269981 C452.09474,65.0867703 454.577513,63.3181369 458.57669,62.9124453 C461.17494,62.6450231 464.180401,63.1623939 464.7859,65.7462092 C466.015131,65.5030981 467.948624,65.1042439 469.882117,64.6567675 C468.664282,60.0528508 463.577182,58.3655078 458.547821,58.9155467 C451.409471,59.6866647 446.799476,63.2307689 446.799476,67.945605 C446.795678,74.6630689 454.677036,74.9350494 457.83824,75.1462522 C462.621451,75.4615369 465.647425,75.8710272 465.649704,78.8818064 C465.648185,80.8555647 463.192763,83.1028231 458.503757,83.5799286 C456.153176,83.8093647 453.428813,83.3322592 452.0955,81.3706564 L446.668804,82.0202189 C448.053778,86.1736203 452.820275,88.3828925 458.532626,87.7773939 C466.156439,86.9515758 471.080958,83.2540078 471.079439,78.3606369 C471.079439,71.8194286 465.000142,71.3476411 459.635743,70.9320731 L459.635743,70.9320731 Z M62.7849639,70.3364508 L57.3727028,55.4314606 C57.0429833,56.2177731 54.7736931,61.2744842 52.48465,66.3532272 C55.917075,67.8202508 59.3525389,69.1436869 62.7849639,70.3364508 L62.7849639,70.3364508 Z M61.4736833,53.2647328 L72.627925,84.1899856 C70.8615708,83.8025272 69.1088917,83.3786022 67.3600111,82.9341647 L64.5801875,75.2799633 C59.9732319,73.8311731 55.3594389,72.1339536 50.7532431,70.1913439 C49.4951431,72.9749661 48.3996236,75.3924022 47.8283125,76.642905 C46.4220667,76.0913467 45.0029056,75.5694175 43.6148931,74.9791133 L54.7812903,50.6528078 C56.9890431,51.57663 59.2142694,52.4571481 61.4736833,53.2647328 L61.4736833,53.2647328 Z M108.533157,61.4043967 C109.464576,61.4043967 110.347374,61.3724883 111.261319,61.3626119 L111.261319,88.1010356 C110.345094,88.1116717 109.466856,88.1428203 108.533157,88.1428203 C107.913224,88.1428203 107.29481,88.0941981 106.674117,88.0873606 C106.683233,83.9339592 106.721979,68.0405703 106.759965,64.7828814 C105.526936,68.164405 98.2442389,84.4665244 96.8220389,87.6831883 C95.0534056,87.5585939 93.2885708,87.4028508 91.5260153,87.2235564 C89.8941319,83.2646439 82.8834153,66.4519911 81.6769764,63.1441606 C81.7142028,66.2901703 81.7506694,81.1533758 81.7613056,85.9373467 C80.2304653,85.6889175 78.7079819,85.4123786 77.1854986,85.1221647 L77.3792278,57.8838439 C80.0048278,58.4802258 82.6486611,59.002155 85.3122472,59.4465925 C86.8939889,63.5050286 93.2695778,79.7661231 94.4281542,83.0108967 L103.158882,61.2463744 C104.949547,61.3147494 106.737933,61.4043967 108.533157,61.4043967 L108.533157,61.4043967 Z" id="Fill-1" fill="#929292" mask="url(#mask-6)"></path>
                    </g>
                </g>
            </g>
        </g>
    </g>
</svg>