<svg xmlns="http://www.w3.org/2000/svg" width="32" height="32" overflow="visible">
  <path fill="#fff" d="M0 0v32h32V0H0z"/>
  <path d="M26.325 7.563l.96-2.656H32V0H0v32h32v-4.885h-4.683l-1.589-1.813-1.632 1.813H11.552V16.939H7.243l5.611-12.032h5.056l.949 2.059V4.907h6.485l.981 2.656zm-7.861 7.552h2.187l-3.925-8.299h-2.603l-3.925 8.299h2.165l.704-1.579h4.683l.714 1.579zm4.107-7.094l.501 1.259 2.315 5.835h1.888l2.304-5.835.501-1.259v7.093H32V6.816h-3.371l-2.048 5.269-.256.661-.256-.661-2.037-5.269h-3.381v8.299h1.92V8.021zm-7.755 1.611l.587-1.301.587 1.301 1.035 2.283h-3.232l1.023-2.283zm-1.28 7.307v8.267h7.115v-1.632h-5.195v-1.696h5.088v-1.621h-5.088v-1.685h5.195V16.94h-7.115v-.001zm14.763 8.266h2.56l-3.851-4.16 3.851-4.107h-2.485l-2.592 2.773-2.56-2.773h-2.571l3.84 4.149-3.84 4.117h2.453l2.613-2.784 2.582 2.785zm1.269-4.149L32 23.509v-4.875l-2.432 2.422z" fill="#231f20"/>
</svg>
