<?xml version="1.0" encoding="utf-8"?>
<!-- Generator: Adobe Illustrator 26.0.2, SVG Export Plug-In . SVG Version: 6.00 Build 0)  -->
<svg version="1.1" id="Layer_1" xmlns="http://www.w3.org/2000/svg" xmlns:xlink="http://www.w3.org/1999/xlink" x="0px" y="0px"
	 viewBox="0 0 376.5 91.2" style="enable-background:new 0 0 376.5 91.2;" xml:space="preserve">
<style type="text/css">
	.st0{fill-rule:evenodd;clip-rule:evenodd;fill:#FFFFFF;enable-background:new    ;}
</style>
<path class="st0" d="M352.4,31.8c0-4.4-3.6-8-8-8s-8,3.6-8,8v2h-3.9v-2c0-6.6,5.3-11.9,11.9-11.9s11.9,5.3,11.9,11.9
	c0,16.3-6.9,31.1-18.5,39.6c-13.3,9.7-30.6,8.9-43.1,2.2c-0.5-1.3-0.9-2.8-1.2-4.5c0.5,0,1,0.1,1.4,0.2c8.7,5.3,26.1,9.6,40.6-1
	C346.1,60.5,352.4,46.9,352.4,31.8L352.4,31.8z M218.9,69.8c-1.5-1.1-3-1.9-4.6-2.5c0,0.7,0.1,1.5,0.2,2.2c2.6,6.2,6.4,11.7,11,16.4
	c0.8,0.3,1.6,0.6,2.3,1c3.5,1.4,6.9,2.8,10.4,4.2h0.2C229.9,86,223,78.7,218.9,69.8L218.9,69.8z M328.9,91
	c22.6-12,37.5-35.1,37.5-59.2c0-12.1-9.8-21.9-21.9-21.9s-21.9,9.8-21.9,21.9c0,6.6,5.3,11.9,11.9,11.9s11.9-5.3,11.9-11.9v-2h-3.9
	v2c0,4.4-3.6,8-8,8s-8-3.6-8-8c0-9.9,8-17.9,17.9-17.9s17.9,8,17.9,17.9c0,24.4-16.3,47.8-40.6,58.3c-0.8,0.3-1.5,0.6-2.3,0.9
	C319.4,91,328.9,91,328.9,91z M76.4,69.4c0.1-0.7,0.1-1.4,0.2-2.2c-1.6,0.6-3.1,1.5-4.6,2.5C67.8,78.7,60.9,86,52.4,91h0.3
	c3.5-1.4,6.9-2.8,10.4-4.2c0.8-0.3,1.6-0.6,2.3-1C70,81.2,73.8,75.6,76.4,69.4z M263.1,81.4l-1.5-1.5c-1.9-0.6-3.9-1.1-6.2-1.4v0.1
	c2.1,2.9,4.6,5.3,5,5.7c2.7,2.6,5.7,4.9,8.8,6.8h8.4C272.3,88.7,267.4,85.5,263.1,81.4z M0,64.9c0.5,0,1.1,0,1.6-0.1
	c-0.1,3.3-0.8,6.4-1.6,9v8.3c3.5-4.3,5.6-10.9,5.6-19.2v-2h-2c-1.2,0-2.5,0-3.6,0.1C0,61,0,64.9,0,64.9z M376.3,31.8
	C376.3,14.3,362,0,344.5,0s-31.8,14.3-31.8,31.8c0,12.7,10.8,22.8,23.6,21.8c-4.7,7.1-11.6,11.2-18.8,11.2c-9.9,0-15-3.9-30.2-3.9
	h-2v2c0,9.7,2.5,17.1,7.3,21.2c-17.8-2.2-20.2-13.9-43.2-13.9h-2v2c0,5.9,0.3,11.9,2.4,16.7c-16.2-10.3-21.5-30.4-41.5-30.4h-2v2
	c0,7.7,0,17.2,5.4,24.7c-17-6.4-36.7-11.8-66.3-11.8s-49.2,5.3-66.3,11.8c5.4-7.5,5.4-17,5.4-24.7v-2h-2c-20,0-25.3,20.2-41.5,30.4
	c2.1-4.8,2.4-10.7,2.4-16.7v-2h-2C19.2,70.2,16.1,81,0,83.8v4c17-2.6,20.1-13,39.4-13.7c-0.1,9.4-1.8,14.1-4.6,16.8h10
	c14.9-10.2,20.3-27.2,35.8-28.5c-0.1,14.5-2.6,22.9-16,28.4c-0.1,0-0.2,0.1-0.3,0.1h10.4c18-7.2,38.4-13.7,70.6-13.7
	s52.6,6.5,70.6,13.7h10.4c-0.1,0-0.2-0.1-0.3-0.1c-13.3-5.5-15.9-14-15.9-28.4c15.5,1.3,20.9,18.2,35.7,28.6h10
	c-2.9-2.7-4.5-7.5-4.6-16.8c22.1,0.7,23,14.3,47.8,14.3c7.7,0,15.1-1.5,21.8-4.3c-4.2,0.5-8.2,0.5-13.6-0.3
	c-12.5,1.9-17.5-6.3-18-19c13.1,0.3,18.1,3.9,28.2,3.9c9.9,0,19-6.3,24.4-16.9l2-4l-4.3,1.3c-11.5,3.3-22.9-5.3-22.9-17.2
	c0-15.4,12.5-27.9,27.9-27.9s27.9,12.5,27.9,27.9c0,24.2-13.1,45.7-33.2,59.2h6.7c7.5-5.7,13.9-12.6,18.8-20.3l7.6,20.3h4.2
	l-9.2-24.6C373,56,376.3,44.2,376.3,31.8L376.3,31.8z M355.3,91h4.2l-1.1-2.8C357.3,89.2,356.3,90.1,355.3,91z M93.1,91h15.6
	c10.5-2.2,22.4-3.6,36.8-3.6c14.4,0,26.3,1.4,36.8,3.6h15.4c-14-4.4-30.3-7.5-52.3-7.5C123.5,83.5,107.1,86.6,93.1,91z M35.5,78.5
	c-2.4,0.3-4.4,0.8-6.2,1.4c-0.6,0.6-1.1,1.2-1.5,1.5c-4.3,4.1-9.2,7.3-14.4,9.6h8.3c3.1-1.9,6-4.2,8.8-6.8
	C30.9,83.8,33.4,81.4,35.5,78.5z"/>
</svg>
