<?xml version="1.0" encoding="UTF-8"?>
<svg width="548px" height="113px" viewBox="0 0 548 113" version="1.1" xmlns="http://www.w3.org/2000/svg" xmlns:xlink="http://www.w3.org/1999/xlink">
    <title>earn_herolockup_DT</title>
    <g id="Page-1" stroke="none" stroke-width="1" fill="none" fill-rule="evenodd">
        <g id="Artboard" transform="translate(0.000000, 1.000000)">
            <g id="earn_herolockup_DT" transform="translate(-0.000000, -1.000000)">
                <path d="M273.6,0.5 C353.8,0.5 368.6,37.3 438.6,37.3 C467.9,37.3 493.7,27.5 516.4,6.6 L517.1,6 L547.2,78.7 C513.8,101.7 477.2,112.6 438.7,112.6 C354.2,112.6 330.1,75.8 273.7,75.8 C217.3,75.8 193.3,112.6 108.7,112.6 C70.4,112.5 34.2,101.8 1.1,79.3 L0.1,78.6 L30.2,5.9 C53.1,27.3 79.1,37.3 108.7,37.3 C178.6,37.3 193.4,0.5 273.6,0.5 L273.6,0.5 Z" id="Fill-1-Copy" fill="#FFFFFF"></path>
                <path d="M273.4,0.5 C353.6,0.5 368.4,37.3 438.4,37.3 C467.7,37.3 493.5,27.5 516.2,6.6 L516.9,6 L547,78.7 C513.6,101.7 477,112.6 438.5,112.6 C354,112.6 329.9,75.8 273.5,75.8 C217.1,75.8 193.1,112.6 108.5,112.6 C70.3,112.6 34,101.9 1,79.4 L0,78.7 L30.1,6 C53,27.4 79,37.4 108.6,37.4 C178.4,37.3 193.2,0.5 273.4,0.5 L273.4,0.5 Z" id="path-4_00000112626139555141471110000012230126756235053467_" fill="#F7F7F7"></path>
                <path d="M108.5,61.5 C109.4,61.5 110.3,61.5 111.2,61.5 L111.2,88.2 C110.3,88.2 109.4,88.2 108.5,88.2 C107.9,88.2 107.3,88.2 106.6,88.1 C106.6,83.9 106.6,68.1 106.7,64.8 C105.5,68.2 98.2,84.5 96.8,87.7 C95,87.6 93.3,87.4 91.5,87.2 C89.9,83.2 82.9,66.4 81.7,63.1 C81.7,66.2 81.8,81.1 81.8,85.9 C80.3,85.7 78.7,85.4 77.2,85.1 L77.4,57.9 C80,58.5 82.7,59 85.3,59.5 C86.9,63.6 93.3,79.8 94.4,83.1 L103.1,61.3 C104.9,61.4 106.7,61.5 108.5,61.5 L108.5,61.5 Z M61.5,53.4 L72.7,84.3 C70.9,83.9 69.2,83.5 67.4,83 L64.6,75.3 C60,73.9 55.4,72.2 50.8,70.2 C49.5,73 48.4,75.4 47.9,76.7 C46.5,76.1 45.1,75.6 43.7,75 L54.9,50.7 C57,51.6 59.2,52.6 61.5,53.4 L61.5,53.4 Z M62.8,70.5 L57.4,55.6 C57.1,56.4 54.8,61.4 52.5,66.5 C55.9,67.9 59.4,69.3 62.8,70.5 L62.8,70.5 Z M459.6,71 C455.6,70.7 452.1,70.4 452.1,67.6 C452.1,65.2 454.6,63.4 458.6,63 C461.2,62.7 464.2,63.2 464.8,65.8 C466,65.6 468,65.2 469.9,64.7 C468.7,60.1 463.6,58.4 458.6,59 C451.5,59.8 446.9,63.3 446.9,68 C446.9,74.7 454.8,75 457.9,75.2 C462.7,75.5 465.7,75.9 465.7,78.9 C465.7,80.9 463.2,83.1 458.6,83.6 C456.2,83.8 453.5,83.4 452.2,81.4 L446.8,82 C448.2,86.2 453,88.4 458.7,87.8 C466.3,87 471.2,83.3 471.2,78.4 C471.1,71.9 465,71.5 459.6,71 L459.6,71 Z M423.4,76.4 C428.2,76.8 433.1,77 438.2,77 L438.2,72.6 C433.3,72.6 428.4,72.4 423.4,72 L423.4,65.6 C429.7,66 434.9,66.1 440.7,66 C440.7,65.2 440.7,64.6 440.6,61.4 C432.5,61.5 425.7,61.2 418.8,60.5 L418.8,87.4 C427.4,88.1 433.9,88.2 441.4,88.1 C441.4,87.8 441.5,84.1 441.5,83.8 C435.5,83.9 429.4,83.7 423.4,83.2 L423.4,76.4 L423.4,76.4 Z M355.7,44.1 L350.8,42.1 L343.3,48.8 L335.6,35.3 C333.4,34.5 331.2,33.7 329,33 L339.4,51.1 L328.1,61.1 C329.7,61.7 331.3,62.3 332.9,62.9 L341.8,55.2 L349.8,69.2 L356.6,72.1 L345.6,52.8 L355.7,44.1 L355.7,44.1 Z M382.9,60.9 C382.9,65.1 379.2,69.2 370.9,66.5 L365.2,64.7 L365.2,75.6 L360.6,73.9 L360.6,46 C369.9,48.9 372.8,50 374.4,50.7 C380.3,53.1 382.9,56.1 382.9,60.9 L382.9,60.9 Z M378.3,60.1 C378.3,56.9 375.3,55.4 370.5,53.8 L365.2,52.2 L365.2,60.4 L370.5,62 C375.2,63.5 378.3,64 378.3,60.1 L378.3,60.1 Z M404.4,73.9 L412.1,86.8 C410.1,86.6 408.1,86.3 406.1,86 L398.7,73.5 L392.7,72.4 L392.7,83.7 C391.1,83.4 389.6,83 388,82.6 L388,54.9 C393.3,56.4 400.2,57.9 400.2,57.9 C407.7,59.3 411.1,62.4 411.1,67.6 C411.2,71.6 408.4,73.5 404.4,73.9 L404.4,73.9 Z M406.4,66.9 C406.4,63.9 404.2,63.3 399.7,62.5 L392.7,61.1 L392.7,67.8 L399.9,69.4 C403.2,69.9 406.4,70.1 406.4,66.9 L406.4,66.9 Z M488.6,64.1 C484.6,64.3 481.3,64.4 481.3,61.5 C481.3,59 483.7,56.9 487.6,56 C489.9,55.5 492.7,55.5 493.5,57.8 C494.9,57.3 496.7,56.6 498.3,55.9 C496.8,51.6 491.9,50.9 487.5,51.9 C480.5,53.6 476.2,57.6 476.2,62.5 C476.2,69.4 484,68.7 486.9,68.6 C491.5,68.4 494.4,68.4 494.4,71.5 C494.4,73.5 492,76.1 487.5,77.2 C485.6,77.6 483.4,77.6 481.9,76.3 L476.5,77.4 C478.1,80.6 482.1,82.7 487.6,81.4 C495,79.6 499.7,75.3 499.7,70.3 C499.7,64 494,64 488.6,64.1 L488.6,64.1 Z M275.4,44.2 C269.7,37.6 263.8,31.3 258.1,25.2 C256.3,25.3 254.6,25.5 252.9,25.7 C252.9,34.7 252.9,43.7 252.9,52.7 C254.3,52.5 255.8,52.3 257.2,52.2 C257.2,45.1 257.2,38.1 257.2,31 C263.3,37.5 269.4,44.3 275.4,51.4 C276.8,51.4 278.2,51.4 279.6,51.5 C279.6,42.6 279.6,33.7 279.6,24.8 C278.2,24.8 276.7,24.7 275.3,24.7 C275.4,31.1 275.4,37.6 275.4,44.2 L275.4,44.2 Z M308,43 C312.6,44.1 317.2,45.4 321.9,46.9 C321.9,45.4 321.9,43.9 321.9,42.4 C317.3,40.9 312.7,39.6 308,38.5 C308,36.3 308,34.2 308,32 C313.4,33.1 318.8,34.4 324.2,36 C324.2,34.5 324.2,33 324.1,31.4 C317.8,29.5 311,27.9 303.5,26.7 C303.5,35.8 303.5,45 303.5,54.1 C311,55.6 318,57.6 324.8,59.9 C324.8,58.4 324.8,56.8 324.9,55.3 C319.3,53.4 313.6,51.8 308,50.4 C308,48.1 308,45.6 308,43 L308,43 Z M180.5,76.1 C182,75.6 183.4,75 184.9,74.5 L184.9,45.9 C183.5,46.5 182,47.1 180.5,47.6 L180.5,76.1 L180.5,76.1 Z M166.7,68.6 C169.6,71.8 172.5,74.8 175.3,77.8 C173.7,78.3 172,78.9 170.3,79.4 C167.5,76.5 164.7,73.5 161.8,70.4 C159.4,71 156.9,71.6 154.5,72.1 C154.5,75.9 154.5,79.7 154.5,83.5 C153,83.8 151.4,84.2 149.8,84.5 C149.8,75.4 149.8,66.2 149.8,57.1 C152.6,56.5 156.8,55.7 162.3,54.2 C169.8,52.2 173.4,53.6 173.4,58.8 C173.5,64 169.8,67 166.7,68.6 L166.7,68.6 Z M162.1,66 C166.7,64.8 168.4,62 168.4,60.6 C168.4,57.4 166.7,57.6 162.3,58.8 C159.7,59.5 157.1,60.1 154.6,60.7 C154.6,63 154.6,65.4 154.6,67.7 C157.1,67.1 159.6,66.6 162.1,66 L162.1,66 Z M203.7,63.4 C197.8,65.3 195.6,61.3 195.6,55.2 C195.6,50.3 199,43.7 204,42.1 C207.1,41.1 209.9,41.4 210.8,44.5 L215.2,43.1 C214.2,37.4 209.4,35.9 203.8,37.6 C196.1,40.1 191,47.6 191,56.6 C191,65.4 195.7,70.2 203.8,67.6 C209.7,65.7 213.9,61.1 215.1,55.3 L210.4,56.5 C209.5,59.9 207.1,62.3 203.7,63.4 L203.7,63.4 Z M124.3,76.6 C129.3,76.2 134.4,75.7 139.4,74.9 C139.4,73.4 139.4,71.9 139.4,70.4 C134.4,71.2 129.3,71.7 124.3,72.1 C124.3,69.9 124.3,67.6 124.3,65.4 C130.2,65 136.1,64.3 141.9,63.3 C141.9,61.7 141.9,60.2 141.8,58.6 C135,59.8 127.6,60.6 119.6,61 C119.6,69.9 119.6,78.9 119.6,87.8 C127.9,87.4 135.6,86.7 142.6,85.6 C142.6,84.1 142.6,82.7 142.7,81.2 C136.6,82.1 130.4,82.7 124.3,83 C124.3,81.1 124.3,78.9 124.3,76.6 L124.3,76.6 Z M235.6,28.3 C239.8,36.6 244,45.1 248,53.4 C247.4,53.5 243.8,54.1 243.2,54.3 C242.7,53.2 241.1,49.8 240.6,48.8 C235.7,49.6 230.7,51 225.9,53 C225.1,55.2 224.3,57.5 223.5,59.7 C221.6,60.3 219.8,61 217.9,61.6 C221.7,51.2 225.7,40.4 229.8,29.7 C231.8,29.1 233.7,28.7 235.6,28.3 L235.6,28.3 Z M238.8,44.7 C237.2,41.4 233.1,32.6 233.1,32.6 C232.8,33.6 229.1,43.7 227.6,47.8 C231.4,46.6 235.1,45.5 238.8,44.7 L238.8,44.7 Z M507.5,27.9 L529.3,76.5 C500.6,93.2 470.5,101.3 438.4,101.3 C354.5,101.3 334.7,64.3 273.4,64.3 C212.1,64.3 192.3,101.3 108.4,101.3 C76.3,101.3 46.2,93.2 17.5,76.5 L39.3,27.9 C59.9,41 81.9,48.5 108.4,48.5 C181.4,48.5 196,11.5 273.4,11.5 C350.7,11.5 365.4,48.5 438.4,48.5 C465,48.5 487,41 507.5,27.9 L507.5,27.9 Z M523.6,74.6 L505.6,34.3 C485.7,46.4 462.5,52.8 438.5,52.8 C364.5,52.8 349.6,15.8 273.5,15.8 C197.5,15.8 182.5,52.8 108.5,52.8 C84.5,52.8 61.3,46.4 41.4,34.3 L23.3,74.5 C48.9,89 78.3,96.7 108.4,96.7 C191.6,96.7 210.5,59.7 273.4,59.7 C336.2,59.7 355.2,96.7 438.4,96.7 C468.6,96.7 498,89.1 523.6,74.6 L523.6,74.6 Z M516.9,5.6 L547,78.7 C513.6,101.8 477,112.8 438.5,112.8 C354,112.8 329.9,75.8 273.5,75.8 C217.1,75.8 193.1,112.8 108.5,112.8 C69.9,112.8 33.3,101.8 0,78.7 L30.1,5.5 C53,27 79,37 108.6,37 C178.6,37 193.4,0 273.6,0 C353.8,0 368.6,37 438.6,37 C468,37.1 494.1,27 516.9,5.6 L516.9,5.6 Z M541.5,77 L515.3,13.3 C494.6,31.6 467.5,41.6 438.5,41.6 C367.2,41.6 352.7,4.6 273.5,4.6 C194.3,4.6 179.8,41.6 108.5,41.6 C79.5,41.6 52.4,31.6 31.7,13.3 L5.5,77 C35.7,97.4 71.2,108.2 108.5,108.2 C192,108.2 215.8,71.2 273.5,71.2 C331.1,71.2 354.9,108.2 438.5,108.2 C475.8,108.1 511.3,97.4 541.5,77 L541.5,77 Z" id="Shape" fill="#E2E5EB" fill-rule="nonzero"></path>
            </g>
        </g>
    </g>
</svg>