<?xml version="1.0" encoding="utf-8"?>
<!-- Generator: Adobe Illustrator 26.0.1, SVG Export Plug-In . SVG Version: 6.00 Build 0)  -->
<svg version="1.1" id="Layer_1" xmlns="http://www.w3.org/2000/svg" xmlns:xlink="http://www.w3.org/1999/xlink" x="0px" y="0px"
	 viewBox="0 0 547 112" style="enable-background:new 0 0 547 112;" xml:space="preserve">
<style type="text/css">
	.st0{filter:url(#Adobe_OpacityMaskFilter);}
	.st1{fill-rule:evenodd;clip-rule:evenodd;fill:#FFFFFF;}
	.st2{mask:url(#mask-2_00000106105807940609163150000017433297914950343344_);fill-rule:evenodd;clip-rule:evenodd;fill:#FFFFFF;}
	.st3{filter:url(#Adobe_OpacityMaskFilter_00000144304767766193004330000008045403128903821223_);}
	.st4{mask:url(#mask-2_00000000184143940354595740000005303002621760444299_);fill-rule:evenodd;clip-rule:evenodd;fill:#929292;}
</style>
<g>
	<g id="Page-1">
		<g id="Group" transform="translate(0.000000, -0.219444)">
			<g id="Group-3" transform="translate(0.000304, 0.000000)">
				<g id="Clip-2">
				</g>
				<defs>
					<filter id="Adobe_OpacityMaskFilter" filterUnits="userSpaceOnUse" x="5.5" y="4.5" width="536" height="103.6">
						<feColorMatrix  type="matrix" values="1 0 0 0 0  0 1 0 0 0  0 0 1 0 0  0 0 0 1 0"/>
					</filter>
				</defs>
				
					<mask maskUnits="userSpaceOnUse" x="5.5" y="4.5" width="536" height="103.6" id="mask-2_00000106105807940609163150000017433297914950343344_">
					<g class="st0">
						<polygon id="path-1_00000120533495525103447900000013871092819101661858_" class="st1" points="0,0 547,0 547,112.6 0,112.6 
													"/>
					</g>
				</mask>
				<path id="Fill-1" class="st2" d="M541.5,76.9l-26.2-63.7c-20.7,18.3-47.8,28.3-76.8,28.3c-71.3,0-85.8-37-165-37
					c-79.2,0-93.7,37-165,37c-29,0-56.1-10-76.8-28.3L5.5,76.9c30.2,20.4,65.7,31.2,103,31.2c83.5,0,107.3-37,165-37
					c57.6,0,81.4,37,165,37C475.8,108.1,511.3,97.3,541.5,76.9L541.5,76.9z"/>
			</g>
		</g>
	</g>
	<g id="Page-1_00000157291349261434160740000014965818305808573826_">
		<g id="Group_00000018207553542949578370000003892837924582618529_" transform="translate(0.000000, -0.219444)">
			<g id="Group-3_00000011734200614991287920000006670779925536648631_" transform="translate(0.000304, 0.000000)">
				<g id="Clip-2_00000137812922269676493160000006021739822474723263_">
				</g>
				<defs>
					
						<filter id="Adobe_OpacityMaskFilter_00000051380273162441393410000000976665274483850924_" filterUnits="userSpaceOnUse" x="0" y="0" width="547" height="112.6">
						<feColorMatrix  type="matrix" values="1 0 0 0 0  0 1 0 0 0  0 0 1 0 0  0 0 0 1 0"/>
					</filter>
				</defs>
				
					<mask maskUnits="userSpaceOnUse" x="0" y="0" width="547" height="112.6" id="mask-2_00000000184143940354595740000005303002621760444299_">
					<g style="filter:url(#Adobe_OpacityMaskFilter_00000051380273162441393410000000976665274483850924_);">
						<polygon id="path-1_00000031191737936868286390000010597536829172293805_" class="st1" points="0,0 547,0 547,112.6 0,112.6 
													"/>
					</g>
				</mask>
				<path id="Fill-1_00000092443814884366253020000011923313938570363836_" class="st4" d="M541.5,76.9l-26.2-63.7
					c-20.7,18.3-47.8,28.3-76.8,28.3c-71.3,0-85.8-37-165-37c-79.2,0-93.7,37-165,37c-29,0-56.1-10-76.8-28.3L5.5,76.9
					c30.2,20.4,65.7,31.2,103,31.2c83.5,0,107.3-37,165-37c57.6,0,81.4,37,165,37C475.8,108.1,511.3,97.3,541.5,76.9L541.5,76.9z
					 M516.9,5.4L547,78.5c-33.4,23.1-70,34.1-108.5,34.1c-84.5,0-108.6-37-165-37c-56.4,0-80.4,37-165,37
					c-38.6,0-75.2-11-108.5-34.1L30.1,5.4C52.9,26.9,79,37,108.5,37c70,0,84.8-37,165-37c80.2,0,95,37,165,37
					C468,37,494.1,26.9,516.9,5.4L516.9,5.4z M523.6,74.6l-18.1-40.2c-19.9,12.1-43.1,18.5-67.1,18.5c-74,0-88.9-37-165-37
					c-76,0-91,37-165,37c-24,0-47.2-6.4-67.1-18.5L23.4,74.6c25.7,14.5,55,22.2,85.1,22.2c83.2,0,102.1-37,165-37
					c62.8,0,81.8,37,165,37C468.6,96.7,498,89.1,523.6,74.6L523.6,74.6z M507.5,27.8l21.8,48.6c-28.7,16.7-58.8,24.8-90.9,24.8
					c-83.9,0-103.7-37-165-37c-61.3,0-81.1,37-165,37c-32.1,0-62.2-8.1-90.9-24.8l21.8-48.6C60,40.9,82.1,48.4,108.5,48.4
					c73,0,87.6-37,165-37c77.3,0,92,37,165,37C465,48.4,487,40.8,507.5,27.8L507.5,27.8z M238.8,44.7c-1.6-3.3-5.7-12.1-5.7-12.1
					c-0.3,1-4,11.1-5.5,15.2C231.4,46.5,235.1,45.4,238.8,44.7L238.8,44.7z M235.6,28.2c4.2,8.3,8.4,16.8,12.4,25.1
					c-0.6,0.1-4.2,0.7-4.8,0.9c-0.5-1.1-2.1-4.5-2.6-5.5c-4.9,0.8-9.9,2.2-14.7,4.2c-0.8,2.2-1.6,4.5-2.4,6.7
					c-1.9,0.6-3.7,1.3-5.6,1.9c3.8-10.4,7.8-21.2,11.9-31.9C231.8,29,233.7,28.6,235.6,28.2L235.6,28.2z M124.3,76.6
					c5-0.4,10.1-0.9,15.1-1.7v-4.5c-5,0.8-10.1,1.3-15.1,1.7v-6.7c5.9-0.4,11.8-1.1,17.6-2.1c0-1.6-0.1-3.1-0.1-4.7
					c-6.8,1.2-14.2,2-22.2,2.4v26.8c8.3-0.4,16-1.1,23-2.2c0-1.5,0-2.9,0.1-4.4c-6.1,0.9-12.3,1.5-18.4,1.8V76.6z M203.7,63.3
					c-5.9,1.9-8.1-2.1-8.1-8.2c0-4.9,3.4-11.5,8.4-13.1c3.1-1,5.9-0.7,6.8,2.4l4.4-1.4c-1-5.7-5.8-7.2-11.4-5.5
					c-7.7,2.5-12.8,10-12.8,19c0,8.8,4.7,13.6,12.8,11c5.9-1.9,10.1-6.5,11.3-12.3l-4.7,1.2C209.5,59.8,207.1,62.2,203.7,63.3
					L203.7,63.3z M162.1,65.9c4.6-1.2,6.3-4,6.3-5.4c0-3.2-1.7-3-6.1-1.8c-2.6,0.7-5.2,1.3-7.7,1.9v7
					C157.1,67,159.6,66.5,162.1,65.9L162.1,65.9z M166.7,68.6c2.9,3.2,5.8,6.2,8.6,9.2c-1.6,0.5-3.3,1.1-5,1.6
					c-2.8-2.9-5.6-5.9-8.5-9c-2.4,0.6-4.9,1.2-7.3,1.7v11.4c-1.5,0.3-3.1,0.7-4.7,1V57.1c2.8-0.6,7-1.4,12.5-2.9
					c7.5-2,11.1-0.6,11.1,4.6C173.5,63.9,169.8,66.9,166.7,68.6L166.7,68.6z M180.5,76c1.5-0.5,2.9-1.1,4.4-1.6V45.8
					c-1.4,0.6-2.9,1.2-4.4,1.7V76z M308,42.9c4.6,1.1,9.2,2.4,13.9,3.9v-4.5c-4.6-1.5-9.2-2.8-13.9-3.9V32c5.4,1.1,10.8,2.4,16.2,4
					c0-1.5,0-3-0.1-4.6c-6.4-1.9-13.1-3.5-20.6-4.7v27.4c7.5,1.5,14.5,3.5,21.3,5.8c0-1.5,0-3.1,0.1-4.6c-5.6-1.9-11.3-3.5-16.9-4.9
					V42.9z M275.4,44c-5.7-6.6-11.6-12.9-17.3-19c-1.8,0.1-3.5,0.3-5.2,0.5v27c1.4-0.2,2.9-0.4,4.3-0.5c0-7.1,0-14.1,0-21.2
					c6.1,6.5,12.2,13.3,18.2,20.4c1.4,0,2.8,0,4.2,0.1V24.5c-1.4,0-2.9-0.1-4.3-0.1C275.4,31,275.4,37.5,275.4,44L275.4,44z
					 M488.6,64.1c-4,0.2-7.3,0.3-7.3-2.6c0-2.5,2.4-4.6,6.3-5.5c2.3-0.5,5.1-0.5,5.9,1.8c1.4-0.5,3.2-1.2,4.8-1.9
					c-1.5-4.3-6.4-5-10.8-4c-7,1.7-11.3,5.7-11.3,10.6c0,6.9,7.8,6.2,10.7,6.1c4.6-0.2,7.5-0.2,7.5,2.9c0,2-2.4,4.6-6.9,5.7
					c-1.9,0.4-4.1,0.4-5.6-0.9l-5.4,1.1c1.6,3.2,5.6,5.3,11.1,4c7.4-1.8,12.1-6.1,12.1-11.1C499.7,63.9,494,63.9,488.6,64.1
					L488.6,64.1z M406.4,66.7c0-3-2.2-3.6-6.7-4.4l-7-1.4v6.7l7.2,1.6C403.2,69.8,406.4,70,406.4,66.7L406.4,66.7z M404.4,73.8
					l7.7,12.9c-2-0.2-4-0.5-6-0.8l-7.4-12.5l-6-1.1v11.3c-1.6-0.3-3.1-0.7-4.7-1.1V54.8c5.3,1.5,12.2,3,12.2,3
					c7.5,1.4,10.9,4.5,10.9,9.7C411.2,71.5,408.4,73.4,404.4,73.8L404.4,73.8z M378.3,59.9c0-3.2-3-4.7-7.8-6.3l-5.3-1.6v8.2
					l5.3,1.6C375.2,63.4,378.3,63.9,378.3,59.9L378.3,59.9z M382.9,60.7c0,4.2-3.7,8.3-12,5.6l-5.7-1.8v10.9l-4.6-1.7V45.8
					c9.3,2.9,12.2,4,13.8,4.7C380.3,53,382.9,56,382.9,60.7L382.9,60.7z M355.7,44l-4.9-2l-7.5,6.7l-7.7-13.5
					c-2.2-0.8-4.4-1.6-6.6-2.3L339.4,51l-11.3,10.1c1.6,0.6,3.2,1.2,4.8,1.8l8.9-7.7l8,14l6.8,2.9l-11-19.3L355.7,44z M423.4,76.3
					c4.8,0.4,9.7,0.6,14.8,0.6v-4.4c-4.9,0-9.8-0.2-14.8-0.6v-6.4c6.3,0.4,11.5,0.5,17.3,0.4c0-0.8,0-1.4-0.1-4.6
					c-8.1,0.1-14.9-0.2-21.8-0.9v26.9c8.6,0.7,15.1,0.8,22.6,0.7c0-0.3,0.1-4,0.1-4.3c-6,0.1-12.1-0.1-18.1-0.6V76.3z M459.6,70.9
					c-4-0.3-7.5-0.6-7.5-3.4c0-2.4,2.5-4.2,6.5-4.6c2.6-0.3,5.6,0.2,6.2,2.8c1.2-0.2,3.2-0.6,5.1-1.1c-1.2-4.6-6.3-6.3-11.3-5.7
					c-7.1,0.8-11.7,4.3-11.7,9c0,6.7,7.9,7,11,7.2c4.8,0.3,7.8,0.7,7.8,3.7c0,2-2.5,4.2-7.1,4.7c-2.4,0.2-5.1-0.2-6.4-2.2l-5.4,0.6
					c1.4,4.2,6.2,6.4,11.9,5.8c7.6-0.8,12.5-4.5,12.5-9.4C471.1,71.8,465,71.3,459.6,70.9L459.6,70.9z M62.8,70.3l-5.4-14.9
					c-0.3,0.8-2.6,5.8-4.9,10.9C55.9,67.8,59.4,69.1,62.8,70.3L62.8,70.3z M61.5,53.3l11.2,30.9c-1.8-0.4-3.5-0.8-5.3-1.3l-2.8-7.7
					c-4.6-1.4-9.2-3.1-13.8-5.1c-1.3,2.8-2.4,5.2-2.9,6.5c-1.4-0.6-2.8-1.1-4.2-1.7l11.2-24.3C57,51.6,59.2,52.5,61.5,53.3
					L61.5,53.3z M108.5,61.4c0.9,0,1.8,0,2.7,0v26.7c-0.9,0-1.8,0-2.7,0c-0.6,0-1.2,0-1.9-0.1c0-4.2,0-20,0.1-23.3
					c-1.2,3.4-8.5,19.7-9.9,22.9c-1.8-0.1-3.5-0.3-5.3-0.5c-1.6-4-8.6-20.8-9.8-24.1c0,3.1,0.1,18,0.1,22.8
					c-1.5-0.2-3.1-0.5-4.6-0.8l0.2-27.2c2.6,0.6,5.3,1.1,7.9,1.6c1.6,4.1,8,20.3,9.1,23.6l8.7-21.8
					C104.9,61.3,106.7,61.4,108.5,61.4L108.5,61.4z"/>
			</g>
		</g>
	</g>
</g>
</svg>
