<?xml version="1.0" encoding="utf-8"?>
<!-- Generator: Adobe Illustrator 26.0.1, SVG Export Plug-In . SVG Version: 6.00 Build 0)  -->
<svg version="1.1" id="Layer_1" xmlns="http://www.w3.org/2000/svg" xmlns:xlink="http://www.w3.org/1999/xlink" x="0px" y="0px"
	 viewBox="0 0 547 319" style="enable-background:new 0 0 547 319;" xml:space="preserve">
<style type="text/css">
	.st0{fill:#006FCF;}
	.st1{opacity:0.541;enable-background:new    ;}
	.st2{fill-rule:evenodd;clip-rule:evenodd;fill:#FEFEFD;}
	.st3{fill-rule:evenodd;clip-rule:evenodd;fill:#FFFFFF;}
	.st4{fill:#D0E6F8;}
</style>
<g id="path-1_00000025437069862841206000000000625955942073320623_">
	<path class="st0" d="M489,261H70c-2.8,0-5-2.2-5-5V4c0-2.8,2.2-5,5-5h419c2.8,0,5,2.2,5,5v252C494,258.8,491.8,261,489,261z M70,1
		c-1.7,0-3,1.3-3,3v252c0,1.7,1.3,3,3,3h419c1.7,0,3-1.3,3-3V4c0-1.7-1.3-3-3-3H70z"/>
</g>
<g id="Rectangle-Copy-2_00000176027526914990975490000002525183002960766114_" class="st1">
	<path class="st2" d="M71,4h417c0.6,0,1,0.4,1,1v249c0,0.6-0.4,1-1,1H71c-0.6,0-1-0.4-1-1V5C70,4.4,70.4,4,71,4z"/>
	<path class="st0" d="M488,256H71c-1.2,0-2-0.8-2-2V5c0-1.2,0.8-2,2-2h417c1.2,0,2,0.8,2,2v249C490,255.2,489.2,256,488,256z M71,5
		C71,5,70.9,5,71,5v249h417V5H71z"/>
</g>
<g id="Fill-1-Copy">
	<path class="st3" d="M273.5,206c80.2,0,95,36.8,165,36.8c29.3,0,55.1-9.8,77.8-30.7l0.7-0.6l30.1,72.7c-33.4,23-70,33.9-108.5,33.9
		c-84.5,0-108.6-36.8-165-36.8s-80.4,36.8-165,36.8C70.3,318,34.1,307.3,1,284.8l-1-0.7l30.1-72.7c22.9,21.4,48.9,31.4,78.5,31.4
		C178.5,242.8,193.3,206,273.5,206L273.5,206z"/>
</g>
<g id="path-4_00000112626139555141471110000012230126756235053467_">
	<path class="st3" d="M273.3,206c80.2,0,95,36.8,165,36.8c29.3,0,55.1-9.8,77.8-30.7l0.7-0.6l30.1,72.7c-33.4,23-70,33.9-108.5,33.9
		c-84.5,0-108.6-36.8-165-36.8s-80.4,36.8-165,36.8c-38.2,0-74.5-10.7-107.5-33.2l-1-0.7L30,211.5c22.9,21.4,48.9,31.4,78.5,31.4
		C178.3,242.8,193.1,206,273.3,206L273.3,206z"/>
</g>
<g>
	<path class="st4" d="M108.5,267.1c0.9,0,1.8,0,2.7,0v26.7c-0.9,0-1.8,0-2.7,0c-0.6,0-1.2,0-1.9-0.1c0-4.2,0-20,0.1-23.3
		c-1.2,3.4-8.5,19.7-9.9,22.9c-1.8-0.1-3.5-0.3-5.3-0.5c-1.6-4-8.6-20.8-9.8-24.1c0,3.1,0.1,18,0.1,22.8c-1.5-0.2-3.1-0.5-4.6-0.8
		l0.2-27.2c2.6,0.6,5.3,1.1,7.9,1.6c1.6,4.1,8,20.3,9.1,23.6l8.7-21.8C104.9,267,106.7,267.1,108.5,267.1L108.5,267.1z M61.5,259
		l11.2,30.9c-1.8-0.4-3.5-0.8-5.3-1.3l-2.8-7.7c-4.6-1.4-9.2-3.1-13.8-5.1c-1.3,2.8-2.4,5.2-2.9,6.5c-1.4-0.6-2.8-1.1-4.2-1.7
		l11.2-24.3C57,257.3,59.2,258.2,61.5,259L61.5,259z M62.8,276.1l-5.4-14.9c-0.3,0.8-2.6,5.8-4.9,10.9
		C55.9,273.5,59.4,274.9,62.8,276.1L62.8,276.1z M459.6,276.6c-4-0.3-7.5-0.6-7.5-3.4c0-2.4,2.5-4.2,6.5-4.6
		c2.6-0.3,5.6,0.2,6.2,2.8c1.2-0.2,3.2-0.6,5.1-1.1c-1.2-4.6-6.3-6.3-11.3-5.7c-7.1,0.8-11.7,4.3-11.7,9c0,6.7,7.9,7,11,7.2
		c4.8,0.3,7.8,0.7,7.8,3.7c0,2-2.5,4.2-7.1,4.7c-2.4,0.2-5.1-0.2-6.4-2.2l-5.4,0.6c1.4,4.2,6.2,6.4,11.9,5.8
		c7.6-0.8,12.5-4.5,12.5-9.4C471.1,277.5,465,277.1,459.6,276.6L459.6,276.6z M423.4,282c4.8,0.4,9.7,0.6,14.8,0.6v-4.4
		c-4.9,0-9.8-0.2-14.8-0.6v-6.4c6.3,0.4,11.5,0.5,17.3,0.4c0-0.8,0-1.4-0.1-4.6c-8.1,0.1-14.9-0.2-21.8-0.9V293
		c8.6,0.7,15.1,0.8,22.6,0.7c0-0.3,0.1-4,0.1-4.3c-6,0.1-12.1-0.1-18.1-0.6V282L423.4,282z M355.7,249.7l-4.9-2l-7.5,6.7l-7.7-13.5
		c-2.2-0.8-4.4-1.6-6.6-2.3l10.4,18.1l-11.3,10c1.6,0.6,3.2,1.2,4.8,1.8l8.9-7.7l8,14l6.8,2.9l-11-19.3L355.7,249.7L355.7,249.7z
		 M382.9,266.5c0,4.2-3.7,8.3-12,5.6l-5.7-1.8v10.9l-4.6-1.7v-27.9c9.3,2.9,12.2,4,13.8,4.7C380.3,258.7,382.9,261.7,382.9,266.5
		L382.9,266.5z M378.3,265.7c0-3.2-3-4.7-7.8-6.3l-5.3-1.6v8.2l5.3,1.6C375.2,269.1,378.3,269.6,378.3,265.7L378.3,265.7z
		 M404.4,279.5l7.7,12.9c-2-0.2-4-0.5-6-0.8l-7.4-12.5l-6-1.1v11.3c-1.6-0.3-3.1-0.7-4.7-1.1v-27.7c5.3,1.5,12.2,3,12.2,3
		c7.5,1.4,10.9,4.5,10.9,9.7C411.2,277.3,408.4,279.1,404.4,279.5L404.4,279.5z M406.4,272.5c0-3-2.2-3.6-6.7-4.4l-7-1.4v6.7
		l7.2,1.6C403.2,275.5,406.4,275.7,406.4,272.5L406.4,272.5z M488.6,269.8c-4,0.2-7.3,0.3-7.3-2.6c0-2.5,2.4-4.6,6.3-5.5
		c2.3-0.5,5.1-0.5,5.9,1.8c1.4-0.5,3.2-1.2,4.8-1.9c-1.5-4.3-6.4-5-10.8-4c-7,1.7-11.3,5.7-11.3,10.6c0,6.9,7.8,6.2,10.7,6.1
		c4.6-0.2,7.5-0.2,7.5,2.9c0,2-2.4,4.6-6.9,5.7c-1.9,0.4-4.1,0.4-5.6-0.9l-5.4,1.1c1.6,3.2,5.6,5.3,11.1,4
		c7.4-1.8,12.1-6.1,12.1-11.1C499.7,269.6,494,269.6,488.6,269.8L488.6,269.8z M275.4,249.8c-5.7-6.6-11.6-12.9-17.3-19
		c-1.8,0.1-3.5,0.3-5.2,0.5c0,9,0,18,0,27c1.4-0.2,2.9-0.4,4.3-0.5c0-7.1,0-14.1,0-21.2c6.1,6.5,12.2,13.3,18.2,20.4
		c1.4,0,2.8,0,4.2,0.1c0-8.9,0-17.8,0-26.7c-1.4,0-2.9-0.1-4.3-0.1C275.4,236.7,275.4,243.2,275.4,249.8L275.4,249.8z M308,248.6
		c4.6,1.1,9.2,2.4,13.9,3.9c0-1.5,0-3,0-4.5c-4.6-1.5-9.2-2.8-13.9-3.9c0-2.2,0-4.3,0-6.5c5.4,1.1,10.8,2.4,16.2,4
		c0-1.5,0-3-0.1-4.6c-6.3-1.9-13.1-3.5-20.6-4.7c0,9.1,0,18.3,0,27.4c7.5,1.5,14.5,3.5,21.3,5.8c0-1.5,0-3.1,0.1-4.6
		c-5.6-1.9-11.3-3.5-16.9-4.9C308,253.7,308,251.2,308,248.6L308,248.6z M180.5,281.7c1.5-0.5,2.9-1.1,4.4-1.6v-28.6
		c-1.4,0.6-2.9,1.2-4.4,1.7V281.7L180.5,281.7z M166.7,274.3c2.9,3.2,5.8,6.2,8.6,9.2c-1.6,0.5-3.3,1.1-5,1.6
		c-2.8-2.9-5.6-5.9-8.5-9c-2.4,0.6-4.9,1.2-7.3,1.7c0,3.8,0,7.6,0,11.4c-1.5,0.3-3.1,0.7-4.7,1c0-9.1,0-18.3,0-27.4
		c2.8-0.6,7-1.4,12.5-2.9c7.5-2,11.1-0.6,11.1,4.6C173.5,269.6,169.8,272.6,166.7,274.3L166.7,274.3z M162.1,271.6
		c4.6-1.2,6.3-4,6.3-5.4c0-3.2-1.7-3-6.1-1.8c-2.6,0.7-5.2,1.3-7.7,1.9c0,2.3,0,4.7,0,7C157.1,272.8,159.6,272.2,162.1,271.6
		L162.1,271.6z M203.7,269c-5.9,1.9-8.1-2.1-8.1-8.2c0-4.9,3.4-11.5,8.4-13.1c3.1-1,5.9-0.7,6.8,2.4l4.4-1.4
		c-1-5.7-5.8-7.2-11.4-5.5c-7.7,2.5-12.8,10-12.8,19c0,8.8,4.7,13.6,12.8,11c5.9-1.9,10.1-6.5,11.3-12.3l-4.7,1.2
		C209.5,265.5,207.1,267.9,203.7,269L203.7,269z M124.3,282.3c5-0.4,10.1-0.9,15.1-1.7c0-1.5,0-3,0-4.5c-5,0.8-10.1,1.3-15.1,1.7
		c0-2.2,0-4.5,0-6.7c5.9-0.4,11.8-1.1,17.6-2.1c0-1.6,0-3.1-0.1-4.7c-6.8,1.2-14.2,2-22.2,2.4c0,8.9,0,17.9,0,26.8
		c8.3-0.4,16-1.1,23-2.2c0-1.5,0-2.9,0.1-4.4c-6.1,0.9-12.3,1.5-18.4,1.8C124.3,286.7,124.3,284.5,124.3,282.3L124.3,282.3z
		 M235.6,233.9c4.2,8.3,8.4,16.8,12.4,25.1c-0.6,0.1-4.2,0.7-4.8,0.9c-0.5-1.1-2.1-4.5-2.6-5.5c-4.9,0.8-9.9,2.2-14.7,4.2
		c-0.8,2.2-1.6,4.5-2.4,6.7c-1.9,0.6-3.7,1.3-5.6,1.9c3.8-10.4,7.8-21.2,11.9-31.9C231.8,234.7,233.7,234.3,235.6,233.9L235.6,233.9
		z M238.8,250.4c-1.6-3.3-5.7-12.1-5.7-12.1c-0.3,1-4,11.1-5.5,15.2C231.4,252.2,235.1,251.1,238.8,250.4L238.8,250.4z M507.5,233.5
		l21.8,48.6c-28.7,16.7-58.8,24.8-90.9,24.8c-83.9,0-103.7-37-165-37s-81.1,37-165,37c-32.1,0-62.2-8.1-90.9-24.8l21.8-48.6
		c20.6,13.1,42.6,20.6,69.1,20.6c73,0,87.6-37,165-37c77.3,0,92,37,165,37C465,254.1,487,246.6,507.5,233.5L507.5,233.5z
		 M523.6,280.3l-18-40.3c-19.9,12.1-43.1,18.5-67.1,18.5c-74,0-88.9-37-165-37c-76,0-91,37-165,37c-24,0-47.2-6.4-67.1-18.5
		l-18.1,40.2c25.6,14.5,55,22.2,85.1,22.2c83.2,0,102.1-37,165-37c62.8,0,81.8,37,165,37C468.6,302.4,498,294.8,523.6,280.3
		L523.6,280.3z M516.9,211.2l30.1,73.1c-33.4,23.1-70,34.1-108.5,34.1c-84.5,0-108.6-37-165-37s-80.4,37-165,37
		c-38.6,0-75.2-11-108.5-34.1l30.1-73.1c22.9,21.5,48.9,31.5,78.5,31.5c70,0,84.8-37,165-37s95,37,165,37
		C468,242.7,494.1,232.6,516.9,211.2L516.9,211.2z M541.5,282.6l-26.2-63.7c-20.7,18.3-47.8,28.3-76.8,28.3c-71.3,0-85.8-37-165-37
		s-93.7,37-165,37c-29,0-56.1-10-76.8-28.3L5.5,282.6c30.2,20.4,65.7,31.2,103,31.2c83.5,0,107.3-37,165-37c57.6,0,81.4,37,165,37
		C475.8,313.8,511.3,303,541.5,282.6L541.5,282.6z"/>
</g>
</svg>
