<?xml version="1.0" encoding="utf-8"?>
<!-- Generator: Adobe Illustrator 26.0.1, SVG Export Plug-In . SVG Version: 6.00 Build 0)  -->
<svg version="1.1" id="Layer_1" xmlns="http://www.w3.org/2000/svg" xmlns:xlink="http://www.w3.org/1999/xlink" x="0px" y="0px"
	 viewBox="0 0 547.2 112.7" style="enable-background:new 0 0 547.2 112.7;" xml:space="preserve">
<style type="text/css">
	.st0{fill-rule:evenodd;clip-rule:evenodd;fill:#FFFFFF;}
	.st1{fill:#D0E6F8;}
</style>
<path id="Fill-1-Copy" class="st0" d="M273.6,0.3c80.2,0,95,36.8,165,36.8c29.3,0,55.1-9.8,77.8-30.7l0.7-0.6l30.1,72.7
	c-33.4,23-70,33.9-108.5,33.9c-84.5,0-108.6-36.8-165-36.8s-80.4,36.8-165,36.8c-38.3-0.1-74.5-10.8-107.6-33.3l-1-0.7L30.2,5.7
	c22.9,21.4,48.9,31.4,78.5,31.4C178.6,37.1,193.4,0.3,273.6,0.3L273.6,0.3z"/>
<path id="path-4_00000112626139555141471110000012230126756235053467_" class="st0" d="M273.4,0.3c80.2,0,95,36.8,165,36.8
	c29.3,0,55.1-9.8,77.8-30.7l0.7-0.6L547,78.5c-33.4,23-70,33.9-108.5,33.9c-84.5,0-108.6-36.8-165-36.8s-80.4,36.8-165,36.8
	C70.3,112.4,34,101.7,1,79.2l-1-0.7L30.1,5.8C53,27.2,79,37.2,108.6,37.2C178.4,37.1,193.2,0.3,273.4,0.3L273.4,0.3z"/>
<path class="st1" d="M108.6,61.4c0.9,0,1.8,0,2.7,0v26.7c-0.9,0-1.8,0-2.7,0c-0.6,0-1.2,0-1.9-0.1c0-4.2,0-20,0.1-23.3
	c-1.2,3.4-8.5,19.7-9.9,22.9c-1.8-0.1-3.5-0.3-5.3-0.5C90,83.1,83,66.3,81.8,63c0,3.1,0.1,18,0.1,22.8c-1.5-0.2-3.1-0.5-4.6-0.8
	l0.2-27.2c2.6,0.6,5.3,1.1,7.9,1.6c1.6,4.1,8,20.3,9.1,23.6l8.7-21.8C105,61.3,106.8,61.4,108.6,61.4L108.6,61.4z M61.6,53.3
	l11.2,30.9c-1.8-0.4-3.5-0.8-5.3-1.3l-2.8-7.7c-4.6-1.4-9.2-3.1-13.8-5.1c-1.3,2.8-2.4,5.2-2.9,6.5c-1.4-0.6-2.8-1.1-4.2-1.7
	L55,50.6C57.1,51.6,59.3,52.5,61.6,53.3L61.6,53.3z M62.9,70.4l-5.4-14.9c-0.3,0.8-2.6,5.8-4.9,10.9C56,67.8,59.5,69.2,62.9,70.4
	L62.9,70.4z M459.7,70.9c-4-0.3-7.5-0.6-7.5-3.4c0-2.4,2.5-4.2,6.5-4.6c2.6-0.3,5.6,0.2,6.2,2.8c1.2-0.2,3.2-0.6,5.1-1.1
	c-1.2-4.6-6.3-6.3-11.3-5.7c-7.1,0.8-11.7,4.3-11.7,9c0,6.7,7.9,7,11,7.2c4.8,0.3,7.8,0.7,7.8,3.7c0,2-2.5,4.2-7.1,4.7
	c-2.4,0.2-5.1-0.2-6.4-2.2l-5.4,0.6c1.4,4.2,6.2,6.4,11.9,5.8c7.6-0.8,12.5-4.5,12.5-9.4C471.2,71.8,465.1,71.4,459.7,70.9
	L459.7,70.9z M423.5,76.3c4.8,0.4,9.7,0.6,14.8,0.6v-4.4c-4.9,0-9.8-0.2-14.8-0.6v-6.4c6.3,0.4,11.5,0.5,17.3,0.4
	c0-0.8,0-1.4-0.1-4.6c-8.1,0.1-14.9-0.2-21.8-0.9v26.9c8.6,0.7,15.1,0.8,22.6,0.7c0-0.3,0.1-4,0.1-4.3c-6,0.1-12.1-0.1-18.1-0.6
	V76.3L423.5,76.3z M355.8,44l-4.9-2l-7.5,6.7l-7.7-13.5c-2.2-0.8-4.4-1.6-6.6-2.3L339.5,51l-11.3,10c1.6,0.6,3.2,1.2,4.8,1.8
	l8.9-7.7l8,14l6.8,2.9l-11-19.3L355.8,44L355.8,44z M383,60.8c0,4.2-3.7,8.3-12,5.6l-5.7-1.8v10.9l-4.6-1.7V45.9
	c9.3,2.9,12.2,4,13.8,4.7C380.4,53,383,56,383,60.8L383,60.8z M378.4,60c0-3.2-3-4.7-7.8-6.3l-5.3-1.6v8.2l5.3,1.6
	C375.3,63.4,378.4,63.9,378.4,60L378.4,60z M404.5,73.8l7.7,12.9c-2-0.2-4-0.5-6-0.8l-7.4-12.5l-6-1.1v11.3
	c-1.6-0.3-3.1-0.7-4.7-1.1V54.8c5.3,1.5,12.2,3,12.2,3c7.5,1.4,10.9,4.5,10.9,9.7C411.3,71.6,408.5,73.4,404.5,73.8L404.5,73.8z
	 M406.5,66.8c0-3-2.2-3.6-6.7-4.4l-7-1.4v6.7l7.2,1.6C403.3,69.8,406.5,70,406.5,66.8L406.5,66.8z M488.7,64.1
	c-4,0.2-7.3,0.3-7.3-2.6c0-2.5,2.4-4.6,6.3-5.5c2.3-0.5,5.1-0.5,5.9,1.8c1.4-0.5,3.2-1.2,4.8-1.9c-1.5-4.3-6.4-5-10.8-4
	c-7,1.7-11.3,5.7-11.3,10.6c0,6.9,7.8,6.2,10.7,6.1c4.6-0.2,7.5-0.2,7.5,2.9c0,2-2.4,4.6-6.9,5.7c-1.9,0.4-4.1,0.4-5.6-0.9l-5.4,1.1
	c1.6,3.2,5.6,5.3,11.1,4c7.4-1.8,12.1-6.1,12.1-11.1C499.8,63.9,494.1,63.9,488.7,64.1L488.7,64.1z M275.5,44.1
	c-5.7-6.6-11.6-12.9-17.3-19c-1.8,0.1-3.5,0.3-5.2,0.5c0,9,0,18,0,27c1.4-0.2,2.9-0.4,4.3-0.5c0-7.1,0-14.1,0-21.2
	c6.1,6.5,12.2,13.3,18.2,20.4c1.4,0,2.8,0,4.2,0.1c0-8.9,0-17.8,0-26.7c-1.4,0-2.9-0.1-4.3-0.1C275.5,31,275.5,37.5,275.5,44.1
	L275.5,44.1z M308.1,42.9c4.6,1.1,9.2,2.4,13.9,3.9c0-1.5,0-3,0-4.5c-4.6-1.5-9.2-2.8-13.9-3.9c0-2.2,0-4.3,0-6.5
	c5.4,1.1,10.8,2.4,16.2,4c0-1.5,0-3-0.1-4.6c-6.3-1.9-13.1-3.5-20.6-4.7c0,9.1,0,18.3,0,27.4c7.5,1.5,14.5,3.5,21.3,5.8
	c0-1.5,0-3.1,0.1-4.6c-5.6-1.9-11.3-3.5-16.9-4.9C308.1,48,308.1,45.5,308.1,42.9L308.1,42.9z M180.6,76c1.5-0.5,2.9-1.1,4.4-1.6
	V45.8c-1.4,0.6-2.9,1.2-4.4,1.7V76L180.6,76z M166.8,68.6c2.9,3.2,5.8,6.2,8.6,9.2c-1.6,0.5-3.3,1.1-5,1.6c-2.8-2.9-5.6-5.9-8.5-9
	c-2.4,0.6-4.9,1.2-7.3,1.7c0,3.8,0,7.6,0,11.4c-1.5,0.3-3.1,0.7-4.7,1c0-9.1,0-18.3,0-27.4c2.8-0.6,7-1.4,12.5-2.9
	c7.5-2,11.1-0.6,11.1,4.6C173.6,63.9,169.9,66.9,166.8,68.6L166.8,68.6z M162.2,65.9c4.6-1.2,6.3-4,6.3-5.4c0-3.2-1.7-3-6.1-1.8
	c-2.6,0.7-5.2,1.3-7.7,1.9c0,2.3,0,4.7,0,7C157.2,67.1,159.7,66.5,162.2,65.9L162.2,65.9z M203.8,63.3c-5.9,1.9-8.1-2.1-8.1-8.2
	c0-4.9,3.4-11.5,8.4-13.1c3.1-1,5.9-0.7,6.8,2.4l4.4-1.4c-1-5.7-5.8-7.2-11.4-5.5c-7.7,2.5-12.8,10-12.8,19c0,8.8,4.7,13.6,12.8,11
	c5.9-1.9,10.1-6.5,11.3-12.3l-4.7,1.2C209.6,59.8,207.2,62.2,203.8,63.3L203.8,63.3z M124.4,76.6c5-0.4,10.1-0.9,15.1-1.7
	c0-1.5,0-3,0-4.5c-5,0.8-10.1,1.3-15.1,1.7c0-2.2,0-4.5,0-6.7c5.9-0.4,11.8-1.1,17.6-2.1c0-1.6,0-3.1-0.1-4.7
	c-6.8,1.2-14.2,2-22.2,2.4c0,8.9,0,17.9,0,26.8c8.3-0.4,16-1.1,23-2.2c0-1.5,0-2.9,0.1-4.4c-6.1,0.9-12.3,1.5-18.4,1.8
	C124.4,81,124.4,78.8,124.4,76.6L124.4,76.6z M235.7,28.2c4.2,8.3,8.4,16.8,12.4,25.1c-0.6,0.1-4.2,0.7-4.8,0.9
	c-0.5-1.1-2.1-4.5-2.6-5.5c-4.9,0.8-9.9,2.2-14.7,4.2c-0.8,2.2-1.6,4.5-2.4,6.7c-1.9,0.6-3.7,1.3-5.6,1.9
	c3.8-10.4,7.8-21.2,11.9-31.9C231.9,29,233.8,28.6,235.7,28.2L235.7,28.2z M238.9,44.7c-1.6-3.3-5.7-12.1-5.7-12.1
	c-0.3,1-4,11.1-5.5,15.2C231.5,46.5,235.2,45.4,238.9,44.7L238.9,44.7z M507.6,27.8l21.8,48.6c-28.7,16.7-58.8,24.8-90.9,24.8
	c-83.9,0-103.7-37-165-37s-81.1,37-165,37c-32.1,0-62.2-8.1-90.9-24.8l21.8-48.6C60,40.9,82,48.4,108.5,48.4c73,0,87.6-37,165-37
	c77.3,0,92,37,165,37C465.1,48.4,487.1,40.9,507.6,27.8L507.6,27.8z M523.7,74.6l-18-40.3c-19.9,12.1-43.1,18.5-67.1,18.5
	c-74,0-88.9-37-165-37c-76,0-91,37-165,37c-24,0-47.2-6.4-67.1-18.5L23.4,74.5C49,89,78.4,96.7,108.5,96.7c83.2,0,102.1-37,165-37
	c62.8,0,81.8,37,165,37C468.7,96.7,498.1,89.1,523.7,74.6L523.7,74.6z M517,5.5l30.1,73.1c-33.4,23.1-70,34.1-108.5,34.1
	c-84.5,0-108.6-37-165-37s-80.4,37-165,37c-38.6,0-75.2-11-108.5-34.1L30.2,5.5C53.1,27,79.1,37,108.7,37c70,0,84.8-37,165-37
	s95,37,165,37C468.1,37,494.2,26.9,517,5.5L517,5.5z M541.6,76.9l-26.2-63.7c-20.7,18.3-47.8,28.3-76.8,28.3c-71.3,0-85.8-37-165-37
	s-93.7,37-165,37c-29,0-56.1-10-76.8-28.3L5.6,76.9c30.2,20.4,65.7,31.2,103,31.2c83.5,0,107.3-37,165-37c57.6,0,81.4,37,165,37
	C475.9,108.1,511.4,97.3,541.6,76.9L541.6,76.9z"/>
</svg>
