<?xml version="1.0" encoding="UTF-8"?>
<svg width="518px" height="147px" viewBox="0 0 518 147" version="1.1" xmlns="http://www.w3.org/2000/svg" xmlns:xlink="http://www.w3.org/1999/xlink">
    <title>graphic/flourish</title>
    <defs>
        <rect id="path-1" x="0" y="0" width="518" height="147"></rect>
        <filter id="filter-3">
            <feColorMatrix in="SourceGraphic" type="matrix" values="0 0 0 0 1.000000 0 0 0 0 1.000000 0 0 0 0 1.000000 0 0 0 1.000000 0"></feColorMatrix>
        </filter>
        <polygon id="path-4" points="0.00131853659 0.00131538462 898.248654 0.00131538462 898.248654 338.221777 0.00131853659 338.221777"></polygon>
    </defs>
    <g id="PAGE" stroke="none" stroke-width="1" fill="none" fill-rule="evenodd" opacity="0.249477653">
        <g id="component/header/DT" transform="translate(-802.000000, -3.000000)">
            <g id="graphic/flourish" transform="translate(802.000000, 3.000000)">
                <mask id="mask-2" fill="white">
                    <use xlink:href="#path-1"></use>
                </mask>
                <g id="Mask"></g>
                <g id="Group" mask="url(#mask-2)">
                    <g transform="translate(-345.000000, 0.000000)" id="graphic/flourish" filter="url(#filter-3)">
                        <g>
                            <mask id="mask-5" fill="white">
                                <use xlink:href="#path-4"></use>
                            </mask>
                            <g id="Clip-2"></g>
                            <path d="M578.909201,123.086238 C576.302894,121.1877 573.652636,119.661854 570.787016,118.6227 C570.866128,119.920546 570.980401,121.183315 571.10786,122.428546 C575.648021,133.346238 582.337397,143.0757 590.56067,151.349469 C591.936343,151.915085 593.338387,152.476315 594.709665,153.041931 C601.21884,155.720931 607.662089,158.364854 614.18445,160.886008 C598.836684,152.094854 586.376514,139.037469 578.909201,123.086238 L578.909201,123.086238 Z M850.017904,56.0673923 C850.013509,28.9617 827.906045,6.91146923 800.739797,6.91146923 C773.569153,6.91146923 751.461689,28.9617 751.461689,56.0717769 C751.461689,77.0433923 771.705621,92.3150077 792.006689,86.4440077 L799.662992,84.2253923 L796.063387,91.3197 C786.583109,110.0157 770.461801,121.174546 752.92966,121.174546 C735.08986,121.174546 726.383123,114.935238 703.181275,114.369623 C704.073484,136.608392 712.894494,151.187238 735.041514,147.784777 C744.438284,149.358854 751.611123,149.2887 758.999323,148.398623 C747.128099,153.230469 734.136119,155.913854 720.515636,155.913854 C676.727036,155.913854 675.215114,132.048392 636.098528,130.759315 C636.498484,160.723777 645.301914,163.858777 661.278182,167.423469 C667.31708,171.352085 673.663636,174.649315 680.304665,177.2187 C668.06425,176.258469 654.848119,174.013546 642.493431,168.909854 C603.385636,153.875008 595.979855,112.778008 563.565831,110.081469 C563.697684,135.613085 568.237845,150.547085 591.742958,160.228315 C624.345972,173.654008 655.142592,186.3387 704.047114,186.3387 C784.530587,186.3387 850.013509,127.900546 850.017904,56.0673923 L850.017904,56.0673923 Z M836.366655,124.6647 C809.886045,165.621392 760.50685,193.248854 704.047114,193.248854 C598.594953,193.248854 575.876567,136.248854 449.13004,136.248854 C322.370328,136.248854 299.669523,193.248854 194.204177,193.248854 C137.740045,193.248854 88.3652454,165.621392 61.8802405,124.660315 L8.25096244,267.787315 C60.3551332,308.7747 126.286358,331.311623 194.212967,331.311623 C326.19848,331.311623 366.145743,274.311623 449.12125,274.311623 C532.114338,274.311623 572.035231,331.311623 704.038323,331.311623 C771.960538,331.311623 837.896158,308.7747 890.000328,267.787315 L836.366655,124.6647 Z M194.204177,186.3387 C243.108699,186.3387 273.905319,173.654008 306.508333,160.228315 C330.039816,150.538315 334.558001,135.573623 334.689855,110.081469 C302.275831,112.778008 294.87884,153.870623 255.762255,168.909854 C243.403172,174.013546 230.191436,176.258469 217.951021,177.2187 C224.59205,174.649315 230.934211,171.352085 236.973109,167.423469 C252.250553,164.016623 261.748411,161.381469 262.157158,130.759315 C223.018597,132.048392 221.550626,155.913854 177.74005,155.913854 C164.119567,155.913854 151.127587,153.230469 139.256362,148.398623 C146.596216,149.284315 153.821797,149.358854 163.209777,147.784777 C185.387562,151.191623 194.186597,136.459315 195.070016,114.369623 C171.876958,114.935238 163.165826,121.174546 145.326026,121.174546 C127.793884,121.174546 111.668182,110.0157 102.192299,91.3197 L98.5926941,84.2253923 L106.248997,86.4440077 C126.519299,92.3062385 146.793997,77.0828538 146.793997,56.0717769 C146.793997,28.9617 124.686533,6.91146923 97.5158893,6.91146923 C70.3452454,6.91146923 48.237782,28.9617 48.237782,56.0717769 C48.2465722,127.904931 113.720704,186.3387 194.204177,186.3387 L194.204177,186.3387 Z M856.944616,56.0717769 C856.940221,77.9860846 851.151845,98.6990077 840.924397,117.092469 L898.249972,270.062931 C840.106904,316.605623 771.912192,338.221777 704.038323,338.221777 C570.650767,338.221777 530.066211,281.221777 449.12125,281.221777 C368.167499,281.221777 327.600523,338.221777 194.212967,338.221777 C126.163294,338.221777 57.9949527,316.482854 0.00131853659,270.062931 L57.322499,117.092469 C47.0950502,98.6990077 41.3066746,77.9773154 41.3066746,56.0630077 C41.3110698,25.1470846 66.5302795,0.00131538462 97.5158893,0.00131538462 C128.505894,0.00131538462 153.720709,25.1514692 153.720709,56.0717769 C153.720709,78.4157769 134.597533,96.2480077 112.046162,94.4853923 C120.423265,106.990315 132.48348,114.264392 145.326026,114.264392 C162.801031,114.264392 171.881353,107.415623 198.603694,107.415623 L202.06705,107.415623 L202.06705,110.8707 C202.06705,128.010162 197.632372,140.953546 189.25527,148.3197 C220.645231,144.373546 225.027167,123.792162 265.642489,123.792162 L269.105845,123.792162 L269.105845,127.247238 C269.105845,137.713315 268.596011,148.210085 264.838182,156.637315 C293.533933,138.555162 302.750504,103.031008 338.162001,103.031008 L341.625358,103.031008 L341.625358,106.486085 C341.625358,120.021392 341.581406,136.823238 332.013226,150.060392 C362.128601,138.761238 396.784138,129.3387 449.13004,129.3387 C501.471548,129.3387 536.13148,138.761238 566.238065,150.060392 C556.669884,136.823238 556.630328,120.021392 556.630328,106.486085 L556.630328,103.031008 L560.093684,103.031008 C595.500787,103.031008 604.717358,138.550777 633.417504,156.637315 C629.65528,148.210085 629.14984,137.713315 629.14984,127.247238 L629.14984,123.792162 L632.613197,123.792162 C673.232914,123.792162 677.58848,144.369162 709.000416,148.3197 C700.618919,140.953546 696.188636,128.010162 696.188636,110.8707 L696.188636,107.415623 L699.651992,107.415623 C726.374333,107.415623 735.454655,114.264392 752.92966,114.264392 C765.772206,114.264392 777.832421,106.990315 786.209523,94.4853923 C763.662548,96.2480077 744.534977,78.4157769 744.534977,56.0717769 C744.534977,25.1514692 769.745397,0.00131538462 800.739797,0.00131538462 C831.725406,0.00131538462 856.940221,25.1470846 856.944616,56.0630077 L856.944616,56.0673923 L856.944616,56.0717769 Z M821.78364,56.0717769 C821.78364,44.4963923 812.342919,35.0782385 800.739797,35.0782385 C789.136675,35.0782385 779.695953,44.4963923 779.695953,56.0717769 L779.695953,59.5268538 L786.622665,59.5268538 L786.622665,56.0717769 C786.622665,48.3066231 792.956036,41.9883923 800.739797,41.9883923 C808.523558,41.9883923 814.856928,48.3066231 814.856928,56.0717769 C814.856928,82.6250077 803.706504,106.635162 785.036026,120.288854 C759.43444,139.024315 728.725723,131.3907 713.386748,122.025162 C712.538489,121.924315 711.742972,121.810315 710.850762,121.727008 C711.329831,124.704162 712.037445,127.365623 712.92526,129.724546 C735.111836,141.5937 765.697489,143.009931 789.13228,125.8617 C809.578387,110.910162 821.78364,84.8173154 821.78364,56.0717769 L821.78364,56.0717769 Z M863.20327,265.638854 L822.68464,167.384008 C790.718919,195.594623 748.789455,211.067931 704.038323,211.067931 C593.861406,211.067931 571.47705,154.067931 449.13004,154.067931 C326.76545,154.067931 304.40307,211.067931 194.212967,211.067931 C149.45744,211.067931 107.532372,195.594623 75.5666502,167.384008 L35.048021,265.638854 C81.6363137,297.133546 136.610499,313.773162 194.212967,313.773162 C323.306489,313.773162 360.049709,256.773162 449.12125,256.773162 C538.201582,256.773162 574.936011,313.773162 704.038323,313.773162 C761.640792,313.773162 816.610582,297.133546 863.20327,265.638854 L863.20327,265.638854 Z M825.299738,155.554315 L871.734201,268.164392 C820.14426,303.824469 763.57025,320.683315 704.038323,320.683315 C573.397719,320.683315 536.258938,263.683315 449.12125,263.683315 C361.974772,263.683315 324.857967,320.683315 194.212967,320.683315 C134.562372,320.683315 78.0059429,303.754315 26.5126941,268.164392 L72.9515527,155.554315 C108.305914,188.658162 148.552045,204.157777 194.212967,204.157777 C302.372523,204.157777 325.174416,147.157777 449.13004,147.157777 C573.09006,147.157777 595.878767,204.157777 704.038323,204.157777 C749.70364,204.157777 789.949772,188.649392 825.299738,155.554315 L825.299738,155.554315 Z M835.610694,262.082931 L807.70167,200.053777 C776.931421,218.741008 741.177104,228.606392 704.038323,228.606392 C589.68604,228.606392 566.651206,171.606392 449.13004,171.606392 C331.635245,171.606392 308.534484,228.606392 194.212967,228.606392 C157.069792,228.606392 121.31987,218.741008 90.5452259,200.053777 L62.6405966,262.082931 C102.275806,284.4357 147.699392,296.2347 194.212967,296.2347 C322.787865,296.2347 352.006636,239.2347 449.12125,239.2347 C546.22268,239.2347 575.481006,296.2347 704.038323,296.2347 C750.551899,296.2347 795.975484,284.4357 835.610694,262.082931 L835.610694,262.082931 Z M810.75628,189.960392 L844.493236,264.950469 C800.146455,290.644315 753.597719,303.144854 704.038323,303.144854 C574.456943,303.144854 543.862499,246.144854 449.12125,246.144854 C354.353631,246.144854 323.820719,303.144854 194.212967,303.144854 C144.627201,303.144854 98.0784649,290.626777 53.7580551,264.950469 L87.4950112,189.960392 C119.284928,210.195392 153.377889,221.696238 194.212967,221.696238 C306.991797,221.696238 329.63986,164.696238 449.13004,164.696238 C568.598245,164.696238 591.294655,221.696238 704.038323,221.696238 C744.99207,221.696238 779.07624,210.129623 810.75628,189.960392 L810.75628,189.960392 Z M307.695016,151.349469 C315.918289,143.0757 322.607665,133.346238 327.147826,122.428546 C327.275284,121.183315 327.385162,119.920546 327.46867,118.6227 C324.607445,119.661854 321.952792,121.1877 319.346484,123.086238 C311.879172,139.037469 299.414606,152.094854 284.071236,160.886008 C290.593597,158.364854 297.036845,155.720931 303.546021,153.041931 C304.912904,152.476315 306.319343,151.915085 307.695016,151.349469 L307.695016,151.349469 Z M134.856845,165.1347 C175.995187,182.752085 217.362075,175.644623 246.049036,148.451238 C246.800601,147.740931 251.142982,143.544854 254.909601,138.414854 C254.913997,138.379777 254.918392,138.3447 254.922787,138.309623 C250.765001,138.835777 247.191767,139.690777 243.921797,140.751854 C242.880153,141.865546 241.943992,142.812623 241.280328,143.444008 C214.096499,169.212392 175.331523,174.951854 137.586216,158.781392 C94.65906,140.401085 65.8182698,99.1243154 65.8182698,56.0717769 C65.8182698,38.6341615 80.0408844,24.4499308 97.5158893,24.4499308 C114.995289,24.4499308 129.213509,38.6341615 129.213509,56.0717769 C129.213509,63.8325462 122.880138,70.1551615 115.096377,70.1551615 C107.312616,70.1551615 100.979245,63.8325462 100.979245,56.0717769 L100.979245,52.6167 L94.0525332,52.6167 L94.0525332,56.0717769 C94.0525332,67.6427769 103.493255,77.0653154 115.096377,77.0653154 C126.699499,77.0653154 136.140221,67.6427769 136.140221,56.0717769 C136.140221,34.8239308 118.81465,17.5397769 97.5158893,17.5397769 C76.2171283,17.5397769 58.8915576,34.8195462 58.8915576,56.0630077 C58.8915576,101.842777 89.4200746,145.675777 134.856845,165.1347 L134.856845,165.1347 Z M97.5158893,41.9883923 C105.29965,41.9883923 111.633021,48.3066231 111.633021,56.0717769 L111.633021,59.5268538 L118.559733,59.5268538 L118.559733,56.0717769 C118.559733,44.4963923 109.119011,35.0782385 97.5158893,35.0782385 C85.9127673,35.0782385 76.4720454,44.4963923 76.4720454,56.0717769 C76.4720454,84.8173154 88.677299,110.910162 109.123406,125.8617 C132.316465,142.830162 162.915304,141.716469 185.330426,129.724546 C186.21824,127.365623 186.925855,124.704162 187.404923,121.727008 C186.517109,121.810315 185.717197,121.924315 184.873333,122.025162 C169.551938,131.377546 138.847616,139.041854 113.21966,120.288854 C94.5447868,106.635162 83.3987576,82.6250077 83.3987576,56.0717769 C83.3987576,48.3066231 89.7321283,41.9883923 97.5158893,41.9883923 L97.5158893,41.9883923 Z M800.739797,17.5397769 C779.441036,17.5397769 762.115465,34.8239308 762.115465,56.0717769 C762.115465,67.6427769 771.556187,77.0653154 783.159309,77.0653154 C794.762431,77.0653154 804.203153,67.6427769 804.203153,56.0717769 L804.203153,52.6167 L797.27644,52.6167 L797.27644,56.0717769 C797.27644,63.8325462 790.94307,70.1551615 783.159309,70.1551615 C775.375548,70.1551615 769.042177,63.8325462 769.042177,56.0717769 C769.042177,38.6341615 783.260397,24.4499308 800.739797,24.4499308 C818.214801,24.4499308 832.437416,38.6341615 832.437416,56.0717769 C832.437416,99.1243154 803.596626,140.401085 760.66947,158.781392 C722.924162,174.951854 684.159187,169.212392 656.975358,143.444008 C656.311694,142.812623 655.371138,141.865546 654.333889,140.751854 C651.063919,139.690777 647.490684,138.835777 643.332899,138.309623 C643.337294,138.3447 643.341689,138.379777 643.346084,138.414854 C647.117099,143.544854 651.455084,147.740931 652.20665,148.451238 C681.214455,175.951546 722.704406,182.563546 763.39884,165.1347 C808.835611,145.675777 839.364128,101.842777 839.364128,56.0630077 C839.364128,34.8195462 822.034162,17.5397769 800.739797,17.5397769 L800.739797,17.5397769 Z" id="Fill-1" fill="#162B75" mask="url(#mask-5)"></path>
                        </g>
                    </g>
                </g>
            </g>
        </g>
    </g>
</svg>