<?xml version="1.0" encoding="utf-8"?>
<!-- Generator: Adobe Illustrator 26.0.1, SVG Export Plug-In . SVG Version: 6.00 Build 0)  -->
<svg version="1.1" id="Layer_1" xmlns="http://www.w3.org/2000/svg" xmlns:xlink="http://www.w3.org/1999/xlink" x="0px" y="0px"
	 viewBox="0 0 599 174" style="enable-background:new 0 0 599 174;" xml:space="preserve">
<style type="text/css">
	.st0{opacity:0.25;fill-rule:evenodd;clip-rule:evenodd;fill:#FFFFFF;}
</style>
<path class="st0" d="M489.4,174c1-0.4,2-0.8,3-1.2c44.5-19.1,74.4-61.9,74.4-106.6c0-18.1-14.8-32.8-32.8-32.8
	c-18.1,0-32.8,14.7-32.8,32.8c0,8,6.6,14.6,14.6,14.6c8.1,0,14.6-6.6,14.6-14.6v-3.6h7.2v3.6c0,12-9.8,21.8-21.8,21.8
	s-21.8-9.7-21.8-21.8c0-22,17.9-40,40.1-40c22,0,40.1,17.9,40.1,40c0,43.7-26.8,85.7-67.7,107.8H489.4z M517.6,132.8
	c-26.5,19.5-58.4,11.5-74.3,1.8c-0.9-0.1-1.7-0.2-2.7-0.3c0.5,3.1,1.2,5.8,2.2,8.3c23,12.3,54.7,13.8,79-4
	c21.2-15.6,33.9-42.5,33.9-72.4c0-12-9.8-21.8-21.8-21.8c-12,0-21.8,9.7-21.8,21.8v3.6h7.2v-3.6c0-8,6.6-14.6,14.6-14.6
	c8.1,0,14.6,6.6,14.6,14.6C548.5,93.8,537,118.7,517.6,132.8z M384.9,156.8c-0.7-0.7-1.6-1.6-2.8-2.8c-3.4-1.1-7.1-2-11.4-2.6v0.1
	c3.9,5.3,8.4,9.6,9.2,10.4c4.8,4.6,9.9,8.5,15.3,11.9h15.1C401,169.8,392.5,164.1,384.9,156.8z M303.9,135.7c-2.7-2-5.4-3.5-8.4-4.7
	c0.1,1.3,0.2,2.7,0.3,3.9c4.7,11.4,11.6,21.5,20.1,30.1c1.4,0.6,2.9,1.1,4.3,1.7c5.9,2.5,11.8,4.9,17.7,7.2h0.8
	C323.7,164.9,311.4,151.7,303.9,135.7z M49.3,163.2l-0.1,0.3L27.2,174h14c32.7-13,69.8-24.6,128.1-24.6S264.8,161,297.5,174h19.1
	c-23.9-10-28.4-25.5-28.6-51.8c28.2,2.4,38.2,32.8,64.7,51.8h18.4c-5-5.1-7.7-13.7-7.9-30.3c40.5,1.3,42.1,26.1,87.5,26.1
	c14.1,0,27.6-2.8,39.9-7.8c-7.6,1-15.1,1-24.8-0.7c-23,3.5-32.1-11.6-33-34.6c24,0.6,33.1,7.1,51.6,7.1c18.1,0,34.9-11.5,44.7-31
	l3.7-7.3l-7.9,2.3c-21.1,6.1-42.1-9.7-42.1-31.5c0-28.1,22.9-51,51-51c28.1,0,51,22.9,51,51c0,44-23.7,83.1-60.1,107.8h12.1
	c13.5-10.4,24.9-22.8,33.9-36.6l13.7,36.6h7.6l-16.7-44.5C586,110.5,592,89,592,66.2l0,0l0,0C592,34.1,565.9,8,533.7,8
	c-32,0-58.1,26.1-58.1,58.2c0,23.2,19.8,41.7,43.2,39.9c-8.7,13-21.2,20.5-34.5,20.5c-18.1,0-27.6-7.1-55.2-7.1h-3.6v3.6
	c0,17.7,4.6,31.2,13.3,38.8c-32.5-4.1-37.1-25.5-79.2-25.5h-3.6v3.6c0,10.9,0.5,21.8,4.4,30.5c-29.8-18.8-39.3-55.6-76-55.6h-3.6
	v3.6c0,14,0,31.5,9.9,45.2c-31.2-11.7-67.2-21.5-121.4-21.5C115.9,142.2,80.2,151.8,49.3,163.2z M75.1,174h29.2
	c18.6-3.7,39.8-6.1,65.1-6.1s46.5,2.4,65.1,6.1h29.2c-25.3-7.7-54.9-13.3-94.3-13.3S100.4,166.3,75.1,174z M554.2,174h7l-1.9-4.6
	C557.7,170.9,555.9,172.5,554.2,174z"/>
</svg>
