<?xml version="1.0" encoding="utf-8"?>
<!-- Generator: Adobe Illustrator 26.0.1, SVG Export Plug-In . SVG Version: 6.00 Build 0)  -->
<svg version="1.1" id="Layer_1" xmlns="http://www.w3.org/2000/svg" xmlns:xlink="http://www.w3.org/1999/xlink" x="0px" y="0px"
	 viewBox="0 0 379 91" style="enable-background:new 0 0 379 91;" xml:space="preserve">
<style type="text/css">
	.st0{opacity:0.26;}
	.st1{fill-rule:evenodd;clip-rule:evenodd;fill:#FFFFFF;}
	.st2{fill:none;stroke:#FFFFFF;stroke-width:2;stroke-linecap:square;}
</style>
<g id="PAGE" class="st0">
	<g id="component_x2F_pageHEAD" transform="translate(0.000000, -42.000000)">
		<g id="graphic_x2F_flourish-copy" transform="translate(0.000000, 42.000000)">
			<g id="Mask">
			</g>
			<g id="Group">
				<g id="graphic_x2F_flourish" transform="translate(-109.000000, 0.000000)">
					<g>
						<path id="Fill-1_00000007417486395703200900000014040094000447556504_" class="st1" d="M327.7,72.8c-1.5-1.1-3-1.9-4.6-2.5
							c0,0.7,0.1,1.5,0.2,2.2c2.6,6.2,6.4,11.7,11,16.4c0.8,0.3,1.6,0.6,2.3,1c3.7,1.5,7.3,3,11,4.4C339,89.3,331.9,81.9,327.7,72.8
							L327.7,72.8z M481.1,34.8c0-15.4-12.5-27.9-27.9-27.9s-27.9,12.5-27.9,27.9c0,11.9,11.5,20.6,22.9,17.2l4.3-1.3l-2,4
							c-5.4,10.6-14.5,16.9-24.4,16.9c-10.1,0-15-3.5-28.2-3.9c0.5,12.6,5.5,20.9,18,19c5.3,0.9,9.4,0.9,13.6,0.3
							c-6.7,2.7-14.1,4.3-21.8,4.3c-24.8,0-25.6-13.5-47.8-14.3c0.2,17,5.2,18.8,14.3,20.8c3.4,2.2,7,4.1,10.8,5.6
							c-6.9-0.5-14.4-1.8-21.4-4.7C341.5,90.3,337.3,67,319,65.4c0.1,14.5,2.6,23,15.9,28.4c18.5,7.6,35.9,14.8,63.6,14.8
							C444.1,108.7,481.1,75.6,481.1,34.8L481.1,34.8z M473.4,73.7c-15,23.2-42.9,38.9-74.9,38.9c-59.7,0-72.5-32.3-144.3-32.3
							s-84.6,32.3-144.3,32.3C78,112.6,50,96.9,35,73.7L4.7,154.9c29.5,23.3,66.8,36,105.3,36c74.7,0,97.3-32.3,144.3-32.3
							s69.6,32.3,144.3,32.3c38.4,0,75.8-12.8,105.3-36L473.4,73.7z M109.9,108.7c27.7,0,45.1-7.2,63.6-14.8
							c13.3-5.5,15.9-14,16-28.4C171.2,67,167,90.3,144.8,98.9c-7,2.9-14.5,4.2-21.4,4.7c3.8-1.5,7.3-3.3,10.8-5.6
							c8.6-1.9,14-3.4,14.3-20.8c-22.2,0.7-23,14.3-47.8,14.3c-7.7,0-15.1-1.5-21.8-4.3c4.2,0.5,8.2,0.5,13.6-0.3
							c12.6,1.9,17.5-6.4,18-19c-13.1,0.3-18.1,3.9-28.2,3.9c-9.9,0-19.1-6.3-24.4-16.9l-2-4l4.3,1.3c11.5,3.3,23-5.3,23-17.2
							c0-15.4-12.5-27.9-27.9-27.9s-28,12.3-28,27.7C27.3,75.6,64.4,108.7,109.9,108.7L109.9,108.7z M485.1,34.8
							c0,12.4-3.3,24.2-9.1,34.6l32.4,86.8c-32.9,26.4-71.5,38.7-109.9,38.7c-75.5,0-98.5-32.3-144.3-32.3s-68.8,32.3-144.3,32.3
							c-38.5,0-77.1-12.3-109.9-38.7l32.4-86.8c-5.8-10.4-9.1-22.2-9.1-34.6C23.4,17.3,37.7,3,55.2,3S87,17.3,87,34.8
							c0,12.7-10.8,22.8-23.6,21.8c4.7,7.1,11.6,11.2,18.8,11.2c9.9,0,15-3.9,30.2-3.9h2v2c0,9.7-2.5,17.1-7.3,21.2
							c17.8-2.2,20.2-13.9,43.2-13.9h2v2c0,5.9-0.3,11.9-2.4,16.7c16.2-10.3,21.5-30.4,41.5-30.4h2v2c0,7.7,0,17.2-5.4,24.7
							c17-6.4,36.7-11.8,66.3-11.8s49.2,5.3,66.3,11.8c-5.4-7.5-5.4-17-5.4-24.7v-2h2c20,0,25.3,20.1,41.5,30.4
							c-2.1-4.8-2.4-10.7-2.4-16.7v-2h2c23,0,25.5,11.7,43.2,13.9c-4.7-4.2-7.3-11.5-7.3-21.2v-2h2c15.1,0,20.3,3.9,30.2,3.9
							c7.3,0,14.1-4.1,18.8-11.2c-12.8,1-23.6-9.1-23.6-21.8c0-17.5,14.3-31.8,31.8-31.8C470.8,3,485.1,17.3,485.1,34.8L485.1,34.8
							L485.1,34.8z M465.2,34.8c0-6.6-5.3-11.9-11.9-11.9s-11.9,5.3-11.9,11.9v2h3.9v-2c0-4.4,3.6-8,8-8s8,3.6,8,8
							c0,15.1-6.3,28.7-16.9,36.4c-14.5,10.6-31.9,6.3-40.6,1c-0.5-0.1-0.9-0.1-1.4-0.2c0.3,1.7,0.7,3.2,1.2,4.5
							c12.6,6.7,29.9,7.5,43.1-2.2C458.3,65.9,465.2,51.1,465.2,34.8L465.2,34.8z M488.6,153.7L465.7,98
							c-18.1,16-41.8,24.8-67.2,24.8c-62.4,0-75-32.3-144.3-32.3s-81.9,32.3-144.3,32.3c-25.3,0-49.1-8.8-67.2-24.8l-22.9,55.7
							c26.4,17.9,57.5,27.3,90.1,27.3c73.1,0,93.9-32.3,144.3-32.3S325.4,181,398.5,181C431.1,181,462.2,171.5,488.6,153.7
							L488.6,153.7z M467.2,91.2l26.3,63.9c-29.2,20.2-61.2,29.8-94.9,29.8c-73.9,0-95-32.3-144.3-32.3S184,184.9,110,184.9
							c-33.8,0-65.8-9.6-94.9-29.8l26.3-63.9c20,18.8,42.8,27.6,68.6,27.6c61.2,0,74.1-32.3,144.3-32.3s83.1,32.3,144.3,32.3
							C424.4,118.8,447.1,110,467.2,91.2L467.2,91.2z M473,151.7l-15.8-35.2c-17.4,10.6-37.7,16.2-58.7,16.2
							c-64.7,0-77.8-32.3-144.3-32.3s-79.6,32.3-144.3,32.3c-21,0-41.3-5.6-58.7-16.2l-15.8,35.2c22.4,12.7,48.1,19.4,74.5,19.4
							c72.8,0,89.3-32.3,144.3-32.3s71.5,32.3,144.3,32.3C424.8,171,450.6,164.3,473,151.7L473,151.7z M458.9,110.8l19.1,42.5
							c-25.1,14.6-51.5,21.7-79.5,21.7c-73.3,0-90.7-32.3-144.3-32.3S183.3,175,109.9,175c-28.1,0-54.4-7.1-79.5-21.7l19.1-42.5
							c18,11.5,37.3,18,60.4,18c63.8,0,76.7-32.3,144.3-32.3s80.5,32.3,144.3,32.3C421.7,128.8,441,122.2,458.9,110.8L458.9,110.8z
							 M174.2,88.9c4.7-4.7,8.4-10.2,11-16.4c0.1-0.7,0.1-1.4,0.2-2.2c-1.6,0.6-3.1,1.5-4.6,2.5c-4.2,9-11.3,16.5-20,21.4
							c3.7-1.4,7.3-2.9,11-4.4C172.6,89.5,173.4,89.2,174.2,88.9L174.2,88.9z M76.3,96.7c23.3,10,46.7,6,62.9-9.5
							c0.4-0.4,2.9-2.8,5-5.7c0,0,0,0,0-0.1c-2.4,0.3-4.4,0.8-6.2,1.4c-0.6,0.6-1.1,1.2-1.5,1.5c-15.4,14.6-37.3,17.9-58.7,8.7
							C53.6,82.6,37.3,59.2,37.3,34.8c0-9.9,8.1-17.9,17.9-17.9c9.9,0,17.9,8,17.9,17.9c0,4.4-3.6,8-8,8s-8-3.6-8-8v-2h-3.9v2
							c0,6.6,5.3,11.9,11.9,11.9S77,41.4,77,34.8c0-12.1-9.8-21.9-21.9-21.9s-21.9,9.8-21.9,21.9C33.3,60.8,50.6,85.6,76.3,96.7
							L76.3,96.7z M55.2,26.8c4.4,0,8,3.6,8,8v2h3.9v-2c0-6.6-5.3-11.9-11.9-11.9s-11.9,5.3-11.9,11.9c0,16.3,6.9,31.1,18.5,39.6
							c13.1,9.6,30.4,9,43.1,2.2c0.5-1.3,0.9-2.8,1.2-4.5c-0.5,0-1,0.1-1.4,0.2c-8.7,5.3-26.1,9.7-40.6-1
							c-10.6-7.7-16.9-21.4-16.9-36.4C47.2,30.4,50.8,26.8,55.2,26.8L55.2,26.8z M453.2,12.9c-12.1,0-21.9,9.8-21.9,21.9
							c0,6.6,5.3,11.9,11.9,11.9s11.9-5.3,11.9-11.9v-2h-3.9v2c0,4.4-3.6,8-8,8s-8-3.6-8-8c0-9.9,8-17.9,17.9-17.9s17.9,8,17.9,17.9
							c0,24.4-16.3,47.8-40.6,58.3c-21.4,9.2-43.3,5.9-58.7-8.7c-0.4-0.4-0.9-0.9-1.5-1.5c-1.9-0.6-3.9-1.1-6.2-1.4c0,0,0,0,0,0.1
							c2.1,2.9,4.6,5.3,5,5.7c16.4,15.6,39.9,19.4,62.9,9.5c25.7-11,43-35.9,43-61.9C475.1,22.8,465.3,12.9,453.2,12.9L453.2,12.9z"
							/>
					</g>
				</g>
			</g>
			<line id="Line-7" class="st2" x1="0.5" y1="92.5" x2="375.5" y2="92.5"/>
		</g>
	</g>
</g>
</svg>
