<svg xmlns="http://www.w3.org/2000/svg" width="376.5" height="91.2" overflow="visible">
  <path d="M352.4 31.8c0-4.4-3.6-8-8-8s-8 3.6-8 8v2h-3.9v-2c0-6.6 5.3-11.9 11.9-11.9s11.9 5.3 11.9 11.9c0 16.3-6.9 31.1-18.5 39.6-13.3 9.7-30.6 8.9-43.1 2.2-.5-1.3-.9-2.8-1.2-4.5.5 0 1 .1 1.4.2 8.7 5.3 26.1 9.6 40.6-1 10.6-7.8 16.9-21.4 16.9-36.5zm-133.5 38c-1.5-1.1-3-1.9-4.6-2.5 0 .7.1 1.5.2 2.2 2.6 6.2 6.4 11.7 11 16.4.8.3 1.6.6 2.3 1 3.5 1.4 6.9 2.8 10.4 4.2h.2c-8.5-5.1-15.4-12.4-19.5-21.3zm110 21.2c22.6-12 37.5-35.1 37.5-59.2 0-12.1-9.8-21.9-21.9-21.9s-21.9 9.8-21.9 21.9c0 6.6 5.3 11.9 11.9 11.9s11.9-5.3 11.9-11.9v-2h-3.9v2c0 4.4-3.6 8-8 8s-8-3.6-8-8c0-9.9 8-17.9 17.9-17.9s17.9 8 17.9 17.9c0 24.4-16.3 47.8-40.6 58.3-.8.3-1.5.6-2.3.9h9.5zM76.4 69.4c.1-.7.1-1.4.2-2.2-1.6.6-3.1 1.5-4.6 2.5-4.2 9-11.1 16.3-19.6 21.3h.3c3.5-1.4 6.9-2.8 10.4-4.2.8-.3 1.6-.6 2.3-1 4.6-4.6 8.4-10.2 11-16.4zm186.7 12l-1.5-1.5c-1.9-.6-3.9-1.1-6.2-1.4v.1c2.1 2.9 4.6 5.3 5 5.7 2.7 2.6 5.7 4.9 8.8 6.8h8.4c-5.3-2.4-10.2-5.6-14.5-9.7zM.2 64.9c.5 0 .9 0 1.4-.1-.1 3.3-.6 6.4-1.4 9v8.3c3.5-4.3 5.4-10.9 5.4-19.2v-2h-2c-1.2 0-2.3 0-3.4.1v3.9zm376.1-33.1C376.3 14.3 362 0 344.5 0s-31.8 14.3-31.8 31.8c0 12.7 10.8 22.8 23.6 21.8-4.7 7.1-11.6 11.2-18.8 11.2-9.9 0-15-3.9-30.2-3.9h-2v2c0 9.7 2.5 17.1 7.3 21.2-17.8-2.2-20.2-13.9-43.2-13.9h-2v2c0 5.9.3 11.9 2.4 16.7-16.2-10.3-21.5-30.4-41.5-30.4h-2v2c0 7.7 0 17.2 5.4 24.7-17-6.4-36.7-11.8-66.3-11.8s-49.2 5.3-66.3 11.8c5.4-7.5 5.4-17 5.4-24.7v-2h-2c-20 0-25.3 20.2-41.5 30.4 2.1-4.8 2.4-10.7 2.4-16.7v-2h-2C19.2 70.2 16.1 81 0 83.8v4c17-2.6 20.1-13 39.4-13.7-.1 9.4-1.8 14.1-4.6 16.8h10c14.9-10.2 20.3-27.2 35.8-28.5-.1 14.5-2.6 22.9-16 28.4-.1 0-.2.1-.3.1h10.4c18-7.2 38.4-13.7 70.6-13.7s52.6 6.5 70.6 13.7h10.4c-.1 0-.2-.1-.3-.1-13.3-5.5-15.9-14-15.9-28.4 15.5 1.3 20.9 18.2 35.7 28.6h10c-2.9-2.7-4.5-7.5-4.6-16.8 22.1.7 23 14.3 47.8 14.3 7.7 0 15.1-1.5 21.8-4.3-4.2.5-8.2.5-13.6-.3-12.5 1.9-17.5-6.3-18-19 13.1.3 18.1 3.9 28.2 3.9 9.9 0 19-6.3 24.4-16.9l2-4-4.3 1.3c-11.5 3.3-22.9-5.3-22.9-17.2 0-15.4 12.5-27.9 27.9-27.9s27.9 12.5 27.9 27.9c0 24.2-13.1 45.7-33.2 59.2h6.7c7.5-5.7 13.9-12.6 18.8-20.3l7.6 20.3h4.2l-9.2-24.6c5.7-10.6 9-22.4 9-34.8zm-21 59.2h4.2l-1.1-2.8c-1.1 1-2.1 1.9-3.1 2.8zM93.1 91h15.6c10.5-2.2 22.4-3.6 36.8-3.6 14.4 0 26.3 1.4 36.8 3.6h15.4c-14-4.4-30.3-7.5-52.3-7.5-21.9 0-38.3 3.1-52.3 7.5zM35.5 78.5c-2.4.3-4.4.8-6.2 1.4-.6.6-1.1 1.2-1.5 1.5-4.3 4.1-9.2 7.3-14.4 9.6h8.3c3.1-1.9 6-4.2 8.8-6.8.4-.4 2.9-2.8 5-5.7z" fill-rule="evenodd" clip-rule="evenodd" opacity=".25" fill="#fff"/>
</svg>
