<?xml version="1.0" encoding="utf-8"?>
<!-- Generator: Adobe Illustrator 26.0.1, SVG Export Plug-In . SVG Version: 6.00 Build 0)  -->
<svg version="1.1" id="Layer_1" xmlns="http://www.w3.org/2000/svg" xmlns:xlink="http://www.w3.org/1999/xlink" x="0px" y="0px"
	 viewBox="0 0 259 154" style="enable-background:new 0 0 259 154;" xml:space="preserve">
<style type="text/css">
	.st0{filter:url(#Adobe_OpacityMaskFilter);}
	.st1{fill-rule:evenodd;clip-rule:evenodd;fill:#FFFFFF;}
	.st2{mask:url(#mask-3_00000036219350624821009950000016317349768914973612_);}
	.st3{fill-rule:evenodd;clip-rule:evenodd;fill:#006FCF;}
</style>
<g id="PAGE">
	<g id="graphic_x2F_ribbon_x2F_empty" transform="translate(-55.000000, -132.000000)">
		<g transform="translate(55.000000, 132.000000)">
			<g id="Mask">
			</g>
			<defs>
				<filter id="Adobe_OpacityMaskFilter" filterUnits="userSpaceOnUse" x="-389" y="14" width="645" height="133">
					<feColorMatrix  type="matrix" values="1 0 0 0 0  0 1 0 0 0  0 0 1 0 0  0 0 0 1 0"/>
				</filter>
			</defs>
			
				<mask maskUnits="userSpaceOnUse" x="-389" y="14" width="645" height="133" id="mask-3_00000036219350624821009950000016317349768914973612_">
				<g class="st0">
					<rect id="path-2_00000181052824451944388640000004684945271789382542_" class="st1" width="259" height="154"/>
				</g>
			</mask>
			<g id="Group" class="st2">
				<g id="graphic_x2F_ribbon_x2F_empty-copy" transform="translate(-389.000000, 14.000000)">
					<g id="graphic_x2F_wsPattern" transform="translate(-0.000066, -0.000332)">
						<g id="Mask_00000172442816707215771800000008275297335829418408_">
							<path id="path-5_00000160892955987521602980000013845612871166030487_" class="st3" d="M322.5,5.3C229.1,5.3,212.1,49,128,49
								c-33.8,0-65.5-11.6-89.8-32.8l-0.7-0.6L6.5,90.8C42.1,114.9,84,127.7,128,127.7c98.5,0,126.6-43.7,194.5-43.7
								c68,0,96,43.7,194.5,43.7c43.5,0,85.1-12.5,120.4-36.2l1.1-0.7l-30.9-75.3C583.2,37.1,551.2,49,517,49
								C433,49,415.9,5.3,322.5,5.3L322.5,5.3z M322.5,0c94.6,0,112,43.7,194.5,43.7c34.5,0,64.9-11.6,91.7-36.5l0.8-0.8L645,92.7
								c-39.4,27.3-82.5,40.3-128,40.3c-99.7,0-128-43.7-194.5-43.7C256,89.3,227.7,133,128,133c-45.1,0-87.8-12.7-126.8-39.4
								L0,92.7L35.4,6.4c27,25.4,57.7,37.3,92.5,37.3C210.5,43.7,227.9,0,322.5,0L322.5,0z"/>
						</g>
					</g>
				</g>
			</g>
		</g>
	</g>
</g>
</svg>
