<?xml version="1.0" encoding="UTF-8"?>
<svg width="1445px" height="420px" viewBox="0 0 1445 420" version="1.1" xmlns="http://www.w3.org/2000/svg" xmlns:xlink="http://www.w3.org/1999/xlink">
    <title>art/flourish</title>
    <defs>
        <rect id="path-1" x="0" y="0" width="1445" height="420" rx="3"></rect>
        <filter id="filter-3">
            <feColorMatrix in="SourceGraphic" type="matrix" values="0 0 0 0 1.000000 0 0 0 0 1.000000 0 0 0 0 1.000000 0 0 0 1.000000 0"></feColorMatrix>
        </filter>
    </defs>
    <g id="PAGE" stroke="none" stroke-width="1" fill="none" fill-rule="evenodd">
        <g id="design_DT_home-extended" transform="translate(-52.000000, -850.000000)">
            <g id="Group-19" transform="translate(0.000000, 850.000000)">
                <g id="art/flourish" transform="translate(52.000000, 0.000000)">
                    <mask id="mask-2" fill="white">
                        <use xlink:href="#path-1"></use>
                    </mask>
                    <g id="Mask"></g>
                    <g id="Group" mask="url(#mask-2)">
                        <g transform="translate(-617.000000, 0.000000)" id="art/flourish" filter="url(#filter-3)">
                            <g>
                                <path d="M1446.02015,307.008942 C1439.46312,302.252859 1432.79552,298.430419 1425.58611,295.827206 C1425.78514,299.078477 1426.07264,302.241875 1426.3933,305.361338 C1437.81557,332.711556 1454.6449,357.085103 1475.33326,377.811955 C1478.79422,379.228894 1482.32152,380.634849 1485.77142,382.051788 C1502.1474,388.763027 1518.35752,395.386393 1534.76667,401.702206 C1496.1543,379.679239 1464.80663,346.968818 1446.02015,307.008942 L1446.02015,307.008942 Z M2127.46111,138.416837 C2127.4501,70.6762203 2072.07787,15.5698529 2004.03497,15.5698529 C1935.98107,15.5698529 1880.60883,70.6762203 1880.60883,138.427795 C1880.60883,190.838564 1931.31351,229.004298 1982.16129,214.331912 L2001.33792,208.787307 L1992.32204,226.516896 C1968.57693,273.240608 1928.19813,301.128002 1884.28564,301.128002 C1839.60256,301.128002 1817.79493,285.535169 1759.6816,284.121623 C1761.91631,339.699172 1784.01016,376.133587 1839.48147,367.630397 C1863.01742,371.564218 1880.98312,371.388895 1899.48823,369.164478 C1869.75456,381.239884 1837.21374,387.946008 1803.09872,387.946008 C1693.42207,387.946008 1689.63518,328.303145 1591.66045,325.081575 C1592.66222,399.966625 1614.71203,407.801394 1654.72755,416.710019 C1669.85309,426.528135 1685.74921,434.76834 1702.3829,441.189563 C1671.72452,438.789822 1638.62227,433.17947 1607.67767,420.424686 C1509.72496,382.850668 1491.17581,280.143971 1409.98889,273.404974 C1410.31914,337.21177 1421.69081,374.53376 1480.56372,398.728403 C1562.224,432.280937 1639.35983,463.981618 1761.85026,463.981618 C1963.43601,463.981618 2127.4501,317.937143 2127.46111,138.416837 L2127.46111,138.416837 Z M2090.01439,311.408027 C2023.78062,413.857401 1900.27249,482.964939 1759.0544,482.964939 C1495.29557,482.964939 1438.47194,340.384715 1121.45127,340.384715 C804.397621,340.384715 747.617963,482.964939 483.82616,482.964939 C342.597068,482.964939 219.099938,413.857401 152.855172,311.397059 L18.7166667,669.416001 C149.040547,771.94215 313.9489,828.316176 483.848146,828.316176 C813.972661,828.316176 913.889468,685.735953 1121.42928,685.735953 C1329.01307,685.735953 1428.86392,828.316176 1759.03241,828.316176 C1928.92066,828.316176 2093.84001,771.94215 2224.16389,669.416001 L2090.01439,311.408027 Z M484.138735,463.981618 C606.62916,463.981618 683.764992,432.280937 765.425275,398.728403 C824.364228,374.511844 835.680859,337.113151 836.011111,273.404974 C754.824189,280.143971 736.297058,382.839711 638.322332,420.424686 C607.366722,433.17947 574.275483,438.789822 543.6171,441.189563 C560.250786,434.76834 576.135902,426.528135 591.261438,416.710019 C629.526624,408.195872 653.315768,401.610283 654.339549,325.081575 C556.309781,328.303145 552.632976,387.946008 442.901283,387.946008 C408.786263,387.946008 376.245444,381.239884 346.511766,369.164478 C364.895787,371.377937 382.993591,371.564218 406.507525,367.630397 C462.055892,376.144545 484.094701,339.32661 486.307389,284.121623 C428.216082,285.535169 406.397441,301.128002 361.714361,301.128002 C317.801868,301.128002 277.412063,273.240608 253.677961,226.516896 L244.662084,208.787307 L263.83871,214.331912 C314.609434,228.982382 365.391165,190.937183 365.391165,138.427795 C365.391165,70.6762203 310.018932,15.5698529 241.965027,15.5698529 C173.911122,15.5698529 118.538889,70.6762203 118.538889,138.427795 C118.560906,317.948101 282.552984,463.981618 484.138735,463.981618 L484.138735,463.981618 Z M2142.71921,140.416345 C2142.70822,195.295989 2128.23484,247.167025 2102.66191,293.229472 L2246,676.31091 C2100.61784,792.867018 1930.10233,847 1760.38907,847 C1426.86399,847 1325.38551,704.255827 1122.98901,704.255827 C920.570532,704.255827 819.136006,847 485.610929,847 C315.458082,847 145.008514,792.559569 0,676.31091 L143.327096,293.229472 C117.754166,247.167025 103.280789,195.274028 103.280789,140.394384 C103.291779,62.9721408 166.350426,0 243.827503,0 C321.315569,0 384.363226,62.9831212 384.363226,140.416345 C384.363226,196.37206 336.547232,241.029026 280.159306,236.614937 C301.105591,267.930812 331.261207,286.147165 363.372983,286.147165 C407.067856,286.147165 429.772486,268.995903 496.589596,268.995903 L505.249445,268.995903 L505.249445,277.648396 C505.249445,320.570471 494.160882,352.984379 473.214597,371.431318 C551.702721,361.549029 562.659409,310.007402 664.214822,310.007402 L672.874671,310.007402 L672.874671,318.659895 C672.874671,344.869921 671.599871,371.15681 662.203715,392.260987 C733.95518,346.978143 757.000489,258.015582 845.544149,258.015582 L854.203999,258.015582 L854.203999,266.668075 C854.203999,300.564326 854.094102,342.640916 830.16962,375.790505 C905.470745,347.494218 992.124184,323.897508 1123.01099,323.897508 C1253.88681,323.897508 1340.55123,347.494218 1415.83038,375.790505 C1391.9059,342.640916 1391.80699,300.564326 1391.80699,266.668075 L1391.80699,258.015582 L1400.46684,258.015582 C1488.99951,258.015582 1512.04482,346.967163 1583.80727,392.260987 C1574.40013,371.15681 1573.13632,344.869921 1573.13632,318.659895 L1573.13632,310.007402 L1581.79617,310.007402 C1683.36257,310.007402 1694.25332,361.538049 1772.79639,371.431318 C1751.83912,352.984379 1740.76155,320.570471 1740.76155,277.648396 L1740.76155,268.995903 L1749.42139,268.995903 C1816.2385,268.995903 1838.94313,286.147165 1882.63801,286.147165 C1914.74978,286.147165 1944.9054,267.930812 1965.85168,236.614937 C1909.47475,241.029026 1861.64776,196.37206 1861.64776,140.416345 C1861.64776,62.9831212 1924.68443,0 2002.18349,0 C2079.66056,0 2142.70822,62.9721408 2142.71921,140.394384 L2142.71921,140.405364 L2142.71921,140.416345 Z M2055.71389,139.557511 C2055.71389,110.683843 2032.08669,87.1911765 2003.04768,87.1911765 C1974.00867,87.1911765 1950.38147,110.683843 1950.38147,139.557511 L1950.38147,148.175863 L1967.71688,148.175863 L1967.71688,139.557511 C1967.71688,120.188092 1983.56734,104.427881 2003.04768,104.427881 C2022.52802,104.427881 2038.37848,120.188092 2038.37848,139.557511 C2038.37848,205.791956 2010.47243,265.682943 1963.74602,299.740747 C1899.6732,346.474529 1822.81881,327.43322 1784.43012,304.071797 C1782.30719,303.820247 1780.31626,303.535885 1778.08333,303.328082 C1779.28229,310.754302 1781.05323,317.393058 1783.27516,323.277162 C1838.80127,352.883608 1915.34766,356.416258 1973.99767,313.641669 C2025.16793,276.346514 2055.71389,211.260454 2055.71389,139.557511 L2055.71389,139.557511 Z M2158.65556,664.588213 L2057.31382,419.366278 C1977.36389,489.773611 1872.4935,528.391497 1760.5658,528.391497 C1485.00071,528.391497 1429.01487,386.132353 1123.01099,386.132353 C816.96314,386.132353 761.032266,528.391497 485.434202,528.391497 C373.495504,528.391497 268.636107,489.773611 188.686176,419.366278 L87.3444444,664.588213 C203.867099,743.191861 341.363832,784.720588 485.434202,784.720588 C808.311883,784.720588 900.210882,642.461444 1122.98901,642.461444 C1345.78912,642.461444 1437.66613,784.720588 1760.5658,784.720588 C1904.63617,784.720588 2042.12191,743.191861 2158.65556,664.588213 L2158.65556,664.588213 Z M2061.35143,388.392846 L2177.37222,669.287297 C2048.47,758.237754 1907.11461,800.290441 1758.3686,800.290441 C1431.951,800.290441 1339.15634,658.109704 1121.43479,658.109704 C903.691274,658.109704 810.951514,800.290441 484.522932,800.290441 C335.480419,800.290441 194.168965,758.062762 65.5083333,669.287297 L181.540104,388.392846 C269.876236,470.967043 370.434908,509.629267 484.522932,509.629267 C754.769559,509.629267 811.742191,367.448529 1121.45675,367.448529 C1431.18229,367.448529 1488.12198,509.629267 1758.3686,509.629267 C1872.46761,509.629267 1973.02628,470.945169 2061.35143,388.392846 L2061.35143,388.392846 Z M2090.02778,655.793179 L2020.19635,500.806752 C1943.20583,547.498782 1853.74463,572.148493 1760.81934,572.148493 C1474.69745,572.148493 1417.06178,429.727941 1123.011,429.727941 C829.026195,429.727941 771.225569,572.148493 485.180655,572.148493 C392.244376,572.148493 302.794169,547.498782 225.792651,500.806752 L155.972222,655.793179 C255.143843,711.643946 368.798612,741.125 485.180655,741.125 C806.889083,741.125 879.997637,598.704448 1122.989,598.704448 C1365.94738,598.704448 1439.15491,741.125 1760.81934,741.125 C1877.20139,741.125 1990.85616,711.643946 2090.02778,655.793179 L2090.02778,655.793179 Z M2027.48353,474.11859 L2111.86389,661.338774 C2000.94703,725.486016 1884.52281,756.694853 1760.56855,756.694853 C1436.46928,756.694853 1359.94874,614.388685 1122.98901,614.388685 C885.963315,614.388685 809.596675,756.694853 485.431448,756.694853 C361.411233,756.694853 244.98701,725.442229 134.136111,661.338774 L218.516466,474.11859 C298.027032,524.63728 383.2978,553.350286 485.431448,553.350286 C767.505433,553.350286 824.151077,411.044118 1123.01099,411.044118 C1421.81594,411.044118 1478.58251,553.350286 1760.56855,553.350286 C1862.999,553.350286 1948.24779,524.47308 2027.48353,474.11859 L2027.48353,474.11859 Z M770.666743,377.811955 C791.355098,357.085103 808.184428,332.711556 819.6067,305.361338 C819.927364,302.241875 820.203799,299.078477 820.413889,295.827206 C813.215535,298.430419 806.536879,302.252859 799.979853,307.008942 C781.193367,346.968818 749.834642,379.679239 711.233333,401.702206 C727.642483,395.386393 743.8526,388.763027 760.228578,382.051788 C763.667422,380.634849 767.205783,379.228894 770.666743,377.811955 L770.666743,377.811955 Z M336.401051,411.910198 C439.17864,455.873364 542.527215,438.137104 614.197014,370.277583 C616.074681,368.505051 626.923427,358.033983 636.333725,345.232364 C636.344706,345.144832 636.355686,345.057299 636.366667,344.969767 C625.979103,346.282753 617.051947,348.416357 608.882446,351.064213 C606.280065,353.843368 603.941216,356.206743 602.283159,357.782327 C534.368695,422.085843 437.520582,436.408338 343.219949,396.055885 C235.973292,350.188888 163.919175,247.185094 163.919175,139.74997 C163.919175,96.2354072 199.452111,60.8394782 243.110625,60.8394782 C286.780119,60.8394782 322.302074,96.2354072 322.302074,139.74997 C322.302074,159.116521 306.479157,174.894243 287.032671,174.894243 C267.586185,174.894243 251.763268,159.116521 251.763268,139.74997 L251.763268,131.128025 L234.457982,131.128025 L234.457982,139.74997 C234.457982,168.624732 258.04412,192.138133 287.032671,192.138133 C316.021222,192.138133 339.607361,168.624732 339.607361,139.74997 C339.607361,86.7271963 296.322184,43.5955882 243.110625,43.5955882 C189.899066,43.5955882 146.613889,86.7162547 146.613889,139.728087 C146.613889,253.968858 222.884522,363.351579 336.401051,411.910198 L336.401051,411.910198 Z M242.95232,104.430581 C262.432657,104.430581 278.283118,120.193261 278.283118,139.565714 L278.283118,148.185416 L295.618528,148.185416 L295.618528,139.565714 C295.618528,110.687523 271.991332,87.1911765 242.95232,87.1911765 C213.913307,87.1911765 190.286111,110.687523 190.286111,139.565714 C190.286111,211.279888 220.832072,276.376143 272.002331,313.67714 C330.047357,356.009942 406.626752,353.23151 462.724843,323.314142 C464.946768,317.429117 466.717707,310.789321 467.916667,303.361937 C465.694742,303.569773 463.69281,303.854179 461.580882,304.10577 C423.236187,327.438035 346.392801,346.558898 282.253983,299.774041 C235.516572,265.710902 207.621521,205.810533 207.621521,139.565714 C207.621521,120.193261 223.471982,104.430581 242.95232,104.430581 L242.95232,104.430581 Z M2002.88938,43.5955882 C1949.67782,43.5955882 1906.39264,86.7281702 1906.39264,139.752141 C1906.39264,168.627555 1929.97878,192.141487 1958.96733,192.141487 C1987.95588,192.141487 2011.54202,168.627555 2011.54202,139.752141 L2011.54202,131.130001 L1994.23673,131.130001 L1994.23673,139.752141 C1994.23673,159.11913 1978.41381,174.897208 1958.96733,174.897208 C1939.52084,174.897208 1923.69793,159.11913 1923.69793,139.752141 C1923.69793,96.2365958 1959.21988,60.8398676 2002.88938,60.8398676 C2046.54789,60.8398676 2082.08082,96.2365958 2082.08082,139.752141 C2082.08082,247.189691 2010.02671,350.195811 1902.78005,396.063843 C1808.47942,436.417208 1711.63131,422.094389 1643.71684,357.789421 C1642.05878,356.213802 1639.70895,353.850373 1637.11755,351.071155 C1628.94805,348.423239 1620.0209,346.289588 1609.63333,344.976572 C1609.64431,345.064106 1609.65529,345.151641 1609.66627,345.239175 C1619.08755,358.041083 1629.92532,368.512387 1631.80299,370.284959 C1704.27436,438.911938 1807.93039,455.412175 1909.59895,411.918514 C2023.11548,363.358798 2099.38611,253.973608 2099.38611,139.730257 C2099.38611,86.7172284 2056.08995,43.5955882 2002.88938,43.5955882 L2002.88938,43.5955882 Z" id="Fill-1" fill="#162A75"></path>
                            </g>
                        </g>
                    </g>
                </g>
            </g>
        </g>
    </g>
</svg>