<svg id="Layer_1" data-name="Layer 1" xmlns="http://www.w3.org/2000/svg" xmlns:xlink="http://www.w3.org/1999/xlink" viewBox="0 0 642 881.33"><defs><style>.cls-1{fill:url(#linear-gradient);}</style><linearGradient id="linear-gradient" x1="-110.56" y1="191.5" x2="746.22" y2="686.16" gradientUnits="userSpaceOnUse"><stop offset="0" stop-color="#fff"/><stop offset="0.04" stop-color="#fff" stop-opacity="0.96"/><stop offset="0.12" stop-color="#fff" stop-opacity="0.86"/><stop offset="0.21" stop-color="#fff" stop-opacity="0.69"/><stop offset="0.33" stop-color="#fff" stop-opacity="0.46"/><stop offset="0.45" stop-color="#fff" stop-opacity="0.17"/><stop offset="0.52" stop-color="#fff" stop-opacity="0"/></linearGradient></defs><path class="cls-1" d="M369.53,670.37l7.2,38.47c-1.25-1.11-2.53-2.12-3.82-3.13L366,668.91ZM253.06,724.62c1.46-2,3-4.15,4.64-6.08L268,672.72,264.42,674Zm122.86-51.9,10.29,45.8c1.64,2,3.18,4.05,4.64,6.08L379.49,674ZM267.24,708.84c1.25-1.09,2.53-2,3.83-3.13l6.88-36.8-3.5,1.36Zm-66.08,69.69,1.78,4.74,34.43-102.13-3.56.63Zm185-102.25,21.77,83.17h3.3l-21.48-82.09Zm-166,83.05h3.34l24-80.33c-1.18.3-2.35.58-3.59.85Zm12.65,0h3.3l21.75-83.17-3.58,1.07Zm401.63,109.8a88.59,88.59,0,0,0-3.2,10.4h3.34a85.12,85.12,0,0,1,3.18-10.06,25.57,25.57,0,0,1-3.24-.32ZM396.4,679h0l24,80.33h3.35L400,679.85C398.75,679.58,397.59,679.3,396.4,679ZM616.51,879.53H620a53.63,53.63,0,0,1,8-11.6c-1.19-.26-2.35-.54-3.46-.87A60.66,60.66,0,0,0,616.51,879.53Zm-128.62,0a42.9,42.9,0,0,0,5.79-21.88l0-.08a9.7,9.7,0,1,0-19.38-.89c0,.29,0,.59,0,.89v1.6h3.18v-1.6a6.52,6.52,0,0,1,13,0,39.38,39.38,0,0,1-6.44,22Zm112.09,0h3.81a62.23,62.23,0,0,1,13.93-14.8c-1.14-.5-2.19-1-3.2-1.58A66.75,66.75,0,0,0,600,879.53ZM414.54,784.58l24.08,92.06a25.72,25.72,0,0,1,3.34.14l-24.12-92.2ZM194.6,760.81l1.7,4.55,30.94-82.72-3.54.39Zm208.46,32.54v.1l19.31,86.08h3.28l-21-93.63C404.21,788.35,403.67,790.88,403.06,793.35Zm-353-73.14-3.81-33.92c-1,.68-2,1.35-3,2l3.56,31.9h3.22ZM29.46,863.15v.07c-1,.54-2,1.07-3.2,1.57a62.14,62.14,0,0,1,13.88,14.74H44A66.51,66.51,0,0,0,29.46,863.15ZM57.77,425.32a15.66,15.66,0,0,0-3.73-2,7.31,7.31,0,0,0,.14,1.76,41.6,41.6,0,0,0,9,13.37l1.91.77c3,1.25,6,2.47,9,3.62A39.44,39.44,0,0,1,57.77,425.32ZM60,674.12q-1.35,1.47-2.79,2.91l7.21,48.18a35.09,35.09,0,0,1,3.68,3.1ZM31.32,694.73c-1,.45-2,.87-3.12,1.28l3,39.57,3.24.72Zm-15.69,5c-1.06.23-2,.41-3.16.59L13.68,733l3.2.33ZM160,376.58v0a17.82,17.82,0,0,0-17.8,17.8,9.7,9.7,0,0,0,19.38.89c0-.3,0-.59,0-.89v-1.6h-3.18v1.6a6.52,6.52,0,0,1-13,0,14.62,14.62,0,0,1,29.22,0c0,19.89-13.28,38.94-33.07,47.43-17.39,7.47-35.25,4.82-47.77-7.09-.3-.28-.75-.73-1.21-1.23a27.75,27.75,0,0,0-5.09-1.14,37.3,37.3,0,0,0,4,4.64c13.37,12.7,32.41,15.75,51.24,7.69,20.94-9,35-29.22,35-50.36A17.8,17.8,0,0,0,160,376.58Zm9.68,17.8a9.7,9.7,0,0,0-19.38-.89c0,.3,0,.6,0,.89V396h3.18v-1.6a6.52,6.52,0,0,1,13,0c0,12.25-5.14,23.35-13.75,29.65-11.78,8.66-25.94,5.14-33,.81l-1.17-.14a18.34,18.34,0,0,0,1,3.7c10.13,5.47,24.3,6.08,35.12-1.78C164.06,419.69,169.67,407.64,169.67,394.38ZM115.44,524.69C55.1,524.69,36,499.32,0,498.4v-3.21c36.89.91,55.77,26.3,115.44,26.3a138.7,138.7,0,0,0,85.72-29.34l-24.72-66.1c-12.16,18.92-35,31.67-61,31.67-48,0-58.81-25.72-115.48-26.31v-3.2a143.7,143.7,0,0,1,52,9.57c-4.4-6.08-4.42-13.87-4.42-20.11v-1.6h1.58c16.32,0,20.57,16.4,33.8,24.75a34.09,34.09,0,0,1-2-13.57v-1.6h1.58c18.73,0,20.74,9.52,35.2,11.34-3.85-3.4-5.89-9.38-5.89-17.3v-1.6h1.6c12.31,0,16.48,3.16,24.54,3.16a18.74,18.74,0,0,0,15.33-9.13,17.83,17.83,0,0,1-19.15-16.39c0-.45-.05-.9-.05-1.35a25.9,25.9,0,0,1,51.78-1.45c0,.48,0,1,0,1.45a57.66,57.66,0,0,1-7.35,28.11l26.41,70.71A141.74,141.74,0,0,1,115.44,524.69Zm67.25-130.31h-.06a22.72,22.72,0,0,0-45.42,0,14.61,14.61,0,0,0,18.69,14l3.53-1-1.67,3.28c-4.35,8.63-11.78,13.79-19.86,13.79s-12.15-2.89-22.93-3.16c.41,10.29,4.48,17,14.69,15.43a36.76,36.76,0,0,0,11,.31A46.87,46.87,0,0,1,123,440.49c-20.25,0-20.85-11-38.88-11.62.18,13.85,4.23,15.29,11.61,16.93a47.19,47.19,0,0,0,8.76,4.53A57.33,57.33,0,0,1,87,446.49c-18-6.95-21.43-25.93-36.45-27.16,0,11.79,2.16,18.67,13,23.15,15,6.21,29.22,12.15,51.76,12.15C152.56,454.55,182.69,427.55,182.69,394.38Zm5.9,350.39,1.64,4.39,27.13-65.63c-1.15,0-2.35.12-3.52.16Zm-186.23,18H0v19H2.36ZM0,1l.6.17c1.46.41,3.16.9,3.22,2.37A2.39,2.39,0,0,1,1.15,5.59v.08A4.6,4.6,0,0,1,0,5.54V8.21a8.46,8.46,0,0,0,1.23.07c3.2,0,6.07-1.62,6.07-4.8A3.49,3.49,0,0,0,5.54,0H0ZM169.67,703.24l-.06,0a9.7,9.7,0,1,0-19.38-.89c0,.3,0,.59,0,.89v1.6h3.18v-1.6a6.52,6.52,0,0,1,13,0c0,12.15-5.14,23.34-13.75,29.64-11.78,8.67-25.94,5.15-33,.81l-1.17-.14a18.26,18.26,0,0,0,1,3.71c10.13,5.46,24.3,6.07,35.11-1.79C164.06,728.55,169.67,716.5,169.67,703.24ZM76,12.49H72.73A75.86,75.86,0,0,1,0,75.85v3.2A79,79,0,0,0,76,12.49Zm84,673h0a17.82,17.82,0,0,0-17.8,17.8,9.7,9.7,0,1,0,19.38.88c0-.29,0-.59,0-.88v-1.6h-3.18v1.6a6.52,6.52,0,0,1-13,0,14.62,14.62,0,0,1,29.22,0c0,19.88-13.28,38.94-33.07,47.42-17.39,7.47-35.25,4.82-47.77-7.09-.3-.28-.75-.72-1.21-1.23a26.93,26.93,0,0,0-5.09-1.13,37.94,37.94,0,0,0,4,4.63c13.37,12.7,32.4,15.76,51.24,7.7,20.94-9,35-29.22,35-50.37A17.79,17.79,0,0,0,160,685.44ZM57.77,734.18a15.35,15.35,0,0,0-3.73-2,7.39,7.39,0,0,0,.14,1.77,41.56,41.56,0,0,0,9,13.36l1.91.77c3,1.26,6,2.47,9,3.62A39.41,39.41,0,0,1,57.77,734.18Zm-11.59,124,3.57-31.83-3-1.16-3.52,31C44.2,856.82,45.23,857.48,46.18,858.19Zm139.67-156.4c0,.48,0,1,0,1.45h0a57.63,57.63,0,0,1-7.37,28.16l26.33,70.66a141.82,141.82,0,0,1-89.35,31.55C55.1,833.61,36,808.23,0,807.31v-3.2c36.89.9,55.77,26.3,115.44,26.3A138.72,138.72,0,0,0,201.16,801l-24.72-66.1c-12.16,18.91-35,31.67-61,31.67-48,0-58.81-25.73-115.48-26.31v-3.2a143.69,143.69,0,0,1,52,9.56c-4.4-6.07-4.42-13.87-4.42-20.11v-1.6h1.58c16.32,0,20.57,16.41,33.8,24.75a34.07,34.07,0,0,1-2-13.57v-1.6h1.58c18.73,0,20.74,9.52,35.2,11.34-3.85-3.4-5.89-9.37-5.89-17.29V727h1.6c12.31,0,16.48,3.16,24.54,3.16A18.76,18.76,0,0,0,153.27,721a17.84,17.84,0,0,1-19.15-16.4c0-.44-.05-.89-.05-1.34a25.9,25.9,0,1,1,51.78-1.45Zm-3.2,1.45a22.72,22.72,0,0,0-45.42,0,14.63,14.63,0,0,0,14.65,14.59,14.89,14.89,0,0,0,4-.58l3.53-1-1.67,3.28c-4.35,8.62-11.78,13.79-19.86,13.79s-12.15-2.9-22.92-3.16c.4,10.29,4.47,17,14.68,15.43a36.43,36.43,0,0,0,11,.3A46.88,46.88,0,0,1,123,749.35c-20.25,0-20.85-11-38.88-11.63.18,13.85,4.23,15.29,11.61,16.93a46.64,46.64,0,0,0,8.76,4.54A57.05,57.05,0,0,1,87,755.34c-18-7-21.43-25.92-36.45-27.16,0,11.79,2.16,18.68,13,23.15,15,6.22,29.22,12.15,51.76,12.15,37.24-.08,67.37-27.07,67.37-60.24Zm-167,141.45,1.13-30.26c-1.05-.22-2.11-.5-3.16-.73l-1.13,30.38Zm15.69,5.08L33.55,820l-3.12-1.17L28.2,848.49C29.25,848.9,30.23,849.32,31.32,849.77ZM60,870.34l5.78-38.76-3.08-.79L57.2,867.43C58.14,868.37,59.08,869.34,60,870.34ZM320.4,784.58V829a28.11,28.11,0,0,1,3.18,0V784.58Zm68.42-20.11V779.6H392V764.47ZM145.33,857.71a14.62,14.62,0,0,1,29.22,0,6.52,6.52,0,0,1-13,0v-1.6h-3.18v1.6a9.7,9.7,0,1,0,19.38.88c0-.29,0-.59,0-.88a17.8,17.8,0,1,0-35.58-1.2q0,.6,0,1.2a50.88,50.88,0,0,0,5.11,21.82h3.49A48,48,0,0,1,145.33,857.71ZM330.26,715.12h0c5.06,12.64,7.25,30.54,7.94,44.21h3.2c-.93-18.23-3.83-34.1-7.86-44.55C332.47,714.88,331.37,715,330.26,715.12Zm-293-171.33c1.2.63,2.37,1.3,3.53,2l-5-33.81-3.42-1.32Zm366.56,223h0a3,3,0,0,1,3.18,2.29h3.52a6.07,6.07,0,0,0-6.7-5c-4.5,0-7.19,3-7.19,7.9s2.67,7.87,7.13,7.87c3.68,0,6.52-1.84,6.88-5.53h-3.52a3.12,3.12,0,0,1-3.36,2.8c-2.76,0-3.89-2.43-3.89-5.14C399.88,768.81,401.4,766.78,403.83,766.78Zm-177.62,17.8L202,876.72c1.05,0,2.17-.12,3.34-.14l24.16-92Zm147.81,90-3.81-33.92c-1,.69-2,1.35-3,2l3.56,31.9H374ZM355.29,849.1c-1,.45-2,.87-3.12,1.28l2.19,29.15h3.2Zm-15.7,5c-1,.23-2,.41-3.15.59l.92,24.8h3.18Zm21.27-69.56h-3.22c-1.6,16-6.93,34.63-17.66,46.25,1.19.27,2.35.55,3.46.88C352.45,821.22,358.91,804.31,360.86,784.58Zm12,94.67h-1.58v.28h5A21,21,0,0,0,372.85,879.25ZM115.44,165.31a91.59,91.59,0,0,0,47.75-13.19l12.86,28.64a123.21,123.21,0,0,1-60.61,15.77C57.11,196.53,43.14,171,0,170.22v3.2c42.08.8,56.65,26.31,115.44,26.31a126.3,126.3,0,0,0,64.8-17.7l-15.53-34.65a88.36,88.36,0,0,1-49.27,14.73C64.12,162.11,53.29,136.43,0,135.8V139C52.41,139.64,63.45,165.31,115.44,165.31Zm218.1,664.37c4-10.59,7-26.59,7.88-45.1h-3.2c-1,19.79-4.23,35.24-8.1,44.72C331.35,829.4,332.45,829.56,333.54,829.68Zm14.07-62.41v-2.86H336v15.13h12v-2.82h-8.73v-3.54h7v-2.77h-7v-3.14Zm14.79,6.46,4.05,5.81H362.6l-3.54-5.41h-3.18v5.41h-3.24V764.41h6.9c3.53,0,6.34,1.24,6.34,4.8A4.42,4.42,0,0,1,362.4,773.73Zm.06-4.52h-.06c0-1.35-.93-2-2.94-2h-3.64v4h3.56C361,771.2,362.46,771,362.46,769.21Zm-9-60.47a35.35,35.35,0,0,1-3.2,1.58c13.81,10.37,23.85,28.13,26.83,49h3.22C377.34,738,367.4,719.82,353.47,708.74Zm28.1,55.67-4.69,11.65L372,764.41h-3.53l6.38,15.13h4.05l6.36-15.13Zm-1.19,20.17H377.1c-2.88,21.1-13,39-26.89,49.51,1.13.51,2.2,1,3.2,1.58C367.5,824.52,377.54,806.09,380.38,784.58Zm-40.4-71c10.69,11.59,16,30.06,17.62,45.75h3.22c-2-19.5-8.45-36.21-17.38-46.58C342.33,713,341.17,713.32,340,713.58ZM114.38,879.53h3.33l12.57-41.87c-1.15.12-2.28.24-3.42.32Zm71.06,0c.76-.12,1.52-.25,2.28-.42v0l28.35-94.53h-3.35l-28.3,94.91Zm36.1,0,19.33-86.2c-.65-2.45-1.15-5-1.58-7.53l-21,93.73ZM115.44,157.21A82,82,0,0,0,170.12,137l18.67,45.39a130,130,0,0,1-73.33,22.27c-58.52,0-75.86-25.47-115.46-26.3v3.22c38.73.85,56.26,26.3,115.46,26.3a133.21,133.21,0,0,0,77.24-24.3l-21.41-52A78.74,78.74,0,0,1,115.44,154C66.2,154,55.34,128.27,0,127.65v3.24C54.59,131.51,65.28,157.21,115.44,157.21ZM253.21,772h0a7.6,7.6,0,0,1-15.17.78,5.08,5.08,0,0,1,0-.78c0-4.92,2.89-7.9,7.57-7.9S253.21,767.09,253.21,772Zm-2.94.44c0-.15,0-.3,0-.44h0a4.35,4.35,0,1,0,.06.44Zm-21.6,3.29c-.44-2.11-2.39-10.86-2.5-11.29h-5c-.1.41-2.21,11.36-2.29,11.75-.18-1.66-3.08-10.13-3.62-11.75h-3.2l4.8,15.09h4.27c0-.51,2.47-11.85,2.47-12l2.9,12h4.27L235,764.45h-3.2C231.37,765.87,229.14,773.43,228.67,775.74ZM84.88,879.53h3.28l9.4-41.87-3.2-.32Zm14.72,0h3.29l10.81-41.3h-3.28Zm87.79-59.89-5.55,16.52a30.64,30.64,0,0,1,2.41,2.8l7.33-21.77C190.21,818,188.81,818.85,187.39,819.64ZM70.18,879.53h3.23l8.27-44.14-3.12-.61ZM320.4,855.88v23.65h3.18V855.88H320.4Zm-17,23.65h3.19l.92-24.76c-1.06-.18-2-.36-3.16-.59Zm-17,0h3.21l2.18-29.19c-1.05-.41-2-.83-3.12-1.28ZM270,874.58l.85.06h2.27l3.59-31.88c-1-.65-2-1.31-3-2Zm114-46c-.91,1-1.85,1.95-2.79,2.91l7.18,48h3.22Zm9.58-12.76-.08,0,11.89,63.64h3.26l-12.72-68C395.16,813,394.35,814.45,393.54,815.85ZM235.33,879.53h3.26L250.47,816q-1.28-2.1-2.43-4.29Zm36.87,0v-.28h-1.6a21,21,0,0,0-3.45.28ZM160,851.15a6.5,6.5,0,0,1,6.5,6.5h0v1.6h3.18v-1.6a9.7,9.7,0,1,0-19.38-.89c0,.3,0,.59,0,.89a43.08,43.08,0,0,0,5.78,21.88h3.78a39.25,39.25,0,0,1-6.38-21.88A6.52,6.52,0,0,1,160,851.15Zm92.36,28.38h3.22l7.19-48.09c-.95-.94-1.89-1.92-2.79-2.91ZM416.73,65l30.94,82.73,1.7-4.56-29.1-77.78ZM114.93,338.71l26.33-70.65a57.8,57.8,0,0,1-7.37-28.17,25.9,25.9,0,1,1,51.78-1.45c0,.48,0,1,0,1.45a17.82,17.82,0,0,1-17.85,17.79c-.45,0-.9,0-1.35-.05a18.76,18.76,0,0,0,15.33,9.13c8.1,0,12.25-3.16,24.57-3.16H208v1.6c0,7.92-2,13.89-5.9,17.3,14.46-1.83,16.49-11.34,35.2-11.34h1.6v1.6a34.4,34.4,0,0,1-2,13.56c13.23-8.34,17.46-24.74,33.78-24.74h1.6v1.6c0,6.23,0,14-4.43,20.11a157,157,0,0,1,107.91,0c-4.39-6.08-4.41-13.88-4.41-20.11v-1.6h1.58c16.32,0,20.57,16.4,33.79,24.74a33.84,33.84,0,0,1-2-13.56v-1.6h1.58c18.73,0,20.74,9.51,35.19,11.34-3.84-3.41-5.89-9.38-5.89-17.3v-1.6h1.6c12.31,0,16.49,3.16,24.55,3.16A18.75,18.75,0,0,0,477,257.63a17.82,17.82,0,0,1-19.14-16.39c0-.45-.05-.9-.05-1.35a25.9,25.9,0,1,1,51.78-1.45c0,.48,0,1,0,1.45h.28a57.69,57.69,0,0,1-7.37,28.17l26.33,70.65a141.76,141.76,0,0,1-89.47,31.49c-61.46,0-80.17-26.32-117.45-26.32s-56,26.32-117.46,26.32A141.8,141.8,0,0,1,114.93,338.71Zm272.68-50.65c15,6.22,29.22,12.16,51.76,12.16,37.2-.09,67.33-27.08,67.33-60.25a22.72,22.72,0,0,0-45.42,0A14.61,14.61,0,0,0,480,254l3.53-1-1.67,3.28C477.48,264.88,470.05,270,462,270s-12.15-2.89-22.92-3.16c.4,10.29,4.47,17,14.68,15.43a36.76,36.76,0,0,0,11,.31A46.87,46.87,0,0,1,447,286.08c-20.25,0-20.85-11-38.88-11.62.19,13.85,4.24,15.29,11.61,16.93a47.19,47.19,0,0,0,8.76,4.53,57.05,57.05,0,0,1-17.43-3.85c-18-6.94-21.43-25.92-36.45-27.15C374.63,276.7,376.8,283.59,387.61,288.06ZM204.54,300.13c22.52,0,36.72-5.85,51.74-12.15,10.84-4.47,12.92-11.38,13-23.14-14.94,1.23-18.34,20.25-36.45,27.15a56.86,56.86,0,0,1-17.41,3.85,48.86,48.86,0,0,0,8.77-4.53c7-1.56,11.4-2.78,11.6-16.93-18,.6-18.71,11.62-38.9,11.62a46.9,46.9,0,0,1-17.74-3.46,36.83,36.83,0,0,0,11-.31c10.12,1.58,14.17-5.22,14.68-15.43-10.7.27-14.7,3.16-22.93,3.16s-15.49-5.16-19.86-13.79l-1.66-3.28,3.52,1a14.62,14.62,0,0,0,18.69-14,22.72,22.72,0,0,0-45.42,0C137.29,273.14,167.44,300.13,204.54,300.13Zm-85.68,37.61a138.59,138.59,0,0,0,85.68,29.34c60.76,0,79.22-26.32,117.46-26.32s56.7,26.32,117.45,26.32a138.7,138.7,0,0,0,85.72-29.34l-24.77-66.1c-12.15,18.92-34.95,31.67-60.95,31.67C390.85,303.31,380.4,277,322,277s-68.86,26.32-117.46,26.32c-26,0-48.78-12.75-61-31.67Zm65.9-221,22.68-50.62h-3.5l-20.78,46.29ZM127.37,337.84l21.4-52a78.72,78.72,0,0,0,55.87,22.44C254.48,308.28,265,282,322.1,282s67.62,26.33,117.45,26.33a78.69,78.69,0,0,0,55.75-22.36l.1-.08,21.41,52a133.27,133.27,0,0,1-77.26,24.3c-60.2,0-77.32-26.32-117.45-26.32s-57.27,26.32-117.46,26.32A133.16,133.16,0,0,1,127.37,337.84Zm3.91-1.17a129.92,129.92,0,0,0,73.34,22.27c59.48,0,76.41-26.32,117.46-26.32s58,26.32,117.45,26.32a130,130,0,0,0,73.25-22.19l.1-.08-18.67-45.39a82,82,0,0,1-54.68,20.26c-50.77,0-61.09-26.33-117.45-26.33s-66.69,26.33-117.46,26.33A81.91,81.91,0,0,1,150,291.28Zm63.1-270.79-5.13,10.55a30.85,30.85,0,0,1,1.12,5l7.47-15.39ZM628,58.75l-.08,0,.08.1ZM227.24,65l-3.54.39-29.1,77.78,1.7,4.56ZM244,141.65h3.24a75.78,75.78,0,0,1,149.35,0h3.24a79,79,0,0,0-155.83,0Zm-26.67-75.8c-1.15,0-2.35.13-3.52.17l-25.25,61.07,1.64,4.4Zm20-2.38-3.56.62-32.65,96.76,1.78,4.74ZM607.13,12.62c2,19.72,8.4,36.63,17.41,47.12a20.17,20.17,0,0,1,3.38-1c-10.7-11.65-16-30.22-17.57-46.15ZM237.29,341.49l-3.34.68V322.65c2-.44,5-1,8.91-2,5.34-1.46,7.87-.41,7.87,3.26a8.08,8.08,0,0,1-4.79,7h.1q3,3.38,6.07,6.57l-3.54,1.13q-3-3.1-6.08-6.42c-1.72.45-3.46.85-5.2,1.24Zm.12-11.36c1.68-.37,3.46-.79,5.22-1.16h.11c3.26-.87,4.53-2.85,4.53-3.89,0-2.29-1.19-2.14-4.35-1.29-1.84.48-3.67.93-5.51,1.33ZM637.72,57.21h0a.56.56,0,0,1,0,.12ZM139.84,336.44l15.56-34.65a88.21,88.21,0,0,0,49.16,14.67c52,0,62.4-26.33,117.46-26.33s65.49,26.33,117.45,26.33a88.42,88.42,0,0,0,49.25-14.67l15.53,34.65a126.3,126.3,0,0,1-64.7,17.64c-59.72,0-73.81-26.32-117.45-26.32s-57.74,26.32-117.46,26.32A126.39,126.39,0,0,1,139.84,336.44Zm4.17-1.33a123.21,123.21,0,0,0,60.63,15.77c59.24,0,72.7-26.32,117.46-26.32s58.2,26.32,117.45,26.32a123.18,123.18,0,0,0,60.51-15.77h.1L487.3,306.47a91.59,91.59,0,0,1-47.75,13.19c-52.65,0-63.3-26.33-117.45-26.33s-64.8,26.33-117.46,26.33a91.72,91.72,0,0,1-47.77-13.19Zm115-20.48-3.12,1.24v20.29L259,335Zm-30.06,25.3a130.89,130.89,0,0,1-13.12,1.27l0-4.63c3.59-.25,7.17-.65,10.78-1.2v-3.18c-3.61.53-7.19.93-10.78,1.2v-4.78q6.26-.45,12.56-1.48v-3.32a133.28,133.28,0,0,1-15.82,1.72V344.6a157.9,157.9,0,0,0,16.4-1.53ZM284.19,48.76l-5.06,33.78c1.15-.69,2.33-1.36,3.52-2l5-33.11ZM185.49,327c.85,2.35,5.85,14.33,7,17.15,1.26.12,2.52.24,3.77.32,1-2.28,6.2-13.89,7.09-16.3v16.59h3.36v-19h-2c-1.5,0-2.7-.06-4-.12h0l-6.22,15.51c-.83-2.31-5.37-13.89-6.5-16.79-1.88-.3-3.77-.68-5.63-1.11l-.14,19.4,3.26.59Zm-24.18,9.58c-1-.41-2-.77-3-1.2l7.94-17.31c1.6.66,3.18,1.27,4.78,1.86l8,22c-1.28-.28-2.51-.56-3.77-.89l-2-5.45c-3.29-1-6.59-2.24-9.87-3.62Zm3.32-7.34a73.13,73.13,0,0,0,7.33,2.84l-3.85-10.61C167.89,322.07,166.27,325.65,164.63,329.27Zm423-316.65c2.84,21.5,12.88,39.93,26.92,51.09,1-.55,2-1.07,3.2-1.58-13.94-10.47-24-28.35-26.9-49.51Zm39,0c.91,18.51,3.8,34.42,7.87,45.09a20.69,20.69,0,0,1,3.24-.5c-5.09-12.75-7.23-30.8-7.91-44.59ZM359.76,48.76l-3.42-1.31,4.94,33.11c1.2.62,2.37,1.29,3.53,2ZM388.38,262a36.35,36.35,0,0,1,3.68,3.1L384,210.93c-.91,1-1.85,2-2.79,2.92ZM406.6,63.45,441,165.57l1.78-4.74L410.17,64.05Zm-9.92,103.37a75.78,75.78,0,0,1-149.51,0H244a79,79,0,0,0,155.93,0Zm30.05-101h0l27,65.65,1.64-4.4-25.13-61C429.06,66.08,428,65.94,426.73,65.85ZM320.4,715.47h0v43.86h3.18V715.47A27.41,27.41,0,0,1,320.4,715.47Zm0-477.26V269h3.18V238.21H320.4Zm50.4,18.73H374L370.21,223c-1,.69-2,1.36-3,2Zm-33.15,12.78,3.2.32-1.26-33.57c-1,.22-2,.4-3.15.58Zm-44-224.46-3.59,31.81c1.12-.46,2.23-.91,3.36-1.31L297,44.15Zm61.48,227,3.24.73-3.1-41.58c-1,.45-2,.87-3.12,1.28ZM323.78,70.94V40.1H320.6V70.94h3.18ZM311.65,40.68h0l-1.1,30.89c1.08-.15,2-.29,3.22-.39l1.16-30.86C313.78,40.42,312.7,40.52,311.65,40.68Zm137.93,25.2-3.39.2,7.48,15.39a30.83,30.83,0,0,1,1.11-5ZM332.32,40.66c-1.05-.16-2.12-.26-3.22-.36l1.16,30.86a23.2,23.2,0,0,1,3.22.39Zm-29.54,1.83h0l-2.35,31.08c1.07-.28,2.17-.55,3.26-.79l2.39-31A24.63,24.63,0,0,0,302.78,42.49ZM272.5,330.15a11.84,11.84,0,0,0,8.1-8.73l-3.36.87a7.25,7.25,0,0,1-4.92,4.82h0c-4.17,1.35-5.73-1.46-5.73-5.85,0-3.51,2.43-8.1,6-9.32,2.16-.71,4.23-.53,4.86,1.68l3.11-1c-.75-4-4.17-5.16-8.1-3.89a13.68,13.68,0,0,0-9.07,13.53C263.39,328.55,266.75,332,272.5,330.15Zm167-263.91h-2.92l22.71,50.63,1.57-4.26L440.12,66.24ZM341.19,42.49c-1.07-.29-2.16-.57-3.26-.81l2.33,31.1c1.1.24,2.19.51,3.26.79Zm9.14,2.77L347,44.15l3.54,31.61c1.13.4,2.25.85,3.36,1.31ZM160,233.47a6.5,6.5,0,0,1,6.5,6.5h0v1.6h3.18V240a9.7,9.7,0,0,0-19.38-.89c0,.3,0,.59,0,.89,0,13.26,5.61,25.33,15.05,32.24C176,280,190.12,279.52,200.45,274a18.88,18.88,0,0,0,1-3.71l-1.17.15c-7,4.31-21.2,7.85-33-.81-8.61-6.3-13.75-17.4-13.75-29.65A6.52,6.52,0,0,1,160,233.47ZM6.25,392.29,5.09,423.56l3.18.14,1.2-31.79C8.4,392.05,7.44,392.19,6.25,392.29Zm144.1,84.07,0,.08c1.66-.39,3.65-.35,4.22,1.23,1-.36,2.26-.85,3.44-1.34-1.12-3-4.54-3.56-7.7-2.81-5,1.19-8.1,4.05-8.1,7.55,0,4.94,5.55,4.46,7.64,4.34,3.28-.19,5.36-.14,5.38,2,0,1.44-1.68,3.3-4.92,4.05a4.63,4.63,0,0,1-4-.61l-3.85.79c1.16,2.31,4.06,3.81,7.92,2.86,5.25-1.24,8.61-4.35,8.59-7.9,0-4.66-4.05-4.61-7.9-4.45-2.87.12-5.18.2-5.18-1.85S147.6,477,150.35,476.36ZM129.7,496V496a4.89,4.89,0,0,1-4.58-1.58l-3.85.46c1,3,4.38,4.52,8.45,4.06,5.42-.59,8.93-3.22,8.93-6.71,0-4.66-4.34-5-8.1-5.28-2.9-.23-5.39-.43-5.39-2.43s1.78-3,4.62-3.28c1.86-.19,4.05.18,4.43,2,.87-.18,2.25-.46,3.63-.79-.87-3.28-4.5-4.47-8.1-4.05-5.09.55-8.37,3.06-8.37,6.42,0,4.78,5.61,5,7.86,5.12,3.42.23,5.57.53,5.57,2.66C134.78,494,133,495.61,129.7,496ZM101.47,479.6v19.11a149.14,149.14,0,0,0,16.1.51v-3.08c-4.26,0-8.59,0-12.86-.41v-4.88c3.44.29,6.94.43,10.55.43V488.1c-3.48,0-7-.14-10.55-.42V483.1c4.47.32,8.2.36,12.29.28V480.2A138.84,138.84,0,0,1,101.47,479.6ZM91.18,489l0,.08,5.47,9.2c-1.44-.19-2.86-.35-4.25-.55l-5.31-8.93L82.9,488v8.1l-3.34-.77v-19.7c3.76,1.05,8.68,2,8.68,2,5.33,1,7.8,3.2,7.8,6.89C96,487.29,94,488.73,91.18,489Zm1.42-4.94c0-2.17-1.54-2.55-4.74-3.16l-5-1v4.78L88,485.79c2.29.37,4.54.47,4.54-1.82ZM26.52,387.72,22.33,425.1c1.08.15,2.13.31,3.16.49l4.39-39.19C28.77,386.87,27.65,387.29,26.52,387.72ZM97.56,220l-3.2-.32L79.05,287.8c.65,2.47,1.15,5,1.58,7.56Zm-28,45.32c.85,1.4,1.66,2.84,2.43,4.3l9.72-51.89-3.12-.6ZM16.21,390.86l-2.45,33.25a27.67,27.67,0,0,1,3.12.4l2.59-34.42C18.4,390.37,17.31,390.61,16.21,390.86ZM56.37,12.49H53.15C50.27,33.6,40.19,51.54,26.26,62c1.13.5,2.2,1,3.2,1.58C43.49,52.43,53.53,34,56.37,12.49Zm6.86,469.86v7.76L60,488.89V469.06a103.21,103.21,0,0,1,9.85,3.35c4,1.74,6,3.88,6,7.29,0,3-2.63,5.93-8.53,4.05Zm0-3.08L67,480.45c3.36,1.09,5.57,1.47,5.57-1.36,0-2.27-2-3.36-5.57-4.5l-3.75-1.17ZM170.16,445.8l18.67,45.38a129.89,129.89,0,0,1-73.33,22.27C57,513.45,39.63,488,0,487.15v3.2c38.76.83,56.28,26.3,115.5,26.3a133.18,133.18,0,0,0,77.2-24.32l0,.08-21.41-52a78.64,78.64,0,0,1-55.85,22.44c-49.25,0-60.1-25.71-115.48-26.31v3.2c54.63.6,65.31,26.31,115.48,26.31A82,82,0,0,0,170.16,445.8Zm-164,88.61c1.09.1,2.15.25,3.22.39L8.25,503.92c-1-.17-2-.27-3.22-.37Zm280.25-210-4.05,1.38c2.73-7.41,5.59-15.07,8.5-22.72,1.4-.34,2.74-.65,4.13-.95h0c3,5.93,6.08,11.95,8.83,17.86a33.75,33.75,0,0,0-3.42.65l-1.86-3.95a50.07,50.07,0,0,0-10.47,3Zm2.95-8.32a52.78,52.78,0,0,1,7.9-2.17h0c-1.13-2.34-4.05-8.62-4.05-8.62C293,306,290.43,313.16,289.39,316.05ZM2.36,453.84H0v19H2.36ZM34,462h.1v-3.26a114.17,114.17,0,0,0-14.62-3.34V475A116.24,116.24,0,0,1,34.66,479v-3.28c-4-1.34-8.1-2.49-12-3.45V467c3.3.79,6.58,1.7,9.88,2.75v-3.2c-3.3-1-6.58-2-9.88-2.73v-4.62Q28.3,460.34,34,462Zm6.22,19.18,6.34-5.47,5.71,10,4.84,2L49.28,474l7.15-6.26-3.5-1.44-5.27,4.76-5.49-9.62c-1.54-.57-3.09-1.11-4.69-1.64l7.41,12.9-8.1,7.15ZM54.57,0,52.93,4,51.14,0H47.62L50.8,7.49h4.05L58,0Zm60.87,508.61a126.35,126.35,0,0,0,64.7-17.72h.1l-15.53-34.64a88.41,88.41,0,0,1-49.17,14.66c-51.35,0-62.17-25.71-115.54-26.31v3.2c52.49.61,63.52,26.31,115.54,26.31A91.59,91.59,0,0,0,163.19,461l12.86,28.64a123.1,123.1,0,0,1-60.61,15.77c-58.33,0-72.3-25.53-115.44-26.3v3.2C42.08,483.06,56.65,508.57,115.44,508.57ZM73.93,425.75l2.43,2.79,56.5-167.89c-.55-1.73-1.14-3.47-1.6-5.25h0ZM16.19,536c1.1.25,2.19.51,3.26.79l-2.33-31.08c-1.07-.29-2.16-.57-3.26-.81ZM387.31,335.8l-3.25-1.22V314.71a103.21,103.21,0,0,1,9.85,3.35c4.09,1.68,6,3.82,6,7.23,0,3-2.63,5.93-8.52,4l-4.05-1.3Zm0-10.9,3.74,1.18c3.36,1.09,5.57,1.47,5.57-1.36h0c0-2.27-2-3.36-5.57-4.5l-3.74-1.17ZM22.27,1.09V-.08H12V7.45H24V4.64H15.24V1.09Zm384.6,340.5-3.34-.77V321.11c3.76,1.06,8.68,2,8.68,2,5.33,1,7.8,3.2,7.8,6.88,0,2.94-2,4.3-4.82,4.56h0l5.47,9.17c-1.44-.16-2.86-.32-4.25-.52l-5.31-8.93-4.23-.81Zm0-11.4L412,331.3c2.33.45,4.58.55,4.58-1.74h0c0-2.17-1.54-2.55-4.74-3.16l-5-1ZM493.68,240l0-.08a9.7,9.7,0,0,0-19.38-.89c0,.3,0,.59,0,.89v1.6h3.18v-1.6a6.52,6.52,0,0,1,13,0c0,12.15-5.14,23.35-13.75,29.65-11.78,8.66-25.94,5.14-33,.81l-1.17-.15a18.26,18.26,0,0,0,1,3.71c10.13,5.47,24.3,6.07,35.11-1.78C488.07,265.3,493.68,253.23,493.68,240Zm-135,81.35c-4.05-1.34-8.1-2.49-12-3.45v-5.28c3.3.79,6.58,1.7,9.88,2.75v-3.2c-3.3-1-6.58-2-9.88-2.73v-4.62q5.78,1.14,11.5,2.84v-3.26A114.17,114.17,0,0,0,343.52,301v19.52a116.24,116.24,0,0,1,15.15,4.05ZM68,7.45V-.08h-3.2V7.45ZM310.53,304c4.32,4.66,8.69,9.46,13,14.48h3v-19h-3.08l0,14c-4.05-4.7-8.22-9.2-12.31-13.57l-3.7.32v19.26q1.51-.23,3.09-.36Zm53.67,22.74,6.34-5.46,5.71,10,4.84,2-7.8-13.62,7.29-6.26-3.5-1.44-5.31,4.8-5.59-9.66c-1.54-.57-3.09-1.11-4.69-1.64l7.41,12.9-8.1,7.15Zm77.38,18v-3.08c-4.26,0-8.59,0-12.86-.41V336.4c3.44.29,6.94.43,10.55.43v-3.1q-5.24,0-10.55-.43v-4.57c4.47.32,8.2.36,12.29.28v-3.26a136.41,136.41,0,0,1-15.53-.61v19.12A149.14,149.14,0,0,0,441.58,344.77ZM9.53,57.59c4.05-10.59,7-26.59,7.88-45.1h-3.2c-1,19.79-4.23,35.24-8.1,44.72C7.34,57.31,8.44,57.43,9.53,57.59ZM389.07,284.72c3,1.26,6,2.47,9,3.63a39.46,39.46,0,0,1-16.26-17.44v-.06a15.66,15.66,0,0,0-3.73-2,7.35,7.35,0,0,0,.14,1.76,41.45,41.45,0,0,0,9,13.36ZM256.83,284a41.77,41.77,0,0,0,8.95-13.36c0-.57.12-1.16.16-1.76a14.87,14.87,0,0,0-3.74,2A39.59,39.59,0,0,1,246,288.33c3-1.16,6-2.37,9-3.63ZM41-.08H28.63V7.45h3.24V2.05H35l3.55,5.4h3.85L38.33,1.64A4.69,4.69,0,0,0,41-.08ZM466.75,290.27c20.94-9,35-29.22,35-50.36A17.79,17.79,0,0,0,484,222.17h0A17.82,17.82,0,0,0,466.2,240a9.7,9.7,0,0,0,19.38.89c0-.3,0-.6,0-.89v-1.6H482.4V240a6.52,6.52,0,0,1-13,0,14.62,14.62,0,0,1,29.22,0c0,19.89-13.28,38.94-33.07,47.43-17.39,7.47-35.25,4.82-47.77-7.09-.3-.28-.75-.73-1.21-1.24a28.57,28.57,0,0,0-5.09-1.13,37.3,37.3,0,0,0,4.05,4.64C428.88,295.27,447.92,298.33,466.75,290.27ZM36.85,12.49H33.63C32,28.51,26.7,47.12,16,58.75c1.19.26,2.35.54,3.46.87C28.44,49.13,34.9,32.22,36.85,12.49ZM453.69,341.61a4.89,4.89,0,0,1-4.58-1.58l-3.85.46c1,3,4.38,4.52,8.45,4.05,5.42-.58,8.93-3.22,8.93-6.7,0-4.68-4.3-5-8.12-5.3v0c-2.9-.23-5.39-.43-5.39-2.43s1.78-3,4.62-3.28c1.86-.19,4.05.18,4.43,2,.87-.18,2.25-.47,3.63-.79-.87-3.28-4.5-4.48-8.1-4.05-5.09.55-8.37,3.06-8.37,6.42,0,4.78,5.61,5,7.86,5.12,3.42.23,5.57.53,5.57,2.66C458.77,339.66,457,341.26,453.69,341.61Zm20.17-10.69c3.28-.19,5.36-.15,5.38,2,0,1.44-1.68,3.3-4.92,4.05a4.63,4.63,0,0,1-4.05-.61l-3.85.79c1.16,2.31,4.05,3.81,7.92,2.86,5.25-1.24,8.61-4.36,8.59-7.9.06-4.64-3.93-4.6-7.82-4.43h0c-2.87.12-5.18.2-5.18-1.85s1.68-3.28,4.43-3.91c1.66-.38,3.65-.34,4.21,1.24,1-.37,2.27-.85,3.45-1.34-1.12-3-4.54-3.56-7.7-2.81-5,1.19-8.1,4.05-8.1,7.55C466.22,331.52,471.77,331,473.86,330.92ZM177.18,290.33c19,8.1,38,4.86,51.24-7.69a38.79,38.79,0,0,0,4.05-4.64,28.06,28.06,0,0,0-5.06,1.13c-.49.51-.92,1-1.22,1.24-12.53,11.91-30.37,14.56-47.79,7.09C158.64,279,145.33,259.92,145.33,240a14.62,14.62,0,0,1,29.22,0,6.52,6.52,0,0,1-13,0v-1.6h-3.18V240a9.7,9.7,0,0,0,19.38.89c0-.3,0-.59,0-.89a17.8,17.8,0,0,0-35.58-1.2q0,.6,0,1.2C142.19,261.11,156.25,281.34,177.18,290.33ZM26.5,539q1.7.62,3.36,1.32l-3.54-31.82L23,507.38ZM152.26-.1,139.82,27.6a126.39,126.39,0,0,0,64.72,17.66h.1c59.72,0,73.78-26.33,117.46-26.33s57.73,26.33,117.45,26.33a126.35,126.35,0,0,0,64.6-17.66L491.72-.1h-3.51l11.85,26.32A123.11,123.11,0,0,1,439.45,42C380.2,42,366.73,15.67,322,15.67S263.78,42,204.54,42a123.21,123.21,0,0,1-60.63-15.78L155.76-.1ZM484,696.73a6.51,6.51,0,0,1,6.5,6.51v1.6h3.18v-1.6a9.7,9.7,0,1,0-19.38-.89c0,.29,0,.59,0,.89,0,13.26,5.61,25.31,15.05,32.23,10.67,7.82,24.78,7.31,35.11,1.79a19.25,19.25,0,0,0,.95-3.71l-1.17.14c-7,4.32-21.2,7.86-33-.81-8.61-6.3-13.75-17.39-13.75-29.64A6.53,6.53,0,0,1,484,696.73Zm-37.81-13,7.48,15.39a31.29,31.29,0,0,1,1.11-5l-5.2-10.55Zm-30.9-658,5.37,9c-1.44-.16-2.86-.32-4.25-.53l-5.31-8.64-4.23-.81v8.1l-3.34-.77V12.39c3.76,1.06,8.68,2,8.68,2,5.33,1,7.8,3.2,7.8,6.88C420,24.1,418.07,25.54,415.29,25.75Zm1.28-5.2c0-2.16-1.54-2.55-4.74-3.15l-5-1v4.78L412,22.3c2.33.62,4.58.72,4.58-1.56Zm127.17,95.16,21.18-94.43c-.64-2.45-1.15-5-1.58-7.53L540,117.62C541.21,117,542.42,116.32,543.74,115.71ZM441,20.15V16.71a138.76,138.76,0,0,1-15.53-.61V35.22a149.14,149.14,0,0,0,16.1.5V32.64c-4.26,0-8.59,0-12.86-.4V27.6c3.44.29,6.94.43,10.55.43v-3.1q-5.24,0-10.55-.43V19.93C433.19,20.19,436.92,20.23,441,20.15ZM562.15-.08a7.14,7.14,0,0,0,6.36,7.85,8.19,8.19,0,0,0,1.21,0,7.16,7.16,0,0,0,7.6-7.88h-3a4.67,4.67,0,0,1-4.1,5.16A4.65,4.65,0,0,1,565.11,1a3.76,3.76,0,0,1,0-1.06Zm-178,6c6.64,2,8.68,2.88,9.84,3.34,4.05,1.75,6,3.89,6,7.29,0,3-2.63,5.94-8.52,4.05l-4-1.29V27l-3.24-1.21Zm3.24,10.25,3.74,1.17c3.36,1.1,5.57,1.48,5.57-1.35,0-2.27-2-3.36-5.57-4.5l-3.74-1.17ZM614.52,681.39a35.35,35.35,0,0,1,3.2-1.58c-13.94-10.47-24-28.36-26.9-49.52H587.6C590.44,651.8,600.48,670.23,614.52,681.39ZM127.37,29.1a133.22,133.22,0,0,0,77.17,24.26l.1,0c60.19,0,77.3-26.32,117.46-26.32S379.35,53.4,439.55,53.4a133.27,133.27,0,0,0,77.26-24.3L504.8-.08h-3.44l11.52,28A130,130,0,0,1,439.55,50.2c-59.49,0-76.42-26.32-117.45-26.32s-58,26.32-117.46,26.32A129.92,129.92,0,0,1,131.3,27.93l11.54-28h-3.46Zm326.34,3.62-.06-.18A4.89,4.89,0,0,1,449.07,31l-3.85.47c1,3,4.38,4.51,8.45,4,5.42-.59,8.93-3.22,8.93-6.7,0-4.66-4.34-5-8.1-5.29-2.9-.22-5.39-.42-5.39-2.43s1.78-3,4.62-3.28c1.86-.18,4,.18,4.43,2,.87-.19,2.25-.47,3.63-.79-.87-3.29-4.5-4.48-8.1-4-5.09.54-8.37,3-8.37,6.41,0,4.78,5.61,5,7.86,5.13,3.42.22,5.57.52,5.57,2.65C458.79,30.78,457.05,32.38,453.71,32.72Zm-165-33c-2.17,5.73-4.32,11.44-6.36,17l4.05-1.38,1.7-4.76a51.31,51.31,0,0,1,10.47-3l1.86,4.05c.41-.12,3-.58,3.42-.64-1.78-3.73-3.62-7.48-5.51-11.2h-3.48c.81,1.83,1.75,3.84,2.33,5.05a51.82,51.82,0,0,0-7.92,2.16l2.63-7.31Zm37.74,10V-.08h-3V4.58c-1.37-1.58-2.77-3.12-4.15-4.66h-4.45c2.87,3.16,5.77,6.38,8.65,9.72Zm-19.18-10,0,10.67c1-.14,2.05-.26,3.1-.37V-.32Zm-34.72,3.4c2.16-.71,4.23-.53,4.86,1.68l3.11-1a4.94,4.94,0,0,0-2.79-3.91h-5.33l-.08-.18a13.66,13.66,0,0,0-9,13.73c0,6.25,3.36,9.7,9.11,7.85a11.81,11.81,0,0,0,8.1-8.72l-3.36.87a7.26,7.26,0,0,1-4.84,4.82c-4.17,1.35-5.73-1.46-5.73-5.86C266.61,8.89,269,4.29,272.57,3.08Zm91.63,14.7,6.34-5.47,5.71,10,4.84,2-7.8-13.51,7.15-6.25-3.5-1.44-5.31,4.8-4.41-8h-3.85l5.53,9.46-8.1,7.14ZM461.5-.08H412.9a119.7,119.7,0,0,0,26.55,2.81h.1A86.42,86.42,0,0,0,461.5-.08Zm-22,10.91A92.09,92.09,0,0,0,483.23-.08h-7.31a86.89,86.89,0,0,1-36.45,7.71,121.38,121.38,0,0,1-43.9-7.71h-8.71C401,5.67,416.2,10.83,439.51,10.83Zm-96-10.91V11.73a116.24,116.24,0,0,1,15.15,4V12.49c-4.05-1.33-8.1-2.49-12-3.44V3.67c3.3.79,6.58,1.7,9.88,2.75V3.3c-3.3-1-6.58-2-9.88-2.73V-.1ZM470.41,27.66l-3.84.79c1.15,2.31,4.05,3.81,7.91,2.86,5.25-1.24,8.61-4.36,8.59-7.9,0-4.66-4.05-4.62-7.9-4.46-2.87.13-5.18.21-5.18-1.84s1.68-3.28,4.43-3.91c1.66-.38,3.65-.34,4.22,1.24,1-.37,2.26-.85,3.44-1.34-1.12-3-4.54-3.56-7.7-2.81-5,1.19-8.1,4.05-8.1,7.55,0,4.94,5.55,4.46,7.64,4.33,3.28-.18,5.36-.14,5.38,2,0,1.38-1.7,3.24-4.94,4l.1.08A4.63,4.63,0,0,1,470.41,27.66ZM612.65,77l-3.09,41.58,3.26-.77,2.95-39.53C614.72,77.82,613.75,77.4,612.65,77ZM600.5,625.21H612v-2.88h-8.35v-4.65H600.5Zm24.12-66.84c-9,10.31-15.45,27-17.45,46.52l.08.1h3.22c1.64-15.72,6.94-34.19,17.61-45.75C626.89,559,625.74,558.69,624.62,558.37ZM621,610l.08.1H616v7.55h3.25v-4.82h1.88c3.58,0,5.16,1.44,5.16,4.64h3.4C629.56,612.44,626.18,610,621,610Zm-17.32.06H600.5v7.59h3.22Zm-18.47,9.69h3.12s3.51,5.35,3.57,5.41h3.82l-4-5.81a4.86,4.86,0,0,0,2.66-1.72H582v7.53h3.24Zm30.62-2v7.53H621c5.14,0,8.52-2.43,8.52-7.53h-3.4c0,3-1.58,4.49-5.16,4.49v.12h-1.89v-4.61ZM581.93,610h6.91c3.64,0,6.34,1.17,6.34,4.8a4.69,4.69,0,0,1-.77,2.77l-.06,0H581.93Zm3.3,6.9h3.59c1.56-.14,3-.38,3-2,0-1.36-1-2-3-2h-3.65ZM.84,611.83a2.34,2.34,0,0,1,2.68,2.33H6.86c-.1-3.48-2.64-4.9-6.18-4.9-.23,0-.45,0-.68,0v2.61A3.92,3.92,0,0,1,.84,611.83Zm586.82-6.94.09.1H591c3-20.88,13-38.64,26.83-49-1.14-.51-2.19-1-3.2-1.58C600.6,565.38,590.6,583.58,587.66,604.89Zm-6.82-475.33a41.77,41.77,0,0,0,8.95-13.36c0-.57.12-1.16.16-1.76a14.7,14.7,0,0,0-3.74,2A39.59,39.59,0,0,1,570,133.92c3-1.16,6-2.37,9-3.63ZM2.12,616.31A14.27,14.27,0,0,1,0,615.6v2H5.44A12.68,12.68,0,0,0,2.12,616.31Zm592.71-509h1.6v1.6c0,6.23,0,14-4.43,20.11a144,144,0,0,1,50-9.57v3.23C587.07,123.85,576,149,528.51,149c-26,0-48.78-12.75-61-31.67l-24.71,66.1a138.59,138.59,0,0,0,85.68,29.34c58.61,0,77.87-24.5,113.49-26.22v3.21c-34.65,1.82-54.18,26.21-113.35,26.21a141.69,141.69,0,0,1-89.48-31.49l26.32-70.65a57.8,57.8,0,0,1-7.37-28.17,25.9,25.9,0,0,1,51.78-1.45c0,.48,0,1,0,1.45a17.81,17.81,0,0,1-17.85,17.79c-.45,0-.9,0-1.35,0A18.75,18.75,0,0,0,506,112.49c8.1,0,12.15-3.16,24.57-3.16h1.58v1.6c0,7.92-2,13.89-5.9,17.3,14.46-1.83,16.49-11.34,35.2-11.34h1.6v1.6a34.58,34.58,0,0,1-2,13.56C574.28,123.71,578.51,107.31,594.83,107.31Zm-37.91,30.31a56.86,56.86,0,0,1-17.41,3.85,47.7,47.7,0,0,0,8.75-4.52c7-1.55,11.4-2.77,11.6-16.92-18,.6-18.71,11.62-38.9,11.62a46.9,46.9,0,0,1-17.74-3.46,36.83,36.83,0,0,0,11-.31c10.22,1.58,14.27-5.22,14.68-15.43-10.69.26-14.7,3.16-22.93,3.16s-15.49-5.16-19.86-13.79l-1.66-3.28,3.52,1a14.61,14.61,0,0,0,18.11-10,14.15,14.15,0,0,0,.58-4,22.72,22.72,0,0,0-45.42,0c0,33.19,30.17,60.18,67.27,60.18l.1,0c22.52,0,36.72-5.85,51.74-12.15,10.84-4.47,12.92-11.38,13-23.14C578.43,111.7,575,130.72,556.92,137.62ZM484,79.06a6.5,6.5,0,0,1,6.5,6.5v1.6h3.18v-1.6a9.7,9.7,0,0,0-19.38-.89c0,.3,0,.59,0,.89,0,13.26,5.61,25.31,15.05,32.24,10.67,7.81,24.78,7.31,35.11,1.78a18.88,18.88,0,0,0,.95-3.71l-1.17.15c-7,4.31-21.2,7.85-33-.81-8.61-6.3-13.75-17.4-13.75-29.65A6.52,6.52,0,0,1,484,79.06Zm72.48,44.53a27.23,27.23,0,0,0-5.06,1.13c-.49.51-.92,1-1.22,1.24-12.53,11.91-30.38,14.56-47.79,7.09-19.77-8.49-33.07-27.54-33.07-47.43a14.62,14.62,0,0,1,29.22,0,6.52,6.52,0,0,1-13,0V84h-3.18v1.6a9.7,9.7,0,0,0,19.38.89c0-.3,0-.6,0-.89a17.8,17.8,0,1,0-35.58-1.2q0,.6,0,1.2c0,21.08,14.1,41.31,35,50.3,19,8.1,38,4.86,51.24-7.69A38.79,38.79,0,0,0,556.48,123.59Zm-398-97,8-17.31c1.58.66,3.16,1.27,4.76,1.86l8,22c-1.28-.28-2.51-.57-3.77-.89l-2-5.45c-3.28-1-6.58-2.25-9.86-3.62l-2,4.59C160.46,27.42,159.45,27.05,158.47,26.63Zm6.32-6.14c2.45,1.06,4.9,2,7.33,2.84l-3.85-10.61C168.05,13.28,166.43,16.87,164.79,20.49Zm414.77,87.08,7.21-48.17c-.95-.95-1.89-1.92-2.79-2.92l-8.18,54.15a38.44,38.44,0,0,1,3.76-3.1ZM455.21,182.36,473.88,137a81.91,81.91,0,0,0,54.67,20.26c49.54,0,60.56-25.07,113.45-26.28v-3.2C588.36,128.93,577.2,154,528.55,154a78.72,78.72,0,0,1-55.87-22.5l-.06-.18-21.34,52.2a133.16,133.16,0,0,0,77.27,24.3c58.15,0,76.09-24.57,113.45-26.23v-3.21c-38.21,1.64-55.94,26.24-113.45,26.24A129.92,129.92,0,0,1,455.21,182.36ZM628.35,82l-1.26,33.58,3.2-.32,1.22-32.67C630.45,82.36,629.48,82.18,628.35,82Zm-31.21,20.58,3.59-31.88c-1-.64-2-1.31-3-2L594,102.53h3.12ZM115,30a141.68,141.68,0,0,0,89.54,31.49l.1,0c61.47,0,80.16-26.32,117.46-26.32s56,26.32,117.45,26.32A141.72,141.72,0,0,0,529,30L517.78,0h-3.4l10.79,29a138.71,138.71,0,0,1-85.68,29.34c-60.75,0-79.22-26.32-117.45-26.32s-56.7,26.32-117.46,26.32A138.59,138.59,0,0,1,118.9,28.92l10.84-29h-3.51ZM597.2,825.16l-3.08,1.18,3.57,31.83c1-.69,2-1.35,3-2Zm-15.91,5.59-3.08.91,5.69,38.64q1.38-1.5,2.79-2.91Zm-31.68,6.59-3.2.32,9.4,41.87h3.27Zm15.86-2.46-3.12.61,8.23,44h3.24Zm76.53,16v-3.21a79,79,0,0,0-59.45,31.86h4.07A75.86,75.86,0,0,1,642,850.88Zm-28.46-32L610.43,820l2.22,29.77c1-.45,2-.87,3.12-1.28ZM57.77,116.5a15.66,15.66,0,0,0-3.73-2,7.35,7.35,0,0,0,.14,1.76,41.45,41.45,0,0,0,9,13.36l1.91.77c3,1.26,6,2.47,9,3.63A39.49,39.49,0,0,1,57.77,116.5Zm111.9-30.94-.06,0a9.7,9.7,0,0,0-19.38-.89c0,.3,0,.59,0,.89v1.6h3.18V85.6a6.52,6.52,0,0,1,13,0c0,12.15-5.14,23.35-13.75,29.65-11.78,8.66-25.94,5.14-33,.81l-1.17-.15a18.26,18.26,0,0,0,1,3.71c10.13,5.47,24.3,6.08,35.11-1.78C164.06,110.87,169.67,98.82,169.67,85.56ZM630.47,813.7c-1.05.23-2,.51-3.15.77l1.13,30.26,3.16-.61ZM2.36,145.06H0v19H2.36ZM594.87,720.21h2.27l3.59-31.88c-1-.65-2-1.32-3-2L594,720.21Zm35.42,12.67,1.22-32.66c-1.06-.18-2-.37-3.16-.59l-1.26,33.58Zm-17.47,2.55,2.95-39.53c-1-.4-2-.83-3.12-1.27l-3.09,41.57Zm29.18-42a75.88,75.88,0,0,1-70.76-63.28H568a79,79,0,0,0,74,66.5ZM536.67,629.93,508.32,725a32,32,0,0,0,3.4-.28l-.06-.24L540,629.93ZM482.94,831a25.9,25.9,0,0,0-25.16,26.62c0,.45,0,.9.05,1.34A17.81,17.81,0,0,0,477,875.3a18.37,18.37,0,0,1-3.44,4.23h4.66a29.5,29.5,0,0,0,3.64-5.6l1.67-3.28-3.53,1a14.89,14.89,0,0,1-4,.58,14.63,14.63,0,0,1-14.65-14.59,22.72,22.72,0,0,1,45.42,0,54.42,54.42,0,0,1-4.62,21.88h3.39a57.55,57.55,0,0,0,4.37-22h-.28c0-.49,0-1,0-1.45A25.91,25.91,0,0,0,482.94,831Zm29.86,42.17c-.53,1.74-1.08,3.48-1.68,5.2v.1l.37,1.11H515Zm20.75-34.75-3.28,0L541,879.53h3.29Zm46-113.16v0l7.21-48.18c-.95-.94-1.89-1.92-2.79-2.91l-8.18,54.15A37.05,37.05,0,0,1,579.56,725.21ZM15.63,82.1c-1.06.22-2,.4-3.16.58l1.21,32.67,3.2.32ZM160.88,0a91.94,91.94,0,0,0,43.74,10.91C228,10.87,243.1,5.71,257.28,0h-8.85a121.5,121.5,0,0,1-43.89,7.67l.1,0A86.77,86.77,0,0,1,168.19,0Zm70.25,0-.19,0h.29Zm-.19,0H182.63a86.54,86.54,0,0,0,22,2.81A119.8,119.8,0,0,0,230.94,0Zm75.3,269.8,1.22-32.67c-1.06-.18-2-.36-3.16-.58L303,270.08ZM259,26.22V5.81L255.9,7.05V27.3ZM204.64,36h2V17h-2c-1.27,0-2.55,0-3.82-.12L194.6,32.36c-.83-2.31-5.37-13.89-6.5-16.79-1.88-.3-3.77-.69-5.63-1.11l-.14,19.4,3.26.59V18.25c.85,2.34,5.85,14.33,7,17.15,1.25.12,2.51.24,3.76.32,1-2.29,6.2-13.89,7.09-16.2V36.11Zm-90,68.54H118L93.83,12.49h-3.3ZM228.32,18.31l.1,0V15a133.28,133.28,0,0,1-15.82,1.72v19A158.37,158.37,0,0,0,229,34.16V31a128.22,128.22,0,0,1-13.13,1.28V27.66c3.59-.24,7.17-.65,10.78-1.19V23.29c-3.61.52-7.19.93-10.78,1.19V19.7A120.14,120.14,0,0,0,228.32,18.31Zm17.62,3.74.1,0q3,3.38,6.07,6.56l-3.54,1.14q-3-3.11-6.08-6.42c-1.72.44-3.46.85-5.2,1.23v8.1l-3.34.69V13.87c2-.44,5-1,8.91-2,5.34-1.46,7.87-.41,7.87,3.26A8.09,8.09,0,0,1,245.94,22.05Zm1.33-5.75c0-2.29-1.19-2.14-4.35-1.29-1.84.48-3.67.93-5.51,1.33v5c1.78-.36,3.56-.75,5.33-1.15,3.16-.91,4.43-2.9,4.43-3.93ZM101.35,1.09V-.08H91.06V7.45h12V4.64H94.32V1.09ZM115.48,148.9c-48,0-58.81-25.72-115.48-26.31v-3.2A143.7,143.7,0,0,1,52,129c-4.4-6.08-4.42-13.88-4.42-20.11v-1.6h1.58c16.32,0,20.57,16.4,33.8,24.74a34,34,0,0,1-2-13.56v-1.6h1.58c18.73,0,20.74,9.51,35.2,11.34-3.85-3.41-5.89-9.38-5.89-17.3v-1.6h1.6c12.31,0,16.48,3.16,24.54,3.16a18.76,18.76,0,0,0,15.33-9.13,17.83,17.83,0,0,1-19.15-16.39c0-.45-.05-.9-.05-1.35a25.9,25.9,0,1,1,51.78-1.45c0,.48,0,1,0,1.45h0a57.69,57.69,0,0,1-7.37,28.17l26.33,70.65a141.76,141.76,0,0,1-89.35,31.55C55.1,215.93,36,190.56,0,189.63v-3.2c36.89.9,55.77,26.3,115.44,26.3a138.66,138.66,0,0,0,85.72-29.4l-24.72-66.1C164.28,136.14,141.48,148.9,115.48,148.9Zm-.16-3.1c37.24-.08,67.37-27.07,67.37-60.24h0a22.72,22.72,0,0,0-45.42,0,14.61,14.61,0,0,0,18.69,14l3.53-1-1.67,3.28c-4.35,8.63-11.78,13.79-19.86,13.79s-12.15-2.89-22.92-3.16c.4,10.29,4.47,17,14.68,15.43a36.76,36.76,0,0,0,11,.31A46.87,46.87,0,0,1,123,131.67c-20.25,0-20.85-11-38.88-11.62.18,13.85,4.23,15.28,11.61,16.93a47.19,47.19,0,0,0,8.76,4.53A57.05,57.05,0,0,1,87,137.66c-18-6.94-21.43-25.92-36.45-27.15,0,11.78,2.16,18.67,13,23.14C78.58,139.87,92.78,145.8,115.32,145.8Zm-84-68.75c-1,.45-2,.87-3.12,1.28l3,39.57,3.24.73ZM501.19,753.6c19,8.1,38,4.86,51.24-7.7a37.94,37.94,0,0,0,4.05-4.63,26.46,26.46,0,0,0-5.06,1.13c-.49.51-.92,1-1.22,1.24-12.53,11.9-30.38,14.56-47.79,7.08-19.77-8.48-33.07-27.54-33.07-47.42a14.62,14.62,0,0,1,29.22,0,6.52,6.52,0,0,1-13,0v-1.6h-3.18v1.6a9.7,9.7,0,0,0,19.38.88c0-.29,0-.59,0-.88a17.8,17.8,0,1,0-35.58-1.2q0,.6,0,1.2C466.2,724.38,480.26,744.61,501.19,753.6ZM642,804.18v3.22c-34.65,1.82-54.18,26.21-113.35,26.21a141.75,141.75,0,0,1-89.48-31.49l26.32-70.66a57.73,57.73,0,0,1-7.37-28.16,25.9,25.9,0,1,1,51.78-1.45c0,.48,0,1,0,1.45a17.82,17.82,0,0,1-17.85,17.79c-.45,0-.9,0-1.35-.05A18.78,18.78,0,0,0,506,730.17c8.1,0,12.15-3.16,24.57-3.16h1.58v1.6c0,7.92-2,13.89-5.9,17.29,14.46-1.82,16.49-11.34,35.2-11.34h1.6v1.6a34.6,34.6,0,0,1-2,13.57c13.22-8.34,17.45-24.75,33.77-24.75h1.6v1.6c0,6.24,0,14-4.43,20.11a143.81,143.81,0,0,1,50-9.56v3.23c-54.93,1.16-66,26.28-113.49,26.28-26,0-48.78-12.76-61-31.67l-24.71,66.1a138.59,138.59,0,0,0,85.68,29.34C587.12,830.41,606.38,805.91,642,804.18ZM528.55,763.4l.1,0c22.52,0,36.72-5.85,51.74-12.15,10.84-4.48,12.92-11.38,13-23.15-15,1.24-18.35,20.25-36.46,27.16a57.16,57.16,0,0,1-17.41,3.85,48.33,48.33,0,0,0,8.75-4.52c7-1.56,11.4-2.77,11.6-16.93-18,.61-18.71,11.63-38.9,11.63a46.91,46.91,0,0,1-17.74-3.47,36.51,36.51,0,0,0,11-.3c10.22,1.58,14.27-5.23,14.68-15.43-10.69.26-14.7,3.16-22.93,3.16s-15.49-5.17-19.86-13.79l-1.66-3.28,3.52,1a14.61,14.61,0,0,0,18.11-10,14.25,14.25,0,0,0,.58-4,22.72,22.72,0,0,0-45.42,0C461.3,736.41,491.45,763.4,528.55,763.4ZM86.64,2.27H83.12a3.12,3.12,0,0,1-3.36,2.81c-2.76,0-3.89-2.43-3.89-5.16H72.63c0,4.92,2.67,7.88,7.13,7.88C83.44,7.8,86.28,6,86.64,2.27ZM160,67.76h0a17.82,17.82,0,0,0-17.8,17.8,9.7,9.7,0,0,0,19.38.89c0-.3,0-.6,0-.89V84h-3.18v1.6a6.52,6.52,0,0,1-13,0,14.62,14.62,0,0,1,29.22,0c0,19.88-13.28,38.94-33.07,47.43-17.39,7.47-35.25,4.82-47.77-7.09-.3-.29-.75-.73-1.21-1.24a28.57,28.57,0,0,0-5.09-1.13,38,38,0,0,0,4,4.64c13.37,12.69,32.4,15.75,51.24,7.69,20.94-9,35-29.22,35-50.36A17.79,17.79,0,0,0,160,67.76ZM50.05,102.53,46.24,68.61c-1,.69-2,1.36-3,2l3.56,31.9h3.22Zm53.89,15L80.63,13.71c-.43,2.55-1,5.08-1.58,7.55l21.18,94.41C101.55,116.28,102.76,116.93,103.94,117.58ZM60,56.44c-.9,1-1.83,2-2.79,2.91l7.21,48.18a36.35,36.35,0,0,1,3.68,3.1ZM386.86,617.6c14.17,5.75,29.34,10.91,52.65,10.91a92.09,92.09,0,0,0,43.72-10.91h-7.31a87,87,0,0,1-36.45,7.71,121.59,121.59,0,0,1-43.9-7.71Zm-93.19,45.34-3.59,31.81c1.12-.47,2.23-.91,3.36-1.32L297,661.82Zm66.09,3.5-3.42-1.32,4.94,33.11c1.2.63,2.37,1.3,3.53,2Zm-75.57,0-5.06,33.78c1.15-.69,2.33-1.36,3.52-2l5-33.11Zm27.46-8.08h0l-1.1,30.88c1.08-.14,2-.28,3.22-.38L314.89,658C313.78,658.1,312.7,658.2,311.65,658.36Zm38.68,4.58L347,661.82l3.54,31.61q1.7.62,3.36,1.32Zm-26.55,25.67V657.77H320.6v30.84h3.18ZM244,759.33h3.24a75.78,75.78,0,0,1,149.35,0h3.24a79,79,0,0,0-155.83,0Zm97.16-99.17c-1.07-.28-2.16-.56-3.26-.81l2.33,31.11c1.1.24,2.19.5,3.26.79Zm-8.87-1.82c-1.05-.16-2.12-.26-3.22-.36l1.16,30.86a24.81,24.81,0,0,1,3.22.38Zm-29.54,1.82h0l-2.35,31.09c1.07-.29,2.17-.55,3.26-.79l2.39-31A28.29,28.29,0,0,0,302.78,660.16ZM262.2,579.73A39.54,39.54,0,0,1,246,597.19c3-1.15,6-2.37,9-3.62l2-.77a41.6,41.6,0,0,0,8.95-13.37c0-.57.12-1.15.17-1.76A15.08,15.08,0,0,0,262.2,579.73ZM63.3,173.57v7.75l-3.24-1.21V160.24c6.64,2,8.68,2.88,9.84,3.34,4,1.75,6,3.89,6,7.29,0,3-2.63,5.94-8.52,4Zm0-3.08L67,171.66c3.36,1.1,5.57,1.48,5.57-1.35,0-2.27-2-3.36-5.57-4.5l-3.74-1.17Zm169.16,416.4a26.86,26.86,0,0,0-4.87,1.11c-.49.5-.91,1-1.22,1.23-12.53,11.91-30.37,14.56-47.79,7.09-19.76-8.49-33.07-27.54-33.07-47.43a14.62,14.62,0,0,1,29.22,0,6.52,6.52,0,0,1-13,0v-1.6h-3.18v1.6a9.7,9.7,0,1,0,19.38.89,6.61,6.61,0,0,0,0-.89,17.8,17.8,0,1,0-35.58-1.2q0,.6,0,1.2c0,21.14,14.06,41.37,35,50.37,18.95,8.1,38,4.86,51.23-7.7A38.76,38.76,0,0,0,232.46,586.89Zm149.32-7.16a15.66,15.66,0,0,0-3.73-2,7.31,7.31,0,0,0,.14,1.76,41.6,41.6,0,0,0,9,13.37l1.91.77c3,1.25,6,2.47,9,3.62A39.44,39.44,0,0,1,381.78,579.73ZM194.38,683.55l-5.13,10.55a31.32,31.32,0,0,1,1.12,5l7.47-15.39Zm299.3-134.76a9.7,9.7,0,0,0-19.38-.88c0,.29,0,.59,0,.88v1.6h3.18v-1.6a6.52,6.52,0,0,1,13,0c0,12.25-5.14,23.35-13.75,29.65-11.78,8.67-25.94,5.14-33,.81l-1.17-.14a18.34,18.34,0,0,0,1,3.7c10.13,5.47,24.3,6.08,35.12-1.78C488.07,574.13,493.68,562.06,493.68,548.79ZM628,676.42l-.08,0,.08.11ZM517.68,617.56h-3.4L500.4,580.44c-12.15,18.92-34.95,31.68-60.95,31.68-48.6,0-59.05-26.33-117.45-26.33s-68.86,26.33-117.46,26.33c-26,0-48.78-12.76-61-31.68l-13.87,37.1h-3.47l15.17-40.6A57.77,57.77,0,0,1,134,548.77a25.9,25.9,0,0,1,51.78-1.45c0,.49,0,1,0,1.45A17.81,17.81,0,0,1,168,566.56c-.45,0-.9,0-1.35,0a18.75,18.75,0,0,0,15.33,9.13c8.1,0,12.26-3.16,24.57-3.16h1.58v1.6c0,7.92-2,13.9-5.9,17.3,14.46-1.82,16.49-11.34,35.2-11.34H239v1.6a34.45,34.45,0,0,1-2,13.57c13.23-8.35,17.46-24.75,33.78-24.75h1.6v1.6c0,6.24,0,14-4.43,20.11a157,157,0,0,1,107.91,0c-4.39-6.08-4.41-13.87-4.41-20.11v-1.6H373c16.32,0,20.57,16.4,33.8,24.75a34.09,34.09,0,0,1-2-13.57V580h1.58c18.73,0,20.74,9.52,35.2,11.34-3.85-3.4-5.9-9.38-5.9-17.3v-1.6h1.6c12.32,0,16.49,3.16,24.55,3.16a18.74,18.74,0,0,0,15.33-9.13A17.82,17.82,0,0,1,458,550.12c0-.45-.05-.9-.05-1.35a25.9,25.9,0,0,1,51.78-1.45c0,.49,0,1,0,1.45A57.65,57.65,0,0,1,502.51,577ZM269.26,573.74C254.32,575,250.92,594,232.81,600.9a57.14,57.14,0,0,1-17.41,3.84,47.59,47.59,0,0,0,8.77-4.53c7-1.56,11.4-2.78,11.6-16.93-18,.61-18.71,11.62-38.9,11.62a46.9,46.9,0,0,1-17.74-3.46,37.16,37.16,0,0,0,11-.3c10.12,1.58,14.17-5.23,14.68-15.44-10.7.27-14.7,3.16-22.93,3.16s-15.49-5.16-19.86-13.79l-1.66-3.28,3.52,1a14.63,14.63,0,0,0,18.69-14,22.72,22.72,0,0,0-45.42,0c0,33.17,30.17,60.17,67.27,60.17,22.52,0,36.72-5.86,51.74-12.15C267.12,592.41,269.2,585.51,269.26,573.74Zm237.44-25a22.72,22.72,0,0,0-45.42,0,14.64,14.64,0,0,0,18.69,14l3.53-1-1.67,3.28c-4.35,8.63-11.78,13.79-19.86,13.79s-12.15-2.89-22.92-3.16c.4,10.29,4.47,17,14.68,15.44a37.09,37.09,0,0,0,11,.3A46.87,46.87,0,0,1,447,594.9c-20.25,0-20.85-11-38.88-11.62.19,13.85,4.24,15.29,11.61,16.93a46,46,0,0,0,8.76,4.53,57.33,57.33,0,0,1-17.43-3.84c-18-6.95-21.43-25.92-36.45-27.16,0,11.79,2.17,18.67,13,23.15,15,6.21,29.22,12.15,51.76,12.15C476.57,609,506.7,582,506.7,548.79ZM484,531a17.83,17.83,0,0,0-17.8,17.8,9.7,9.7,0,0,0,19.38.89c0-.3,0-.59,0-.89v-1.6H482.4v1.6a6.52,6.52,0,0,1-13,0,14.62,14.62,0,0,1,29.22,0c0,19.89-13.28,38.94-33.07,47.43-17.39,7.47-35.25,4.82-47.77-7.09-.3-.28-.75-.73-1.21-1.23a27.75,27.75,0,0,0-5.09-1.14,37.3,37.3,0,0,0,4.05,4.64c13.37,12.7,32.41,15.75,51.24,7.69,20.94-9,35-29.22,35-50.36A17.79,17.79,0,0,0,484,531ZM304,830.83c-10.75-11.64-16.05-30.27-17.65-46.25h-3.22c2,19.73,8.4,36.64,17.41,47.13C301.65,831.38,302.8,831.1,304,830.83Zm-20.82-71.58h3.21c1.64-15.72,6.94-34.18,17.61-45.75-1.19-.26-2.34-.54-3.46-.87C291.61,723.11,285.18,739.78,283.17,759.25Zm-19.52.08,0-.08h0Zm19.51,0a.22.22,0,0,1,0-.08h0Zm27.35-44.59-.08,0c-4.05,10.49-6.92,26.32-7.85,44.55h3.2c1-19.54,4.25-34.81,8-44.21A22.48,22.48,0,0,1,310.51,714.74ZM258,764.41h6.91c3.65,0,6.34,1.18,6.34,4.8a4.41,4.41,0,0,1-3.48,4.52l4.05,5.81H268s-3.5-5.33-3.57-5.41h-3.11v5.41h-3.24Zm3.24,6.79h3.59c1.56,0,3-.25,3-2,0-1.36-1-2-3-2h-3.65ZM244,784.5a79,79,0,0,0,155.93,0h-3.24a75.78,75.78,0,0,1-149.51,0Zm69.72,44.8v-.09c-5.12-12.75-7.27-30.88-7.95-44.71h-3.2c.91,18.51,3.8,34.43,7.87,45.1C311.51,829.56,312.54,829.4,313.71,829.3Zm-50-70h3.2c3-20.88,13-38.64,26.84-49-1.14-.5-2.19-1-3.2-1.58C276.61,719.81,266.62,738,263.67,759.25ZM34,153.16V149.9a115.92,115.92,0,0,0-14.62-3.35v19.53a116.63,116.63,0,0,1,15.15,4.15V167c-4.05-1.34-8.1-2.49-12-3.45v-5.38c3.3.79,6.58,1.7,9.88,2.75v-3.2c-3.3-1-6.58-2-9.88-2.73v-4.62Q28.31,151.52,34,153.16ZM426.69,767.33v-2.86H415.07V779.6h12v-2.81h-8.73v-3.55h7v-2.77h-7v-3.14Zm-289.5,90.24a22.72,22.72,0,0,1,45.42,0,14.62,14.62,0,0,1-18.69,14l-3.52-1,1.66,3.28a30.22,30.22,0,0,0,3.7,5.68h4.16a18.68,18.68,0,0,1-3.45-4.23q.67.06,1.35.06a17.83,17.83,0,0,0,17.85-17.79c0-.49,0-1,0-1.45a25.9,25.9,0,1,0-51.78,1.45,57.74,57.74,0,0,0,4.37,22h3.62A54.78,54.78,0,0,1,137.19,857.57Zm159.84-78v-.08h-5.17V764.37H297c5.14,0,8.52,2.43,8.52,7.56S302.17,779.54,297,779.54Zm5.12-7.53v-.08c0-3.2-1.58-4.64-5.16-4.64H295.1v9.25H297C300.57,776.62,302.15,775.19,302.15,772ZM19.43,867.2c-1.11.25-2.27.53-3.46.83a53.66,53.66,0,0,1,7.92,11.5h3.54A59.59,59.59,0,0,0,19.43,867.2ZM484,839.85h0a17.82,17.82,0,0,0-17.8,17.8,9.7,9.7,0,0,0,19.38.88c0-.29,0-.59,0-.88v-1.6H482.4v1.6a6.52,6.52,0,0,1-13,0,14.62,14.62,0,0,1,29.22,0,47.94,47.94,0,0,1-5.44,21.88h3.47a50.9,50.9,0,0,0,5.11-21.94A17.79,17.79,0,0,0,484,839.85ZM129.09,879.53h3.36l.41-1.21c-.55-1.72-1.14-3.46-1.6-5.24h0Zm147.4-115.12v15.13H288v-2.88h-8.35V764.51ZM40.25,172.35l6.34-5.46,5.71,10,4.84,2-7.86-13.56,7.15-6.26-3.5-1.44-5.31,4.8-5.49-9.62c-1.54-.57-3.1-1.11-4.69-1.64l7.41,12.9-8.1,7.15ZM263.53,784.58c2.84,21.51,12.88,39.94,26.92,51.09,1-.54,2-1.07,3.2-1.58-13.94-10.46-24-28.35-26.9-49.51Zm-31-197.76,0,.07.19,0ZM184.76,734.38l22.68-50.63h-3.5l-20.78,46.3ZM228.32,636l.1,0V632.7a131.23,131.23,0,0,1-15.82,1.72v19A158.37,158.37,0,0,0,229,651.84V648.7A131.1,131.1,0,0,1,215.88,650v-4.64c3.59-.24,7.17-.65,10.78-1.2V641c-3.61.53-7.19.94-10.78,1.2v-4.78A120.19,120.19,0,0,0,228.32,636ZM129.7,187.14a4.89,4.89,0,0,1-4.58-1.58l-3.85.46c1,3,4.38,4.52,8.45,4,5.42-.59,8.93-3.22,8.93-6.7,0-4.66-4.34-5-8.1-5.29-2.9-.22-5.39-.42-5.39-2.43s1.78-3,4.62-3.28c1.86-.18,4.05.19,4.43,2,.87-.18,2.25-.47,3.63-.79-.87-3.28-4.5-4.48-8.1-4.05-5.09.55-8.37,3.06-8.37,6.42,0,4.78,5.61,5,7.86,5.12,3.42.22,5.57.53,5.57,2.65C134.78,185.19,133,186.79,129.7,187.14ZM259,643.9V623.49l-3.12,1.23V645ZM.88,303a2.34,2.34,0,0,1,2.68,2.33H6.9c-.14-3.44-2.68-4.86-6.22-4.86-.23,0-.45,0-.68,0V303A3.74,3.74,0,0,1,.88,303ZM245.94,639.73l.1,0q3,3.38,6.07,6.56l-3.54,1.14q-3-3.11-6.08-6.42c-1.72.44-3.46.85-5.2,1.23v8.1l-3.34.69V631.55c2-.45,5-1,8.91-2,5.34-1.45,7.87-.4,7.87,3.26A8.09,8.09,0,0,1,245.94,639.73Zm1.33-5.75c0-2.29-1.19-2.15-4.35-1.3-1.84.49-3.67.93-5.51,1.34v5c1.78-.36,3.56-.75,5.33-1.15,3.16-.91,4.43-2.9,4.43-3.93ZM150.35,167.53c1.66-.38,3.65-.34,4.21,1.24,1-.37,2.27-.85,3.45-1.34-1.12-3-4.54-3.56-7.7-2.81-5,1.19-8.1,4-8.1,7.55,0,4.94,5.55,4.46,7.64,4.33,3.28-.18,5.36-.14,5.38,2,0,1.44-1.68,3.3-4.92,4.05a4.63,4.63,0,0,1-4.05-.61l-3.85.79c1.16,2.31,4.05,3.81,7.92,2.86,5.25-1.24,8.61-4.36,8.59-7.9,0-4.66-4-4.62-7.9-4.46-2.87.13-5.18.21-5.18-1.84S147.6,168.16,150.35,167.53ZM488.21,617.58l11.85,26.32a123.22,123.22,0,0,1-60.61,15.78c-59.25,0-72.72-26.33-117.45-26.33s-58.22,26.33-117.46,26.33a123.21,123.21,0,0,1-60.63-15.78l11.84-26.3h.11l1-2.26c1.32.78,2.68,1.51,4,2.26h7.31a101.17,101.17,0,0,1-12.73-6.94l-3.13,6.92h-.11l-12.44,27.7a126.59,126.59,0,0,0,64.72,17.66h.1c59.72,0,73.78-26.33,117.46-26.33s57.73,26.33,117.45,26.33a126.35,126.35,0,0,0,64.6-17.66l-12.43-27.7Zm-215.66,0h-.13l-.08-.19a13.67,13.67,0,0,0-9,13.73c0,6.26,3.36,9.7,9.11,7.86a11.81,11.81,0,0,0,8.1-8.73l-3.36.87a7.24,7.24,0,0,1-4.84,4.82c-4.17,1.36-5.73-1.46-5.73-5.85,0-3.5,2.43-8.1,6-9.32,2.16-.7,4.23-.52,4.86,1.69l3.11-1a4.94,4.94,0,0,0-2.78-3.9h.07A7.39,7.39,0,0,0,272.55,617.56ZM166.43,627c1.58.67,3.16,1.28,4.76,1.86l8,22c-1.28-.29-2.51-.57-3.77-.89l-2-5.45c-3.28-1-6.58-2.25-9.86-3.63l-2,4.6c-1-.4-2-.77-3-1.19Zm1.84,3.4c-.22.57-1.84,4.16-3.48,7.78,2.45,1.05,4.9,2,7.33,2.84Zm36.37,23.29h2v-19h-2c-1.27,0-2.55,0-3.82-.12L194.6,650c-.83-2.31-5.37-13.89-6.5-16.79-1.88-.3-3.77-.69-5.63-1.11l-.14,19.4,3.26.58v-16.2c.85,2.35,5.85,14.34,7,17.15,1.25.13,2.51.25,3.76.33,1-2.29,6.2-13.89,7.09-16.2v16.58Zm433,21.21c-5.09-12.75-7.23-30.81-7.91-44.6h-3.2c.91,18.51,3.8,34.43,7.87,45.1A20.69,20.69,0,0,1,637.68,674.89Zm0,0h0a.56.56,0,0,1,0,.12Zm-3.28-114.59c-4.05,10.49-6.92,26.33-7.85,44.56h3.2c1-19.51,4.25-34.77,8-44.17C636.63,560.58,635.54,560.46,634.44,560.29ZM160,542.29h.1a6.5,6.5,0,0,1,6.5,6.5v1.6h3.18v-1.6a9.7,9.7,0,1,0-19.38-.88c0,.29,0,.59,0,.88,0,13.27,5.61,25.34,15.05,32.24,10.67,7.82,24.79,7.31,35.11,1.78a19.74,19.74,0,0,0,1-3.7l-1.18.14c-7.05,4.31-21.2,7.86-33-.81-8.6-6.3-13.75-17.4-13.75-29.65A6.53,6.53,0,0,1,160,542.29Zm44.59,78.16a120.41,120.41,0,0,0,26.36-2.81H182.63A86.54,86.54,0,0,0,204.58,620.45Zm26.65-2.81-.08,0h-.05l-.16,0Zm-70.35,0a92.17,92.17,0,0,0,43.74,10.91c23.33,0,38.48-5.16,52.66-10.91h-8.85a121.5,121.5,0,0,1-43.89,7.67l.1,0a87.07,87.07,0,0,1-36.45-7.71ZM642,538.88a79,79,0,0,0-73.92,66l.06.16h3.24a75.91,75.91,0,0,1,70.62-63ZM3.76,312.24a2.4,2.4,0,0,1-2.62,2.14h0A4.67,4.67,0,0,1,0,314.25v2.66a7.66,7.66,0,0,0,1.17.07c3.2,0,6.07-1.62,6.07-4.8S5,308.13,2.16,307.44A13.35,13.35,0,0,1,0,306.72v3l.54.15C2,310.28,3.7,310.77,3.76,312.24Zm624.16,364.2c-10.7-11.65-16-30.21-17.57-46.15h-3.22c2,19.73,8.4,36.64,17.41,47.13A21.19,21.19,0,0,1,627.92,676.44ZM441,637.83v-3.45a138.75,138.75,0,0,1-15.53-.6v19.11a149.14,149.14,0,0,0,16.1.51v-3.08c-4.26,0-8.59,0-12.86-.4v-4.64c3.44.28,6.94.42,10.55.42v-3.09c-3.49,0-7-.15-10.55-.43V637.6C433.19,637.87,436.92,637.91,441,637.83Zm33.41-7c1.66-.38,3.65-.34,4.22,1.24,1-.37,2.26-.86,3.44-1.34-1.12-3-4.54-3.57-7.7-2.82-5,1.2-8.1,4-8.1,7.56,0,4.94,5.55,4.45,7.64,4.33,3.28-.18,5.36-.14,5.38,2,0,1.37-1.7,3.24-4.94,4l.1.08a4.66,4.66,0,0,1-4-.61l-3.84.79c1.15,2.31,4.05,3.81,7.91,2.85,5.25-1.23,8.61-4.35,8.59-7.89,0-4.66-4.05-4.62-7.9-4.46-2.87.12-5.18.2-5.18-1.84S471.67,631.51,474.42,630.88ZM453.71,650.4l-.06-.18a4.89,4.89,0,0,1-4.58-1.58l-3.85.47c1,2.95,4.38,4.51,8.45,4,5.42-.59,8.93-3.22,8.93-6.71,0-4.65-4.34-5-8.1-5.28-2.9-.23-5.39-.43-5.39-2.43s1.78-3,4.62-3.28c1.86-.19,4,.18,4.43,2,.87-.18,2.25-.46,3.63-.79-.87-3.28-4.5-4.47-8.1-4.05-5.09.55-8.37,3.06-8.37,6.42,0,4.78,5.61,5,7.86,5.12,3.42.23,5.57.53,5.57,2.66C458.79,648.46,457.05,650.06,453.71,650.4Zm-38.42-7,5.37,9c-1.44-.17-2.86-.33-4.25-.53l-5.31-8.65-4.23-.81v8.1l-3.34-.77v-19.7c3.76,1,8.68,2,8.68,2,5.33,1,7.8,3.19,7.8,6.88C420,641.78,418.07,643.21,415.29,643.42Zm1.28-5.19c0-2.17-1.54-2.55-4.74-3.16l-5-1v4.78L412,640c2.33.63,4.58.73,4.58-1.56ZM325.21,777.68h-.14c-1.68,0-2.89-.69-3.11-2.39h-3.35c.27,3.5,3.06,5,6.59,5,3.2,0,6-1.62,6.07-4.8s-2.29-4-5.08-4.74c-1.66-.44-3.87-1.07-3.81-2.79,0-1.22,1.32-1.72,2.53-1.68a2.33,2.33,0,0,1,2.68,2.32h3.34c-.12-3.48-2.7-4.9-6.18-4.9-3,0-5.65,1.54-5.75,4.5-.12,3.46,2.55,4,5.61,5,1.46.41,3.16.89,3.22,2.37A2.39,2.39,0,0,1,325.21,777.68ZM483.27,617.56c1.36-.75,2.72-1.48,4.05-2.27l1,2.27h3.5l-3.12-6.94a100.8,100.8,0,0,1-12.86,6.94h7.41Zm-225.95,0c18-7.25,34.6-15.41,64.8-15.41s46.82,8.1,64.8,15.41h8.65C374.24,609.79,357.27,599,322,599s-52.25,10.84-73.59,18.61h8.95Zm64.78-26.67c57.1,0,67.62,26.33,117.45,26.33l-.1,0a78.69,78.69,0,0,0,56.05-22.4l9.4,22.82h-.1l12,29.18a133.27,133.27,0,0,1-77.26,24.3c-60.2,0-77.29-26.33-117.45-26.33s-57.27,26.33-117.46,26.33l-.1,0a133.22,133.22,0,0,1-77.17-24.26l12-29.18h0l9.39-22.82a78.72,78.72,0,0,0,55.87,22.44C254.48,617.22,265,590.89,322.1,590.89Zm.06,3.2c-45,0-60.63,16.71-90.87,23.51h-48.6A80.05,80.05,0,0,1,150,600.23l-7.13,17.37h0l-11.54,28a129.93,129.93,0,0,0,73.34,22.28c59.48,0,76.43-26.33,117.46-26.33s58,26.33,117.45,26.33a130,130,0,0,0,73.33-22.28l-11.52-28h.09l-7.14-17.37A80.25,80.25,0,0,1,461.6,617.6h-.13a86.7,86.7,0,0,1-21.92,2.81h-.1a120.3,120.3,0,0,1-26.55-2.81H413C382.76,610.79,367.1,594.09,322.16,594.09Zm-231-413.92,5.47,9.19c-1.44-.18-2.86-.34-4.25-.54l-5.31-8.93-4.23-.81v8.1l-3.34-.77V166.7c3.76,1.06,8.68,2.13,8.68,2.13,5.33,1,7.8,3.2,7.8,6.88C96,178.55,94,179.91,91.18,180.17Zm1.38-5c0-2.17-1.54-2.55-4.74-3.16l-5-1v4.78L88,176.89C90.31,177.33,92.56,177.46,92.56,175.15Zm250.82,434.7h0Zm-54.44,7.56c.69-1.85,1.38-3.7,2.09-5.56h-.1c1.36-.34,2.7-.65,4.11-1,1.11,2.19,2.21,4.4,3.3,6.61h0c1.89,3.73,3.73,7.48,5.51,11.2-.42.06-3,.53-3.42.65l-1.86-4.05a51.31,51.31,0,0,0-10.47,3l-1.7,4.76-4.05,1.37c2-5.57,4.19-11.28,6.36-17Zm3.15.15h-.22l-2.58,7.16a53,53,0,0,1,7.92-2.16c-.58-1.2-1.52-3.21-2.33-5h.06l-1.6-3.43Zm31.39,9.76,3,.06v-9.74h0l0-9.29h-3.08v9.25h0v4.65c-1.37-1.58-2.77-3.12-4.15-4.65h-4.45C317.7,620.75,320.6,624,323.48,627.32Zm23.16-9.76v-3.95q5.78,1.14,11.5,2.84v-3.26a116.45,116.45,0,0,0-14.66-3.33v7.7ZM307.44,609v8.37h-.15l0,10.67c1-.13,2.05-.25,3.1-.36v-10.1h.14V612.8l4.36,4.76h4.45c-2.7-3-5.4-6-8.1-8.91Zm56.76,26.48,6.34-5.47,5.71,10,4.84,2-7.8-13.51,7.15-6.26-3.5-1.44-5.31,4.8-4.41-8h-3.85l5.53,9.45-8.1,7.15Zm3-17.9-.94-1.64q-2.29-.84-4.69-1.64l1.88,3.28Zm-23.74,0v11.8a117.85,117.85,0,0,1,15.15,4.05v-3.28c-4.05-1.34-8.1-2.49-12-3.44v-5.39c3.3.79,6.58,1.7,9.88,2.76V621c-3.3-1-6.58-2-9.88-2.74v-.66ZM117,174.56V171.3a136.5,136.5,0,0,1-15.53-.61v19.12a149.14,149.14,0,0,0,16.1.51v-3.08c-4.26,0-8.59,0-12.86-.41V182c3.44.29,6.94.43,10.55.43v-3.1c-3.48,0-7-.14-10.55-.43v-4.57C109.18,174.6,112.91,174.64,117,174.56ZM387.41,636.93v7.7l-3.24-1.21V623.55a102,102,0,0,1,9.84,3.34c4.05,1.74,6,3.89,6,7.29,0,3-2.63,5.93-8.52,4.05Zm0-3.13,3.74,1.17c3.36,1.09,5.57,1.48,5.57-1.36,0-2.26-2-3.36-5.57-4.49l-3.74-1.18ZM580.84,747.24a41.71,41.71,0,0,0,8.95-13.37c0-.56.12-1.15.16-1.76a15.05,15.05,0,0,0-3.74,2A39.57,39.57,0,0,1,570,751.59c3-1.15,6-2.37,9-3.62Zm-514-177.1L55.54,519.63,52,518.35l10.28,45.81A59.3,59.3,0,0,1,66.87,570.14Zm0,0,0,0,0,.12Zm20.31,34.71-21.48-82.1-3.59-1.07,21.77,83.17ZM52.72,554.48l-7.2-38.58L42,514.55l6.89,36.79C50.19,552.36,51.47,553.37,52.72,554.48Zm75.62,108.25,7.33,21.75a28.07,28.07,0,0,1,2.43-2.79l-5.57-16.53Zm-34-44h7V617.6H91.06v7.53h12v-2.82H94.32ZM69.53,661.48l12.76,68.28h3.26L72,657.1C71.15,658.6,70.34,660,69.53,661.48Zm3.1-43.92h3.24c0-3.2,1.52-5.16,3.95-5.16A3,3,0,0,1,83,614.69h3.52a6.08,6.08,0,0,0-6.7-5C75.32,609.66,72.63,612.62,72.63,617.56Zm31.31,117.69L80.63,631.39c-.43,2.55-1,5.08-1.58,7.55l21.18,94.41C101.55,734,102.76,734.6,103.94,735.25ZM79.76,625.47c3.68,0,6.52-1.84,6.88-5.53H83.12a3.12,3.12,0,0,1-3.36,2.82c-2.76,0-3.89-2.43-3.89-5.16H72.63C72.63,622.52,75.3,625.47,79.76,625.47Zm36.77-7.87L86.16,527.37l-3.57-.63,30.58,90.86ZM30.75,426.54l3.12.69,6.93-46.38c-1.16.69-2.33,1.36-3.53,2Zm8.22,2,3.08.87,10.67-57.12c-1.25,1.07-2.53,2-3.82,3.14Zm12.34-17.19a26.18,26.18,0,0,1,3.16.47L66.9,356.53c-1.46,2-3,4.15-4.64,6.08Zm11.46,3.77,24.58-93.9h-3.3L59.87,413.56A29,29,0,0,1,62.77,415.14Zm52.75,114.33h-2.91l22.7,50.63,1.49-4.31-20.69-46.32Zm-12.9,83.37V610H91v7.59h10.29V616l-7,0v-3.16ZM72.39,524.63l24,80.34h3.34L76,525.48C74.74,525.22,73.56,524.94,72.39,524.63Zm49.79,4.68,7.48,15.39a31.06,31.06,0,0,1,1.11-5l-5.12-10.55ZM118,722.23,93.83,630.17h-3.3l24.08,92.06Zm465,76.16V777.9l-3.12,1.23v20.26Zm18.48-639.1,3.12-1c-.75-4-4.17-5.16-8.1-3.89A13.67,13.67,0,0,0,587.36,168c0,6.26,3.36,9.7,9.11,7.86a11.84,11.84,0,0,0,8.1-8.73l-3.36.87a7.26,7.26,0,0,1-4.84,4.82c-4.17,1.36-5.73-1.46-5.73-5.85,0-3.65,2.39-8.27,5.91-9.4v.08C598.72,156.9,600.79,157.08,601.41,159.29ZM628,367.57h0c-10.75-11.65-16-30.28-17.65-46.25h-3.22c2,19.72,8.4,36.63,17.41,47.12C625.65,368.12,626.81,367.81,628,367.57ZM479.38,765.06v0l-15.55,34.65a126.49,126.49,0,0,0,64.8,17.64c57.82,0,72.84-24.68,113.37-26.25v-3.2c-41.55,1.54-56,26.25-113.37,26.25A123.21,123.21,0,0,1,468,798.41l12.86-28.63A91.73,91.73,0,0,0,528.55,783c51.33,0,62.75-25,113.45-26.27v-3.2c-51.59,1.24-62.77,26.27-113.45,26.27A88.29,88.29,0,0,1,479.38,765.06Zm152-1.6v19.26c1-.14,2-.26,3.09-.37V767.29c2.51,2.7,5,5.48,7.56,8.31v-4.86c-2.32-2.56-4.65-5.11-7-7.6ZM570,794.14v.12q3,3.38,6.07,6.56L572.48,802q-3-3.11-6.08-6.42c-1.72.44-3.46.85-5.2,1.23v8.1l-3.34.69V786c2-.45,5-1,8.91-2,5.34-1.46,7.87-.41,7.87,3.26A8.1,8.1,0,0,1,570,794.14Zm1.23-5.77c0-2.18-1.24-2-4.35-1.2-1.85.49-3.67.94-5.51,1.34v5c1.78-.36,3.56-.75,5.32-1.15C569.88,791.37,571.16,789.41,571.18,788.37Zm43.76-639.71c1.34-.34,2.7-.65,4-.95,3,5.93,6.08,11.95,8.83,17.86a33.24,33.24,0,0,0-3.42.65l-1.86-4.05a50.66,50.66,0,0,0-10.47,3l-1.7,4.76-4,1.38c2.85-7.35,5.71-15,8.62-22.66Zm2.31,2.19v0c-.24.69-2.85,7.9-3.89,10.79a53.28,53.28,0,0,1,7.94-2.17C620.17,157.21,617.25,150.85,617.25,150.85Zm-48.74,474.6a7,7,0,0,0,1.21,0,7.16,7.16,0,0,0,7.6-7.87h-3a4.66,4.66,0,0,1-9.25,1.06,3.76,3.76,0,0,1,0-1.06h-3A7.15,7.15,0,0,0,568.51,625.45ZM72.63,308.66c0,4.94,2.67,7.88,7.13,7.88,3.68,0,6.52-1.85,6.88-5.53H83.12a3.12,3.12,0,0,1-3.36,2.81c-2.76,0-3.89-2.45-3.89-5.16,0-3.12,1.52-5.08,3.95-5.08v-.08A3,3,0,0,1,83,305.78h3.52a6.07,6.07,0,0,0-6.7-5C75.32,300.76,72.63,303.72,72.63,308.66ZM601.41,777l3.12-1c-.75-4-4.17-5.17-8.1-3.89a13.67,13.67,0,0,0-9.07,13.53c0,6.25,3.36,9.7,9.11,7.85a11.81,11.81,0,0,0,8.1-8.73l-3.36.88a7.22,7.22,0,0,1-4.84,4.81c-4.17,1.36-5.73-1.45-5.73-5.85,0-3.64,2.39-8.26,5.91-9.39v.08C598.72,774.58,600.79,774.76,601.41,777ZM530.86,617.72h0l30.58-90.86-3.56.63L527.54,617.6h0l-2.37,6.52,1.78,4.73Zm-405.5-11.36-29.1-77.78-3.54-.38,30.94,82.72Zm412.49-77.11-25.17,61.24,1.64,4.39,27-65.79C540.22,529.09,539,529.21,537.85,529.25Zm-406.49,61.1-25.13-61.1a25.49,25.49,0,0,1-3.51-.16l27,65.65Zm-12.52,33.81-2.2-6.52h-3.37l3.79,11.26Zm463-102.44-3.58,1.07-21.53,82.1h3.3Zm-4.55,95.84c-.1-4.92-3-7.9-7.6-7.9s-7.57,3-7.57,7.9h3a4.66,4.66,0,1,1,9.25,0Zm-38.79,0,2.38,7.47h4.19c0-.29.88-4.19,1.55-7.47h0c.48-2.41.91-4.47.91-4.55l1.09,4.55h.07l1.79,7.47h4.28l2-7.47h0l2-7.59h-3.1c-.28.95-1.35,4.55-2.18,7.56h0c-.5,1.89-.93,3.55-1,4.05,0,0-.4-2-.89-4.05h-.07c-.66-3.27-1.55-7.28-1.63-7.56h-4.74c0,.24-.85,4.27-1.47,7.56h0c-.42,2.17-.77,4.05-.81,4.05a33.81,33.81,0,0,0-1.13-4.05h-.15c-.87-3-2.08-6.59-2.42-7.56H536l2.41,7.59Zm12.72-89.36-3.5.54-29.14,77.62,1.7,4.56ZM104,630.17l28.35,94.53a34,34,0,0,0,3.48.53l-28.35-95.06ZM513.73,220l22.8,76.19h3.32l-22.68-75.86A21.08,21.08,0,0,0,513.73,220ZM627.05,424.51c1-.12,2-.22,3.18-.3l-2.51-33.43c-1.09-.25-2.19-.49-3.26-.77Zm-8.56,1.08c1-.18,2.08-.34,3.16-.49l-4.2-37.38c-1.13-.43-2.24-.85-3.36-1.32Zm-13.49,3-9.92-53.07c-1.3-1-2.58-2-3.83-3.14l10.67,57.08ZM568,321.24a79,79,0,0,0,74,66.49v-3.21a75.9,75.9,0,0,1-70.76-63.28Zm67.7,102.38,3.18-.14-1.16-31.27a25,25,0,0,1-3.22-.38Zm-22.48,2.92L606.7,382.9c-1.19-.63-2.37-1.3-3.52-2l6.92,46.32Zm-20.57-15.17h0v0Zm-9.72-230.65v-20.5l-3.12,1.24v20.25Zm-5.86,175.87,12.42,55.31a25.89,25.89,0,0,1,3.15-.53l-10.93-48.7C580.07,360.64,578.53,358.62,577.07,356.59ZM570,176.46v.13q3,3.36,6.07,6.56l-3.54,1.13q-3-3.09-6.08-6.42c-1.72.45-3.46.85-5.2,1.24v8.1l-3.34.69V168.36c2-.44,5-1,8.91-2,5.34-1.46,7.87-.41,7.87,3.26A8.07,8.07,0,0,1,570,176.46Zm1.23-5.76c0-2.19-1.24-2-4.35-1.2-1.85.48-3.67.93-5.51,1.33v5c1.78-.37,3.56-.75,5.32-1.16C569.88,173.7,571.16,171.73,571.18,170.7ZM582,301.25h6.91c3.64,0,6.34,1.17,6.34,4.8a4.39,4.39,0,0,1-3.48,4.51l4,5.82H592s-3.51-5.33-3.57-5.41h-3.11v5.41h-3.24Zm3.24,6.78h3.59c1.56,0,3-.24,3-2,0-1.36-1-2-3-2h-3.65ZM621,316.27v-.06h-5.17v-15H621c5.14,0,8.52,2.43,8.52,7.55S626.18,316.27,621,316.27Zm5.12-7.53v-.06c0-3.2-1.58-4.64-5.16-4.64h-1.89v9.26H621C624.58,313.36,626.16,311.92,626.16,308.74ZM637.72,366h0c-5.12-12.76-7.27-30.88-8-44.71h-3.2c.91,18.51,3.8,34.42,7.87,45.09C635.52,366.27,636.55,366.13,637.72,366ZM587.6,321.24c2.84,21.5,12.88,39.93,26.92,51.09a35.35,35.35,0,0,1,3.2-1.58c-13.94-10.47-24-28.35-26.9-49.51ZM90.65,296H94l19.75-75.43h-3.28Zm497,.08h3.22c3-20.87,13-38.63,26.84-49-1.14-.51-2.19-1-3.2-1.58C600.6,256.55,590.6,274.76,587.66,296.06Zm19.51-.06h3.22c1.64-15.71,6.94-34.18,17.61-45.74-1.19-.27-2.35-.55-3.46-.87C615.62,259.84,609.19,276.53,607.17,296Zm0,.06V296h0Zm27.35-44.59-.08,0c-4.05,10.49-6.92,26.33-7.85,44.55h3.2c1-19.54,4.25-34.81,8-44.2A25.49,25.49,0,0,1,634.52,251.47ZM288.81,272.23l2.95-39.57c-1.05-.41-2-.83-3.12-1.28L285.55,273ZM140.15,360.34v-.08l-25.76,53a26,26,0,0,1,3.48.15L143,361.74C142.07,361.23,141.1,360.81,140.15,360.34ZM125,351.81c-.91-.58-1.82-1.17-2.71-1.78L92.72,421.84a30.23,30.23,0,0,1,3.1.85Zm-40.64,69.1a18,18,0,0,1,3.32.2L116,345.54l-2.65-2Zm52.93-9.5a23.5,23.5,0,0,1-2.35-2.33l-3.62,6.48c1.13.25,2.22.43,3.32.57Zm419.33-90.17,24.58,93.9c.94-.49,1.89-1,2.9-1.5h.1l-24.28-92.4ZM104.12,296h3.34l22.82-76c-1.15.12-2.28.25-3.42.33Zm-34,125.35L99.91,321.24H96.59L67.51,418.8C68.4,419.61,69.25,420.46,70.08,421.33Zm53-7.33c1.17.19,2.26.39,3.3.59l5.28-10.12a23.53,23.53,0,0,1-1.52-4.05ZM134,357.1c-.93-.51-1.86-1-2.79-1.56l-30.93,69c1,.47,2,1,2.86,1.44Zm-31.33-53.18v-2.85H91.06v15.12h12v-2.81H94.32v-3.55h7v-2.77h-7v-3.14Zm408.44-43.27v.1L567.7,428.56c.75-.83,1.68-1.9,2.43-2.77L512.8,255.44C512.27,257.18,511.72,258.92,511.12,260.65ZM576.59,418.8l-29.14-97.56h-3.32l29.91,100C574.83,420.46,575.68,419.63,576.59,418.8ZM455.12,491.16l18.68-45.38A82,82,0,0,0,528.47,466C578,466,589,440.94,642,439.75v-3.2c-53.71,1.17-64.86,26.28-113.53,26.28a78.72,78.72,0,0,1-55.79-22.5h-.08l-21.4,52a133.16,133.16,0,0,0,77.27,24.3c58.19,0,76.12-24.6,113.53-26.24v-3.2c-38.27,1.6-56,26.24-113.53,26.24A130,130,0,0,1,455.12,491.16Zm97.61-178.27c0-.18-2.47-11.26-2.59-11.74h-4.92c0,.4-2.21,11.36-2.29,11.74-.18-1.66-3.08-10.12-3.62-11.74h-3.2l4.8,15.08h4.27c.1-.5,2.47-11.84,2.47-12.05h.1l2.9,12.05h4.27l4.21-15.08h-3.2C555.47,302.71,552.93,311.27,552.73,312.89Zm78.62,141.74v19.25c1-.14,2-.27,3.09-.36V458.45c2.51,2.64,5,5.44,7.56,8.29V461.9c-2.32-2.56-4.65-5.1-7-7.6ZM536.51,788.92V808a157.92,157.92,0,0,0,16.4-1.54v-3.14a128,128,0,0,1-13.12,1.28V800c3.59-.24,7.17-.65,10.78-1.19v-3.18c-3.61.52-7.19.93-10.78,1.19V792q6.24-.56,12.54-1.6v-3.2A131.47,131.47,0,0,1,536.51,788.92Zm25.84-571.1,9.7,51.88c.77-1.46,1.58-2.9,2.43-4.3l-9-48.19Zm-32.08,2.91L550,296.17h3.3l-19.77-75.48Zm16.14-.75,16.93,75.48c.43-2.56.94-5.09,1.58-7.54l-15.31-68.26Zm68.53,546.36c1.34-.35,2.7-.65,4-1,3,5.94,6.08,12,8.83,17.87a33.2,33.2,0,0,0-3.42.64l-1.86-4a51.31,51.31,0,0,0-10.47,3l-1.7,4.76-4,1.38c2.85-7.35,5.71-15,8.62-22.66Zm2.31,2.18v0c-.24.69-2.85,7.9-3.89,10.8a52.1,52.1,0,0,1,7.94-2.17C620.17,774.88,617.25,768.52,617.25,768.52ZM56.37,630.17H53.15c-2.88,21.1-13,39-26.89,49.51,1.13.51,2.2,1,3.2,1.58C43.49,670.11,53.53,651.68,56.37,630.17Zm-40.4-71,.06.1c10.69,11.58,16,30,17.62,45.75h3.22c-2-19.5-8.45-36.21-17.38-46.58C18.32,558.59,17.16,558.88,16,559.14Zm20.88,71H33.63C32,646.19,26.7,664.8,16,676.42c1.19.27,2.35.55,3.46.87C28.44,666.8,34.9,649.9,36.85,630.17ZM23.6,612.84V610H12v15.14H24v-2.82H15.24v-3.54h7v-2.71h-7v-3.22ZM9.53,675.27c4.05-10.59,7-26.59,7.88-45.1h-3.2c-1,19.79-4.23,35.24-8.1,44.71C7.34,675,8.44,675.11,9.53,675.27Zm45-57.63-1.64,4.05-1.79-4.05H47.62l3.18,7.53h4.05L58,617.64Zm3-7.67-3.05,7.59H58L61.15,610Zm-52,7.71H0v1l.6.17c1.46.41,3.16.89,3.22,2.37a2.4,2.4,0,0,1-2.67,2v.08A5.12,5.12,0,0,1,0,623.22v2.66a10.16,10.16,0,0,0,1.23.08c3.2,0,6.07-1.62,6.07-4.8A3.48,3.48,0,0,0,5.54,617.68ZM76,630.17H72.73A75.86,75.86,0,0,1,0,693.53v3.2A79,79,0,0,0,76,630.17ZM14.25,605h3.2c-.93-18.23-3.83-34.1-7.86-44.55-1.13,0-2.23.14-3.34.24l.06.1C11.37,573.42,13.56,591.32,14.25,605ZM41,617.66l.06-.06H28.63v-7.53h6.9c3.63-.1,6.34,1.13,6.34,4.8a4.56,4.56,0,0,1-.85,2.79Zm-2.51-2.79c0-1.36-.93-2-2.94-2H31.87v4h3.56C37,616.75,38.45,616.51,38.45,614.87Zm34.2-10,3.24,0A79,79,0,0,0,0,538.83V542A75.88,75.88,0,0,1,72.65,604.87ZM68,610h-3.2v7.59H68Zm-3.2,15.16H68V617.6h-3.2ZM0,387.79a79,79,0,0,0,76-66.55H72.73A75.86,75.86,0,0,1,0,384.59ZM553.52,630.17h-3.3L526,722.23c1.05,0,2.17-.12,3.34-.14Zm-524.89-5h3.24v-5.41H35l3.55,5.41h3.85l-4.05-5.81A4.76,4.76,0,0,0,41,617.66H28.63Zm86.81,149.75a82,82,0,0,0,54.68-20.25L188.79,800a130,130,0,0,1-73.33,22.28C56.94,822.29,39.6,796.82,0,796v3.23c38.73.85,56.26,26.3,115.46,26.3a133.28,133.28,0,0,0,77.24-24.3l-21.41-52a78.65,78.65,0,0,1-55.85,22.44c-49.24,0-60.1-25.7-115.44-26.31v3.24C54.59,749.19,65.28,774.88,115.44,774.88Zm-89.18-219c13.81,10.37,23.85,28.13,26.83,49h3.22c-3-21.27-12.92-39.47-26.85-50.55v0C28.46,554.81,27.43,555.33,26.26,555.84ZM9.53,366.41l0,.09c4-10.6,7-26.59,7.88-45.1H14.21c-1,19.78-4.23,35.23-8.1,44.71A25.91,25.91,0,0,1,9.53,366.41ZM47.62,617.56h3.52L48,610H44.42ZM428,784.58l28.35,94.53c.85.18,1.72.31,2.58.42h.87l-28.32-94.95Zm24.36,32.65L459.66,839a25.94,25.94,0,0,1,2.43-2.8l-5.57-16.52Zm61.4,20.43,12.53,41.87h3.33L517.17,838A22.23,22.23,0,0,0,513.73,837.66ZM9.47,869.15c-1,.14-2.11.28-3.22.38l-.06,0a81.61,81.61,0,0,1,3.2,10h3.27A87.69,87.69,0,0,0,9.47,869.15Zm439.9-108.34L420.27,683l-3.54-.39,30.94,82.72Zm11.44-30.52-20.69-46.37h-3.59l22.71,50.62Zm-5.44,14.5-25.13-61c-1.18,0-2.27-.14-3.51-.22h0l27,65.65Zm-12.56,33.72-32.64-96.78-3.57-.61L441,783.25Zm-385.52,101h4.07A78.91,78.91,0,0,0,0,847.69v3.2A75.78,75.78,0,0,1,57.29,879.53Zm33.89-81.68L96.65,807c-1.44-.18-2.86-.34-4.25-.55l-5.31-8.93-4.23-.81v8.1l-3.34-.77v-19.7c3.76,1,8.68,2.13,8.68,2.13,5.33,1,7.8,3.2,7.8,6.88C96,796.23,94,797.58,91.18,797.85Zm1.38-5c0-2.16-1.54-2.55-4.74-3.15l-5-1v4.78L88,794.57C90.31,795,92.56,795.13,92.56,792.82Zm423-130.07c-1.37.88-2.77,1.69-4.19,2.48l-.06-.25-5.49,16.75a31.92,31.92,0,0,1,2.41,2.79ZM40.25,790l6.34-5.47,5.71,10,4.84,2L49.28,783l7.15-6.26-3.5-1.43-5.31,4.8-5.49-9.62q-2.31-.86-4.69-1.64l7.41,12.9-8.1,7.15ZM34,770.83v-3.26a115.89,115.89,0,0,0-14.62-3.34v19.52a118.24,118.24,0,0,1,15.15,4.15v-3.28c-4.05-1.33-8.1-2.49-12-3.44v-5.39c3.3.79,6.58,1.7,9.88,2.76v-3.2c-3.3-1-6.58-2-9.88-2.74V768Q28.31,769.19,34,770.83ZM63.3,791.24V799l-3.24-1.21V777.92c6.64,2,8.68,2.88,9.84,3.34,4,1.74,6,3.89,6,7.29,0,3-2.63,5.93-8.52,4.05Zm0-3.07L67,789.34c3.36,1.09,5.57,1.48,5.57-1.36,0-2.26-2-3.36-5.57-4.49l-3.74-1.18ZM115.44,783a91.49,91.49,0,0,0,47.75-13.18l12.86,28.63a123.11,123.11,0,0,1-60.61,15.78c-58.33,0-72.3-25.53-115.44-26.31v3.2c42.08.79,56.65,26.31,115.44,26.31a126.4,126.4,0,0,0,64.8-17.7l-15.53-34.65a88.35,88.35,0,0,1-49.27,14.72c-51.32,0-62.15-25.67-115.44-26.31v3.2C52.41,757.32,63.45,783,115.44,783Zm1.56,9.26V789a138.85,138.85,0,0,1-15.53-.61v19.12a149.14,149.14,0,0,0,16.1.5v-3.08c-4.26,0-8.59,0-12.86-.4v-4.88c3.44.28,6.94.42,10.55.42V797c-3.48,0-7-.15-10.55-.43V792C109.18,792.28,112.91,792.32,117,792.24Zm400.78-174.6h-3.4l10.79,29a138.66,138.66,0,0,1-85.68,29.35c-60.75,0-79.22-26.33-117.45-26.33s-56.7,26.33-117.46,26.33a138.6,138.6,0,0,1-85.68-29.35l10.84-29h-3.51l-11.23,30a141.8,141.8,0,0,0,89.54,31.49l.1,0c61.47,0,80.16-26.33,117.46-26.33s56,26.33,117.45,26.33A141.72,141.72,0,0,0,529,647.69ZM129.7,804.81a4.89,4.89,0,0,1-4.58-1.58l-3.85.47c1,3,4.38,4.51,8.45,4,5.42-.59,8.93-3.22,8.93-6.7,0-4.66-4.34-5-8.1-5.29-2.9-.22-5.39-.42-5.39-2.43s1.78-3,4.62-3.28c1.86-.18,4.05.18,4.43,2,.87-.18,2.25-.46,3.63-.78-.87-3.29-4.5-4.48-8.1-4.06-5.09.55-8.37,3.06-8.37,6.42,0,4.78,5.61,5,7.86,5.13,3.42.22,5.57.52,5.57,2.65C134.78,802.87,133,804.47,129.7,804.81Zm20.65-19.6c1.66-.38,3.65-.34,4.21,1.24,1-.37,2.27-.86,3.45-1.34-1.12-3-4.54-3.57-7.7-2.82-5,1.2-8.1,4.05-8.1,7.56,0,4.94,5.55,4.45,7.64,4.33,3.28-.18,5.36-.14,5.38,2,0,1.43-1.68,3.3-4.92,4a4.66,4.66,0,0,1-4.05-.61l-3.85.79c1.16,2.31,4.05,3.81,7.92,2.85,5.25-1.23,8.61-4.35,8.59-7.89,0-4.66-4-4.62-7.9-4.46-2.87.12-5.18.2-5.18-1.84S147.6,785.84,150.35,785.21Zm361-737.66-.06-.24-5.49,16.74a32,32,0,0,1,2.41,2.8l7.33-21.77C514.22,46,512.82,46.76,511.4,47.55ZM490.28,472.49c1.58.67,3.16,1.27,4.76,1.86l8,22c-1.28-.28-2.51-.56-3.77-.89l-2-5.45c-3.29-1-6.59-2.24-9.87-3.62l-2,4.6c-1-.41-2-.77-3-1.2Zm1.84,3.4c-.22.57-1.84,4.15-3.48,7.78,2.45,1.05,4.9,2,7.33,2.83Zm36.45,332.28h2V789.06h-2c-1.27,0-2.55,0-3.82-.12l-6.22,15.51c-.83-2.31-5.37-13.89-6.5-16.79-1.88-.3-3.77-.69-5.63-1.11l-.14,19.4,3.26.58v-16.2c.85,2.35,5.85,14.34,7,17.16,1.26.12,2.52.24,3.77.32,1-2.29,6.2-13.89,7.09-16.3v16.58Zm45.91-146.69c-.85-1.4-1.66-2.84-2.43-4.29l-13.59,72.65h3.26ZM527.54-.08l-2.37,6.52L527,11.18,530.9-.08ZM508.32,107.31a32,32,0,0,0,3.4-.29l-.06-.24L540,12.25h-3.34ZM552.55,3.91s-.4-2-.89-4h-2.94l1.8,7.49h4.28l2-7.49h-3.26C553.06,1.74,552.63,3.4,552.55,3.91Zm-24,495.39h2v-19h-2c-1.27,0-2.55,0-3.82-.12l-6.22,15.51c-.83-2.3-5.37-13.89-6.5-16.78-1.89-.31-3.77-.69-5.63-1.12l-.14,19.4,3.26.59v-16.2c.85,2.35,5.85,14.34,7,17.15,1.26.12,2.51.24,3.77.33,1-2.29,6.2-13.9,7.09-16.31V499.3ZM24,313.54H15.24V310h7v-2.94h-7v-3.14l8.4.16v-2.85H12v15.12H24ZM529.36,104.41l24.16-91.92h-3.3L526,104.55C527.07,104.55,528.19,104.43,529.36,104.41Zm29.1,7.76h3.26L574.48,43.8q-1.28-2.1-2.43-4.29ZM614.94,457.5c1.34-.34,2.7-.65,4-.95,3,5.93,6.08,11.95,8.83,17.86a33.24,33.24,0,0,0-3.42.65l-1.82-4a50.69,50.69,0,0,0-10.47,3l-1.7,4.76-4,1.37c2.81-7.45,5.67-15.19,8.58-22.76Zm2.31,2.17v.06c-.24.69-2.85,7.9-3.89,10.79a52.07,52.07,0,0,1,7.94-2.16C620.17,466,617.25,459.67,617.25,459.67Zm-88.62,45.62A123.21,123.21,0,0,1,468,489.52L480.78,461a91.69,91.69,0,0,0,47.77,13.19c51.33,0,62.75-25,113.45-26.27v-3.21C590.41,445.92,579.23,471,528.55,471a88.36,88.36,0,0,1-49.17-14.74h0l-15.55,34.64a126.39,126.39,0,0,0,64.8,17.64c57.82,0,72.84-24.67,113.37-26.24V479C600.45,480.58,586,505.29,528.63,505.29ZM536.51,480v19.08a157.92,157.92,0,0,0,16.4-1.54v-3.14a130.89,130.89,0,0,1-13.12,1.27v-4.63c3.59-.25,7.17-.65,10.78-1.2V486.7c-3.61.53-7.19.93-10.78,1.2v-4.78q6.24-.56,12.54-1.58v-3.22A131.45,131.45,0,0,1,536.51,480ZM490.28,781.48c1.58.67,3.16,1.28,4.76,1.87l8,21.91c-1.28-.29-2.51-.57-3.77-.89l-2-5.45c-3.29-1-6.59-2.25-9.87-3.63l-2,4.6c-1-.4-2-.77-3-1.19Zm1.84,3.41c-.22.56-1.84,4.15-3.48,7.77,2.45,1.06,4.9,2,7.33,2.84ZM468,180.74l12.86-28.64a91.74,91.74,0,0,0,47.69,13.21c51.33,0,62.75-25,113.45-26.28v-3.2c-51.59,1.24-62.77,26.28-113.45,26.28a88.3,88.3,0,0,1-49.17-14.73v0l-15.55,34.65a126.49,126.49,0,0,0,64.8,17.64c57.82,0,72.84-24.67,113.37-26.25v-3.2c-41.55,1.54-56,26.25-113.37,26.25A123.21,123.21,0,0,1,468,180.74ZM570,485.27q3,3.36,6.07,6.56L572.48,493q-3-3.09-6.08-6.42c-1.72.45-3.46.85-5.2,1.24v8.1l-3.34.69v-19.4c2-.45,5-1,8.91-2,5.34-1.46,7.87-.4,7.87,3.26A8.1,8.1,0,0,1,570,485.27Zm1.23-5.78v0c0-2.28-1.19-2.14-4.35-1.29-1.85.48-3.67.93-5.51,1.33v5c1.78-.37,3.56-.75,5.32-1.16C569.9,482.51,571.18,480.53,571.18,479.49Zm-98.5,269.69-.06-.18-21.34,52.21a133.23,133.23,0,0,0,77.27,24.3c58.15,0,76.09-24.57,113.45-26.24v-3.2c-38.21,1.63-55.94,26.24-113.45,26.24A129.93,129.93,0,0,1,455.21,800l18.67-45.4a81.9,81.9,0,0,0,54.67,20.25c49.54,0,60.56-25.06,113.45-26.27v-3.2c-53.64,1.19-64.8,26.27-113.45,26.27A78.64,78.64,0,0,1,472.68,749.18ZM596.55,466.35v.06c2.17-.71,4.24-.52,4.86,1.68l3.12-1c-.75-4.05-4.17-5.16-8.1-3.89a13.67,13.67,0,0,0-9.07,13.53c0,6.26,3.36,9.7,9.11,7.86a11.83,11.83,0,0,0,8.1-8.73l-3.36.87a7.26,7.26,0,0,1-4.84,4.82c-4.17,1.36-5.73-1.46-5.73-5.85C590.6,472.16,593,467.49,596.55,466.35Zm-13.62,23V469.06l-3.12,1.24v20.25Zm-40-485.49a32.8,32.8,0,0,0-1.13-4h-3.28l2.39,7.49h4.19c0-.28.89-4.21,1.56-7.49h-2.92C543.32,2,543,3.91,542.93,3.91ZM19.37,368.4C28.44,358,34.9,341,36.85,321.24l-.06,0H33.57c-1.6,16-6.93,34.62-17.66,46.25C17.1,367.79,18.26,368.08,19.37,368.4ZM564.92,639c-.64-2.45-1.15-5-1.58-7.53L540,735.29c1.17-.65,2.38-1.29,3.7-1.9Zm-533-322.73H28.63V301.11h6.9c3.53,0,6.34,1.23,6.34,4.8a4.4,4.4,0,0,1-3.46,4.54l4,5.78H38.59l-3.54-5.4H31.87Zm-.06-8.3h3.56c1.64,0,3.08-.24,3.08-2l-.06,0c0-1.36-.93-2-2.94-2H31.81Zm24.5-11.81c-3-21.36-12.92-39.57-26.85-50.64v.06c-1,.55-2,1.07-3.2,1.58,13.81,10.37,23.85,28.13,26.83,49Zm1.25,5.09-4.69,11.64L48,301.21H44.42l6.38,15.12h4.05l6.36-15.12ZM16,250.36c10.69,11.58,16,30.05,17.62,45.74h3.22c-2-19.5-8.45-36.2-17.38-46.57C18.32,249.77,17.16,250.05,16,250.36ZM17.33,296c-.94-18.22-3.83-34.1-7.86-44.55-1,.14-2.11.29-3.22.39l-.06,0c5.06,12.63,7.25,30.53,7.94,44.2Zm39,25.22,0,.22h0Zm0,.22H53.15c-2.88,21.1-13,39-26.89,49.51,1.13.51,2.2,1,3.2,1.58C43.44,361.29,53.46,343,56.34,321.46ZM113.27,0l3.79,11.26,1.78-4.74L116.64,0ZM60,252.67l5.78-38.76-3.08-.79L57.2,249.75C58.14,250.7,59.08,251.67,60,252.67ZM104,12.49,132.31,107a31.43,31.43,0,0,0,3.48.53L107.44,12.49ZM69.53,43.8l12.76,68.29h3.26L72,39.43C71.15,40.93,70.34,42.36,69.53,43.8Zm66.14,23A28.19,28.19,0,0,1,138.1,64l-5.57-16.52-4.19-2.43ZM15.63,227l1.13-30.26c-1.05-.22-2.11-.5-3.16-.72L12.47,226.4Zm30.55,13.51,3.57-31.84-3-1.15-3.52,31C44.2,239.14,45.23,239.81,46.18,240.52Zm26.47,55.54h3.24A79,79,0,0,0,0,230v3.2A75.87,75.87,0,0,1,72.65,296.06ZM68,316.19V301.07h-3.2v15.12Zm-36.69-84.1,2.23-29.77-3.12-1.17L28.2,230.82C29.25,231.22,30.23,231.65,31.32,232.09Zm546,76.65A7.63,7.63,0,0,1,562.13,310a7,7,0,0,1,0-1.21c0-4.92,2.89-7.9,7.57-7.9S577.32,303.82,577.32,308.74Zm-6.42-5.18a5.21,5.21,0,0,0-5.76,4.59,5.68,5.68,0,0,0,0,.59,4.69,4.69,0,0,0,4.2,5.14,2.88,2.88,0,0,0,.41,0,5.2,5.2,0,0,0,1.18-10.34Zm10.39-90.48-3.08.91,5.69,38.64c.92-1,1.85-2,2.79-2.92Zm-10,82.9A75.91,75.91,0,0,1,642,233.2V230a79,79,0,0,0-73.92,66ZM462.09,218.5,456.52,202l-4.19-2.43,7.33,21.75A26.94,26.94,0,0,1,462.09,218.5ZM187.39,202l-5.55,16.52a32,32,0,0,1,2.41,2.8l7.33-21.77C190.21,200.36,188.81,201.17,187.39,202Zm409.81,5.53-3.08,1.17,3.57,31.84c1-.69,2-1.36,3-2Zm40.54,326.92,1.16-30.86c-1.12.1-2.19.2-3.24.37l.08.06-1.22,30.82C635.6,534.66,636.65,534.51,637.74,534.41Zm-24.2-333.26-3.11,1.17,2.22,29.77c1-.44,2-.87,3.12-1.27Zm-32.7,237.34a41.82,41.82,0,0,0,8.95-13.37c0-.57.12-1.15.16-1.76a15,15,0,0,0-3.74,2A39.54,39.54,0,0,1,570,442.84c3-1.15,6-2.37,9-3.62Zm-393.12-177v0L216.07,167h-3.35L184.37,262C185.5,261.87,186.61,261.68,187.72,261.44ZM630.47,196c-1.05.22-2,.5-3.15.77l1.13,30.25,3.16-.61ZM386.17,58.61l21.77,83.16h3.3L389.76,59.68ZM375.92,55l10.29,45.81c1.64,2,3.18,4.05,4.64,6.07L379.49,56.3ZM484,387.88a6.5,6.5,0,0,1,6.5,6.5V396h3.18v-1.6a9.7,9.7,0,0,0-19.38-.89c0,.3,0,.6,0,.89,0,13.26,5.61,25.31,15.05,32.24,10.67,7.82,24.78,7.31,35.11,1.78a19,19,0,0,0,.95-3.7l-1.17.14c-7,4.31-21.2,7.85-33-.81-8.61-6.3-13.75-17.4-13.75-29.65A6.52,6.52,0,0,1,484,387.88ZM366,51.23,372.91,88c1.29,1,2.57,2,3.82,3.14l-7.2-38.48ZM396.4,61.32h0l24,80.33h3.35L400,62.17C398.75,61.91,397.59,61.62,396.4,61.32ZM267.24,91.17c1.25-1.1,2.53-2,3.83-3.14L278,51.23l-3.5,1.36Zm-46.07,70.69c0-.5,2.47-11.84,2.47-12.05l2.9,12.05h4.27L235,146.78h-3.2c-.45,1.41-2.68,9-3.15,11.29-.44-2.11-2.39-10.86-2.5-11.29h-5c-.1.4-2.21,11.36-2.29,11.74-.18-1.66-3.08-10.12-3.62-11.74h-3.2l4.8,15.08Zm-1-20.21h3.34l24-80.33c-1.18.3-2.35.59-3.59.85Zm12.65,0h3.3l21.75-83.17-3.58,1.08Zm20.25-34.71c1.46-2,3-4.15,4.64-6.07L268,55l-3.57,1.28ZM642,498.47c-34.75,1.76-54.25,26.22-113.51,26.22A141.68,141.68,0,0,1,439,493.2l26.33-70.65A57.77,57.77,0,0,1,458,394.38a25.9,25.9,0,0,1,51.78-1.45c0,.49,0,1,0,1.45a17.82,17.82,0,0,1-17.85,17.79c-.45,0-.9,0-1.35-.05a18.74,18.74,0,0,0,15.33,9.13c8.1,0,12.15-3.16,24.57-3.16H532v1.6c0,7.92-2,13.9-5.9,17.3,14.46-1.82,16.49-11.34,35.2-11.34h1.6v1.6a34.48,34.48,0,0,1-2,13.57c13.23-8.35,17.46-24.75,33.78-24.75h1.6v1.6c0,6.24,0,14-4.43,20.11A144,144,0,0,1,642,428.21v3.23c-55.07,1.12-66.12,26.28-113.65,26.28-26,0-48.78-12.75-61-31.67l-24.71,66.1a138.59,138.59,0,0,0,85.68,29.34c58.7,0,77.93-24.57,113.65-26.23ZM528.53,454.54c22.5,0,36.68-5.85,51.7-12.15,10.84-4.47,12.92-11.38,13-23.14-14.94,1.23-18.34,20.25-36.45,27.15a56.93,56.93,0,0,1-17.41,3.85,47.19,47.19,0,0,0,8.76-4.53c7-1.56,11.41-2.78,11.61-16.93-18,.6-18.71,11.62-38.9,11.62A46.9,46.9,0,0,1,503.08,437a36.76,36.76,0,0,0,11-.31c10.23,1.58,14.28-5.22,14.69-15.43-10.7.27-14.71,3.16-22.93,3.16s-15.49-5.16-19.86-13.79l-1.66-3.28,3.52,1a14.62,14.62,0,0,0,18.69-14,22.72,22.72,0,0,0-45.42,0C461.3,427.54,491.44,454.53,528.53,454.54Zm-64.37,60.21-25.76,53a27.79,27.79,0,0,1,3.48.14l25.17-51.78C466.08,515.64,465.11,515.22,464.16,514.75Zm-64.14-39h-3.18a75.78,75.78,0,0,1-149.51,0h-3.24a79,79,0,0,0,155.93,0ZM461.2,565.9a22.47,22.47,0,0,1-2.35-2.33l-3.62,6.48c1.13.25,2.22.43,3.32.57Zm-14.09,2.51c1.17.19,2.26.39,3.3.59l5.28-10.12a22.73,22.73,0,0,1-1.52-4ZM340.89,578.82l2.59-34.42c-1.07.28-2.16.52-3.26.77l-2.49,33.43C338.84,578.63,339.89,578.7,340.89,578.82ZM349.5,580l4.39-39.19c-1.11.47-2.23.89-3.36,1.32l-4.19,37.38C347.42,579.66,348.47,579.82,349.5,580Zm-17.26-1.89,1.2-31.79c-1.08.14-2.13.28-3.22.39L329.06,578Zm-11.84-31v30.78h3.18V547.07H320.4Zm198-18-5.13,10.55a31.08,31.08,0,0,1,1.12,5l7.47-15.39ZM627.66,536l2.33-31.1c-1,.24-2.13.61-3.2.81l.08.1-2.47,31C625.47,536.52,626.57,536.26,627.66,536ZM459.8,262l-28.35-95H428l28.35,94.53A34,34,0,0,0,459.8,262Zm41.39,182.8c19,8.1,38,4.86,51.24-7.69a38.79,38.79,0,0,0,4.05-4.64,27.26,27.26,0,0,0-5.06,1.14c-.49.5-.92.95-1.22,1.23-12.53,11.91-30.38,14.56-47.79,7.09-19.77-8.49-33.07-27.54-33.07-47.43a14.62,14.62,0,0,1,29.22,0,6.52,6.52,0,0,1-13,0v-1.6h-3.18v1.6a9.7,9.7,0,0,0,19.38.89c0-.3,0-.59,0-.89a17.8,17.8,0,1,0-35.58-1.2q0,.6,0,1.2C466.2,415.52,480.26,435.75,501.19,444.76Zm133.86-299.3-3.7.32V165q1.51-.19,3.09-.36V149.61c2.51,2.71,5,5.48,7.56,8.31v-4.86C639.68,150.5,637.35,148,635.05,145.46ZM617.41,539,621,507.38l-3.32,1.11-3.59,31.82C615.17,539.84,616.28,539.4,617.41,539ZM508.77,580l22.68-50.63H528l-20.78,46.29ZM577,570.18c1.46-2,3-4.16,4.64-6.08L592,518.27l-3.57,1.28Zm-29.5,34.71,24-80.34c-1.17.31-2.34.59-3.58.85l-23.77,79.49Zm59.15-61.14,5-33.11L608.2,512l-5.06,33.77C604.29,545.09,605.46,544.42,606.66,543.75Zm-4.76-29.28-3.5,1.35-7.21,38.58c1.25-1.09,2.53-2.13,3.83-3.14ZM340,95.91c10.69,11.58,16,30.05,17.62,45.74h3.22c-2-19.5-8.45-36.21-17.38-46.57C342.33,95.36,341.17,95.64,340,95.91ZM594.37,0H582V7.49h3.24l.06-5.4h3.12s3.51,5.34,3.57,5.4h3.82l-4-5.81A4.86,4.86,0,0,0,594.37,0ZM426.69,149.65V146.8H415.07v15.12h12v-2.81h-8.73v-3.54h7v-2.78h-7v-3.14ZM297,161.86v-.08h-5.17V146.7H297c5.14,0,8.52,2.43,8.52,7.55S302.17,161.86,297,161.86Zm5.12-7.53v-.08c0-3.2-1.58-4.64-5.16-4.64H295.1v9.26H297C300.57,159,302.15,157.51,302.15,154.33ZM600.5,0V7.53H612V4.66h-8.35V0ZM283.16,141.65a.25.25,0,0,1,0-.08h0Zm-19.49-.08h3.2c3-20.88,13-38.64,26.84-49-1.14-.51-2.19-1-3.2-1.58C276.61,102.13,266.62,120.3,263.67,141.57Zm0,.08s0-.05,0-.08h0Zm-.12,25.26c2.84,21.5,12.88,39.93,26.92,51.09a35.35,35.35,0,0,1,3.2-1.58c-13.94-10.47-24-28.35-26.9-49.51Zm19.64-25.34h3.21c1.64-15.71,6.94-34.18,17.61-45.74-1.19-.27-2.34-.55-3.46-.87C291.61,105.43,285.18,122.11,283.17,141.57Zm30.54,70.05v-.08c-5.12-12.76-7.27-30.88-7.95-44.72h-3.2c.91,18.51,3.8,34.43,7.87,45.1C311.51,211.88,312.54,211.72,313.71,211.62ZM304,213.16c-10.75-11.65-16.05-30.28-17.65-46.25h-3.22c2,19.72,8.4,36.63,17.41,47.12C301.65,213.7,302.8,213.42,304,213.16ZM202,259.05c1.05,0,2.17-.13,3.34-.15l24.16-92h-3.3Zm37.28-90.93L216,272a40,40,0,0,1,3.75-1.91h0l21.18-94.43C240.22,173.2,239.72,170.67,239.29,168.12ZM270.86,257h2.27l3.59-31.87c-1-.65-2-1.32-3-2L270,256.9Zm-15.31,5,7.21-48.17c-.95-1-1.89-1.92-2.79-2.92L251.87,265A38.92,38.92,0,0,1,255.55,261.94Zm20.94-115.2v15.12H288V159h-8.35V146.84Zm-26,51.53c-.85-1.39-1.66-2.83-2.43-4.29l-13.59,72.58h3.26ZM615.87,0V7.57H621c5.14,0,8.52-2.43,8.52-7.53h-3.4c0,3.06-1.58,4.5-5.16,4.5v.12h-1.89V0ZM253.21,154.33h0a7.6,7.6,0,1,1-15.17.78,5.08,5.08,0,0,1,0-.78c0-4.92,2.89-7.9,7.57-7.9S253.21,149.41,253.21,154.33Zm-2.94.45c0-.15,0-.3,0-.45h0a4.36,4.36,0,1,0,.06.45Zm60.24-57.72-.08,0c-4.05,10.49-6.92,26.33-7.85,44.55h3.2c1-19.54,4.25-34.81,8-44.21A22.48,22.48,0,0,1,310.51,97.06Zm43-6c-1,.54-2,1.07-3.2,1.58,13.81,10.36,23.85,28.12,26.83,49h3.22C377.34,120.35,367.4,102.14,353.47,91.07ZM258,146.74h6.91c3.65,0,6.34,1.17,6.34,4.8a4.39,4.39,0,0,1-3.48,4.51l4.05,5.81H268s-3.5-5.32-3.57-5.4h-3.11v5.4h-3.24Zm3.24,6.78h3.59c1.56,0,3-.24,3-2,0-1.35-1-2-3-2h-3.65Zm69-56.07h0c5.06,12.63,7.25,30.53,7.94,44.2h3.2c-.93-18.22-3.83-34.1-7.86-44.55C332.47,97.2,331.37,97.34,330.26,97.45ZM311.69,578.11l3.18-.14-1.16-31.26a25,25,0,0,1-3.22-.39ZM388.82,146.8v15.12H392V146.8ZM428,272.09,404.64,168.22c-.43,2.45-1,5-1.58,7.45v.11l21.18,94.4C425.56,270.79,426.77,271.44,428,272.09Zm-24.12-123h0a3,3,0,0,1,3.18,2.28h3.52a6.07,6.07,0,0,0-6.7-5c-4.5,0-7.19,3-7.19,7.9s2.67,7.88,7.13,7.88c3.68,0,6.52-1.85,6.88-5.53h-3.52a3.12,3.12,0,0,1-3.36,2.79c-2.76,0-3.89-2.43-3.89-5.14C399.88,151.13,401.4,149.11,403.83,149.11Zm38.13,110-24.12-92.2h-3.3l24.08,92A24,24,0,0,1,442,259.11Zm-32.48,7.39-13.59-72.66c-.73,1.5-1.54,2.94-2.35,4.33l-.08,0,12.76,68.29ZM320.4,166.91v44.36a28.11,28.11,0,0,1,3.18,0V166.91Zm27.21-17.32v-2.85H336v15.12h12v-2.81h-8.73V155.5h7v-2.77h-7v-3.14ZM320.4,97.79h0v43.86h3.18V97.79A27.41,27.41,0,0,1,320.4,97.79ZM325.21,160h-.14c-1.68,0-2.89-.69-3.11-2.39h-3.35c.27,3.5,3.06,5,6.59,5,3.2,0,6-1.62,6.07-4.8s-2.29-4.05-5.08-4.74c-1.66-.44-3.87-1.07-3.81-2.79,0-1.22,1.32-1.72,2.53-1.68a2.34,2.34,0,0,1,2.68,2.33h3.34c-.12-3.49-2.7-4.9-6.18-4.9-3,0-5.65,1.54-5.75,4.49-.12,3.47,2.55,4,5.61,5,1.46.41,3.16.9,3.22,2.37A2.4,2.4,0,0,1,325.21,160Zm8.33,52c4-10.59,7-26.59,7.88-45.09h-3.2c-1,19.78-4.23,35.23-8.1,44.71C331.35,211.72,332.45,211.88,333.54,212Zm27.32-45.09h-3.22c-1.6,16-6.93,34.62-17.66,46.25,1.19.26,2.35.54,3.46.87C352.45,203.54,358.91,186.63,360.86,166.91Zm20.71-20.17-4.69,11.64L372,146.74h-3.53l6.38,15.12h4.05l6.36-15.12Zm-19.17,9.31,4.05,5.81H362.6l-3.54-5.4h-3.18v5.4h-3.24V146.74h6.9c3.53,0,6.34,1.23,6.34,4.8A4.41,4.41,0,0,1,362.4,156.05Zm.06-4.51h-.06c0-1.36-.93-2-2.94-2h-3.64v4.05h3.56C361,153.52,362.46,153.28,362.46,151.54Zm17.92,15.37H377.1c-2.88,21.1-13,39-26.89,49.51,1.13.5,2.2,1,3.2,1.58C367.5,206.84,377.54,188.41,380.38,166.91ZM571.24,12.43H568a79,79,0,0,0,74,66.5V75.72A75.9,75.9,0,0,1,571.24,12.43ZM310.51,405.88c-4.05,10.49-6.92,26.33-7.85,44.55h3.2c1-19.54,4.25-34.81,8-44.2A26.88,26.88,0,0,1,310.51,405.88Zm226-234.64v19.08a160.71,160.71,0,0,0,16.4-1.54v-3.14a130.89,130.89,0,0,1-13.12,1.27v-4.63c3.59-.25,7.17-.65,10.78-1.2V177.9c-3.61.53-7.19.93-10.78,1.2v-4.78q6.24-.57,12.54-1.6v-3.2A133.51,133.51,0,0,1,536.51,171.24Zm-289.3,284h0c4.7,0,7.6,3,7.6,7.9a7.6,7.6,0,1,1-15.17.78,5.08,5.08,0,0,1,0-.78C239.64,458.17,242.53,455.19,247.21,455.19Zm0,2.74a5.18,5.18,0,1,0,4.61,5.7,4.89,4.89,0,0,0,0-.54,4.7,4.7,0,0,0-4.21-5.14l-.43,0Zm-8.87-85.8L248,424c.77-1.46,1.58-2.9,2.43-4.3l-9-48.19Zm362.16-71v15.12H612v-2.87h-8.35V301.13ZM313.71,520.44c-5.12-12.76-7.27-30.88-7.95-44.71h-3.2c.91,18.51,3.8,34.42,7.87,45.1C311.51,520.68,312.54,520.54,313.71,520.44Zm-124-146.15,22.8,76.18h3.32l-22.68-75.85C192,374.54,190.87,374.41,189.72,374.29Zm16.54.75L226,450.47h3.3L209.55,375Zm24,92.2c0-.18-2.47-11.26-2.57-11.74H223c0,.4-2.21,11.36-2.27,11.74-.2-1.66-3.1-10.12-3.64-11.74h-3.2l4.8,15.08h4.29c0-.5,2.47-11.84,2.45-12,0,.15,2.86,11.89,2.9,12h4.27l4.23-15.08h-3.22c-.46,1.56-3,10.12-3.18,11.74ZM303,578.82c1-.12,2-.22,3.18-.3l-2.51-33.43c-1.09-.25-2.19-.49-3.26-.77ZM222.4,374.29l16.93,75.48c.43-2.56.94-5.09,1.58-7.54L225.6,373.89Zm41.25,76.18v0h-.07Zm117.86,5-4.63,11.64h-.11l-4.88-11.64h-3.46l6.36,15.12h4l6.36-15.12ZM292.37,470.6V455.52h5.18c5.15,0,8.51,2.43,8.51,7.55s-3.36,7.53-8.51,7.53Zm3.26-2.91h1.88c3.57,0,5.17-1.44,5.17-4.62s-1.6-4.64-5.17-4.64h-1.88Zm4.9-63.83c-8.93,10.41-15.37,27.11-17.37,46.57h3.22c1.64-15.71,6.94-34.18,17.61-45.74A22.09,22.09,0,0,1,300.53,403.86ZM304,522c-10.75-11.64-16.05-30.27-17.65-46.25h-3.22c2,19.72,8.4,36.63,17.41,47.12C301.65,522.53,302.8,522.24,304,522Zm-13.48,4.84h0c1-.55,2-1.07,3.2-1.58-13.94-10.47-24-28.35-26.9-49.51h-3.22C266.43,497.23,276.47,515.64,290.51,526.82Zm-31.57-71.34h7c3.65,0,6.36,1.17,6.36,4.8a4.4,4.4,0,0,1-3.5,4.51l4.05,5.81H269l-3.56-5.4h-3.1v5.4H259.1Zm3.26,6.78h3.56c1.56,0,3-.24,3-2,0-1.36-.93-2-3-2H262.2Zm1.46-11.81h3.15c3-20.87,13-38.63,26.84-49-1.14-.51-2.19-1-3.2-1.58C276.6,411,266.6,429.16,263.66,450.45ZM528.57,190.5h2V171.38h-2c-1.27,0-2.55,0-3.82-.12l-6.22,15.51c-.83-2.31-5.37-13.89-6.5-16.79-1.88-.3-3.77-.68-5.63-1.11l-.14,19.4,3.26.59v-16.2c.85,2.35,5.85,14.33,7,17.15,1.26.12,2.52.24,3.77.32,1-2.29,6.2-13.89,7.09-16.3v16.59ZM277,455.48V470.6H288.5v-2.87h-8.36V455.5ZM260.09,568.05l-24.18-92.32h-3.3l24.58,93.9C258.13,569.06,259.08,568.54,260.09,568.05ZM458,511.51c-.93-.51-1.86-1-2.79-1.56l-30.93,69c1,.47,2,1,2.86,1.44Zm60.91-159.7,29.18,70.88a31.92,31.92,0,0,1,3.14-.77h0L521.65,350C520.76,350.64,519.85,351.23,518.93,351.81ZM449,506.37c-.91-.59-1.82-1.18-2.71-1.79l-29.57,71.81c1,.23,2.08.52,3.1.85ZM440.14,500l-2.65-2-29,77.4a18,18,0,0,1,3.32.2ZM520.88,414l-7.07-13.48a22.73,22.73,0,0,1-1.52,4.05l5.31,10.12A27,27,0,0,1,520.88,414Zm-14.1-2.49h-.08l2.66,4.7c1.09-.14,2.18-.32,3.32-.57l-3.63-6.48A22.91,22.91,0,0,1,506.78,411.51Zm-5.93-49.83L526,413.46c1.18-.08,2.33-.12,3.57-.14h-.09l-25.75-53C502.79,360.81,501.82,361.23,500.85,361.68Zm9.11-4.46,30.86,68.85a24,24,0,0,1,2.86-1.56l-30.92-68.85C511.83,356.21,510.89,356.71,510,357.22Zm49.64,63.69-28.92-77.4-2.65,2,28.35,75.57C557.35,421,558.46,420.93,559.6,420.91ZM281,582.93l-9.92-53.11c-1.3-1-2.58-2-3.83-3.14l10.67,57.08Zm8.22-2-6.52-43.64c-1.19-.63-2.37-1.3-3.52-2l6.92,46.32Zm-20.57-15.19h-.08L257.62,517c-1.64-2-3.18-4-4.64-6.08l12.5,55.31A25.64,25.64,0,0,1,268.64,565.78Zm96.25-30.43c-1.16.68-2.33,1.35-3.53,2L354.84,581l3.12.69Zm92-120.29c-.55-1.72-1.14-3.47-1.6-5.25L397.94,580.16l2.43,2.79ZM394.09,575.75l29.83-100H420.6l-29.08,97.48C392.41,574,393.26,574.87,394.09,575.75Zm-17.36-49c-1.25,1.07-2.53,2-3.82,3.14L363,582.93l3.08.87Zm34.63-51h-3.3l-24.18,92.32a29,29,0,0,1,2.9,1.58Zm-20.45,35.21c-1.46,2-3,4.15-4.64,6.08l-10.95,48.76a26.18,26.18,0,0,1,3.16.47ZM252.58,573.21h-.08l-29.06-97.48h-3.32l29.91,100A36,36,0,0,1,252.58,573.21Zm37-217.55-3.12,1.18,2.22,29.76c1-.44,2-.87,3.12-1.27Zm-32.26,11.93-3.08.91L259.89,407c.92-1,1.85-2,2.79-2.92Zm49.18-17.15c-1,.22-2,.5-3.15.77l1.13,30.25,3.16-.61ZM273.23,362l-3.07,1.17L273.72,395c1-.69,2-1.36,3-2Zm113.51,5.53-5.49,36.63c.95.95,1.88,1.92,2.79,2.92l5.78-38.64Zm-32.3-11.83-2.23,29.67c1.05.4,2,.83,3.12,1.27l2.23-29.76Zm16.34,6.24-3.56,31c1,.65,2,1.32,3,2l3.57-31.84Zm-31.1,19.52,1.13-30.25c-1.08-.22-2.12-.5-3.16-.72l-1.13,30.36Zm-2.07-31h0Zm-14,29.2V348.8h-3.18v30.84h3.18Zm-118,188.09-25.76-53c-.95.47-2,.89-2.9,1.34l25.17,51.78C203.19,567.79,204.34,567.75,205.58,567.73Zm-8.71.68-7.07-13.48a22.73,22.73,0,0,1-1.52,4.05l5.31,10.12A27,27,0,0,1,196.87,568.41Zm50.42-117.83a75.78,75.78,0,0,1,149.35,0h3.24a79,79,0,0,0-155.83,0Zm47.19,129.34c1-.18,2.08-.34,3.16-.49l-4.2-37.38c-1.13-.43-2.24-.85-3.36-1.32Zm-111.71-14,2.66,4.7c1.09-.14,2.18-.32,3.32-.57l-3.63-6.48A21.73,21.73,0,0,1,182.77,565.92Zm197.61-90.19H377.1c-2.88,21.1-13,39-26.89,49.51,1.13.51,2.2,1,3.2,1.58C367.5,515.64,377.54,497.23,380.38,475.73ZM235.59,575.32l-29-77.42-2.65,2,28.35,75.57C233.34,575.42,234.45,575.34,235.59,575.32ZM246,580.16l0,0L188.69,409.83c-.45,1.78-1,3.53-1.6,5.25L243.59,583C244.36,582.1,245.29,581,246,580.16Zm-18.8-3.77L197.68,504.5c-.89.61-1.8,1.2-2.72,1.79l29.19,70.87C225.16,576.85,226.2,576.6,227.24,576.39Zm-7.57,2.53-30.92-68.85c-.93.55-1.87,1.06-2.8,1.56l30.87,68.85A23.11,23.11,0,0,1,219.67,578.92ZM362.4,464.81l4.05,5.81H362.6l-3.54-5.4h-3.18v5.4h-3.26V455.5h6.9c3.57,0,6.36,1.23,6.36,4.8A4.41,4.41,0,0,1,362.4,464.81Zm.06-4.51h-.06c0-1.36-.93-2-2.94-2h-3.64v4.05h3.56C361,462.28,362.46,462,362.46,460.3Zm17.8-9.85c-2.92-21.3-12.92-39.5-26.85-50.62-1,.54-2,1.07-3.2,1.58,13.81,10.37,23.85,28.13,26.83,49ZM340,404.73l-.06,0c10.69,11.58,16,30.05,17.62,45.74h3.22c-2-19.5-8.45-36.2-17.38-46.57A27.24,27.24,0,0,1,340,404.73Zm150.3-240.92c1.58.67,3.16,1.27,4.76,1.86l8,21.91c-1.28-.28-2.51-.57-3.77-.89l-2-5.45c-3.29-1-6.59-2.24-9.87-3.62l-2,4.6c-1-.41-2-.77-3-1.2Zm1.84,3.4c-.22.57-1.84,4.15-3.48,7.78,2.45,1,4.9,2,7.33,2.83ZM330.26,406.29l-.06,0c5.06,12.63,7.25,30.54,7.94,44.2h3.2c-.94-18.22-3.83-34.1-7.86-44.55C332.47,406,331.37,406.17,330.26,406.29Zm30.6,69.44-.06,0h-3.22c-1.6,16-6.93,34.63-17.66,46.25,1.19.26,2.35.55,3.46.87C352.45,512.36,358.91,495.39,360.86,475.73Zm-19.44,0-.06,0h-3.2c-1,19.78-4.24,35.23-8.1,44.71,1.13.1,2.22.22,3.32.39C337.61,510.23,340.53,494.24,341.42,475.73Zm-21-69.12h0Zm27.15,51.72V455.5H335.93v15.12h12v-2.81h-8.73v-3.54h7v-2.76h-7v-3.16Zm-27.21,17.4V520.1a25,25,0,0,1,3.24,0l-.06,0V475.73Zm82.76-33.52c.65,2.47,1.15,5,1.58,7.56l16.93-75.48-3.2-.32Zm.73,15.72h0a3,3,0,0,1,3.18,2.29h3.52a6.07,6.07,0,0,0-6.7-5c-4.5,0-7.19,3-7.19,7.9s2.67,7.88,7.13,7.88c3.66,0,6.52-1.84,6.88-5.53h-3.52a3.13,3.13,0,0,1-3.36,2.81c-2.75,0-3.89-2.43-3.89-5.16C399.88,459.89,401.4,457.93,403.83,457.93Zm22.9.42V455.5H415.11v15.12h12v-2.81h-8.73v-3.54h7v-2.76h-7v-3.16Zm27.56-84.14c-1.15.12-2.28.24-3.42.33l-22.7,75.85h3.34Zm-60.75,45.5c.85,1.4,1.66,2.84,2.43,4.3l9.72-51.88-3.12-.61Zm21.16,30.76H418L437.75,375h-3.28Zm-91.08,0V406.61a28.11,28.11,0,0,1-3.18,0v43.86Zm7.65,16.1h0c.1-3.3-2.29-4.05-5.08-4.73-1.66-.45-3.87-1.08-3.81-2.8,0-1.21,1.32-1.72,2.53-1.68a2.34,2.34,0,0,1,2.68,2.33H331c-.2-3.48-2.74-4.8-6.28-4.8-3,0-5.65,1.54-5.75,4.5-.12,3.46,2.55,4.05,5.61,5,1.46.42,3.16.89,3.22,2.37a2.4,2.4,0,0,1-2.62,2.13h0c-1.69,0-2.9-.69-3.12-2.39h-3.37c.27,3.51,3.06,5,6.59,5C328.4,471.37,331.17,469.75,331.27,466.57Zm60.79,4.05V455.5h-3.2v15.12Z"/></svg>