<svg id="Layer_1" data-name="Layer 1" xmlns="http://www.w3.org/2000/svg" xmlns:xlink="http://www.w3.org/1999/xlink" viewBox="0 0 1372.83 814"><defs><style>.cls-1{fill:url(#linear-gradient);}</style><linearGradient id="linear-gradient" x1="407.6" y1="-190.07" x2="964.11" y2="1003.38" gradientUnits="userSpaceOnUse"><stop offset="0" stop-color="#fff"/><stop offset="0.04" stop-color="#fff" stop-opacity="0.96"/><stop offset="0.12" stop-color="#fff" stop-opacity="0.86"/><stop offset="0.22" stop-color="#fff" stop-opacity="0.69"/><stop offset="0.33" stop-color="#fff" stop-opacity="0.46"/><stop offset="0.46" stop-color="#fff" stop-opacity="0.17"/><stop offset="0.52" stop-color="#fff" stop-opacity="0"/></linearGradient></defs><path class="cls-1" d="M290.05,480l27.2,103.87h-4.54L285.54,480Zm74.46,103.87v0h-.09ZM262.77,479l31.38,104.84h4.57L267.5,479.44C265.92,479.33,264.36,479.17,262.77,479Zm86.5,273.75h-.11l-40-134.16H304.6l41.16,137.64C346.84,755,348,753.89,349.27,752.75Zm22.1-10.23h-.11l-15.05-67.08q-3.39-4.19-6.38-8.36L367,743.19A33.87,33.87,0,0,1,371.37,742.52Zm132.46-41.89c-1.59,1-3.21,1.87-4.85,2.79l-9,60.06,4.29.94ZM399.68,763.42l-9-60.06c-1.64-.86-3.26-1.78-4.85-2.78l9.53,63.73ZM307.75,479,331,582.86c.59-3.51,1.29-7,2.18-10.36l-21.07-94.06ZM520.13,688.76c-1.73,1.48-3.49,2.79-5.27,4.32l-13.65,73,4.23,1.2ZM359.61,745.64l-33.28-127h-4.54l33.83,129.22C356.91,747,358.22,746.31,359.61,745.64Zm28.76,20.48L374.71,693c-1.78-1.4-3.54-2.79-5.26-4.32l14.68,78.56ZM88.79,202.77v10.67l-4.46-1.67V184.43c9.14,2.79,12,4,13.54,4.6,5.58,2.4,8.22,5.35,8.22,10,0,4.16-3.62,8.17-11.73,5.58Zm0-4.23,5.15,1.61c4.63,1.51,7.67,2,7.67-1.87,0-3.12-2.79-4.62-7.67-6.18l-5.15-1.62ZM358,590.72h9.67c5,0,8.75,1.62,8.75,6.61a6.07,6.07,0,0,1-4.82,6.21l5.57,8H371.9L367,604.1h-4.26v7.44h-4.49Zm4.49,9.34h4.9c2.15,0,4.15-.34,4.15-2.79,0-1.87-1.28-2.79-4.06-2.79h-5Zm2-16.25h4.34c4.1-28.73,17.92-53.17,36.93-67.44-1.56-.7-3-1.42-4.41-2.17C382.33,529.46,368.56,554.51,364.52,583.81Zm37,105.09h0c1.4-.75,2.79-1.48,4.41-2.17-19.18-14.41-33.06-39-37-68.14h-4.43C368.33,648.19,382.15,673.52,401.47,688.9ZM329.68,476,343,547.41c1.06-2,2.17-4,3.34-5.9L334,475.18Zm12.2,114.31h0c6.47,0,10.45,4.1,10.45,10.87a10.45,10.45,0,1,1-20.87,1.08,9.73,9.73,0,0,1,0-1.08C331.46,594.43,335.45,590.33,341.88,590.33Zm0,3.76h0a7.13,7.13,0,1,0,6.35,7.85c0-.25,0-.49,0-.74a6.46,6.46,0,0,0-5.8-7.07ZM429,522.47c-5.57,14.44-9.53,36.23-10.81,61.31h4.4c1.39-26.89,5.85-47.9,11-60.83A39,39,0,0,1,429,522.47Zm-9,159.77c-14.8-16-22.1-41.66-24.3-63.65h-4.44c2.79,27.14,11.57,50.41,24,64.85C416.79,683,418.38,682.6,420,682.24Zm13.37-2.12c-7-17.55-10-42.5-10.95-61.53h-4.4c1.25,25.47,5.24,47.38,10.84,62.06C430.37,680.46,431.79,680.26,433.4,680.12ZM318.59,606.91c0-.25-3.4-15.49-3.54-16.16H308.5c0,.56-3,15.63-3.12,16.16-.28-2.28-4.27-13.93-5-16.16H296l6.6,20.76h5.91c0-.7,3.4-16.3,3.37-16.55,0,.19,3.93,16.36,4,16.55h5.88l5.82-20.76H323.1c-.64,2.15-4.12,13.93-4.37,16.16ZM810.32,406c3.9,29.6,17.72,55,37,70.32,1.4-.76,2.79-1.48,4.41-2.18-19.18-14.41-33-39-37-68.14ZM539.64,667.05c-2,2.79-4.13,5.71-6.39,8.36l-15.07,67.11a35.19,35.19,0,0,1,4.34.64Zm178.85-133.4-9.72-18.56a31.67,31.67,0,0,1-2.09,5.57L714,534.6A34.13,34.13,0,0,1,718.49,533.65ZM828.07,378.31v20.82h15.8v-4H832.39V378.31Zm-129,151.91H699l3.66,6.47c1.5-.2,3-.45,4.57-.78l-5-8.92A32.85,32.85,0,0,1,699.1,530.22ZM57.07,201.1l8.73-7.53,7.86,13.72,6.66,2.78L69.5,191.4l9.84-8.61-4.82-2-7.3,6.61-7.55-13.24c-2.12-.78-4.27-1.53-6.47-2.26l10.2,17.75-11.15,9.84ZM810.4,371.34h4.43c4.1-28.73,17.92-53.17,36.93-67.44-1.56-.69-3-1.42-4.41-2.17C828.21,317,814.44,342,810.4,371.34Zm26.84,0a.25.25,0,0,1,0-.08h0ZM418.72,760.47c1.42-.17,2.78-.31,4.37-.42l-3.45-46c-1.51-.34-3-.67-4.49-1.06ZM856.33,399.16v-.09h-7.11V378.4h7.11c7.08,0,11.73,3.34,11.73,10.39S863.41,399.16,856.33,399.16Zm7-10.37v-.08c0-4.41-2.18-6.39-7.11-6.39h-2.59v12.74h2.59C861.2,395.14,863.38,393.17,863.38,388.79Zm15.91,78.84h0c-7-17.56-10-42.5-10.95-61.53h-4.4c1.25,25.47,5.23,47.37,10.84,62.06C876.25,468,877.67,467.77,879.29,467.63Zm-13.38,2.12h0c-14.79-16-22.1-41.67-24.3-63.65h-4.43c2.79,27.14,11.57,50.41,24,64.85C862.68,470.5,864.27,470.08,865.91,469.75ZM630.4,535.1c-.75-2.37-1.56-4.77-2.2-7.22L549.31,762.3l3.34,3.85Zm-23,116.82-3.65-2.79L563.8,755.64a24.3,24.3,0,0,1,4.57.28ZM544,756.23l41-137.64h-4.57l-40,134.16C541.7,753.86,542.87,755,544,756.23Zm23.77-137.64h-4.54L530,745.64a43.82,43.82,0,0,1,4,2.17Zm123.15-157,34.64,71.26c1.62-.12,3.21-.17,4.91-.2h-.12l-35.44-72.9C693.61,460.44,692.27,461,690.93,461.64ZM619.59,660.75c-1.26-.8-2.51-1.61-3.74-2.45l-40.68,98.82q2.16.48,4.26,1.17Zm152.19-117.6L732,436.64l-3.65,2.79,39,104C768.68,543.29,770.22,543.18,771.78,543.15Zm-68.31-87.64,42.47,94.75a30,30,0,0,1,3.93-2.15l-42.55-94.75C706,454.11,704.75,454.81,703.47,455.51Zm12.35-7.44L756,545.6c1.43-.42,2.87-.78,4.32-1.06h0l-40.69-98.93C718.33,446.45,717.07,447.26,715.82,448.07ZM632,667.83c-1.28-.69-2.56-1.39-3.85-2.14L585.59,760.6c1.39.65,2.79,1.31,3.93,2ZM837.25,371.26h4.42c2.26-21.62,9.56-47,24.24-62.95-1.64-.36-3.23-.76-4.76-1.2C848.87,321.5,840,344.46,837.25,371.26ZM447,443.91h-4.37v42.45H447ZM377.69,462l-4.23,1.61,4.9,43.81c1.37-.95,2.79-1.87,4.13-2.78Zm91.44,26.78,1.56-41.64c-1.49-.3-2.92-.68-4.35-1L464.78,488Zm-45.7-42.64c-1.45.31-2.79.7-4.35,1.06l1.56,41.63L425,488Zm-23.3,7.19L395.84,455l3.06,41c1.42-.61,2.79-1.2,4.29-1.75Zm66.16-7.19h0ZM572.38,583.84h4.54L604.09,480h-4.51Zm-38.49-114.2-7.55,50.41c1.3,1.3,2.59,2.64,3.85,4l7.94-53.17Zm-22-7.7L507,504.61c1.37.89,2.79,1.81,4.1,2.79l4.9-43.81Zm-22.48-8.58-3.07,40.83c1.45.55,2.79,1.14,4.29,1.75l3.07-41Zm137.41,25.53c-1.59.16-3.15.33-4.71.44l-31.24,104.4h4.6ZM253.21,742.71l3.65,6.47c1.5-.2,3-.45,4.57-.78l-5-8.92A32.83,32.83,0,0,1,253.21,742.71Zm31.38,2.48-35.45-72.9c-1.31.64-2.79,1.23-4,1.84l34.64,71.26C281.3,745.28,282.89,745.22,284.59,745.19Zm-12,.95-9.72-18.56a31.37,31.37,0,0,1-2.09,5.57l7.3,13.94A34.47,34.47,0,0,1,272.6,746.14ZM304,760.6l-42.55-94.75c-1.28.76-2.56,1.45-3.85,2.15l42.47,94.75A31.2,31.2,0,0,1,304,760.6Zm103,1.37c1.41-.24,2.86-.46,4.35-.67l-5.77-51.44c-1.56-.59-3.1-1.17-4.63-1.81Zm-66.66.33,0,0L261.35,527.91c-.62,2.45-1.37,4.85-2.21,7.21l77.76,231C338,765,339.24,763.5,340.27,762.3Zm-25.86-5.18-40.69-98.93c-1.23.84-2.48,1.64-3.73,2.45l40.15,97.54A42.25,42.25,0,0,1,314.41,757.12ZM342,584a104.28,104.28,0,0,1,205.52,0H552a108.68,108.68,0,0,0-214.44,0Zm13.73-114.21L351.5,471l7.83,53c1.26-1.37,2.55-2.71,3.85-4ZM325.89,755.64,286,649.11l-3.65,2.78,39,104C322.79,755.78,324.33,755.67,325.89,755.64ZM469.55,520.88l-.09,0c14.72,15.94,22,41.35,24.25,62.95h4.43c-2.79-26.84-11.62-49.83-23.91-64.1A36.78,36.78,0,0,1,469.55,520.88Zm119.38,73.8v-3.93h-16v20.82h16.5v-3.88h-12v-4.87h9.68V599h-9.68v-4.35ZM456.17,523l-.08-.06c7,17.39,10,42,10.92,60.84h4.4c-1.28-25.08-5.26-46.93-10.81-61.31C459.21,522.67,457.7,522.86,456.17,523Zm15.36,95.56-.09,0H467c-1.34,27.23-5.82,48.49-11.15,61.53,1.56.14,3.07.31,4.57.53C466.29,666.08,470.3,644.06,471.53,618.59ZM480,594.65v-3.9H464v20.82h16.5v-3.88h-12v-4.87h9.67V599h-9.67v-4.35Zm-97.06-3.93v20.82h15.8v-4H387.2V590.75ZM525,583.81c-4-29.32-17.78-54.37-37-69.67a47.51,47.51,0,0,1-4.4,2.17c19,14.27,32.83,38.71,36.93,67.44ZM415.26,519.69C403,534,394.11,557,391.35,583.78h4.43c2.26-21.62,9.56-47,24.25-62.95A30.73,30.73,0,0,1,415.26,519.69Zm109.88,98.9h-4.51c-4,29-17.84,53.73-37,68.14,1.56.69,3,1.42,4.4,2.17C507.42,673.52,521.24,648.19,525.14,618.59ZM404,611.54V590.78h7.13c7.08,0,11.71,3.34,11.71,10.39s-4.63,10.37-11.71,10.37Zm4.49-4h2.59c4.9,0,7.1-2,7.1-6.36s-2.2-6.38-7.1-6.38h-2.59Zm118.19-16.81-6.39,16h-.14l-6.71-16H508.7l8.75,20.82H523l8.75-20.82Zm-28.43,27.87-.08,0h-4.43c-2.21,22.05-9.54,47.66-24.31,63.65,1.65.36,3.24.75,4.77,1.2C486.71,669,495.6,645.65,498.28,618.59Zm-55.76,0v61.06a36.71,36.71,0,0,1,4.45,0l-.08,0v-61Zm98.7-7V590.75h-4.4v20.82Zm2-70.06c1.17,1.92,2.28,3.9,3.34,5.9L560,476l-4.29-.84Zm13.15,31c.89,3.4,1.59,6.88,2.18,10.39L581.88,479l-4.4-.45Zm1,21.62h.05a4.2,4.2,0,0,1,4.38,3.15h4.85a8.37,8.37,0,0,0-9.23-6.91c-6.19,0-9.89,4.07-9.89,10.87S551.26,612,557.39,612c5,0,9-2.54,9.47-7.61H562a4.31,4.31,0,0,1-4.62,3.88c-3.79,0-5.35-3.35-5.35-7.11C552,596.8,554.07,594.09,557.42,594.09Zm-57,9.48,5.57,8h-5.29l-4.88-7.44h-4.38v7.44h-4.48V590.75h9.5c4.91,0,8.75,1.7,8.75,6.6A6.07,6.07,0,0,1,500.4,603.57Zm.08-6.22h-.08c0-1.86-1.28-2.78-4-2.78h-5v5.57h4.91C498.5,600.09,500.48,599.75,500.48,597.35ZM442.6,523.48h0Zm15,82.51h.06c.14-4.54-3.15-5.57-7-6.52-2.29-.61-5.33-1.47-5.24-3.84,0-1.68,1.81-2.37,3.48-2.32,2.45,0,3.54,1.29,3.68,3.21h4.6c-.28-4.8-3.77-6.61-8.64-6.61-4.13,0-7.78,2.12-7.92,6.19-.16,4.77,3.51,5.57,7.72,6.86,2,.58,4.35,1.22,4.43,3.26a3.28,3.28,0,0,1-3.6,2.93h-.08c-2.31,0-4-.95-4.29-3.29h-4.62c.36,4.83,4.21,6.89,9.05,6.89C453.61,612.6,457.43,610.37,457.56,606ZM127.16,211.86l7.53,12.65c-2-.25-3.93-.48-5.86-.75l-7.3-12.29-5.82-1.12V221.5l-4.6-1.06V193.32c5.18,1.45,12,2.93,12,2.93,7.32,1.39,10.72,4.4,10.72,9.48C133.79,209.63,131.06,211.49,127.16,211.86Zm1.9-6.91c0-3-2.12-3.52-6.52-4.35l-6.83-1.37v6.58l7.05,1.53C126,208,129.06,208.12,129.06,205ZM447,583.84V523.48a39.82,39.82,0,0,1-4.37,0v60.36ZM874.89,310l-.11,0c-5.58,14.44-9.53,36.23-10.82,61.31h4.41c1.39-26.89,5.85-47.9,11-60.83A35.53,35.53,0,0,1,874.89,310ZM48.52,174.68v-4.49A159.19,159.19,0,0,0,28.4,165.6v26.86a163.43,163.43,0,0,1,20.84,5.71v-4.51c-5.57-1.84-11.14-3.43-16.55-4.74v-7.41c4.54,1.08,9.06,2.34,13.6,3.79v-4.4c-4.54-1.43-9.06-2.79-13.6-3.77v-6.35Q40.63,172.43,48.52,174.68Zm400.7,9.43H449c-2.32,0-4-.95-4.29-3.29h-4.6c.36,4.82,4.21,6.88,9.05,6.88,4.41,0,8.23-2.22,8.36-6.6s-3.14-5.57-7-6.52c-2.29-.61-5.32-1.48-5.24-3.85,0-1.67,1.81-2.37,3.48-2.31,2.46,0,3.54,1.25,3.68,3.2h4.6c-.17-4.79-3.71-6.74-8.5-6.74-4.12,0-7.77,2.12-7.91,6.19-.17,4.76,3.51,5.57,7.72,6.85,2,.56,4.34,1.23,4.43,3.26A3.3,3.3,0,0,1,449.22,184.11Zm-92.51-18.26h9.5c5,0,8.73,1.61,8.73,6.6a6.07,6.07,0,0,1-4.8,6.22l5.58,8h-5.24s-4.82-7.33-4.91-7.44h-4.29v7.44h-4.46Zm4.46,9.33h4.93c2.15,0,4.15-.33,4.15-2.78,0-1.87-1.31-2.79-4.06-2.79h-5ZM442.6,98.49h-.06v60.36h4.38V98.49A38.91,38.91,0,0,1,442.6,98.49Zm-78.07,60.25h4.41C373,130,386.86,105.57,405.87,91.3c-1.56-.7-3-1.42-4.4-2.17C382.35,104.46,368.59,129.47,364.53,158.74Zm-363.44-37V79.37H0v42.36Zm479,48.05v-3.93h-16v20.81h16.5v-3.87h-12v-4.88h9.67V174.1h-9.67v-4.32ZM139.62,123.1c1.81.83,3.48,1.72,5.1,2.62L116.51,0H112ZM500.4,178.67l5.57,8h-5.29l-4.88-7.44h-4.38v7.44H487V165.85h9.5c4.85,0,8.72,1.7,8.72,6.6A6.07,6.07,0,0,1,500.4,178.67Zm.08-6.22h-.08c0-1.87-1.28-2.79-4-2.79h-5v5.58h4.91C498.5,175.18,500.48,174.85,500.48,172.45Zm-39.79,83.21c5.57-14.57,9.61-36.59,10.84-62.06h-4.41c-1.33,27.23-5.82,48.49-11.14,61.54C457.68,255.27,459.18,255.5,460.69,255.66Zm37.59-62.06h-4.43c-2.2,22.05-9.53,47.66-24.3,63.65,1.64.37,3.23.76,4.76,1.2C486.71,244,495.6,220.75,498.28,193.6ZM391.35,158.85s0-.07,0-.11h0Zm-26.84,0s0-.07,0-.11h0Zm-204,21.4a112.69,112.69,0,0,0,75.24-27.86l25.7,62.45a178.82,178.82,0,0,1-100.91,30.65C79.22,245.49,55.69,209.73,0,209.28v4.43c54.48.46,78.26,36.21,160.58,36.21a183.26,183.26,0,0,0,106.28-33.44l-29.45-71.56a108.3,108.3,0,0,1-76.86,30.88C92.28,175.8,77.63,139.91,0,139.57V144C76.6,144.37,91,180.25,160.55,180.25Zm259.48,77c-14.8-16-22.1-41.66-24.3-63.65h-4.44c2.79,27.15,11.57,50.42,24,64.85C416.79,258,418.38,257.62,420,257.25Zm-9.59-70.59v-.11h-7.11V165.79h7.11c7.08,0,11.73,3.34,11.73,10.4S417.52,186.66,410.44,186.66Zm7.05-10.36v-.11c0-4.41-2.17-6.39-7.11-6.39h-2.59v12.74h2.59C415.32,182.65,417.49,180.67,417.49,176.3Zm-35.31-10.45v20.81H398v-3.95H386.5V166ZM364.35,193.6c3.9,29.6,17.72,55,37,70.31,1.4-.75,2.79-1.47,4.41-2.17-19.18-14.41-33.06-39-37-68.14Zm69,61.54V255c-7-17.55-10-42.49-10.95-61.53h-4.4c1.25,25.47,5.24,47.38,10.84,62.06C430.37,255.5,431.79,255.27,433.4,255.14Zm-42-96.4h4.42c2.26-21.63,9.56-47,24.25-62.95-1.65-.37-3.24-.76-4.77-1.2C403,109,394.14,132,391.36,158.74ZM525.14,193.6h-4.51c-4,29-17.84,53.73-37,68.14,1.56.7,3,1.42,4.4,2.17C507.42,248.56,521.24,223.2,525.14,193.6ZM429,97.49l-.11-.06c-5.58,14.44-9.53,36.23-10.81,61.31h4.4c1.39-26.89,5.85-47.91,11-60.84A29.73,29.73,0,0,1,429,97.49ZM543.26,236.63l-.11.06,17.55,94h4.49l-18.7-100C545.49,232.73,544.37,234.71,543.26,236.63Zm-52.84,102,4.46,1-4.26-57.21c-1.43.61-2.79,1.2-4.3,1.76Zm36.37-172.75-6.47,16-6.77-16H508.7l8.78,20.81h5.57l8.75-20.81ZM512,317.5h4.43l-5.24-46.67c-1.33.94-2.78,1.86-4.09,2.78ZM186.1,455.34c-1.28-.7-2.56-1.39-3.84-2.15L139.7,548.11c1.4.64,2.79,1.31,3.93,2Zm350-130.84a50.34,50.34,0,0,1,5.07,4.26l-11.14-74.57q-1.91,2-3.85,4Zm-161.72-7h3.13l4.93-43.86c-1.4-.89-2.79-1.81-4.13-2.79l-5.1,46.57Zm24.7,21,4.06-54.45c-1.45-.56-2.78-1.14-4.29-1.76l-4.26,57.22ZM556.36,205.67v.14l29.15,129.92c1.81.84,3.48,1.73,5.1,2.62L558.53,195.41C558,198.79,557.19,202.27,556.36,205.67ZM442.6,291.73v42.36H447V291.73H442.6Zm-19.48,43.41,1.67-44.95c-1.45-.25-2.79-.5-4.35-.8l-1.72,46.2Zm43.22-.05,4.41.44L469,289.33c-1.45.31-2.79.56-4.35.81Zm139-14.8a34.12,34.12,0,0,1,4.6.2L576.7,193.6h-4.54ZM456.17,98Zm13.38-2.12h0c14.71,15.94,22,41.35,24.24,62.95h4.43C495.44,132,486.6,109,474.31,94.76,472.78,95.15,471.19,95.54,469.55,95.9ZM442.6,193.6v61.06a39.82,39.82,0,0,1,4.37,0V193.6ZM488.11,89.24c-1.37.75-2.79,1.47-4.41,2.17,19,14.27,32.83,38.71,36.93,67.44h4.43C521,129.53,507.28,104.48,488.11,89.24ZM456.17,98c7,17.39,10,42,10.93,60.83h4.4c-1.28-25.08-5.27-46.93-10.81-61.31C459.21,97.68,457.7,97.88,456.17,98Zm132.71,71.84v-3.93h-16v20.82h16.5v-3.88h-12V178H587v-3.82h-9.67v-4.32Zm-31.46-.75h0a4.17,4.17,0,0,1,4.37,3.15h4.85a8.36,8.36,0,0,0-9.22-6.92c-6.19,0-9.9,4.07-9.9,10.87s3.68,10.84,9.81,10.84c5.07,0,9-2.53,9.48-7.6H562a4.3,4.3,0,0,1-4.63,3.84c-3.79,0-5.35-3.34-5.35-7.08C552,171.89,554.07,169.11,557.42,169.11ZM447,254.66h0v0Zm89.8-88.73v20.82h4.4V165.93ZM337.45,193.49a108.69,108.69,0,0,0,214.59,0h-4.46a104.28,104.28,0,0,1-205.75,0Zm458.71,195.3a9.84,9.84,0,0,1-8.76,10.81,9.54,9.54,0,0,1-1.69,0,9.85,9.85,0,0,1-10.46-9.18,10.23,10.23,0,0,1,0-1.66c0-6.77,4-10.87,10.42-10.87S796.16,382,796.16,388.79Zm-8.83-7.13A7.18,7.18,0,0,0,779.4,388a7.5,7.5,0,0,0,0,.82,6.47,6.47,0,0,0,5.79,7.08l.56,0a7.17,7.17,0,0,0,1.62-14.24ZM160.55,191.4a126.06,126.06,0,0,0,65.71-18.14l17.7,39.4a169.44,169.44,0,0,1-83.41,21.71c-81,0-99.86-35.79-160.55-36.21v4.4c59.2.43,78.87,36.22,160.55,36.22a174,174,0,0,0,89.18-24.36l-21.38-47.68A121.69,121.69,0,0,1,160.55,187C89.38,187,74.79,151.13,0,150.78v4.4C73.57,155.53,88.45,191.4,160.55,191.4ZM767.68,406l33.83,129.23c1.28-.67,2.59-1.39,4-2.06h.14L772.22,406ZM845.57,550.9l-9-60.06c-1.65-.86-3.26-1.78-4.85-2.78l9.53,63.73ZM817.26,530h0l0,.05Zm-21.43-75.39,17.08,76.11a35.55,35.55,0,0,1,4.33-.72l-15-67Q798.82,458.83,795.83,454.64Zm-33.5-60.14c0-.25-3.4-15.49-3.57-16.16H752c0,.56-3,15.63-3.15,16.16-.25-2.28-4.24-13.93-5-16.16h-4.4l6.6,20.76h5.88c.14-.7,3.4-16.3,3.4-16.58h.14l4,16.58h5.88l5.79-20.76h-4.4C766.09,380.49,762.61,392.27,762.33,394.5ZM628,639.83l25.69-62.46a112.77,112.77,0,0,0,75.24,27.87c69.87,0,84-36.23,161.64-36.23v-4.4c-78.62,0-93.05,36.23-161.64,36.23a108.26,108.26,0,0,1-76.77-31h-.11L622.6,641.44a183.23,183.23,0,0,0,106.34,33.44c82.83,0,106.38-36.23,161.64-36.23v-4.4c-56.49,0-79.79,36.23-161.64,36.23A178.86,178.86,0,0,1,628,639.83Zm262.68-135.5h-2.2v42.36h2.2Zm-95.53,35.92L755.06,406h-4.58l41.17,137.64C792.73,542.54,793.9,541.4,795.16,540.25Zm95.53-73V406h-2.2v61.31Zm-4.13-83.6a5.58,5.58,0,0,0,4.13,5.71V378.26A6,6,0,0,0,886.56,383.69ZM890.69,311h-2.2v60.44h2.2ZM783.34,406a108.69,108.69,0,0,0,107.35,91.66h0v-4.4A104.45,104.45,0,0,1,787.8,406Zm50.92,147.71L820.6,480.64c-1.78-1.39-3.54-2.78-5.27-4.32L830,554.88Zm56.43-154.23v-6H886A6.75,6.75,0,0,0,890.69,399.46Zm-88.09-21h9.5c5,0,8.72,1.62,8.72,6.6A6,6,0,0,1,816,391.3l5.57,8h-5.24s-4.82-7.33-4.9-7.44h-4.29v7.44h-4.46Zm4.46,9.33H812c2.15,0,4.15-.33,4.15-2.78,0-1.87-1.31-2.79-4.07-2.79h-5Zm57.54,160.3c1.43-.17,2.79-.31,4.38-.42l-3.46-46c-1.5-.33-3-.67-4.48-1.06Zm-11.78,1.48c1.41-.24,2.86-.47,4.34-.67l-5.77-51.44c-1.56-.59-3.09-1.18-4.62-1.82Zm23.68-2.7,4.38-.2-1.59-43a33.06,33.06,0,0,1-4.43-.53Zm-6,42.66v26.5c1.4-.2,2.82-.37,4.27-.5V594.82c5.29,5.57,10.64,11.62,16,17.75l0-6.91c-5-5.57-10.09-11.15-15.08-16.55Zm-676-129.75v-.11l-35.45,72.9a38.73,38.73,0,0,1,4.79.19l34.64-71.06C197.19,461,195.86,460.44,194.55,459.8ZM181,266.64c-1.58.17-3.14.34-4.7.45L145,371.23h4.6ZM143,382.16v-3.93H127v20.82h16.5v-3.88h-12V390.3h9.67v-3.82h-9.67v-4.32Zm-16.55-10.93H131l27.17-103.8h-4.51ZM97.37,329c1.17,1.93,2.29,3.9,3.34,5.91l13.38-71.4-4.29-.83Zm38.57-62.37-4.4-.44L110.47,360c.89,3.4,1.59,6.89,2.17,10.4Zm25.42,172.79-3.66-2.79L117.77,543.15a24.3,24.3,0,0,1,4.57.28ZM184.51,322.6c-.75-2.37-1.56-4.76-2.2-7.21L103.42,549.81l3.34,3.85Zm591.06-58.94,13.34,71.4q1.59-3,3.35-5.91l-12.4-66.32ZM121.89,406h-4.54L84.08,533a43.91,43.91,0,0,1,4,2.18ZM98.12,543.74l41-137.76H134.6l-40,134.27C95.81,541.37,97,542.54,98.12,543.74Zm3.51-155.06c0,6.8,3.68,10.84,9.81,10.84,5.08,0,9-2.54,9.48-7.61h-4.85a4.28,4.28,0,0,1-4.63,3.87c-3.79,0-5.35-3.37-5.35-7.1,0-4.29,2.09-7,5.44-7v-.11a4.18,4.18,0,0,1,4.37,3.15h4.85a8.36,8.36,0,0,0-9.22-6.91C105.34,377.81,101.63,381.88,101.63,388.68ZM705.06,322.6v.14l77.86,231c1-1.15,2.32-2.62,3.35-3.82l-78.9-234.43C706.65,317.84,705.9,320.23,705.06,322.6Zm-534,211c1.62.25,3.12.53,4.54.81l7.28-13.94a29.9,29.9,0,0,1-2.09-5.57Zm537.58-267L740,371.48h4.57L713.39,267.09A30.4,30.4,0,0,0,708.66,266.64ZM93.75,454.56c-2,2.79-4.13,5.71-6.38,8.36L72.29,530a33.79,33.79,0,0,1,4.35.64ZM753.63,266.64l23.3,103.87c.59-3.51,1.28-7,2.18-10.37L758,266.2Zm-22.21,1,27.17,103.8h4.55l-27.2-103.86ZM74.24,476.27c-1.73,1.47-3.48,2.78-5.27,4.32l-13.65,73.1,4.23,1.19Zm116.38,53.81a31.58,31.58,0,0,1-3.24-3.2l-5,8.91c1.56.34,3.06.59,4.57.78ZM44,550.9l4.3,1L57.83,488c-1.59,1-3.21,1.87-4.85,2.78ZM173.7,448.07c-1.25-.81-2.51-1.62-3.73-2.46l-40.69,98.82q2.16.48,4.26,1.17Zm148,323.4a.86.86,0,0,1-.07.1l.27,0Zm40.86-9.75a54.37,54.37,0,0,1-22.3,24c4.15-1.59,8.22-3.26,12.35-5l2.78-1.06a57.16,57.16,0,0,0,12.32-18.39c0-.78.17-1.59.23-2.42A20.54,20.54,0,0,0,362.51,761.72Zm-40.93,9.85a37.56,37.56,0,0,0-6.7,1.52c-.67.7-1.25,1.31-1.67,1.7-17.25,16.39-41.8,20-65.77,9.75-27.2-11.67-45.51-37.9-45.51-65.26a20.12,20.12,0,0,1,40.21,0,9,9,0,0,1-17.91,0v-2.21h-4.38v2.21a13.35,13.35,0,0,0,26.67,1.22c0-.41,0-.82,0-1.22a24.49,24.49,0,0,0-49-1.66c0,.56,0,1.11,0,1.66,0,29.09,19.34,56.93,48.15,69.3C271.8,799.73,298,795.27,316.22,778A52.26,52.26,0,0,0,321.58,771.57Zm31.79-447.18,9.92-66.3q-2-1.95-3.85-4l-11.15,74.57A53,53,0,0,1,353.37,324.39Zm416,365.43L727.61,814h4.62l42.08-125ZM221.86,710.19H222a9,9,0,0,1,8.94,8.95v2.2h4.38v-2.2a13.35,13.35,0,1,0-26.67-1.22c0,.4,0,.81,0,1.22,0,18.25,7.72,34.86,20.7,44.36,14.69,10.76,34.11,10.06,48.33,2.46a27.48,27.48,0,0,0,1.31-5.1l-1.62.19c-9.7,5.94-29.18,10.81-45.42-1.11C220.1,751.27,213,736,213,719.14A9,9,0,0,1,221.86,710.19Zm305.21,51.53a21.26,21.26,0,0,0-5.13-2.79,10.24,10.24,0,0,0,.19,2.43,57,57,0,0,0,12.35,18.39l2.62,1.06c4.12,1.73,8.22,3.4,12.35,5A54.36,54.36,0,0,1,527.07,761.72Zm809.67,26.45c-48.6,0-71.9,14.91-101.27,25.61h12.32c24.72-10,47.63-21.21,89.18-21.21a188.19,188.19,0,0,1,35.86,3.23v-4.45A193.26,193.26,0,0,0,1336.74,788.17Zm-669-93.53a24.52,24.52,0,0,0-24.49,24.5,13.35,13.35,0,0,0,26.67,1.22c0-.41,0-.82,0-1.22v-2.2h-4.38v2.2a9,9,0,0,1-17.92,0,20.12,20.12,0,0,1,40.22,0c0,27.36-18.28,53.59-45.51,65.26-23.94,10.29-48.52,6.64-65.74-9.75-.42-.39-1-1-1.67-1.7a38.08,38.08,0,0,0-7-1.56,50.5,50.5,0,0,0,5.58,6.38c18.39,17.47,44.58,21.68,70.5,10.59,28.82-12.37,48.16-40.21,48.16-69.31A24.5,24.5,0,0,0,667.74,694.64Zm705.09,109.73q-3.22-.66-6.46-1.19v10.6h4.34v-5.44l2.12.44ZM681.07,719.14a13.35,13.35,0,1,0-26.67-1.22c0,.4,0,.81,0,1.22v2.2h4.37v-2.2a9,9,0,0,1,17.92,0c0,16.86-7.08,32.13-18.92,40.8-16.22,11.92-35.7,7.07-45.43,1.11l-1.61-.19a25,25,0,0,0,1.33,5.1c13.94,7.52,33.45,8.36,48.33-2.46C673.35,754,681.07,737.39,681.07,719.14ZM376.86,813.78H384a10.1,10.1,0,0,0-7.3,0Zm47.9,0H429v-6.55l6,6.55h6.13q-5.56-6.27-11.14-12.26l-5.22.44Zm121.29,0c-29.35-10.7-52.7-25.61-101.3-25.61s-71.9,14.91-101.28,25.61h12.32c24.72-10,47.63-21.21,89.18-21.21s64.43,11.15,89.18,21.21Zm-142.41,0,1.73-4.8,2.23,4.8h4.68q-2.26-4.6-4.57-9.17c-1.95.42-3.79.83-5.66,1.31h.14q-1.5,3.93-2.95,7.86Zm98.23,0H507l-1.28-2.26c-2.12-.78-4.27-1.53-6.47-2.26Zm189.9.05h4.73l-12.93-31.4a108.27,108.27,0,0,1-77.13,30.82l.13,0c-68.58,0-83-36.23-161.63-36.23S351.89,813.3,283.31,813.3a108.26,108.26,0,0,1-76.89-30.87l-12.93,31.4h4.76l9.81-23.91a110.22,110.22,0,0,0,45,23.91H320c41.61-9.36,63.18-32.35,125-32.35s83.41,23,125,32.35h66.88a110.11,110.11,0,0,0,45-23.91Zm47.48-10.5,3.32,10.45h4.52c-1.2-4.16-2.88-9.12-3.35-10.45h-4.49Zm-82.57,10.45h10.06c1.87-1,3.74-2,5.58-3.12l1.39,3.12h4.82l-4.29-9.56a139.75,139.75,0,0,1-17.7,9.56ZM451,813.89,451,801.1h-4.24v12.79Zm258.45-.11L690.32,762.7c-16.72,26-48.1,43.58-83.88,43.58-66.89,0-81.27-36.23-161.64-36.23s-94.75,36.23-161.63,36.23c-35.81,0-67.14-17.56-83.91-43.58l-19.09,51H175.4l20.87-55.88a79.45,79.45,0,0,1-10.14-38.76,35.64,35.64,0,1,1,71.26-2c0,.66,0,1.33,0,2a24.53,24.53,0,0,1-24.56,24.49c-.62,0-1.24,0-1.86-.08a25.8,25.8,0,0,0,21.1,12.57c11.14,0,16.86-4.35,33.8-4.35H288v2.2c0,10.9-2.78,19.12-8.11,23.8,19.9-2.5,22.69-15.6,48.44-15.6h2.2v2.2A47.27,47.27,0,0,1,327.78,783c18.2-11.48,24-34,46.49-34h2.2v2.2c0,8.58,0,19.25-6.1,27.67a216.12,216.12,0,0,1,148.5,0c-6-8.36-6.07-19.09-6.07-27.67V749H515c22.46,0,28.32,22.57,46.51,34a46.9,46.9,0,0,1-2.78-18.67v-2.2h2.17c25.78,0,28.54,13.1,48.44,15.6-5.3-4.68-8.11-12.9-8.11-23.8v-2.2h2.2c16.94,0,22.68,4.35,33.77,4.35a25.8,25.8,0,0,0,21.1-12.57A24.53,24.53,0,0,1,631.92,721c0-.62-.07-1.24-.07-1.86a35.64,35.64,0,1,1,71.26-2c0,.66,0,1.33,0,2a79.46,79.46,0,0,1-9.89,38.79l20.87,55.88ZM372.23,753.47c-20.56,1.7-25.25,27.87-50.16,37.37a78.6,78.6,0,0,1-24,5.3,66.05,66.05,0,0,0,12.07-6.25c9.67-2.14,15.69-3.81,16-23.29-24.83.83-25.75,16-53.54,16a64.66,64.66,0,0,1-24.41-4.76,50.9,50.9,0,0,0,15.19-.42c13.93,2.17,19.51-7.19,20.2-21.24-14.71.37-20.23,4.35-31.54,4.35s-21.32-7.1-27.34-19L222.41,737l4.85,1.39a20.11,20.11,0,0,0,24.93-13.72,20.53,20.53,0,0,0,.8-5.56,31.27,31.27,0,0,0-62.51,0c0,45.65,41.52,82.79,92.58,82.79,31,0,50.52-8,71.2-16.72C369.28,779.16,372.15,769.66,372.23,753.47ZM699,719.14a31.26,31.26,0,0,0-62.5,0,20.1,20.1,0,0,0,25.72,19.28l4.85-1.39-2.29,4.51c-6,11.87-16.22,19-27.34,19s-16.72-4-31.54-4.35c.56,14.16,6.16,23.41,20.2,21.24a50.91,50.91,0,0,0,15.19.42,64.63,64.63,0,0,1-24.41,4.76c-27.87,0-28.71-15.16-53.51-16,.25,19.06,5.83,21,16,23.29a63.93,63.93,0,0,0,12.07,6.25,78.78,78.78,0,0,1-24-5.3c-24.8-9.56-29.48-35.67-50.16-37.37,0,16.22,3,25.69,17.86,31.85,20.68,8.56,40.22,16.72,71.23,16.72C657.52,801.93,699,764.79,699,719.14Zm-224.75,84,.14,0v0Zm4.49,10.62v-5.44q7.93,1.56,15.83,3.9v-4.48a160.06,160.06,0,0,0-20.18-4.58v10.6Zm-262.55.05,1.4-3.12c1.81,1.09,3.67,2.09,5.57,3.12H233.2a138.37,138.37,0,0,1-17.53-9.56l-4.32,9.56ZM88.7,627.7v10.68l-4.46-1.68V609.42c9.15,2.79,12,4,13.55,4.6,5.57,2.4,8.22,5.35,8.22,10,0,4.15-3.62,8.17-11.73,5.58Zm0-4.23,5.16,1.61c4.63,1.51,7.66,2,7.66-1.86,0-3.13-2.78-4.63-7.66-6.19l-5.16-1.62ZM48.52,599.75h.14v-4.49a159.19,159.19,0,0,0-20.12-4.59v26.86a163.32,163.32,0,0,1,20.84,5.57v-4.51c-5.57-1.84-11.15-3.43-16.55-4.74v-7.22c4.54,1.09,9.06,2.35,13.6,3.79V606c-4.54-1.42-9.06-2.79-13.6-3.76v-6.35Q40.63,597.41,48.52,599.75Zm8.55,26.39,8.73-7.52,7.86,13.71,6.66,2.79L69.5,616.25l9.84-8.61-4.82-2-7.25,6.55L59.72,599c-2.12-.78-4.26-1.53-6.46-2.26l10.2,17.76L52.31,624.3ZM0,627.57c59.2.44,78.87,36.22,160.55,36.22a174,174,0,0,0,89-24.38h.14l-21.38-47.69a121.63,121.63,0,0,1-67.66,20.18C89.48,611.9,74.91,576,0,575.68v4.4c73.69.31,88.54,36.22,160.69,36.22a126,126,0,0,0,65.57-18L244,637.68a169.54,169.54,0,0,1-83.41,21.71c-81,0-99.86-35.79-160.55-36.22ZM1327,813.78h6.13q-5.56-6.27-11.15-12.26l-5.21.44v11.82H1321v-6.55Zm11.79-12.68v12.79H1343l0-12.79ZM127.16,636.84l.06.11,7.52,12.66c-2-.25-3.93-.48-5.85-.76l-7.3-12.29-5.83-1.11V646.6l-4.59-1.06V618.42c5.18,1.45,12,2.79,12,2.79,7.33,1.39,10.73,4.4,10.73,9.47C133.79,634.5,131.06,636.48,127.16,636.84Zm2-6.8c0-3-2.12-3.51-6.52-4.34l-6.83-1.37v6.58l7,1.53c3.15.5,6.25.64,6.25-2.51Zm13.8,177.24v-3.93h-16V813.8h14.16v-2.2l-9.67,0v-4.35Zm65.68-187.83.06.11c2.28-.52,5-.47,5.79,1.7,1.37-.5,3.13-1.17,4.74-1.83-1.53-4.18-6.24-4.91-10.59-3.88-6.85,1.65-11.15,5.58-11.15,10.4,0,6.8,7.64,6.13,10.51,6,4.52-.25,7.39-.19,7.41,2.79,0,2-2.31,4.54-6.77,5.57a6.37,6.37,0,0,1-5.57-.84l-5.3,1.09c1.59,3.18,5.58,5.24,10.9,3.93,7.22-1.7,11.84-6,11.82-10.87,0-6.41-5.58-6.35-10.87-6.13-4,.17-7.14.28-7.14-2.53S204.8,620.32,208.59,619.45Zm-67.27,4.46v26.31a204.72,204.72,0,0,0,22.15.7v-4.24c-5.85,0-11.81,0-17.69-.56v-6.71c4.73.39,9.56.58,14.52.58v-4.37c-4.8,0-9.65-.2-14.52-.59v-6.3c6.16.45,11.28.51,16.91.39v-4.37A190.59,190.59,0,0,1,141.32,623.91Zm38.85,22.52v.11a6.72,6.72,0,0,1-6.3-2.17l-5.3.64c1.34,4.07,6,6.21,11.62,5.57,7.47-.81,12.29-4.43,12.29-9.22,0-6.41-6-6.86-11.14-7.28-4-.3-7.42-.58-7.42-3.34s2.46-4.12,6.36-4.51c2.56-.26,5.57.25,6.1,2.78,1.2-.25,3.09-.64,5-1.08-1.2-4.52-6.19-6.16-11.15-5.58-7,.75-11.51,4.21-11.51,8.84,0,6.57,7.72,6.85,10.82,7,4.71.3,7.66.72,7.66,3.65C187.16,643.75,184.76,646,180.17,646.43ZM67.22,813.78h4.85l-4.41-10.45H62.81Zm12-17.5C75.08,767,61.39,742,42.22,726.72v-.06c-1.37.75-2.79,1.48-4.4,2.18,19,14.26,32.83,38.7,36.92,67.44Zm27,.05A108.67,108.67,0,0,0,0,705.4v4.37A104.4,104.4,0,0,1,101.66,796.3ZM95.28,813.78V803.33h-4.4v10.45Zm-61.11-6.5v-3.93h-16v10.57H32.33v-2.21H22.66v-4.43Zm18.25-10.81c-2.79-26.84-11.62-49.83-23.91-64.1-1.62.26-3.21.65-4.85,1l.08.14c14.72,15.94,22,41.35,24.25,63Zm5.71,17.45H41.08V803.47h9.5c5-.14,8.72,1.56,8.72,6.6A6.3,6.3,0,0,1,58.13,813.92Zm-3.54-3.85c0-1.87-1.28-2.79-4-2.79h-5v5.58h4.9C52.61,812.66,54.59,812.33,54.59,810.07Zm1311.64-6.91.14,0v0Zm-1280.4.17H80.9l-4.21,10.45h4.77Zm-60.14-6.86c-1.28-25.08-5.26-46.93-10.81-61.31-1.56,0-3.06.2-4.6.34l.09.14c7,17.38,10,42,10.92,60.83ZM178.59,0,177,4A183.34,183.34,0,0,0,283.17,37.35l.14,0c82.82,0,106.37-36.23,161.63-36.23S523.72,37.4,606.57,37.4A183.32,183.32,0,0,0,712.89,4l-1.63-4h-4.74l1,2.34A178.8,178.8,0,0,1,606.57,33C539.76,33,512,8.88,473.3,0H416.58C377.92,8.88,350.1,33,283.31,33A178.82,178.82,0,0,1,182.37,2.34l1-2.34Zm135,.34V0H294.26V13.05a218.88,218.88,0,0,0,22.57-2.12V6.61a179.16,179.16,0,0,1-18.06,1.75V2C303.71,1.65,308.64,1.09,313.6.34ZM223.89,2.21l1-2.21H220l-.25.56C221.1,1.15,222.5,1.65,223.89,2.21Zm382.68,24a173.91,173.91,0,0,0,88.9-24.3L694.62,0h-4.78a169.4,169.4,0,0,1-83.4,21.71c-46.21,0-72.18-11.63-97.22-21.71H497C526,10.72,552.86,26.2,606.57,26.2ZM343.75,4.91l4.88-1.56c-1.05-1.1-2.1-2.23-3.15-3.35h-6.43C340.63,1.67,342.19,3.31,343.75,4.91ZM257.08,0h-4.41l-.07,10.51,4.48.81ZM532.13,0l2.68,1V0ZM271.91,13.07c.79-1.78,3.43-7.7,5.79-13.07h-4.83l-3.39,8.45C269,7.17,267.73,3.81,266.26,0h-4.75c2.14,5.2,4.39,10.62,5.21,12.63C268.45,12.8,270.18,13,271.91,13.07ZM328.23,0h-4.6V9.87l4.6-.95Zm29.9,0h-4.29V1.48L358.13,0Zm438,813.78C796,807,792,802.91,785.71,802.91s-10.42,4.1-10.42,10.87h4.07a6.41,6.41,0,1,1,12.73-1.46,5.94,5.94,0,0,1,0,1.46ZM240.25.87,243,8.36c1.72.45,3.42.84,5.18,1.23L244.75,0h-7.14Q238.93.45,240.25.87ZM14.8,43.17C18.94,32.34,22.23,17.41,24.15,0H19.72c-2.07,18.25-5.61,32.79-9.63,42.64C11.79,42.78,13.29,43,14.8,43.17ZM1.09,42.11V0H0V42.11ZM101.48,0H96.77A104.43,104.43,0,0,1,0,68.34v4.41A108.7,108.7,0,0,0,101.48,0ZM654.65,7c5.22-1.23,9.07-3.82,10.8-7h-5.63a11.1,11.1,0,0,1-5.34,2.71l.14.11A6.37,6.37,0,0,1,649.05,2l-5.3,1.09C645.34,6.25,649.32,8.31,654.65,7ZM37.82,49.25c1.56.69,3,1.42,4.4,2.17C57.28,39.45,69,21.4,75.28,0H70.69C64.34,20.75,52.67,38.08,37.82,49.25ZM28.43,46c9.4-11,16.79-27,21-46H44.88C41.1,16.62,34.33,33.2,23.66,44.76,25.3,45.12,26.89,45.51,28.43,46ZM625.33.39C630,.7,633,1.12,633,4c.06,2.23-2.34,4.44-6.94,4.91L626,8.7a6.74,6.74,0,0,1-6.3-2.17l-5.29.64c1.34,4.06,6,6.21,11.62,5.57,7.47-.81,12.29-4.43,12.29-9.22A6.64,6.64,0,0,0,637.42,0H621.47A34.08,34.08,0,0,0,625.33.39ZM561.6,0H557V8.09l4.6,1.05Zm13.12,11c1.92.28,3.88.5,5.85.73L573.58,0H568Zm31.46-8.53V0h-19V12.38a204.63,204.63,0,0,0,22.15.69V8.84c-5.85,0-11.81,0-17.69-.56V1.9C596.4,2.29,601.22,2.48,606.18,2.48Zm-320.09,11V0h-4.43V13.6l1.65-.14ZM1336.94,777.07c-78.59,0-93,36.23-161.64,36.23a108.24,108.24,0,0,1-76.88-30.87l-12.93,31.4h4.76l9.81-23.91a110.22,110.22,0,0,0,45,23.91H1212c41.61-9.36,63.18-32.35,125-32.35a202.81,202.81,0,0,1,35.81,3V780A207.23,207.23,0,0,0,1336.94,777.07ZM812,803.35c5,0,8.72,1.62,8.72,6.61a6.47,6.47,0,0,1-1.06,3.82l-.08,0H802.51V803.35Zm.05,3.93h-5v5.58H812c2.15-.2,4.15-.53,4.15-2.79C816.14,808.2,814.83,807.28,812.07,807.28Zm20.43,6.64V803.47h-4.43v10.45Zm62.34-8c2.45,0,3.54,1.25,3.68,3.21h4.6c-.14-4.8-3.62-6.75-8.5-6.75a10.44,10.44,0,0,0-3.79.7v10.73h10.34a17.22,17.22,0,0,0-4.57-1.73c-2.29-.61-5.33-1.48-5.24-3.85C891.36,806.53,893.17,805.83,894.84,805.89Zm-43-76.86c-1.56-.7-3-1.42-4.4-2.17-19.26,15.1-33,40.15-37.07,69.47l.11.14h4.43C819,767.74,832.86,743.3,851.87,729ZM195,0l-.85,1.9a174.1,174.1,0,0,0,89.07,24.3h.14C337,26.2,363.89,10.72,392.85,0H380.37c-25,10.08-51,21.71-97.2,21.71A169.44,169.44,0,0,1,199.73,0H195Zm684.4,735.5c-1.56-.14-3.07-.31-4.57-.53-5.58,14.43-9.53,36.22-10.82,61.31h4.41C869.76,769.44,874.22,748.43,879.35,735.5Zm11.34-30.16a108.69,108.69,0,0,0-107.24,91l.09.22H788a104.43,104.43,0,0,1,102.69-86.8Zm-36.9,101.94h2.59c4.94,0,7.11,2,7.11,6.39h4.68c-.11-6.94-4.76-10.29-11.84-10.29l.11.14h-7.11v10.4h4.46Zm-12-10.81c2.26-21.62,9.56-47,24.25-63-1.65-.37-3.24-.76-4.77-1.2-12.4,14.18-21.26,37.17-24,64l.11.14Zm84.38,10.81v-3.93h-16v10.57h14.16v-2.21h-9.67v-4.43ZM865.91,44.76l-.12,0a.81.81,0,0,1,.12.14Zm-18.56,6.83c1.4-.75,2.79-1.48,4.41-2.18C836.85,38.22,825.15,20.85,818.82,0h-4.57C820.52,21.47,832.26,39.59,847.35,51.59ZM81.18,124.24a21.26,21.26,0,0,0-5.13-2.79,9.74,9.74,0,0,0,.2,2.43,56.84,56.84,0,0,0,12.34,18.39l2.62,1.06c4.13,1.73,8.22,3.4,12.35,5A54.41,54.41,0,0,1,81.18,124.24ZM865.79,44.79C855.14,33.18,848.41,16.59,844.66,0h-4.48c4.2,19,11.53,35.14,21,46.13A28.77,28.77,0,0,1,865.79,44.79ZM161.86,0l-1.93,5.16A195.06,195.06,0,0,0,283.17,48.49l.14.06c84.58,0,110.3-36.23,161.63-36.23S522,48.55,606.57,48.55A195.13,195.13,0,0,0,729.7,5.22l-2-5.22H723l1.38,3.71A190.91,190.91,0,0,1,606.49,44.09c-83.6,0-109-36.23-161.63-36.23s-78,36.23-161.64,36.23A190.8,190.8,0,0,1,165.31,3.71L166.7,0ZM971.17,796.28c-4.1-29.27-17.78-54.32-36.95-69.56v-.06c-1.37.75-2.79,1.48-4.4,2.18,19,14.26,32.82,38.7,36.92,67.44Zm-11.95,17.5h4.85l-4.41-10.45h-4.85Zm28.06,0V803.33h-4.4v10.45Zm47.63-6.5v-3.93h-16V813.8h14.16v-2.2l-9.67,0v-4.35Zm-36.79-10.95a108.69,108.69,0,0,0-107.21-91v4.38A104.41,104.41,0,0,1,993.66,796.3ZM162.69,204.14v-4.49a190.59,190.59,0,0,1-21.37-.84v26.31a204.72,204.72,0,0,0,22.15.7v-4.24c-5.85,0-11.81,0-17.69-.56v-6.71c4.73.39,9.56.58,14.52.58v-4.26c-4.8,0-9.65-.19-14.52-.59v-6.29C151.94,204.19,157.06,204.25,162.69,204.14Zm540.22,87.91c0,.66,0,1.33,0,2h.39a79.34,79.34,0,0,1-10.14,38.76L729.39,430a195.05,195.05,0,0,1-123.12,43.34c-84.58,0-110.33-36.23-161.64-36.23S367.58,473.37,283,473.37A195.07,195.07,0,0,1,159.85,430l36.23-97.23A79.37,79.37,0,0,1,185.94,294a35.64,35.64,0,1,1,71.25-2c0,.66,0,1.32,0,2a24.51,24.51,0,0,1-24.56,24.48c-.62,0-1.24,0-1.86-.07A25.83,25.83,0,0,0,251.87,331c11.15,0,16.86-4.35,33.8-4.35h2.18v2.2c0,10.9-2.79,19.12-8.11,23.8,19.9-2.5,22.68-15.6,48.43-15.6h2.2v2.2a47.26,47.26,0,0,1-2.78,18.67c18.2-11.48,24-34.05,46.48-34.05h2.2v2.2c0,8.58,0,19.25-6.1,27.67a216.15,216.15,0,0,1,148.51,0c-6-8.36-6.08-19.09-6.08-27.67v-2.2h2.18c22.46,0,28.31,22.57,46.51,34.05a46.73,46.73,0,0,1-2.79-18.67v-2.2h2.18c25.77,0,28.53,13.1,48.43,15.6-5.29-4.68-8.11-12.9-8.11-23.8v-2.2h2.2c16.95,0,22.69,4.35,33.78,4.35a25.8,25.8,0,0,0,21.09-12.57,24.52,24.52,0,0,1-26.34-22.55c-.05-.62-.07-1.24-.07-1.86a35.64,35.64,0,1,1,71.25-2ZM283.17,377c31,0,50.52-8.06,71.2-16.72,14.91-6.16,17.78-15.67,17.86-31.86-20.56,1.7-25.25,27.87-50.16,37.37a78.6,78.6,0,0,1-24,5.3,66,66,0,0,0,12.07-6.24c9.67-2.15,15.69-3.82,16-23.3-24.83.83-25.75,16-53.54,16a64.66,64.66,0,0,1-24.41-4.76,50.57,50.57,0,0,0,15.19-.42c13.93,2.17,19.51-7.19,20.2-21.23-14.71.36-20.23,4.34-31.54,4.34s-21.32-7.1-27.34-19l-2.29-4.52,4.85,1.39a20.11,20.11,0,0,0,24.93-13.72A20.53,20.53,0,0,0,253,294a31.27,31.27,0,0,0-62.51,0C190.62,339.8,232.11,377,283.17,377Zm407.15-39.21c-16.72,26-48.1,43.58-83.88,43.58-66.89,0-81.27-36.23-161.64-36.23s-94.75,36.23-161.63,36.23c-35.81,0-67.14-17.56-83.91-43.58l-34,91a190.76,190.76,0,0,0,117.91,40.38c83.6,0,109-36.23,161.63-36.23s78,36.23,161.64,36.23a190.92,190.92,0,0,0,118-40.38ZM699,294.15a31.26,31.26,0,0,0-62.5,0,20.14,20.14,0,0,0,25.72,19.29l4.85-1.4-2.29,4.52c-6,11.87-16.22,19-27.34,19s-16.72-4-31.54-4.34c.56,14.15,6.16,23.41,20.2,21.23a50.25,50.25,0,0,0,15.19.42,64.64,64.64,0,0,1-24.41,4.77c-27.87,0-28.71-15.16-53.51-16,.25,19.06,5.83,21,16,23.3a64.48,64.48,0,0,0,12.07,6.24,78.49,78.49,0,0,1-24-5.3c-24.8-9.55-29.48-35.67-50.16-37.37,0,16.22,3,25.7,17.86,31.86,20.68,8.55,40.22,16.72,71.23,16.72C657.52,377,699,339.8,699,294.15Zm-31.24-24.5h0a24.52,24.52,0,0,0-24.49,24.5,13.35,13.35,0,0,0,26.67,1.22c0-.41,0-.81,0-1.22V292h-4.38v2.2a9,9,0,0,1-17.92,0,20.12,20.12,0,0,1,40.22,0c0,27.37-18.28,53.59-45.51,65.27-23.94,10.28-48.52,6.63-65.74-9.76-.42-.39-1-1-1.67-1.7a38.92,38.92,0,0,0-7-1.56,49.81,49.81,0,0,0,5.58,6.38c18.39,17.48,44.58,21.69,70.5,10.59,28.82-12.37,48.16-40.21,48.16-69.3A24.51,24.51,0,0,0,667.74,269.65ZM180.17,221.44a6.72,6.72,0,0,1-6.3-2.17l-5.3.64c1.34,4.07,6,6.21,11.62,5.57,7.47-.8,12.29-4.43,12.29-9.22,0-6.41-6-6.86-11.14-7.27-4-.31-7.42-.59-7.42-3.35s2.46-4.12,6.36-4.51c2.56-.25,5.57.25,6.1,2.78,1.2-.25,3.09-.64,5-1.08-1.2-4.52-6.19-6.16-11.15-5.58-7,.76-11.51,4.21-11.51,8.84,0,6.57,7.72,6.85,10.82,7,4.71.3,7.66.72,7.66,3.65C187.16,218.77,184.76,221,180.17,221.44Zm500.9,72.71L681,294a13.35,13.35,0,1,0-26.67-1.22c0,.41,0,.81,0,1.22v2.2h4.38V294a9,9,0,0,1,17.91,0c0,16.72-7.07,32.13-18.92,40.8-16.22,11.93-35.7,7.08-45.42,1.11l-1.62-.19a25.72,25.72,0,0,0,1.34,5.1c13.93,7.52,33.44,8.36,48.32-2.46C673.35,329,681.07,312.4,681.07,294.15Zm-154,42.58v-.08a21.26,21.26,0,0,0-5.13-2.79,10.24,10.24,0,0,0,.19,2.43,57,57,0,0,0,12.35,18.39l2.62,1.06c4.12,1.73,8.22,3.4,12.35,5A54.39,54.39,0,0,1,527.07,336.73Zm296.46-87.28-4.24,1.62,4.91,43.81c1.36-.95,2.78-1.87,4.12-2.79Zm45.78-15.77c-1.45.3-2.78.69-4.34,1.06l1.56,41.63,4.34-.84Zm-23.29,7-4.3,1.61,3.07,41c1.42-.61,2.79-1.2,4.29-1.76ZM208.59,194.47c2.29-.53,5-.48,5.8,1.7,1.36-.5,3.12-1.17,4.74-1.84-1.54-4.18-6.25-4.91-10.59-3.88-6.86,1.65-11.15,5.58-11.15,10.4,0,6.8,7.63,6.13,10.51,6,4.51-.25,7.38-.19,7.41,2.79,0,2-2.31,4.54-6.77,5.57a6.42,6.42,0,0,1-5.58-.83l-5.29,1.08c1.59,3.18,5.57,5.24,10.89,3.93,7.22-1.7,11.85-6,11.82-10.87,0-6.41-5.57-6.35-10.87-6.13-4,.17-7.13.28-7.13-2.53S204.8,195.33,208.59,194.47ZM.84,614.66H4.93v-26.2H.7v19.21c-.23-.27-.47-.53-.7-.79v6.84ZM787.91,371.23a104.44,104.44,0,0,1,102.78-86.55v-4.41a108.7,108.7,0,0,0-107.24,91ZM552,411.56c0,4.15-3.62,8.16-11.73,5.57l-5.57-1.78V426l-4.46-1.67V397c9.14,2.79,11.95,4,13.54,4.6C549.39,403.92,552,406.88,552,411.56Zm-4.49-.78c0-3.12-2.78-4.63-7.66-6.19L534.68,403v8l5.15,1.62c4.63,1.5,7.66,2,7.66-1.87Zm25.56,13.57L580.57,437c-2-.22-3.93-.44-5.85-.72L567.42,424l-5.82-1.12V434l-4.6-1.06V405.82c5.18,1.45,12,2.78,12,2.78,7.33,1.4,10.73,4.41,10.73,9.48,0,4-2.73,5.91-6.63,6.27Zm1.89-6.91h0c0-3-2.11-3.51-6.52-4.35l-6.82-1.36v6.57l7,1.54C571.85,420.45,574.94,420.59,574.94,417.44Zm16.73,9.42c4.73.39,9.55.58,14.51.58v-4.26c-4.79,0-9.64-.2-14.51-.59V416.3c6.15.44,11.28.5,16.91.39V412.2a190.59,190.59,0,0,1-21.37-.84v26.31a204.64,204.64,0,0,0,22.15.7v-4.24c-5.85,0-11.81,0-17.69-.56ZM888.49,231.34V274h2.2V231.34ZM627.17,421.54v0c-4-.31-7.41-.58-7.41-3.34s2.45-4.13,6.35-4.52c2.56-.25,5.57.25,6.1,2.79,1.2-.25,3.1-.64,5-1.09-1.2-4.51-6.19-6.16-11.15-5.57-7,.75-11.51,4.21-11.51,8.83,0,6.58,7.72,6.86,10.82,7.05,4.71.31,7.66.73,7.66,3.65,0,1.95-2.4,4.16-7,4.63a6.74,6.74,0,0,1-6.3-2.17l-5.3.64c1.34,4.07,6,6.21,11.62,5.57,7.47-.81,12.29-4.43,12.29-9.22C638.37,422.4,632.44,422,627.17,421.54ZM6.86,393.61a3.3,3.3,0,0,1-3.61,2.94H3.18a4.59,4.59,0,0,1-3.18-1v4.22a12.56,12.56,0,0,0,3.29.39c4.4,0,8.36-2.23,8.36-6.6S8.5,388,4.65,387C3,386.57,1,386,0,384.82v4.79c.77.26,1.56.5,2.42.74C4.43,390.91,6.77,391.58,6.86,393.61Zm676.57-36.34,29.46,71.57a183.36,183.36,0,0,1-106.32,33.44c-82.85,0-106.4-36.23-161.63-36.23s-78.81,36.23-161.63,36.23A183.41,183.41,0,0,1,177,428.84l29.46-71.57a108.27,108.27,0,0,0,76.89,30.88c68.58,0,83-36.23,161.63-36.23S538,388.15,606.57,388.15a108.3,108.3,0,0,0,76.73-30.77Zm24.05,70-25.69-62.45a112.77,112.77,0,0,1-75.24,27.87c-69.87,0-84.08-36.23-161.64-36.23s-91.77,36.23-161.63,36.23A112.84,112.84,0,0,1,208,364.77l-25.69,62.45a178.84,178.84,0,0,0,100.94,30.65c81.85,0,105.14-36.22,161.63-36.22s79.76,36.22,161.64,36.22a178.84,178.84,0,0,0,100.8-30.54ZM.84,189.67H4.93V163.53H.7v19.2c-.23-.27-.47-.53-.7-.79v6.79Zm673.4,189.56,21.37,47.68a174,174,0,0,1-89,24.28C524.39,451.19,505,415,444.94,415s-79.45,36.23-161.63,36.23a174.08,174.08,0,0,1-89.18-24.28l21.4-47.68a121.47,121.47,0,0,0,67.66,20.18c71.51,0,85.87-36.23,161.64-36.23S535,399.41,606.46,399.41A121.7,121.7,0,0,0,674.24,379.23ZM690,425.07l-17.69-39.4a126.09,126.09,0,0,1-65.72,18.14c-72.45,0-87.11-36.23-161.63-36.23s-89.18,36.23-161.63,36.23a126.14,126.14,0,0,1-65.74-18.14l-17.7,39.4a169.44,169.44,0,0,0,83.44,21.71c81.51,0,100-36.22,161.63-36.22S525,446.78,606.57,446.78a169.42,169.42,0,0,0,83.27-21.71Zm-34.47-10.2h0c-4,.17-7.13.28-7.13-2.53s2.31-4.52,6.1-5.38c2.29-.53,5-.47,5.8,1.7,1.36-.5,3.12-1.17,4.73-1.84-1.53-4.18-6.24-4.9-10.59-3.87-6.85,1.64-11.14,5.57-11.14,10.39,0,6.8,7.63,6.13,10.5,6,4.52-.26,7.39-.2,7.42,2.78,0,2-2.32,4.54-6.78,5.58a6.38,6.38,0,0,1-5.57-.84l-5.29,1.09c1.58,3.17,5.57,5.24,10.89,3.93,7.22-1.7,11.85-6,11.82-10.87C666.35,414.6,660.86,414.65,655.51,414.87ZM2.9,380.85c2.45,0,3.54,1.25,3.68,3.2h4.6c-.2-4.73-3.68-6.69-8.56-6.69A10.46,10.46,0,0,0,0,377.7v4.07A4,4,0,0,1,2.9,380.85ZM801.62,257.14l-4.23,1.26,7.83,53.17c1.26-1.38,2.54-2.71,3.84-4ZM552.18,618.59H547.8a104.28,104.28,0,0,1-205.75,0h-4.46a108.69,108.69,0,0,0,214.59,0Zm88.25,53.7L605,745.19a36.89,36.89,0,0,1,4.79.2l34.64-71.26C643.08,673.52,641.74,672.93,640.43,672.29Zm-4.06,70.4a31.68,31.68,0,0,1-3.24-3.21l-5,8.92c1.57.33,3.07.58,4.57.78Zm78.69-50.64-7,14.52a43.45,43.45,0,0,1,1.54,6.94l10.28-21.18Zm-13.23,70.06L733,692.44h-4.82l-28.59,63.71Zm-84.86-16c1.62.25,3.12.53,4.54.81L628.79,733a30.26,30.26,0,0,1-2.09-5.58ZM442.6,716.77v42.36H447V716.77H442.6Zm40,45.31,6-53.92c-1.53.64-3.06,1.22-4.62,1.81l-5.77,51.44C479.78,761.62,481.23,761.84,482.65,762.08Zm-23.75-2.59,1.65-43.75c-1.48.19-2.93.39-4.43.53l-1.59,43ZM235.18,81.66l-.09,0a13.35,13.35,0,0,0-26.67-1.22c0,.41,0,.82,0,1.22v2.2h4.38v-2.2a9,9,0,0,1,17.92,0c0,16.72-7.08,32.13-18.92,40.8-16.22,11.93-35.7,7.08-45.43,1.12l-1.61-.2a25,25,0,0,0,1.33,5.1c13.94,7.53,33.44,8.36,48.33-2.45C227.46,116.49,235.18,99.91,235.18,81.66ZM890.61,649.75C839.27,649.75,813.55,686,729,686a195.07,195.07,0,0,1-123.15-43.33l36.23-97.23a79.38,79.38,0,0,1-10.14-38.77,35.64,35.64,0,0,1,71.26-2c0,.67,0,1.33,0,2a24.53,24.53,0,0,1-24.57,24.49c-.62,0-1.24,0-1.85-.07a25.79,25.79,0,0,0,21.09,12.56c11.15,0,16.72-4.34,33.81-4.34h2.17v2.2c0,10.9-2.79,19.12-8.11,23.8,19.9-2.51,22.68-15.61,48.43-15.61h2.21v2.2a47.52,47.52,0,0,1-2.79,18.68c18.2-11.49,24-34.06,46.48-34.06h2.21v2.2c0,8.59,0,19.26-6.11,27.68a198,198,0,0,1,74.27-13.16v4.38c-80.37,0-94.75,36.23-161.63,36.23-35.81,0-67.14-17.56-83.91-43.59l-34,91a190.76,190.76,0,0,0,117.91,40.38c83.6,0,109-36.23,161.63-36.23h.2ZM729,589.44c31,0,50.49-8.06,71.15-16.72,14.91-6.16,17.78-15.66,17.87-31.85-20.57,1.7-25.25,27.86-50.17,37.37a78.88,78.88,0,0,1-24,5.29A65.92,65.92,0,0,0,756,577.29c9.68-2.15,15.69-3.82,16-23.3-24.83.84-25.75,16-53.53,16A64.44,64.44,0,0,1,694,565.22a50.19,50.19,0,0,0,15.18-.42c14.08,2.18,19.65-7.19,20.21-21.23-14.72.36-20.23,4.35-31.55,4.35s-21.32-7.11-27.34-19l-2.28-4.52,4.85,1.4A20.11,20.11,0,0,0,698,512.09a19.72,19.72,0,0,0,.8-5.56,31.27,31.27,0,0,0-62.51,0C636.5,552.28,678,589.42,729,589.44ZM691.4,576c26.09,11.15,52.31,6.69,70.51-10.59a52,52,0,0,0,5.57-6.38,36.87,36.87,0,0,0-7,1.56c-.67.7-1.26,1.31-1.67,1.7-17.26,16.38-41.81,20-65.77,9.75-27.2-11.67-45.51-37.9-45.51-65.26a20.12,20.12,0,0,1,40.21,0,9,9,0,0,1-17.92,0v-2.21h-4.37v2.21A13.35,13.35,0,1,0,692.16,508c0-.4,0-.81,0-1.21a24.5,24.5,0,0,0-49-1.66c0,.55,0,1.1,0,1.66C643.25,535.74,662.59,563.58,691.4,576ZM879.32,699.35l1.59-42.47c-1.54.14-3,.28-4.46.5l.11.09-1.67,42.41C876.36,699.69,877.81,699.49,879.32,699.35Zm-448.7,60.14,4.37-.19-1.59-43a34.77,34.77,0,0,1-4.43-.53ZM801,567.34A57.49,57.49,0,0,0,813.33,549c0-.78.16-1.59.22-2.43a20.78,20.78,0,0,0-5.16,2.79,54.29,54.29,0,0,1-22.29,24c4.15-1.59,8.22-3.26,12.35-5ZM667.74,497.7a8.94,8.94,0,0,1,9,8.94v2.21h4.38v-2.21a13.35,13.35,0,0,0-26.67-1.22c0,.41,0,.82,0,1.22,0,18.26,7.72,34.84,20.7,44.37,14.69,10.76,34.11,10.06,48.33,2.45a27.06,27.06,0,0,0,1.3-5.1l-1.61.2c-9.7,5.93-29.18,10.81-45.43-1.12-11.84-8.66-18.92-23.94-18.92-40.8A9,9,0,0,1,667.74,497.7Zm128,250.87c2-2.79,4.13-5.72,6.38-8.36l14.24-63.07-4.9,1.76Zm69.7-47,3.21-42.8c-1.43.33-2.93.83-4.41,1.11l.11.14L861,702.64C862.43,702.25,863.94,701.89,865.44,701.55ZM830,671.9l-4.82,1.87-9.92,53.09c1.73-1.51,3.48-2.93,5.27-4.32Zm6.55,40.3,6.83-45.57-4.71,1.87-7,46.49C833.28,714,834.9,713.12,836.54,712.2Zm14.8-6.55,4.88-43.5-4.57,1.53-4.94,43.78C848.25,706.82,849.78,706.21,851.34,705.65ZM470.8,760.47l3.57-47.38c-1.48.39-3,.72-4.49,1.06l-3.43,46C468,760.2,469.43,760.3,470.8,760.47ZM430.56,19.9h-.06L429,62.4c1.48-.19,2.79-.39,4.43-.53L435,19.4C433.49,19.54,432,19.68,430.56,19.9Zm-12.21,2.48h-.05l-3.23,42.78c1.47-.39,3-.75,4.48-1.09l3.29-42.66A35.26,35.26,0,0,0,418.35,22.38ZM405.81,26.2,400.88,70c1.53-.64,3.07-1.25,4.63-1.81l4.87-43.5Zm-68.3,132.65H342a104.28,104.28,0,0,1,205.52,0H552a108.68,108.68,0,0,0-214.44,0ZM392.77,31l-7,46.48c1.59-.94,3.21-1.86,4.85-2.78l6.83-45.57Zm54.48-11.93h-4.37V61.54h4.37Zm24,3.29c-1.48-.39-3-.78-4.49-1.11l3.21,42.8c1.5.34,3,.7,4.48,1.09Zm600.94,791.37h-4.76l20.87-55.88a79.45,79.45,0,0,1-10.14-38.76,35.64,35.64,0,1,1,71.26-2c0,.66,0,1.33,0,2a24.53,24.53,0,0,1-24.56,24.49c-.62,0-1.24,0-1.86-.08a25.8,25.8,0,0,0,21.09,12.57c11.15,0,16.86-4.35,33.81-4.35H1180v2.2c0,10.9-2.78,19.12-8.11,23.8,19.9-2.5,22.69-15.6,48.44-15.6h2.2v2.2a47.45,47.45,0,0,1-2.79,18.67c18.2-11.48,24-34,46.49-34h2.2v2.2c0,8.58,0,19.25-6.11,27.67a216.25,216.25,0,0,1,110.47-10.09v4.13a216.18,216.18,0,0,0-36-2.82c-80.37,0-94.75,36.23-161.63,36.23-35.82,0-67.14-17.56-83.92-43.58Zm102.89-11.82c31,0,50.53-8,71.21-16.72,15-6.05,17.89-15.55,18-31.74-20.57,1.7-25.25,27.87-50.16,37.37a78.6,78.6,0,0,1-24,5.3,66.05,66.05,0,0,0,12.07-6.25c9.67-2.14,15.69-3.81,16-23.29-24.83.83-25.75,16-53.54,16a64.63,64.63,0,0,1-24.41-4.76,50.9,50.9,0,0,0,15.19-.42c13.93,2.17,19.51-7.19,20.2-21.24-14.71.37-20.23,4.35-31.54,4.35s-21.32-7.1-27.34-19l-2.29-4.51,4.85,1.39A20.1,20.1,0,0,0,1145,719.14a31.26,31.26,0,0,0-62.5,0C1082.48,764.79,1124,801.93,1175.05,801.93ZM269.18,54.57l-7.05,14.52A43.43,43.43,0,0,1,263.66,76l10.28-21.18ZM459,19.87c-1.45-.22-2.92-.36-4.43-.5l1.59,42.47a34.34,34.34,0,0,1,4.43.53Zm-435.82,57c-1.45.31-2.79.56-4.35.81l1.67,45,4.4.45ZM496.77,31l-4.7-1.81,6.79,45.56c1.65.87,3.27,1.79,4.85,2.79ZM160.6,168.83C94,168.83,79.46,132.92,0,132.61v-4.39a197.81,197.81,0,0,1,73.21,13.16c-6-8.36-6.08-19.09-6.08-27.67V111.5h2.18c22.46,0,28.31,22.58,46.51,34.06A46.73,46.73,0,0,1,113,126.89v-2.2h2.18c25.77,0,28.53,13.09,48.43,15.6-5.29-4.68-8.11-12.9-8.11-23.8v-2.2h2.2c17,0,22.69,4.35,33.78,4.35a25.8,25.8,0,0,0,21.09-12.57,24.52,24.52,0,0,1-26.34-22.56c0-.61-.07-1.23-.07-1.85a35.64,35.64,0,1,1,71.25-2c0,.67,0,1.33,0,2h0a79.38,79.38,0,0,1-10.15,38.76l36.23,97.23a195,195,0,0,1-122.95,43.42c-84,0-110-35.71-160.55-36.22v-4.4c51.88.5,77.52,36.22,160.55,36.22a190.85,190.85,0,0,0,118-40.47l-34-91C227.77,151.27,196.39,168.83,160.6,168.83Zm-.22-4.27c51.25-.11,92.72-37.26,92.72-82.9H253a31.27,31.27,0,0,0-62.51,0,20.11,20.11,0,0,0,25.73,19.28l4.84-1.39-2.28,4.51c-6,11.87-16.22,19-27.34,19s-16.72-4-31.55-4.35c.56,14.16,6.16,23.41,20.21,21.24a50.9,50.9,0,0,0,15.19.42,64.71,64.71,0,0,1-24.42,4.76c-27.86,0-28.7-15.16-53.5-16,.25,19.06,5.82,21,16,23.29a64.44,64.44,0,0,0,12.06,6.25,78.78,78.78,0,0,1-24-5.3C96.65,143.8,92,117.69,71.29,116c0,16.22,3,25.69,17.86,31.85C109.83,156.4,129.36,164.56,160.38,164.56Zm61.48-107.4h-.06a24.52,24.52,0,0,0-24.49,24.5A13.34,13.34,0,0,0,224,82.88c0-.41,0-.82,0-1.22v-2.2H219.6v2.2a9,9,0,0,1-17.92,0,20.12,20.12,0,0,1,40.21,0c0,27.36-18.28,53.59-45.5,65.26-23.94,10.29-48.52,6.64-65.74-9.75-.42-.39-1-1-1.68-1.7a38,38,0,0,0-7-1.56,50.42,50.42,0,0,0,5.57,6.38c18.39,17.47,44.59,21.68,70.51,10.59,28.81-12.37,48.15-40.21,48.15-69.31A24.49,24.49,0,0,0,221.86,57.16Zm303.56,338-4.82-2-7.3,6.6-7.69-13.29c-2.12-.78-4.26-1.54-6.47-2.26L509.34,402l-11.14,9.84,4.68,1.73L511.6,406l7.86,13.71,6.66,2.79-10.73-18.75Zm770.22,418.64,1.73-4.8,2.23,4.8h4.68q-2.27-4.6-4.57-9.17c-2,.42-3.79.83-5.66,1.31h.14q-1.5,3.93-3,7.86ZM44.78,70c-1.42.62-2.78,1.2-4.29,1.76l4.1,54.45,4.46,1ZM70.56,105,65.32,58.33c-1.34,1-2.78,1.87-4.09,2.79L66.13,105h4.43Zm48.85,13.15-18.7-100c-1.11,2.07-2.22,4-3.34,6l17.56,94Zm64.66-88.89-5.77-3.35,10.09,29.93A35.9,35.9,0,0,1,191.73,52ZM84.24,41.58q-1.86,2-3.84,4l9.92,66.29a50.44,50.44,0,0,1,5.07,4.27Zm171.7,82.94,31.21-69.67h-4.82l-28.59,63.7ZM277.9,412h0l-8.56,21.35c-1.14-3.18-7.38-19.12-8.94-23.1-2.59-.42-5.18-.95-7.75-1.54l-.19,26.7,4.48.81V414c1.17,3.24,8.06,19.74,9.65,23.61,1.72.17,3.45.33,5.18.45,1.39-3.15,8.53-19.12,9.75-22.44V438.4h4.63V412.2h-2.79C281.3,412.2,279.66,412.12,277.9,412Zm62.37,7.22q4.17,4.63,8.36,9l-4.88,1.56q-4.15-4.26-8.36-8.83c-2.37.61-4.76,1.17-7.16,1.7v11.14l-4.6.95V407.94c2.79-.62,6.83-1.43,12.26-2.79,7.36-2,10.84-.56,10.84,4.49a11.13,11.13,0,0,1-6.6,9.61Zm-4.54-2.62c4.48-1.2,6.24-3.93,6.24-5.35,0-3.15-1.65-2.95-6-1.78-2.54.66-5.05,1.28-7.58,1.84v6.88c2.31-.5,4.76-1.09,7.19-1.59Zm40.71-2.56h.06c-5.74,1.86-7.89-2-7.89-8.06,0-4.82,3.34-11.14,8.19-12.82,3-1,5.83-.72,6.69,2.32l4.29-1.34c-1-5.58-5.74-7.11-11.14-5.35a18.82,18.82,0,0,0-12.49,18.61c0,8.61,4.63,13.35,12.54,10.82a16.31,16.31,0,0,0,11.15-12l-4.63,1.19A10,10,0,0,1,376.44,414.07ZM4.6,812.05c-1.62-.43-3.6-1-4.6-2.12v3.85H9.17A17,17,0,0,0,4.6,812.05Zm294-385c4.93-.33,9.86-.89,14.82-1.64v-4.38c-5,.73-9.89,1.28-14.82,1.65v-6.58q8.61-.61,17.27-2v-4.57a180.71,180.71,0,0,1-21.76,2.37v26.25A218.87,218.87,0,0,0,316.69,436v-4.32a178.87,178.87,0,0,1-18.06,1.75Zm55.15-.56,4.29-1.59v-28l-4.29,1.7Zm93.05-31.32c-5.58-6.47-11.32-12.65-16.95-18.67l-5.1.44v26.51c1.4-.21,2.82-.38,4.27-.51V382.24c5.93,6.41,12,13,17.89,19.93H451V376h-4.24Zm31.91-1.11c4.54,1.08,9,2.34,13.6,3.79v-4.41c-4.55-1.42-9.06-2.78-13.6-3.76v-6.35q7.93,1.56,15.83,3.9v-4.49a161.54,161.54,0,0,0-20.13-4.6V405a161.39,161.39,0,0,1,20.85,5.57V406.1c-5.57-1.84-11.15-3.43-16.55-4.74ZM2.84,805.89c2.45,0,3.54,1.25,3.68,3.21h4.6c-.14-4.8-3.62-6.75-8.5-6.75a10.93,10.93,0,0,0-2.62.33v4.07A4.1,4.1,0,0,1,2.84,805.89Zm404.9-426.27c4.15,8.17,8.36,16.44,12.15,24.58a46.55,46.55,0,0,0-4.71.89l-2.57-5.43a70,70,0,0,0-14.4,4.1l-2.35,6.54-5.57,1.9C394.05,402,398,391.47,402,380.93c1.92-.47,3.76-.89,5.68-1.31Zm3.12,16.25c-1.56-3.23-5.58-11.87-5.58-11.87-.33.94-3.93,10.87-5.35,14.85a70.8,70.8,0,0,1,10.87-3ZM245.52,363.46c26.08,11.15,52.31,6.69,70.5-10.59a53.68,53.68,0,0,0,5.58-6.38,37,37,0,0,0-7,1.56c-.67.69-1.25,1.31-1.67,1.7-17.25,16.38-41.8,20-65.77,9.75-27.2-11.68-45.51-37.9-45.51-65.27a20.12,20.12,0,0,1,40.21,0,9,9,0,0,1-17.92,0V292H219.6v2.2a13.35,13.35,0,1,0,26.67,1.22c0-.4,0-.81,0-1.22a24.49,24.49,0,0,0-49-1.65q0,.82,0,1.65C197.36,323.24,216.7,351.08,245.52,363.46ZM561.23,51.23l47.38,140.53,2.45-6.52L566.14,52.06Zm-324.18,353L248,434.52c-1.76-.39-3.46-.78-5.19-1.22L240,425.8c-4.52-1.42-9.06-3.09-13.57-5l-2.79,6.33c-1.39-.56-2.79-1.06-4.13-1.65l10.93-23.82C232.67,402.58,234.84,403.42,237.05,404.23ZM238.33,421l-5.3-14.6c-.3.78-2.53,5.71-4.79,10.7A101.49,101.49,0,0,0,238.33,421Zm116.79-66.24a57.37,57.37,0,0,0,12.32-18.4c0-.78.17-1.58.22-2.42a20.72,20.72,0,0,0-5.15,2.79,54.37,54.37,0,0,1-22.3,24c4.15-1.59,8.22-3.26,12.35-5ZM588.93,54.54h0l37.15,90.35,2.26-6-34.58-84C592.14,54.85,590.63,54.65,588.93,54.54Zm31.44,0-4.65.28L626,76a43.43,43.43,0,0,1,1.53-6.94Zm-45.2-1.25,42.58,113.84,2.34-6.27L580,53.84Zm693.55,760.46h7.3A10.1,10.1,0,0,0,1268.72,813.78Zm-153.58.05h10.06a137.69,137.69,0,0,1-17.53-9.56l-4.32,9.56h4.82l1.39-3.12C1111.38,811.8,1113.24,812.8,1115.14,813.83ZM221.86,285.2a9,9,0,0,1,8.94,8.95h0v2.2h4.38v-2.2a13.35,13.35,0,0,0-26.67-1.22c0,.41,0,.81,0,1.22,0,18.25,7.72,34.86,20.7,44.37,14.69,10.75,34.11,10.06,48.33,2.45a27.09,27.09,0,0,0,1.31-5.1l-1.62.19c-9.7,5.94-29.18,10.82-45.42-1.11-11.85-8.67-18.93-23.94-18.93-40.8A9,9,0,0,1,221.86,285.2ZM606.44,55.07h-4l31.24,69.67,2.18-5.85L607.35,55.07ZM483.79,26.2l-4.6-1.53,4.88,43.5c1.56.56,3.09,1.17,4.62,1.81Zm748.34,393.05h.14q4.17,4.63,8.36,9l-4.88,1.56q-4.15-4.26-8.36-8.83c-2.37.61-4.77,1.17-7.16,1.7v11.14l-4.6.95V407.94c2.79-.62,6.83-1.43,12.26-2.79,7.36-2,10.84-.56,10.84,4.49A11.15,11.15,0,0,1,1232.13,419.25Zm1.84-8c0-3.15-1.65-2.95-6-1.78-2.54.66-5,1.28-7.59,1.84v6.88c2.32-.5,4.77-1.09,7.19-1.59h.14C1232.21,415.43,1234,412.7,1234,411.28Zm16.08,13.65v-28l-4.3,1.7v27.92Zm-172,30.41c-1.28-.7-2.56-1.39-3.84-2.15l-42.56,94.92c1.39.64,2.79,1.31,3.93,2Zm221.58-75.72h.06c4.15,8.17,8.36,16.44,12.15,24.58a46.55,46.55,0,0,0-4.71.89l-2.57-5.43a70.3,70.3,0,0,0-14.41,4.1l-2.34,6.54-5.57,1.9c3.76-10.2,7.69-20.73,11.7-31.27C1295.92,380.46,1297.76,380,1299.68,379.62Zm-2.4,4.38c-.33.94-3.93,10.87-5.35,14.85a70.49,70.49,0,0,1,10.87-3h.06C1301.3,392.64,1297.28,384,1297.28,384Zm-28.48,9.19c3-1,5.83-.72,6.69,2.32l4.29-1.34c-1-5.58-5.74-7.11-11.15-5.35a18.82,18.82,0,0,0-12.48,18.61c0,8.61,4.63,13.35,12.54,10.82a16.33,16.33,0,0,0,11.15-12l-4.63,1.19a10,10,0,0,1-6.77,6.64h.06c-5.75,1.86-7.89-2-7.89-8.06C1260.61,401.19,1264,394.87,1268.8,393.19Zm-93.5-5a108.25,108.25,0,0,1-76.88-30.88L1069,428.84a183.38,183.38,0,0,0,106.34,33.44c82.83,0,106.4-36.23,161.64-36.23a124,124,0,0,1,35.89,5.36v-4.58a127.4,127.4,0,0,0-35.92-5.18c-56.49,0-79.79,36.22-161.63,36.22a178.81,178.81,0,0,1-100.94-30.65L1100,364.77a112.84,112.84,0,0,0,75.25,27.87c69.86,0,84.07-36.23,161.63-36.23a201.94,201.94,0,0,1,35.92,3v-4.58a207.31,207.31,0,0,0-35.89-2.92C1258.32,351.92,1243.89,388.15,1175.3,388.15ZM1070.59,0,1069,4a183.31,183.31,0,0,0,106.21,33.39l.13,0c82.83,0,106.38-36.23,161.64-36.23a124.28,124.28,0,0,1,35.89,5.36V2Q1369.13.89,1365.3,0h-56.72c-38.66,8.88-66.48,33-133.28,33A178.81,178.81,0,0,1,1074.37,2.34l1-2.34Zm291,95.9h0a74.37,74.37,0,0,1,11.28,16.54v-8.79a72.6,72.6,0,0,0-6.52-8.89C1364.78,95.15,1363.19,95.54,1361.55,95.9ZM1207.88,414.09v-4.57a180.71,180.71,0,0,1-21.76,2.37v26.25a218.87,218.87,0,0,0,22.57-2.11v-4.32a179.16,179.16,0,0,1-18.06,1.75l0-6.38c4.94-.33,9.87-.89,14.83-1.64v-4.38c-5,.73-9.89,1.28-14.83,1.65v-6.58Q1199.21,415.52,1207.88,414.09Zm-32.52,24.31h2.79V412.2h-2.79c-2.06,0-3.71-.08-5.46-.17h0l-8.56,21.35c-1.14-3.18-7.38-19.12-8.94-23.1-2.59-.42-5.19-.95-7.75-1.54l-.2,26.7,4.49.81V414c1.17,3.24,8.06,19.74,9.64,23.61,1.73.17,3.46.33,5.19.45,1.39-3.15,8.52-19.12,9.75-22.44V438.4ZM1115.89,2.21l1-2.21H1112l-.25.56C1113.1,1.15,1114.5,1.65,1115.89,2.21Zm6.58,399.46c2.2.91,4.37,1.75,6.57,2.56l11,30.29c-1.76-.39-3.46-.78-5.19-1.22l-2.78-7.5c-4.52-1.42-9.06-3.09-13.58-5l-2.78,6.33c-1.4-.56-2.79-1.06-4.13-1.65Zm2.56,4.68c-.31.78-2.54,5.71-4.79,10.7a101.49,101.49,0,0,0,10.09,3.9Zm247.8,268.08V665.5a74,74,0,0,1-11.37,16.71c1.65.36,3.24.75,4.77,1.2A72.34,72.34,0,0,0,1372.83,674.43Zm-9.31-55.84-.08,0H1359c-1.34,27.23-5.83,48.49-11.15,61.53,1.56.14,3.07.31,4.57.53C1358.29,666.08,1362.3,644.06,1363.52,618.59ZM1316.76,377v26.51c1.4-.21,2.82-.38,4.27-.51V382.24c5.93,6.41,12,13,17.89,19.93H1343V376h-4.23l0,19.23c-5.58-6.47-11.32-12.65-17-18.67ZM1339,583.84V523.48a40,40,0,0,1-4.38,0v60.36Zm33-414.06v-3.93h-16v20.81h16.49v-3.87h-12v-4.88h9.67V174.1h-9.67v-4.32Zm-37.45,353.7h0ZM1366.42,405c2.15.42,4.28.9,6.41,1.41v-4.56l-2.12-.53v-7.27c.71.16,1.41.34,2.12.52v-4.4c-.71-.17-1.41-.35-2.12-.5v-6.35c.71.13,1.41.29,2.12.44v-4.44c-2.13-.44-4.26-.84-6.41-1.19Zm-191.23-5.63a121.47,121.47,0,0,1-67.66-20.18l-21.4,47.68a174,174,0,0,0,89.17,24.28c82.19,0,101.58-36.23,161.64-36.23a134.32,134.32,0,0,1,35.89,4.77v-4.59a138.25,138.25,0,0,0-35.89-4.58c-61.59,0-80.12,36.22-161.64,36.22a169.41,169.41,0,0,1-83.43-21.71l17.69-39.4a126.19,126.19,0,0,0,65.74,18.14c72.46,0,87.12-36.23,161.64-36.23a187.59,187.59,0,0,1,35.89,3.25v-4.48a193.32,193.32,0,0,0-36-3.17C1261.05,363.18,1246.7,399.41,1175.19,399.41Zm-284.28-331v4.41A108.72,108.72,0,0,0,993.48,0h-4.71A104.43,104.43,0,0,1,890.91,68.36Zm481.92,181.18V240.7a74.08,74.08,0,0,1-11.28,16.55c1.64.37,3.23.76,4.76,1.2A74.43,74.43,0,0,0,1372.83,249.54Zm-14.49,85.55,4.4.44-1.72-46.2c-1.45.31-2.79.56-4.35.81Zm-206.78-93.25-7.63,22.74a45,45,0,0,1,3.31,3.85l10.09-30Q1154.48,240.22,1151.56,241.84Zm.45,81.85v.06l39-130.09h-4.6l-39,130.81A45.07,45.07,0,0,0,1152,323.69Zm-88.93,210c1.62.25,3.12.53,4.54.81l7.28-13.94a29.9,29.9,0,0,1-2.09-5.57Zm133-198.06H1196l29.15-129.95c-.89-3.37-1.59-6.85-2.17-10.37l-32.08,142.94A50.9,50.9,0,0,1,1196.07,335.59Zm12.3-154.15c-.61-2.91-3.29-14.95-3.44-15.54h-6.83c-.14.56-3,15.64-3.15,16.17-.25-2.29-4.23-13.94-5-16.17h-4.4l6.6,20.76H1198c0-.69,3.4-16.3,3.4-16.58l4,16.58h5.88l5.8-20.76h-4.41C1212.08,167.85,1209,178.26,1208.37,181.44Zm-36.69,139c1.45,0,3-.17,4.6-.19l33.25-126.61H1205Zm-106,127.67c-1.25-.81-2.51-1.62-3.73-2.46l-40.69,98.82q2.16.48,4.26,1.17Zm16.92,82a31.58,31.58,0,0,1-3.24-3.2l-5,8.91c1.57.34,3.07.59,4.57.78Zm-72.85,13.07a24.3,24.3,0,0,1,4.57.28l39-104-3.65-2.79ZM1348.17,98h0c7,17.39,10,42,10.92,60.83h4.41c-1.28-25.08-5.27-46.93-10.82-61.31C1351.21,97.68,1349.7,97.88,1348.17,98ZM1086.54,459.8v-.11l-35.44,72.9a38.73,38.73,0,0,1,4.79.19l34.64-71.06C1089.19,461,1087.85,460.44,1086.54,459.8Zm204.58-121.26,4.07-54.45c-1.45-.56-2.78-1.14-4.29-1.76l-4.26,57.22Zm-49-162.24h-.05a10.45,10.45,0,0,1-20.88,1.08,9.73,9.73,0,0,1,0-1.08c0-6.78,4-10.87,10.43-10.87S1242.13,169.52,1242.13,176.3Zm-4,.61c0-.2,0-.41,0-.61h0a6,6,0,1,0,.08.61Zm96.51,114.82v42.36H1339V291.73h-4.37Zm0-98.13v61.06a39.82,39.82,0,0,1,4.37,0V193.6Zm38.23,335.15a74.14,74.14,0,0,0-6.6-9,36.78,36.78,0,0,1-4.68,1.17l-.09,0a74.54,74.54,0,0,1,11.37,16.69Zm-57.71-193.61,1.67-44.95c-1.45-.25-2.79-.5-4.35-.8l-1.72,46.2ZM1250.13,0h-4.29V1.48L1250.13,0Zm-29.32,330.74,17.56-94c-1.17-1.92-2.29-3.9-3.34-5.91l-18.7,99.88Zm24.55-6.35,9.93-66.3c-1.32-1.3-2.61-2.64-3.85-4l-11.15,74.57A54.16,54.16,0,0,1,1245.36,324.39Zm21.07-6.86h3.12l4.94-43.86c-1.4-.89-2.79-1.81-4.13-2.79l-5.1,46.57ZM1087,0l-.85,1.9a174.1,174.1,0,0,0,89.07,24.3h.13c53.72,0,80.59-15.48,109.55-26.2h-12.48c-25,10.08-51,21.71-97.2,21.71A169.44,169.44,0,0,1,1091.73,0H1087Zm262.61,606h.06c.14-4.54-3.15-5.57-7-6.52-2.28-.61-5.32-1.47-5.24-3.84,0-1.68,1.82-2.37,3.49-2.32,2.45,0,3.54,1.29,3.68,3.21h4.59c-.27-4.8-3.76-6.61-8.63-6.61-4.13,0-7.78,2.12-7.92,6.19-.17,4.77,3.51,5.57,7.72,6.86,2,.58,4.35,1.22,4.43,3.26a3.28,3.28,0,0,1-3.61,2.93h-.07c-2.31,0-4-.95-4.29-3.29h-4.62c.36,4.83,4.2,6.89,9,6.89C1345.61,612.6,1349.42,610.37,1349.56,606ZM1056,107.8,1027.76,0h-4.55l28.19,107.8Zm251.26,411.89C1295,534,1286.11,557,1283.35,583.78h4.43c2.26-21.62,9.56-47,24.24-62.95A30.88,30.88,0,0,1,1307.26,519.69Zm27.34-421.2h-.06v60.36h4.38V98.49A38.91,38.91,0,0,1,1334.6,98.49Zm-.09,520.1v61.06a36.87,36.87,0,0,1,4.46,0l-.08,0v-61ZM1075.76,111.2a45.35,45.35,0,0,0,4.79.72L1047.17,0h-4.76Zm180.76,472.61h4.34c4.1-28.73,17.92-53.17,36.92-67.44-1.56-.7-3-1.42-4.4-2.17C1274.33,529.46,1260.56,554.51,1256.52,583.81Zm0,0v0h-.09Zm106.9,0c-1.28-25.08-5.26-46.93-10.81-61.31-1.39.17-2.9.36-4.43.53l-.08-.06c7,17.39,10,42,10.92,60.84ZM1296,611.54V590.78h7.13c7.08,0,11.71,3.34,11.71,10.39s-4.63,10.37-11.71,10.37Zm4.49-4h2.59c4.9,0,7.1-2,7.1-6.36s-2.2-6.38-7.1-6.38h-2.59Zm40.7-423.42H1341c-2.32,0-4-.95-4.3-3.29h-4.59c.36,4.82,4.2,6.88,9,6.88,4.41,0,8.22-2.22,8.36-6.6s-3.15-5.57-7-6.52c-2.29-.61-5.32-1.48-5.24-3.85,0-1.67,1.81-2.37,3.48-2.31,2.45,0,3.54,1.25,3.68,3.2h4.6c-.17-4.79-3.71-6.74-8.5-6.74-4.12,0-7.78,2.12-7.92,6.19-.16,4.76,3.52,5.57,7.72,6.85,2,.56,4.35,1.23,4.44,3.26A3.3,3.3,0,0,1,1341.22,184.11Zm-57.87-25.26s0-.07,0-.11h0ZM1321,97.49l-.11-.06c-5.58,14.44-9.53,36.23-10.82,61.31h4.41c1.39-26.89,5.85-47.91,11-60.84A29.73,29.73,0,0,1,1321,97.49Zm-18.56,89.17v-.11h-7.11V165.79h7.11c7.08,0,11.73,3.34,11.73,10.4S1309.52,186.66,1302.44,186.66Zm7-10.36v-.11c0-4.41-2.17-6.39-7.11-6.39h-2.59v12.74h2.59C1307.32,182.65,1309.49,180.67,1309.49,176.3Zm-26.13-17.56h4.42c2.26-21.63,9.56-47,24.24-62.95-1.64-.37-3.23-.76-4.76-1.2C1295,109,1286.13,132,1283.36,158.74Zm42,96.4V255c-7.05-17.55-10-42.49-11-61.53h-4.4c1.25,25.47,5.24,47.38,10.84,62.06C1322.36,255.5,1323.79,255.27,1325.4,255.14Zm-96-61.65a108.6,108.6,0,0,0,143.38,85.16v-4.39a104.32,104.32,0,0,1-139-80.77ZM1031.62,123.1c1.81.83,3.48,1.72,5.1,2.62L1008.5,0H1004Zm217.09,42.75h9.5c5,0,8.72,1.61,8.72,6.6a6,6,0,0,1-4.79,6.22l5.57,8h-5.23s-4.83-7.33-4.91-7.44h-4.29v7.44h-4.46Zm4.46,9.33h4.93c2.15,0,4.15-.33,4.15-2.78,0-1.87-1.31-2.79-4.07-2.79h-5Zm3.34-16.33s0-.07,0-.11h0Zm0-.11h4.41c4.1-28.73,17.92-53.17,36.93-67.44-1.56-.7-3-1.42-4.41-2.17C1274.34,104.46,1260.59,129.47,1256.53,158.74Zm18.37,432v20.82h15.81v-4H1279.2V590.75Zm17.23-137.36-4.29,1.62,3.06,41c1.42-.61,2.79-1.2,4.29-1.75ZM1269.69,462l-4.23,1.61,4.9,43.81c1.37-.95,2.79-1.87,4.13-2.78Zm45.73-15.86c-1.44.31-2.78.7-4.34,1.06l1.56,41.63L1317,488Zm-67.69,23.6L1243.5,471l7.83,53q1.89-2.05,3.84-4Zm-24.27,132.51a9.73,9.73,0,0,1,0-1.08c0-6.77,4-10.87,10.42-10.87h0c6.47,0,10.45,4.1,10.45,10.87a10.45,10.45,0,1,1-20.87,1.08Zm8.92,6a7.12,7.12,0,0,0,7.84-6.34,6.12,6.12,0,0,0,0-.74,6.45,6.45,0,0,0-5.79-7.07l-.59,0h0a7.13,7.13,0,0,0-1.5,14.19Zm128.75-119.47,1.56-41.64c-1.49-.3-2.92-.68-4.35-1L1356.78,488ZM1053.86,0l-1.93,5.16a195.06,195.06,0,0,0,123.24,43.33l.13.06c84.58,0,110.31-36.23,161.64-36.23a116.13,116.13,0,0,1,35.89,5.94V13.61a119.32,119.32,0,0,0-36-5.75c-52.62,0-78,36.23-161.64,36.23A190.76,190.76,0,0,1,1057.31,3.71L1058.7,0Zm318.61,607.69h-12v-4.87h9.67V599h-9.67v-4.35l11.51,0v-3.9h-16v20.82h16.5Zm-14.18-161.52h0ZM1250,590.72h9.67c5,0,8.75,1.62,8.75,6.61a6.07,6.07,0,0,1-4.82,6.21l5.57,8h-5.29L1259,604.1h-4.26v7.44h-4.49Zm4.49,9.34h4.9c2.15,0,4.15-.34,4.15-2.79,0-1.87-1.28-2.79-4.07-2.79h-5ZM1339,443.91h-4.38v42.45H1339ZM1325.4,680.12c-7.05-17.55-10-42.5-11-61.53h-4.4c1.25,25.47,5.24,47.38,10.84,62.06C1322.36,680.46,1323.79,680.26,1325.4,680.12ZM1321,522.47c-5.58,14.44-9.53,36.23-10.81,61.31h4.4c1.39-26.89,5.85-47.9,11-60.83A39,39,0,0,1,1321,522.47ZM1354.49,499a103.87,103.87,0,0,1,18.34,4.93v-4.67A108.71,108.71,0,0,0,1229.54,584H1234A104.28,104.28,0,0,1,1354.49,499Zm-116.12,42.56L1226,475.18l-4.29.84L1235,547.41C1236.08,545.41,1237.2,543.43,1238.37,541.51Zm55.09,147.39h.06c1.39-.75,2.79-1.48,4.4-2.17-19.17-14.41-33.05-39-37-68.14h-4.43C1260.33,648.19,1274.15,673.52,1293.46,688.9Zm18.56-6.66c-14.79-16-22.09-41.66-24.3-63.65h-4.43c2.79,27.14,11.57,50.41,24,64.85C1308.79,683,1310.38,682.6,1312,682.24Zm-86.8-109.74-21.07-94.06-4.41.56L1223,582.86C1223.63,579.35,1224.32,575.87,1225.22,572.5Zm-24.75,39c0-.7,3.4-16.3,3.37-16.55,0,.19,3.93,16.36,4,16.55h5.88l5.82-20.76h-4.43c-.64,2.15-4.12,13.93-4.38,16.16h-.13c0-.25-3.4-15.49-3.54-16.16h-6.55c0,.56-3,15.63-3.12,16.16-.28-2.28-4.27-13.93-5-16.16H1188l6.6,20.76Zm8.78-27.67L1182.05,480l-4.52.06,27.18,103.81ZM1154.77,479l31.38,104.84h4.57l-31.22-104.4C1157.91,479.33,1156.35,479.17,1154.77,479Zm197.91-223.34c5.58-14.57,9.62-36.59,10.84-62.06h-4.4c-1.34,27.23-5.82,48.49-11.15,61.54C1349.67,255.27,1351.18,255.5,1352.68,255.66ZM890.91,155.17c74.52,0,89.18,36.23,161.64,36.23a126.06,126.06,0,0,0,65.71-18.14l17.69,39.4a169.4,169.4,0,0,1-83.4,21.71c-81.52,0-100.08-36.22-161.64-36.22v4.4c60.06,0,79.45,36.23,161.64,36.23a174,174,0,0,0,89.17-24.36l-21.37-47.68a121.69,121.69,0,0,1-67.8,20.26c-71.51,0-85.89-36.23-161.64-36.23Zm0-33.44h2.18V79.37h-2.18Zm0,22.3c77.56,0,91.77,36.22,161.64,36.22a112.71,112.71,0,0,0,75.24-27.86l25.69,62.45a178.79,178.79,0,0,1-100.91,30.65c-81.87,0-105.17-36.23-161.63-36.23v4.44c55.23,0,78.78,36.22,161.63,36.22a183.3,183.3,0,0,0,106.29-33.44l-29.45-71.56a108.3,108.3,0,0,1-76.86,30.88c-68.59,0-83-36.23-161.64-36.23Zm270.57,16.86,2.34,6.27,42.59-113.84-4.88.52Zm-8.27-22.08,2.25,6.05,37.35-90.32c-1.59,0-3.24.17-4.85.22Zm-134.05,73.05,7.52,12.65c-2-.25-3.92-.48-5.85-.75l-7.3-12.29-5.82-1.12V221.5l-4.6-1.06V193.32c5.18,1.45,11.95,2.93,11.95,2.93,7.33,1.39,10.73,4.4,10.73,9.48C1025.79,209.63,1023.06,211.49,1019.16,211.86Zm1.9-6.91c0-3-2.12-3.52-6.53-4.35l-6.82-1.37v6.58l7,1.53C1018,208,1021.06,208.12,1021.06,205Zm-80.54-30.27v-4.49a159.59,159.59,0,0,0-20.12-4.59v26.86a163.43,163.43,0,0,1,20.84,5.71v-4.51c-5.57-1.84-11.15-3.43-16.55-4.74v-7.41c4.54,1.08,9,2.34,13.6,3.79v-4.4c-4.55-1.43-9.06-2.79-13.6-3.77v-6.35Q932.63,172.43,940.52,174.68Zm40.27,28.09v10.67l-4.46-1.67V184.43c9.14,2.79,11.95,4,13.54,4.6,5.57,2.4,8.22,5.35,8.22,10,0,4.16-3.62,8.17-11.73,5.58Zm0-4.23,5.15,1.61c4.63,1.51,7.67,2,7.67-1.87,0-3.12-2.79-4.62-7.67-6.18l-5.15-1.62Zm189.72-13.27,2.45,6.52,47.38-140.54-4.91.87ZM949.07,201.1l8.72-7.53,7.86,13.72,6.66,2.78L961.5,191.4l9.84-8.61-4.82-2-7.3,6.61-7.56-13.24q-3.17-1.17-6.46-2.26l10.2,17.75-11.15,9.84ZM1149.08,0h-4.41l-.08,10.51,4.49.81Zm-16.83.87L1135,8.36c1.72.45,3.42.84,5.18,1.23L1136.75,0h-7.15Zm148.12,765.25L1266.71,693c-1.78-1.4-3.54-2.79-5.27-4.32l14.69,78.56Zm11.31-2.7-9-60.06c-1.65-.86-3.26-1.78-4.85-2.78l9.53,63.73Zm81.15-24.59-2.53,22.58c.86.12,1.69.26,2.53.39Zm-121.22,6.81-33.28-127h-4.54l33.83,129.22A44.69,44.69,0,0,1,1251.61,745.64Zm-10.34,7.11h-.11l-40-134.16h-4.57l41.16,137.64A48.11,48.11,0,0,1,1241.27,752.75Zm-27.2-593.9h4.54L1248.54,44.4l-4.93,1.47Zm27.87-47.76c2-2.79,4.12-5.72,6.38-8.36l14.16-63.07-4.91,1.76Zm-45.29,47.76h4.6l33-110.55c-1.62.42-3.23.81-4.93,1.17ZM1372.83,39.3V25.21l-1.64-.54ZM1261.44,89.38c1.73-1.51,3.49-2.79,5.27-4.32l9.48-50.64-4.82,1.87Zm1.93,653.14h-.11l-15-67.08q-3.39-4.19-6.38-8.36L1259,743.19A33.61,33.61,0,0,1,1263.37,742.52ZM984.13,683.35l-4.93-1.47,30,114.45h4.54Zm82.07,115-40-107-4.87-.53,42.58,113.84Zm8.25-22-34.58-84.08A35.13,35.13,0,0,1,1035,692l37.15,90.35Zm-20.4,37.51-41.8-124.18-4.91-.86,42.08,125ZM1031,796.44,998.23,687.06c-1.7-.36-3.32-.75-4.93-1.17l33,110.55Zm216.39-16.75a57.33,57.33,0,0,0,12.32-18.39c0-.78.17-1.59.22-2.42a20.63,20.63,0,0,0-5.37,2.84,54.37,54.37,0,0,1-22.3,24c4.15-1.59,8.22-3.26,12.35-5Zm-109.63,8.89c26.09,11.15,52.31,6.69,70.51-10.59a52.26,52.26,0,0,0,5.36-6.42,37.56,37.56,0,0,0-6.7,1.52c-.67.7-1.26,1.31-1.67,1.7-17.25,16.39-41.81,20-65.77,9.75-27.2-11.67-45.51-37.9-45.51-65.26a20.12,20.12,0,0,1,40.21,0,9,9,0,0,1-17.92,0v-2.21h-4.37v2.21a13.35,13.35,0,0,0,26.67,1.22c0-.41,0-.82,0-1.22a24.5,24.5,0,0,0-49-1.66c0,.56,0,1.11,0,1.66C1089.55,748.37,1108.9,776.21,1137.71,788.58Zm98-783.67,4.88-1.56c-1.05-1.1-2.1-2.23-3.15-3.35h-6.43Q1233.4,2.51,1235.75,4.91Zm-22.1,766.56a.86.86,0,0,1-.07.1l.27,0Zm-99.79-61.28h.13a9,9,0,0,1,9,8.95v2.2h4.38v-2.2a13.35,13.35,0,1,0-26.67-1.22c0,.4,0,.81,0,1.22,0,18.25,7.72,34.86,20.7,44.36,14.69,10.76,34.11,10.06,48.33,2.46a28.29,28.29,0,0,0,1.31-5.1l-1.62.19c-9.7,5.94-29.18,10.81-45.43-1.11C1112.1,751.27,1105,736,1105,719.14A9,9,0,0,1,1113.86,710.19ZM1205.6.34V0h-19.34V13.05a218.88,218.88,0,0,0,22.57-2.12V6.61a179.16,179.16,0,0,1-18.06,1.75V2C1195.7,1.65,1200.64,1.09,1205.6.34ZM890.91,187.5l1.92,2.17h4.1V163.53H892.7v19.2c-.62-.72-1.26-1.39-1.87-2.11Zm26.78,609c-1.28-25.08-5.26-46.93-10.81-61.31-1.56,0-3.07.2-4.6.34l.09.14c7,17.38,10,42,10.92,60.83ZM890.83,389.21a37.26,37.26,0,0,0,3.59,1.14c2,.56,4.35,1.23,4.43,3.26a3.29,3.29,0,0,1-3.6,2.94h-.07c-2.32,0-4-1-4.3-3.29v6.16a12.75,12.75,0,0,0,4.41.72c4.4,0,8.36-2.23,8.36-6.6s-3.15-5.58-7-6.52c-2.28-.62-5.32-1.48-5.24-3.85,0-1.67,1.81-2.37,3.49-2.31,2.45,0,3.54,1.25,3.68,3.2h4.59c-.19-4.73-3.67-6.69-8.55-6.69a10.65,10.65,0,0,0-3.79.7Zm209.76-194.74c2.29-.53,5-.48,5.8,1.7,1.36-.5,3.12-1.17,4.73-1.84-1.53-4.18-6.24-4.91-10.59-3.88-6.85,1.65-11.14,5.58-11.14,10.4,0,6.8,7.63,6.13,10.5,6,4.52-.25,7.39-.19,7.42,2.79,0,2-2.32,4.54-6.78,5.57a6.41,6.41,0,0,1-5.57-.83l-5.29,1.08c1.58,3.18,5.57,5.24,10.89,3.93,7.22-1.7,11.85-6,11.82-10.87,0-6.41-5.57-6.35-10.87-6.13-4,.17-7.13.28-7.13-2.53S1096.8,195.33,1100.59,194.47Zm-28.43,27a6.7,6.7,0,0,1-6.29-2.17l-5.3.64c1.34,4.07,6,6.21,11.62,5.57,7.47-.8,12.29-4.43,12.29-9.22,0-6.41-6-6.86-11.14-7.27-4-.31-7.42-.59-7.42-3.35s2.46-4.12,6.36-4.51c2.56-.25,5.57.25,6.1,2.78,1.2-.25,3.09-.64,5-1.08-1.2-4.52-6.19-6.16-11.15-5.58-7,.76-11.51,4.21-11.51,8.84,0,6.57,7.72,6.85,10.81,7,4.71.3,7.67.72,7.67,3.65C1079.16,218.77,1076.76,221,1072.16,221.44Zm-17.47-17.3v-4.49a190.59,190.59,0,0,1-21.37-.84v26.31a204.64,204.64,0,0,0,22.15.7v-4.24c-5.85,0-11.81,0-17.69-.56v-6.71c4.73.39,9.55.58,14.52.58v-4.26c-4.8,0-9.65-.19-14.52-.59v-6.29C1043.93,204.19,1049.06,204.25,1054.69,204.14ZM950.13,813.92h-17V803.47h9.5c5-.14,8.72,1.56,8.72,6.6A6.3,6.3,0,0,1,950.13,813.92Zm-3.54-3.85c0-1.87-1.28-2.79-4-2.79h-5v5.58h4.91C944.61,812.66,946.59,812.33,946.59,810.07Zm31.24-6.74H972.9l-4.21,10.45h4.77Zm-33.41-6.86c-2.79-26.84-11.62-49.83-23.91-64.1-1.62.26-3.21.65-4.85,1l.08.14c14.72,15.94,22,41.35,24.25,63Zm59.11,10.2a4.17,4.17,0,0,1,4.37,3.15h4.85a8.36,8.36,0,0,0-9.22-6.91c-6.19,0-9.9,4.07-9.9,10.87h4.46C998.09,809.37,1000.18,806.67,1003.53,806.67ZM971.26,406c0,.11,0,.21,0,.31h0Zm249-406h-4.6V9.87l4.6-.95ZM937.53,399.1h-4.45V378.28h9.5c4.85,0,8.72,1.7,8.72,6.61a6.07,6.07,0,0,1-4.76,6.26l5.54,8h-5.29l-4.88-7.44h-4.38Zm-.08-11.42h4.91c2.25,0,4.23-.34,4.23-2.74l-.08-.05c0-1.87-1.28-2.79-4-2.79h-5ZM989.37,329q1.75,2.89,3.34,5.91l13.38-71.4-4.29-.83Zm-73.71-20.56c14.71,15.94,22,41.35,24.24,62.95h4.43c-2.78-26.84-11.62-49.83-23.91-64.1C918.89,307.64,917.3,308,915.66,308.45Zm71.62,90.6V378.23h-4.4v20.82Zm-16.11-27.62c-4.1-29.4-17.78-54.46-36.95-69.7v.08c-1.37.76-2.79,1.48-4.4,2.18,19,14.27,32.82,38.71,36.92,67.44ZM328.81,330.74l17.56-94c-1.17-1.92-2.28-3.9-3.34-5.91l-18.7,99.88ZM972.9,378.42l-6.47,16-6.77-16h-4.85l8.78,20.82h5.57l8.76-20.82Zm-1.69,27.87h-4.39c-4,29-17.83,53.73-37,68.14q2.34,1.05,4.4,2.17C953.46,461.11,967.26,435.87,971.21,406.29Zm24.21,143.52,3.34,3.85,77.75-231.06c-.75-2.37-1.56-4.76-2.2-7.21ZM1035,382.16v-3.93h-16v20.82h16.5v-3.88h-12V390.3h9.67v-3.82h-9.67v-4.32Zm-31.46-.48v-.11a4.19,4.19,0,0,1,4.37,3.15h4.85a8.36,8.36,0,0,0-9.22-6.91c-6.19,0-9.9,4.07-9.9,10.87s3.68,10.84,9.81,10.84c5.07,0,9-2.54,9.48-7.61h-4.85a4.28,4.28,0,0,1-4.63,3.87c-3.79,0-5.35-3.37-5.35-7.1C998.09,384.39,1000.18,381.68,1003.53,381.68Zm-17.78,72.88c-2,2.79-4.13,5.71-6.39,8.36L964.29,530a33.79,33.79,0,0,1,4.35.64ZM1002.47,360c.89,3.4,1.59,6.89,2.17,10.4l23.3-103.73-4.4-.44Zm-36.23,116.3c-1.73,1.47-3.48,2.78-5.27,4.32l-13.65,73.1,4.23,1.19ZM936,550.9l4.29,1L949.82,488c-1.58,1-3.2,1.87-4.84,2.78ZM1013.89,406h-4.54L976.08,533a43.91,43.91,0,0,1,4,2.18Zm4.55-34.75H1023l27.17-103.8h-4.52ZM990.12,543.74,1031.17,406h-4.57l-40,134.27C987.81,541.37,989,542.54,990.12,543.74ZM1037,371.23h4.6L1073,266.64c-1.59.17-3.15.34-4.71.45Zm-119.44.06c-1.29-25.08-5.27-46.93-10.82-61.31-1.39.19-2.9.39-4.43.53l-.08-.06c7,17.39,10,42,10.92,60.84Zm241.33,270.15.06.11L1129.46,570a108.29,108.29,0,0,1-76.86,30.88c-68.58,0-83-36.23-161.63-36.23V569c77.55,0,91.77,36.23,161.63,36.23a112.79,112.79,0,0,0,75.25-27.87l25.69,62.45a178.83,178.83,0,0,1-100.91,30.66c-81.88,0-105.17-36.23-161.63-36.23v4.4c55.23,0,78.78,36.23,161.63,36.23A183.36,183.36,0,0,0,1158.86,641.44Zm-86.7,5v.11a6.7,6.7,0,0,1-6.29-2.17l-5.3.64c1.34,4.07,6,6.21,11.62,5.57,7.47-.81,12.29-4.43,12.29-9.22,0-6.41-6-6.86-11.14-7.28-4-.3-7.42-.58-7.42-3.34s2.46-4.12,6.36-4.51c2.56-.26,5.57.25,6.1,2.78,1.2-.25,3.09-.64,5-1.08-1.2-4.52-6.19-6.16-11.15-5.58-7,.75-11.51,4.21-11.51,8.84,0,6.57,7.72,6.85,10.81,7,4.71.3,7.67.72,7.67,3.65C1079.16,643.75,1076.76,646,1072.16,646.43ZM1232.27,762.3l0,0-78.9-234.42c-.61,2.45-1.36,4.85-2.2,7.21l77.75,231C1230,765,1231.24,763.5,1232.27,762.3ZM1100.59,619.45l.06.11c2.28-.52,5-.47,5.79,1.7,1.37-.5,3.12-1.17,4.74-1.83-1.53-4.18-6.24-4.91-10.59-3.88-6.86,1.65-11.15,5.58-11.15,10.4,0,6.8,7.64,6.13,10.51,6,4.51-.25,7.38-.19,7.41,2.79,0,2-2.31,4.54-6.77,5.57a6.37,6.37,0,0,1-5.57-.84l-5.3,1.09c1.59,3.18,5.58,5.24,10.9,3.93,7.22-1.7,11.84-6,11.81-10.87,0-6.41-5.57-6.35-10.86-6.13-4,.17-7.14.28-7.14-2.53S1096.8,620.32,1100.59,619.45Zm-81.43,17.39.06.11,7.52,12.66c-2-.25-3.93-.48-5.85-.76l-7.3-12.29-5.83-1.11V646.6l-4.6-1.06V618.42c5.19,1.45,12,2.79,12,2.79,7.33,1.39,10.73,4.4,10.73,9.47C1025.79,634.5,1023.06,636.48,1019.16,636.84Zm2-6.8c0-3-2.12-3.51-6.52-4.34l-6.83-1.37v6.58l7,1.53c3.15.5,6.25.64,6.25-2.51ZM926.67,395.39h-12v-4.87h9.67v-4h-9.67v-4.32l11.56.22v-3.93H910.17v20.82h16.5Zm279.74,361.73-40.69-98.93c-1.23.84-2.48,1.64-3.74,2.45l40.16,97.54A41.6,41.6,0,0,1,1206.41,757.12ZM893.09,656.41h-2.18v42.47h2.18ZM1163.91,13.07c.79-1.78,3.43-7.7,5.79-13.07h-4.83l-3.39,8.45c-.46-1.28-1.75-4.64-3.23-8.45h-4.75c2.14,5.2,4.4,10.62,5.22,12.63C1160.45,12.8,1162.18,13,1163.91,13.07Zm54,742.57L1178,649.11l-3.66,2.78,39,104C1214.79,755.78,1216.33,755.67,1217.89,755.64Zm-21.91,5-42.55-94.75c-1.28.76-2.57,1.45-3.85,2.15l42.47,94.75A31.2,31.2,0,0,1,1196,760.6ZM1033.32,623.91v26.31a204.64,204.64,0,0,0,22.15.7v-4.24c-5.85,0-11.81,0-17.69-.56v-6.71c4.73.39,9.55.58,14.52.58v-4.37c-4.8,0-9.65-.2-14.52-.59v-6.3c6.15.45,11.28.51,16.91.39v-4.37A190.59,190.59,0,0,1,1033.32,623.91ZM890.91,546.44h2.18V504.16h-2.18Zm26,1.67,3.57-47.37c-1.48.39-3,.72-4.49,1.05l-3.37,45.76A40.44,40.44,0,0,1,916.91,548.11ZM905.07,547l1.64-43.76c-1.47.2-2.78.39-4.43.53l-1.59,43Zm1.73-78.84.05.11c5.58-14.58,9.62-36.59,10.84-62.06h-4.46c-1.33,27.22-5.82,48.49-11.14,61.53A36.17,36.17,0,0,1,906.8,468.16Zm22,81.43,6-53.93c-1.53.64-3.06,1.23-4.62,1.82l-5.77,51.44C925.9,549.12,927.34,549.35,928.76,549.59Zm-37.85,78c60.06,0,79.45,36.23,161.64,36.23a173.91,173.91,0,0,0,89-24.38h.14l-21.37-47.69a121.63,121.63,0,0,1-67.66,20.18c-71.51,0-85.89-36.23-161.64-36.23v4.41c74.52,0,89.18,36.22,161.64,36.22a126,126,0,0,0,65.57-18L1136,637.68a169.51,169.51,0,0,1-83.4,21.71c-81.52,0-100.08-36.23-161.64-36.23Zm49.61-27.81h.14v-4.49a159.59,159.59,0,0,0-20.12-4.59v26.86a163.32,163.32,0,0,1,20.84,5.57v-4.51c-5.57-1.84-11.15-3.43-16.55-4.74v-7.22c4.54,1.09,9,2.35,13.6,3.79V606c-4.55-1.42-9.06-2.79-13.6-3.76v-6.35Q932.63,597.41,940.52,599.75ZM1178.09,13.46V0h-4.43V13.6l1.64-.14Zm-229,612.68,8.72-7.52,7.86,13.71,6.66,2.79L961.5,616.25l9.84-8.61-4.82-2-7.25,6.55L951.72,599c-2.12-.78-4.26-1.53-6.47-2.26l10.2,17.76-11.14,9.83Zm31.63,1.56v10.68l-4.46-1.68V609.42c9.14,2.79,12,4,13.55,4.6,5.57,2.4,8.22,5.35,8.22,10,0,4.15-3.62,8.17-11.73,5.58Zm0-4.23,5.16,1.61c4.62,1.51,7.66,2,7.66-1.86,0-3.13-2.79-4.63-7.66-6.19l-5.16-1.62ZM920.34,470.89c12.49-14.38,21.38-37.65,24-64.91l-.08.06h-4.43c-2.21,22-9.54,47.65-24.31,63.65C917.22,470.05,918.81,470.44,920.34,470.89ZM162.05,813.83l-41.8-124.18-4.9-.86,42.08,125ZM24,701.55c1.5.34,3,.7,4.48,1.09l-3.2-42.78c-1.48-.39-3-.78-4.49-1.11Zm29,10.7c1.64.87,3.26,1.79,4.85,2.79L50.89,668.5l-4.71-1.81ZM0,467H1.09V406H0ZM59.5,672,69,722.65c1.79,1.39,3.54,2.79,5.27,4.32l-9.92-53.09ZM1.09,698.88V656.41H0v42.47Zm91-15.53-4.93-1.47,30,114.45h4.54Zm1.58,65.16L78.11,679l-4.9-1.76,14.16,63A81.89,81.89,0,0,1,93.71,748.51ZM139,796.44,106.23,687.06c-1.7-.36-3.31-.75-4.93-1.17l33.05,110.55Zm-27.42,10.23a4.16,4.16,0,0,1,4.37,3.15h4.85a8.36,8.36,0,0,0-9.22-6.91c-6.19,0-9.9,4.07-9.9,10.87h4.46C106.09,809.37,108.18,806.67,111.53,806.67ZM1.09,736,0,736v60.33H1.09Zm37.06-30.32c1.56.56,3.09,1.17,4.63,1.81L37.9,663.68l-4.63-1.53Zm43-156.42a20.93,20.93,0,0,0-5.13-2.79,9.66,9.66,0,0,0,.2,2.42,57,57,0,0,0,12.34,18.4l2.62,1.06c4.13,1.72,8.22,3.4,12.35,5A54.34,54.34,0,0,1,81.18,549.23Zm140.68-67.08v0a24.52,24.52,0,0,0-24.5,24.49A13.35,13.35,0,1,0,224,507.89c0-.41,0-.81,0-1.22v-2.2h-4.37v2.2a9,9,0,0,1-17.92,0,20.12,20.12,0,0,1,40.21,0c0,27.37-18.28,53.59-45.51,65.27-23.94,10.28-48.52,6.63-65.74-9.76-.42-.39-1-1-1.67-1.69a38.1,38.1,0,0,0-7-1.57,51.4,51.4,0,0,0,5.58,6.39C146,582.78,172.2,587,198.11,575.9c28.82-12.38,48.16-40.22,48.16-69.31A24.49,24.49,0,0,0,221.86,482.15ZM93.75,748.57l0-.06,0,.17ZM235.85,577.4l25.69,62.45a178.83,178.83,0,0,1-100.91,30.66c-81.39,0-104.9-35.79-160.63-36.22v4.4c54.52.44,78.29,36.22,160.63,36.22a183.33,183.33,0,0,0,106.23-33.47l.06.11L237.46,570a108.29,108.29,0,0,1-76.86,30.88C92.32,600.87,77.68,565,0,564.64v4.41c76.64.32,91.05,36.22,160.6,36.22A112.79,112.79,0,0,0,235.85,577.4ZM1.09,504.16H0v42.28H1.09Zm234.09,2.48a13.35,13.35,0,0,0-26.67-1.22c0,.41,0,.82,0,1.22v2.21h4.37v-2.21a9,9,0,0,1,17.92,0c0,16.86-7.08,32.14-18.92,40.8-16.22,11.93-35.7,7.08-45.42,1.12l-1.62-.2a24.42,24.42,0,0,0,1.34,5.1c13.93,7.53,33.44,8.36,48.32-2.45C227.46,541.48,235.18,524.9,235.18,506.64ZM160.66,692.55h-4l31.24,69.67,2.06-5.93-28.48-63.74Zm9.17-.22,10.28,21.18a44.54,44.54,0,0,1,1.53-6.94l-7-14.52ZM0,649.76v-4.41c51.88.5,77.52,36.22,160.55,36.22a190.8,190.8,0,0,0,118-40.38l-34-91c-16.72,26-48.1,43.59-83.89,43.59C94,593.82,79.46,557.91,0,557.59v-4.38a197.81,197.81,0,0,1,73.21,13.16c-6-8.37-6.08-19.09-6.08-27.68v-2.2h2.18c22.46,0,28.31,22.57,46.51,34.06A46.78,46.78,0,0,1,113,551.87v-2.2h2.18c25.77,0,28.53,13.1,48.43,15.61-5.29-4.68-8.11-12.9-8.11-23.8v-2.2h2.2c17,0,22.69,4.34,33.78,4.34a25.79,25.79,0,0,0,21.09-12.56,24.53,24.53,0,0,1-26.34-22.56c0-.62-.07-1.24-.07-1.86a35.64,35.64,0,0,1,71.25-2c0,.66,0,1.33,0,2a79.23,79.23,0,0,1-10.11,38.68l36.34,97.32A195,195,0,0,1,160.55,686C76.57,686,50.58,650.27,0,649.76ZM253.1,506.64H253a31.26,31.26,0,0,0-62.5,0,20.14,20.14,0,0,0,25.72,19.29l4.85-1.39-2.29,4.51c-6,11.87-16.22,19-27.34,19s-16.72-4-31.54-4.35c.55,14.16,6.16,23.41,20.2,21.24a50.57,50.57,0,0,0,15.19.41,64.44,64.44,0,0,1-24.41,4.77c-27.87,0-28.71-15.16-53.51-16,.25,19.06,5.82,21,16,23.3a64.17,64.17,0,0,0,12.07,6.24,78.47,78.47,0,0,1-24-5.29c-24.8-9.56-29.48-35.67-50.16-37.37,0,16.22,3,25.69,17.86,31.85,20.68,8.56,40.22,16.72,71.23,16.72C211.63,589.44,253.1,552.29,253.1,506.64Zm448.11-395a46.09,46.09,0,0,0,4.69-.39l-.09-.34L739.06,0H734.5ZM10.2,699.35c1.5.14,3,.34,4.43.53L13,657.38c-1.45-.22-2.78-.36-4.43-.5ZM750,123.15,777.58,0h-4.5L744.86,125.77C746.47,124.88,748.14,124,750,123.15Zm72.68,482.54v.08c3-1,5.82-.72,6.68,2.31l4.3-1.33c-1-5.58-5.75-7.11-11.15-5.35A18.8,18.8,0,0,0,810,620c0,8.61,4.63,13.35,12.54,10.81a16.29,16.29,0,0,0,11.15-12L829,620a10,10,0,0,1-6.66,6.63c-5.74,1.87-7.88-2-7.88-8C814.44,613.68,817.79,607.25,822.64,605.69ZM803.88,637.4v-28l-4.29,1.7V639Zm44.06-43.89c1.84-.48,3.71-.89,5.57-1.31,4.16,8.16,8.36,16.44,12.15,24.58a44.88,44.88,0,0,0-4.71.89l-2.5-5.46A70.55,70.55,0,0,0,844,616.3l-2.34,6.55-5.58,1.9c3.88-10.26,7.81-20.9,11.82-31.33Zm3.18,3v.08c-.34.95-3.93,10.87-5.35,14.86a71.1,71.1,0,0,1,10.92-3C855.13,605.13,851.12,596.49,851.12,596.49Zm-121-488.89L758.45,0h-4.54L725.57,107.8C727,107.8,728.55,107.63,730.17,107.6ZM786,631.72q4.17,4.63,8.36,9l-4.88,1.57q-4.12-4.27-8.36-8.84c-2.37.61-4.77,1.17-7.16,1.7v11.15l-4.6.95v-26.7c2.79-.61,6.83-1.42,12.26-2.79,7.36-2,10.84-.56,10.84,4.49A11.15,11.15,0,0,1,786,631.72Zm1.7-8v0c0-3.15-1.65-3-6-1.79-2.53.67-5,1.28-7.58,1.84v6.88c2.46-.5,4.91-1,7.33-1.58C786,627.93,787.72,625.19,787.72,623.77Zm103-551.09v-4.4A104.47,104.47,0,0,1,792.84,0h-4.72A108.7,108.7,0,0,0,890.69,72.68ZM729.05,651h2.79v-26.2h-2.79c-1.75,0-3.51,0-5.26-.17L715.23,646c-1.14-3.18-7.38-19.12-8.94-23.1-2.6-.42-5.19-.95-7.75-1.53l-.2,26.69,4.49.81V626.59c1.17,3.23,8,19.73,9.64,23.6,1.73.17,3.46.34,5.19.45,1.39-3.15,8.52-19.12,9.75-22.44V651Zm11-26.5v26.25a218.88,218.88,0,0,0,22.57-2.12v-4.32q-9,1.33-18.06,1.76v-6.39c4.93-.33,9.87-.89,14.83-1.64v-4.38c-5,.73-9.9,1.29-14.83,1.65v-6.58q8.58-.75,17.25-2.17v-4.43A182.76,182.76,0,0,1,740,624.53Zm150.79-1.48c-61.59,0-80.12,36.23-161.63,36.23a169.66,169.66,0,0,1-83.44-21.71l17.58-39.3a126.2,126.2,0,0,0,65.74,18.15c72.46,0,87.12-36.23,161.64-36.23v-4.41c-75.77,0-90.13,36.23-161.64,36.23a121.45,121.45,0,0,1-67.66-20.29h0L640,639.41a174.07,174.07,0,0,0,89.18,24.27c82.18,0,101.52-36.23,161.63-36.23ZM783.26,687,750.54,796.33h4.6l33.05-110.55C786.57,686.2,785,686.59,783.26,687Zm-23,3.85-4.82.75-40.1,106.82,2.34,6.27ZM174.2,798.37l-40-107-4.88-.53,42.58,113.84ZM750,813.78h4c.67-3.32,1.25-6.16,1.25-6.27l1.51,6.27h4c-.92-4.52-2.15-10.06-2.26-10.45H752C752,803.66,750.82,809.23,750,813.78ZM182.45,776.32l-34.58-84.08a34.92,34.92,0,0,1-4.82-.22l37.14,90.35Zm559.4-84.08-34.64,84.28,2.25,6L746.69,692C745.11,692,743.46,692.19,741.85,692.24Zm28.9,111.09h-4.27c-.39,1.31-1.87,6.29-3,10.45H768Zm119.94-6.86V736h-2.2v60.44Zm-1,17.53h1.06V803.19a6,6,0,0,0-4.12,5.57A5.11,5.11,0,0,0,889.74,814Zm1.06-157.68h-2.2v42.61h2.2Zm-88.37,25.56-4.93,1.47-29.63,113h4.55ZM183.76,111.2a46.15,46.15,0,0,0,4.79.72L155.17,0h-4.76ZM369.45,89.38c1.72-1.51,3.48-2.79,5.26-4.32l9.48-50.64-4.82,1.87Zm-47.38,69.47h4.54L356.54,44.4l-4.93,1.47Zm27.87-47.76c2-2.79,4.12-5.72,6.38-8.36l14.16-63.07-4.91,1.76ZM519,39.66l14.16,63q3.39,4.17,6.38,8.36L523.92,41.39Zm-13.62-5.24,9.47,50.64c1.78,1.39,3.54,2.78,5.27,4.32l-9.92-52.95ZM304.65,158.85h4.6L342.3,48.3c-1.61.42-3.23.81-4.93,1.17Zm-43.44-20,2.25,6.05,37.35-90.32c-1.59,0-3.24.17-4.85.22Zm8.27,22.08,2.34,6.27L314.41,53.32l-4.88.52Zm9,24.38,2.46,6.52L328.34,51.25l-4.9.87ZM533.11,44.56l30,114.46h4.55L538.05,46Zm-229,291H304l29.15-129.95c-.89-3.37-1.59-6.85-2.17-10.37L298.91,338.21A52,52,0,0,1,304.07,335.59Zm-219.83-24,8-53.34L88,257.2,80.4,307.61Q82.35,309.56,84.24,311.62Zm195.44,8.78c1.45,0,3-.17,4.6-.19L317.53,193.6H313ZM13.07,547l1.64-43.76c-1.47.2-2.78.39-4.43.53l-1.59,43ZM350.13,176.3h-.05a10.45,10.45,0,0,1-20.88,1.08q0-.54,0-1.08c0-6.78,4-10.87,10.43-10.87S350.13,169.52,350.13,176.3Zm-4,.61c0-.2,0-.41,0-.61H346a6,6,0,1,0,.08.61Zm-29.72,4.53c-.61-2.91-3.29-14.95-3.44-15.54H306.1c-.14.56-3,15.64-3.15,16.17-.25-2.29-4.23-13.94-5-16.17h-4.4l6.61,20.76h5.88c0-.69,3.4-16.3,3.4-16.58l4,16.58h5.88l5.8-20.76H320.7C320.08,167.85,317,178.26,316.37,181.44ZM260,323.69v.06l39-130.09h-4.59l-39,130.81A44.61,44.61,0,0,0,260,323.69ZM590.63,193.6l39,130.09a45.38,45.38,0,0,0,4.79.73l-39-130.82ZM547.19,48.3h0l33.05,110.55h4.6L552.09,49.47C550.42,49.11,548.83,48.72,547.19,48.3Zm77,190.23,10.09,29.93a36,36,0,0,1,3.34-3.85l-7.66-22.74Zm-364.6,3.31-7.63,22.74a43.33,43.33,0,0,1,3.31,3.85l10.09-30C263.44,239.64,261.51,240.76,259.56,241.84ZM164,107.8,135.76,0h-4.55L159.4,107.8ZM25.53,371.29c-1.28-25.08-5.27-46.93-10.82-61.31-1.39.19-2.89.39-4.43.53l-.08-.06c7,17.39,10,42,10.92,60.84Zm55.37,7.13-6.46,16-6.78-16H62.81l8.78,20.82h5.58l8.75-20.82Zm-46.23,17h-12v-4.87h9.67v-4H22.66v-4.32l11.56.22v-3.93h-16v20.82h16.5ZM79.26,406c0,.11,0,.21-.05.31h.05Zm-.05.31H74.83c-4,29-17.84,53.73-37,68.14q2.34,1.05,4.4,2.17C61.47,461.11,75.26,435.87,79.21,406.29ZM14.8,468.16l0,.11c5.58-14.58,9.62-36.59,10.84-62.06H21.24c-1.34,27.22-5.83,48.49-11.15,61.53A36.17,36.17,0,0,1,14.8,468.16Zm22,81.43,6.05-53.93c-1.54.64-3.07,1.23-4.63,1.82l-5.77,51.44C33.9,549.12,35.35,549.35,36.76,549.59Zm-8.42-78.7C40.83,456.51,49.72,433.24,52.39,406l-.08.06H47.88c-2.2,22-9.53,47.65-24.3,63.65C25.22,470.05,26.81,470.44,28.34,470.89Zm-3.43,77.22,3.57-47.37c-1.48.39-3,.72-4.49,1.05l-3.37,45.76A40.44,40.44,0,0,1,24.91,548.11ZM0,497.63A108.67,108.67,0,0,0,106.23,406h-4.46A104.4,104.4,0,0,1,0,493.21ZM65.24,294.9l4.9-43.81L66,249.51l-4.85,42.61C62.51,293,63.93,293.93,65.24,294.9Zm36.42,76.44h4.46A108.67,108.67,0,0,0,0,280.41v4.4A104.4,104.4,0,0,1,101.66,371.34ZM1.09,273.81V231.42H0v42.39Zm0,37.17L0,311v60.33H1.09Zm43.69-27.67,3.07-41-4.29-1.61-3.07,40.82C41.94,282.11,43.28,282.7,44.78,283.31Zm-21.59-7,1.56-41.64c-1.45-.31-2.9-.7-4.35-1l-1.56,41.8Zm.47,32.13c14.71,15.94,22,41.35,24.25,62.95h4.43c-2.79-26.84-11.62-49.83-23.91-64.1C26.89,307.64,25.3,308,23.66,308.45Zm71.62,90.6V378.23h-4.4v20.82ZM79.17,371.43C75.08,342,61.39,317,42.22,301.73v.08c-1.37.76-2.79,1.48-4.4,2.18,19,14.27,32.83,38.71,36.92,67.44Zm597.21,242.7c2.18.92,4.35,1.76,6.55,2.56l11,30.3c-1.75-.39-3.45-.78-5.18-1.23l-2.79-7.5c-4.51-1.42-9-3.09-13.57-5l-2.78,6.32c-1.4-.56-2.79-1.06-4.13-1.64Zm2.54,4.68c-.31.78-2.54,5.72-4.79,10.7,3.37,1.45,6.74,2.79,10.08,3.91ZM45.54,399.1H41.08V378.28h9.5c4.85,0,8.72,1.7,8.72,6.61a6.07,6.07,0,0,1-4.76,6.26l5.54,8H54.79l-4.88-7.44H45.54Zm-.09-11.42h4.91c2.25,0,4.23-.34,4.23-2.74l-.08-.05c0-1.87-1.28-2.79-4-2.79h-5ZM1274.18,165.85v20.81H1290v-3.95H1278.5V166Zm-301,383.38a20.93,20.93,0,0,0-5.13-2.79,9.66,9.66,0,0,0,.2,2.42,57,57,0,0,0,12.34,18.4l2.62,1.06c4.12,1.72,8.22,3.4,12.35,5A54.28,54.28,0,0,1,973.18,549.23Zm154-42.59a13.35,13.35,0,0,0-26.67-1.22c0,.41,0,.82,0,1.22v2.21h4.37v-2.21a9,9,0,0,1,17.92,0c0,16.86-7.08,32.14-18.92,40.8-16.22,11.93-35.7,7.08-45.43,1.12l-1.61-.2a24.42,24.42,0,0,0,1.34,5.1c13.93,7.53,33.44,8.36,48.32-2.45C1119.46,541.48,1127.18,524.9,1127.18,506.64Zm-74.52,185.91h-4l31.24,69.67,2.07-5.93-28.48-63.74ZM1351,19.87c-1.45-.22-2.92-.36-4.43-.5l1.59,42.47a34.77,34.77,0,0,1,4.43.53ZM1113.86,482.15v0a24.51,24.51,0,0,0-24.5,24.49,13.35,13.35,0,1,0,26.67,1.22c0-.41,0-.81,0-1.22v-2.2h-4.38v2.2a9,9,0,0,1-17.92,0,20.12,20.12,0,0,1,40.22,0c0,27.37-18.28,53.59-45.51,65.27-23.94,10.28-48.52,6.63-65.74-9.76-.42-.39-1-1-1.67-1.69a38.1,38.1,0,0,0-7-1.57,50.59,50.59,0,0,0,5.58,6.39c18.39,17.47,44.58,21.68,70.5,10.59,28.82-12.38,48.16-40.22,48.16-69.31A24.49,24.49,0,0,0,1113.86,482.15ZM951.5,672,961,722.65c1.79,1.39,3.54,2.79,5.27,4.32l-9.92-53.09ZM920.42,46c9.41-11,16.79-27,21-46h-4.52c-3.78,16.62-10.55,33.2-21.22,44.76C917.3,45.12,918.89,45.51,920.42,46Zm256.17,699.23-35.45-72.9c-1.31.64-2.79,1.23-4,1.84l34.64,71.26C1173.3,745.28,1174.89,745.22,1176.59,745.19Zm-190.88,3.32L970.11,679l-4.9-1.76,14.15,63A80.53,80.53,0,0,1,985.71,748.51Zm0,.06,0-.06,0,.17Zm189.92-105.93A195.06,195.06,0,0,1,1052.55,686c-84.58,0-110.33-36.22-161.64-36.22v-4.41c52.62,0,78,36.23,161.64,36.23a190.8,190.8,0,0,0,118-40.38l-34-91c-16.72,26-48.1,43.59-83.88,43.59-66.88,0-81.26-36.23-161.63-36.23v-4.38a197.83,197.83,0,0,1,74.24,13.16c-6.05-8.37-6.08-19.09-6.08-27.68v-2.2h2.18c22.46,0,28.31,22.57,46.51,34.06a46.78,46.78,0,0,1-2.79-18.68v-2.2h2.17c25.78,0,28.54,13.1,48.44,15.61-5.3-4.68-8.11-12.9-8.11-23.8v-2.2h2.2c16.94,0,22.69,4.34,33.78,4.34a25.79,25.79,0,0,0,21.09-12.56,24.53,24.53,0,0,1-26.34-22.56c0-.62-.07-1.24-.08-1.86a35.64,35.64,0,0,1,71.26-2c0,.66,0,1.33,0,2a79.34,79.34,0,0,1-10.11,38.68Zm-30.57-136H1145a31.27,31.27,0,0,0-62.51,0,20.14,20.14,0,0,0,25.73,19.29l4.85-1.39-2.29,4.51c-6,11.87-16.22,19-27.34,19s-16.72-4-31.55-4.35c.56,14.16,6.16,23.41,20.21,21.24a50.57,50.57,0,0,0,15.19.41,64.49,64.49,0,0,1-24.42,4.77c-27.86,0-28.7-15.16-53.5-16,.25,19.06,5.82,21,16,23.3a64.39,64.39,0,0,0,12.06,6.24,78.48,78.48,0,0,1-24-5.29c-24.8-9.56-29.49-35.67-50.16-37.37,0,16.22,3,25.69,17.86,31.85,20.68,8.56,40.21,16.72,71.23,16.72C1103.63,589.44,1145.1,552.29,1145.1,506.64Zm.11,236.07,3.65,6.47c1.5-.2,3-.45,4.57-.78l-5-8.92A32.83,32.83,0,0,1,1145.21,742.71Zm217.59,17.76,3.57-47.38c-1.48.39-3,.72-4.49,1.06l-3.43,46C1360,760.2,1361.43,760.3,1362.8,760.47Zm-28.2-43.7v42.36H1339V716.77h-4.37Zm16.3,42.72,1.64-43.75c-1.47.19-2.92.39-4.43.53l-1.58,43Zm21.93-60a104.32,104.32,0,0,1-138.78-80.85h-4.46a108.61,108.61,0,0,0,143.24,85.2ZM945,712.25c1.64.87,3.26,1.79,4.84,2.79l-6.93-46.54-4.71-1.81ZM1363.22,22.38c-1.48-.39-3-.78-4.49-1.11l3.21,42.8c1.5.34,3,.7,4.48,1.09ZM1298.93,762c1.41-.24,2.86-.46,4.34-.67l-5.76-51.44c-1.56-.59-3.1-1.17-4.63-1.81Zm23.68-2.48,4.38-.19-1.59-43a34.77,34.77,0,0,1-4.43-.53Zm-158-13.35-9.72-18.56a31.37,31.37,0,0,1-2.09,5.57l7.3,13.94A34.13,34.13,0,0,1,1164.6,746.14Zm146.12,14.33c1.42-.17,2.78-.31,4.37-.42l-3.46-46c-1.5-.34-3-.67-4.48-1.06Zm-248.89-68.14,10.28,21.18a43.43,43.43,0,0,1,1.53-6.94l-7.05-14.52Zm52-407.13a9,9,0,0,1,8.94,8.95h0v2.2h4.38v-2.2a13.35,13.35,0,0,0-26.67-1.22c0,.41,0,.81,0,1.22,0,18.25,7.72,34.86,20.7,44.37,14.69,10.75,34.11,10.06,48.33,2.45a27.87,27.87,0,0,0,1.31-5.1l-1.62.19c-9.7,5.94-29.18,10.82-45.43-1.11-11.84-8.67-18.92-23.94-18.92-40.8A9,9,0,0,1,1113.86,285.2Zm23.66,78.26c26.08,11.15,52.3,6.69,70.5-10.59a53.68,53.68,0,0,0,5.58-6.38,37,37,0,0,0-7,1.56c-.67.69-1.26,1.31-1.67,1.7-17.25,16.38-41.81,20-65.77,9.75-27.2-11.68-45.51-37.9-45.51-65.27a20.12,20.12,0,0,1,40.21,0,9,9,0,0,1-17.92,0V292h-4.37v2.2a13.35,13.35,0,1,0,26.67,1.22c0-.4,0-.81,0-1.22a24.5,24.5,0,0,0-49-1.65q0,.82,0,1.65C1089.36,323.24,1108.7,351.08,1137.52,363.46Zm109.6-8.75a57.37,57.37,0,0,0,12.32-18.4c0-.78.17-1.58.22-2.42a20.55,20.55,0,0,0-5.15,2.79,54.37,54.37,0,0,1-22.3,24c4.15-1.59,8.22-3.26,12.35-5ZM980,257.2l-7.55,50.41q2,2,3.84,4l8-53.34Zm-22-7.69-4.85,42.61c1.37.89,2.79,1.81,4.1,2.78l4.9-43.81ZM930.15,705.65c1.56.56,3.09,1.17,4.63,1.81l-4.88-43.78-4.63-1.53Zm326.19-512c3.91,29.6,17.73,55,37,70.31,1.39-.75,2.79-1.47,4.4-2.17-19.17-14.41-33-39-37-68.14ZM929.82,49.25c1.56.69,3,1.42,4.4,2.17,15-12,26.77-30,33.06-51.42h-4.59C956.34,20.75,944.67,38.08,929.82,49.25Zm5.74,191.48-3.07,40.82c1.45.56,2.79,1.15,4.29,1.76l3.07-41ZM1051.85,430l36.23-97.23A79.49,79.49,0,0,1,1077.93,294a35.64,35.64,0,1,1,71.26-2c0,.66,0,1.32,0,2a24.52,24.52,0,0,1-24.56,24.48c-.62,0-1.24,0-1.86-.07a25.82,25.82,0,0,0,21.1,12.57c11.15,0,16.86-4.35,33.8-4.35h2.18v2.2c0,10.9-2.79,19.12-8.11,23.8,19.9-2.5,22.68-15.6,48.43-15.6h2.2v2.2a47.26,47.26,0,0,1-2.78,18.67c18.19-11.48,24-34.05,46.48-34.05h2.2v2.2c0,8.58,0,19.25-6.1,27.67a216.21,216.21,0,0,1,110.66-10.06v4.21a216.18,216.18,0,0,0-36-2.82c-80.37,0-94.75,36.23-161.63,36.23-35.82,0-67.14-17.56-83.92-43.58l-34,91a190.76,190.76,0,0,0,117.91,40.38c83.6,0,109-36.23,161.63-36.23a119.3,119.3,0,0,1,36,5.76v4.57a116.55,116.55,0,0,0-36.2-6c-51.3,0-77.05,36.23-161.63,36.23A195.05,195.05,0,0,1,1051.85,430ZM1175.17,377c31,0,50.52-8.06,71.2-16.72,14.91-6.16,17.78-15.67,17.86-31.86-20.57,1.7-25.25,27.87-50.16,37.37a78.6,78.6,0,0,1-24,5.3,66,66,0,0,0,12.07-6.24c9.67-2.15,15.69-3.82,16-23.3-24.83.83-25.75,16-53.54,16a64.63,64.63,0,0,1-24.41-4.76,50.57,50.57,0,0,0,15.19-.42c13.93,2.17,19.51-7.19,20.2-21.23-14.71.36-20.23,4.34-31.54,4.34s-21.32-7.1-27.34-19l-2.29-4.52,4.85,1.39A20.1,20.1,0,0,0,1145,294a31.26,31.26,0,0,0-62.5,0C1082.62,339.8,1124.11,377,1175.17,377ZM1312,257.25c-14.79-16-22.09-41.66-24.3-63.65h-4.43c2.79,27.15,11.57,50.42,24,64.85C1308.79,258,1310.38,257.62,1312,257.25ZM892.83,614.66h4.1v-26.2H892.7v19.21c-.62-.73-1.26-1.4-1.87-2.12l.08,6.94ZM893.09,736l-2.18.06v60.3h2.18Zm9.11-36.62c1.5.14,2.95.34,4.43.53L905,657.38c-1.45-.22-2.79-.36-4.43-.5Zm13.77,2.2c1.5.34,3,.7,4.48,1.09l-3.2-42.78c-1.48-.39-3-.78-4.49-1.11ZM890.91,497.64A108.68,108.68,0,0,0,998.23,406h-4.46a104.43,104.43,0,0,1-102.86,87.26Zm0-266.22v42.39h2.18V231.42Zm0,139.92h2.18V311l-2.18.06ZM912.4,233.68l-1.56,41.8,4.34.84,1.57-41.64C915.3,234.37,913.85,234,912.4,233.68ZM890.91,406v61h2.18V406Zm102.75-34.64h4.46a108.69,108.69,0,0,0-107.21-91v4.41A104.41,104.41,0,0,1,993.66,371.34ZM667.74,72.71a9,9,0,0,1,9,9v2.2h4.38v-2.2a13.35,13.35,0,1,0-26.67-1.22c0,.4,0,.81,0,1.22,0,18.25,7.72,34.83,20.7,44.36,14.69,10.76,34.11,10.06,48.33,2.46a27.46,27.46,0,0,0,1.3-5.1l-1.61.19c-9.7,5.94-29.18,10.81-45.43-1.11-11.84-8.67-18.92-23.94-18.92-40.8A9,9,0,0,1,667.74,72.71ZM829.32,183.12l4.3-1.33c-1-5.58-5.75-7.11-11.15-5.35A18.8,18.8,0,0,0,810,195.05c0,8.61,4.63,13.35,12.54,10.81a16.28,16.28,0,0,0,11.15-12l-4.63,1.2a10,10,0,0,1-6.66,6.63c-5.74,1.87-7.88-2-7.88-8.05-.06-5,3.29-11.37,8.14-12.93v.11C825.62,179.84,828.46,180.09,829.32,183.12Zm61.48,15c-61.59,0-80.12,36.23-161.63,36.23a169.66,169.66,0,0,1-83.44-21.71l17.7-39.41a126.15,126.15,0,0,0,65.62,18.17c72.46,0,87.12-36.23,161.64-36.23v-4.4c-75.77,0-90.13,36.23-161.64,36.23a121.42,121.42,0,0,1-67.66-20.26v0L640,214.48a174.07,174.07,0,0,0,89.18,24.27c82.18,0,101.52-36.23,161.63-36.23ZM628.12,214.87l25.69-62.48a112.82,112.82,0,0,0,75.24,27.86c69.87,0,84.05-36.22,161.64-36.22v-4.41c-78.62,0-93.05,36.23-161.64,36.23a108.23,108.23,0,0,1-76.88-31l-.09-.25-29.37,71.84a183.23,183.23,0,0,0,106.34,33.44c82.83,0,106.38-36.22,161.64-36.22v-4.41c-56.49,0-79.79,36.23-161.64,36.23A178.88,178.88,0,0,1,628.12,214.87ZM879.29,42.64h-.06l.06.16Zm-75.41,170v-28.2l-4.29,1.7V214Zm44.06-44.12c1.84-.47,3.71-.89,5.57-1.31,4.16,8.17,8.36,16.45,12.15,24.58a44.92,44.92,0,0,0-4.71.9l-2.56-5.58a69.94,69.94,0,0,0-14.41,4.1l-2.34,6.55-5.57,1.89c3.93-10.11,7.86-20.65,11.87-31.18Zm3.18,3v.06c-.34.95-3.93,10.87-5.35,14.85a71.1,71.1,0,0,1,10.92-3C855.13,180.25,851.12,171.5,851.12,171.5Zm-122,54.57h2.79V199.76h-2.79c-1.75,0-3.51,0-5.26-.17l-8.56,21.35c-1.14-3.18-7.39-19.12-9-23.1-2.59-.42-5.18-1-7.74-1.53l-.2,26.69,4.49.81V201.52c1.17,3.23,8,19.73,9.64,23.6,1.73.17,3.46.34,5.18.45,1.4-3.15,8.53-19.12,9.76-22.44V226ZM740,199.57v26.25a218.88,218.88,0,0,0,22.57-2.12v-4.32a179.18,179.18,0,0,1-18.06,1.76v-6.39c4.93-.33,9.87-.89,14.83-1.64v-4.37c-5,.72-9.9,1.28-14.83,1.64V203.8q8.58-.78,17.25-2.2v-4.4A180.71,180.71,0,0,1,740,199.57Zm46,7.19v.16q4.17,4.65,8.36,9l-4.88,1.56q-4.12-4.26-8.36-8.83c-2.37.61-4.77,1.17-7.16,1.7v11.15l-4.6.94V195.61c2.79-.61,6.83-1.42,12.26-2.79,7.36-2,10.84-.55,10.84,4.49A11.15,11.15,0,0,1,786,206.76Zm1.69-7.92c0-3-1.69-2.83-6-1.67-2.54.67-5.05,1.28-7.59,1.84v6.88c2.46-.5,4.91-1,7.33-1.59C785.91,203,787.67,200.27,787.71,198.84Zm103-156.62V0h-2.2V42.17ZM705.45,29.35l-.08-.34-7.56,23.05a43.44,43.44,0,0,1,3.32,3.85l10.09-30C709.32,27.15,707.4,28.26,705.45,29.35ZM890.83,224.84c-51.33,0-77.06,36.23-161.64,36.23a195,195,0,0,1-123.14-43.33l36.22-97.23a79.52,79.52,0,0,1-10.14-38.77,35.64,35.64,0,0,1,71.26-2c0,.66,0,1.33,0,2a24.53,24.53,0,0,1-24.56,24.49c-.62,0-1.24,0-1.86-.08a25.8,25.8,0,0,0,21.1,12.57c11.14,0,16.72-4.35,33.8-4.35H734v2.21c0,10.89-2.78,19.11-8.11,23.79,19.9-2.5,22.69-15.6,48.44-15.6h2.2V127a47.45,47.45,0,0,1-2.79,18.67c18.2-11.48,24-34,46.49-34h2.2v2.2c0,8.58,0,19.26-6.11,27.67a198,198,0,0,1,74.27-13.15v4.37c-80.37,0-94.75,36.23-161.63,36.23-35.81,0-67.14-17.56-83.91-43.58l-34,91A190.76,190.76,0,0,0,729,256.67c83.6,0,109-36.23,161.63-36.23l.2,0ZM729.05,164.45l.14.06c31,0,50.53-8.06,71.21-16.72,14.91-6.16,17.78-15.66,17.86-31.86-20.57,1.7-25.25,27.87-50.16,37.38a78.94,78.94,0,0,1-24,5.29,66.25,66.25,0,0,0,12-6.21c9.67-2.15,15.69-3.82,16-23.3-24.83.83-25.75,16-53.54,16a64.63,64.63,0,0,1-24.41-4.76,50.57,50.57,0,0,0,15.19-.42c14.07,2.17,19.65-7.19,20.2-21.23C714.87,119,709.35,123,698,123s-21.32-7.1-27.34-19l-2.29-4.52,4.85,1.39A20.1,20.1,0,0,0,699,81.63a31.26,31.26,0,0,0-62.5,0C636.5,127.3,678,164.45,729.05,164.45ZM866.39,76.7l-1.73,46.2,4.4-.44,1.68-45C869.29,77.25,868,77,866.39,76.7ZM801,142.21a57.49,57.49,0,0,0,12.32-18.39c0-.78.16-1.59.22-2.42a21.08,21.08,0,0,0-5.16,2.78,54.36,54.36,0,0,1-22.29,24c4.15-1.59,8.22-3.26,12.35-5Zm89.9-100.1h2.18V0h-2.18ZM691.4,151c26.09,11.15,52.31,6.69,70.51-10.59a51.23,51.23,0,0,0,5.57-6.38,37.67,37.67,0,0,0-7,1.56c-.67.7-1.26,1.31-1.67,1.7-17.26,16.39-41.81,20-65.77,9.76-27.2-11.68-45.51-37.9-45.51-65.27a20.12,20.12,0,0,1,40.21,0,9,9,0,0,1-17.92,0v-2.2h-4.37v2.2A13.35,13.35,0,1,0,692.16,83c0-.41,0-.81,0-1.22a24.5,24.5,0,1,0-49-1.65q0,.82,0,1.65C643.25,110.75,662.59,138.59,691.4,151Zm174-151c1.92,17.44,5.19,32.4,9.37,43.34a28.34,28.34,0,0,1,4.45-.69c-4.86-12.17-7.76-27.85-9.4-42.65ZM844.79,69.81,840.53,127,845,126l4.07-54.4C847.63,71,846.3,70.43,844.79,69.81ZM792.26,24.19c-1.17-1.92-2.29-3.9-3.35-5.9l-18.69,100h4.48ZM823.44,105l4.94-43.86c-1.4-.9-2.79-1.82-4.13-2.79L819.15,105h4.29ZM799.25,112l9.92-66.3c-1.31-1.3-2.6-2.64-3.84-4l-11.26,74.52a54.11,54.11,0,0,1,5.18-4.27ZM936.78,70c-1.42.62-2.78,1.2-4.29,1.76l4.1,54.45,4.46,1ZM676.38,189.34c2.18.92,4.35,1.75,6.55,2.56l11,30.16c-1.75-.39-3.45-.78-5.18-1.23l-2.79-7.5c-4.51-1.42-9-3.09-13.57-5l-2.78,6.33c-1.4-.56-2.79-1.06-4.13-1.64Zm2.54,4.68c-.31.78-2.54,5.71-4.79,10.7,3.37,1.45,6.74,2.79,10.08,3.9Zm469-69.5,31.21-69.67h-4.82l-28.59,63.7ZM976.24,41.58q-1.86,2-3.84,4l9.92,66.29a50.44,50.44,0,0,1,5.07,4.27Zm99.83-12.31-5.77-3.35,10.09,29.93a35.9,35.9,0,0,1,3.34-3.84Zm-64.66,88.89-18.7-100c-1.11,2.07-2.23,4-3.34,6l17.56,94Zm149.77-63.59-7.06,14.52a42.39,42.39,0,0,1,1.54,6.94l10.28-21.18Zm149.17-32.19h0l-3.24,42.78c1.48-.39,3-.75,4.49-1.09l3.29-42.66A34.89,34.89,0,0,0,1310.35,22.38ZM1284.77,31l-7,46.48c1.59-.94,3.21-1.86,4.85-2.78l6.83-45.57Zm37.79-11.12h-.06L1321,62.4c1.48-.19,2.79-.39,4.43-.53L1327,19.4C1325.49,19.54,1324,19.68,1322.56,19.9Zm-24.75,6.3L1292.88,70c1.53-.64,3.07-1.25,4.63-1.81l4.87-43.5Zm-68.3,132.65H1234a104.23,104.23,0,0,1,138.86-80.09V74.09a108.72,108.72,0,0,0-143.32,84.76Zm-139.45-8c28.81-12.37,48.15-40.21,48.15-69.31a24.49,24.49,0,0,0-24.35-24.41h-.06a24.53,24.53,0,0,0-24.5,24.5A13.35,13.35,0,0,0,1116,82.88c0-.41,0-.82,0-1.22v-2.2h-4.37v2.2a9,9,0,0,1-17.92,0,20.12,20.12,0,0,1,40.21,0c0,27.36-18.28,53.59-45.51,65.26-23.93,10.29-48.51,6.64-65.74-9.75-.41-.39-1-1-1.67-1.7a38.16,38.16,0,0,0-7-1.56,50.42,50.42,0,0,0,5.57,6.38C1037.94,157.76,1064.14,162,1090.06,150.88Zm37.12-69.22-.09,0a13.35,13.35,0,0,0-26.67-1.22c0,.41,0,.82,0,1.22v2.2h4.38v-2.2a9,9,0,0,1,17.92,0c0,16.72-7.08,32.13-18.92,40.8-16.22,11.93-35.7,7.08-45.43,1.12l-1.62-.2a25.72,25.72,0,0,0,1.34,5.1c13.94,7.53,33.44,8.36,48.32-2.45C1119.46,116.49,1127.18,99.91,1127.18,81.66ZM875.61,164.09l-5.1.45V191c1.4-.19,2.82-.35,4.27-.5V169.8c5.29,5.72,10.64,11.62,16,17.76l0-6.92C885.67,175.07,880.6,169.5,875.61,164.09Zm12.88-42.36h2.2V79.46h-2.2Zm94.72,21.6c4.12,1.73,8.22,3.4,12.35,5a54.36,54.36,0,0,1-22.38-24.08,21.26,21.26,0,0,0-5.13-2.79,9.74,9.74,0,0,0,.2,2.43,56.84,56.84,0,0,0,12.34,18.39ZM962.56,105l-5.24-46.68c-1.34,1-2.79,1.87-4.1,2.79L958.13,105h4.43Zm376.69-85.92h-4.37V61.54h4.37ZM915.18,76.89c-1.44.31-2.78.56-4.34.81l1.67,45,4.4.45ZM906.8,43.17c4.14-10.83,7.43-25.76,9.35-43.17h-4.43c-2.07,18.25-5.61,32.79-9.63,42.64C903.79,42.78,905.29,43,906.8,43.17Zm58.41,98.21c-6.05-8.36-6.08-19.09-6.08-27.67V111.5h2.18c22.46,0,28.31,22.58,46.51,34.06a46.73,46.73,0,0,1-2.79-18.67v-2.2h2.17c25.78,0,28.54,13.09,48.44,15.6-5.3-4.68-8.11-12.9-8.11-23.8v-2.2h2.2c16.94,0,22.69,4.35,33.78,4.35a25.8,25.8,0,0,0,21.09-12.57,24.51,24.51,0,0,1-26.34-22.56c0-.61-.07-1.23-.08-1.85a35.64,35.64,0,0,1,71.26-2c0,.67,0,1.33,0,2h0a79.49,79.49,0,0,1-10.15,38.76l36.23,97.23a195,195,0,0,1-123,43.42c-84.58,0-110.33-36.23-161.64-36.23v-4.4c52.62,0,78,36.23,161.64,36.23a190.85,190.85,0,0,0,118-40.47l-34-91c-16.72,26-48.1,43.59-83.88,43.59-66.88,0-81.26-36.23-161.63-36.23v-4.38A198,198,0,0,1,965.21,141.38Zm15.94,6.46c20.68,8.56,40.21,16.72,71.23,16.72,51.25-.11,92.72-37.26,92.72-82.9H1145a31.27,31.27,0,0,0-62.51,0,20.1,20.1,0,0,0,25.72,19.28l4.85-1.39-2.28,4.51c-6,11.87-16.22,19-27.34,19s-16.72-4-31.55-4.35c.56,14.16,6.16,23.41,20.21,21.24a50.9,50.9,0,0,0,15.19.42,64.71,64.71,0,0,1-24.42,4.76c-27.87,0-28.7-15.16-53.5-16,.25,19.06,5.82,21,16,23.29a64.83,64.83,0,0,0,12.07,6.25,78.78,78.78,0,0,1-24-5.3C988.64,143.8,984,117.69,963.28,116,963.28,132.21,966.27,141.68,981.15,147.84Z"/></svg>